M48
; DRILL file {KiCad 9.0.7} date 2026-04-13T16:58:59+0200
; FORMAT={-:-/ absolute / metric / decimal}
; #@! TF.CreationDate,2026-04-13T16:58:59+02:00
; #@! TF.GenerationSoftware,Kicad,Pcbnew,9.0.7
; #@! TF.FileFunction,Plated,1,4,PTH
FMAT,2
METRIC
; #@! TA.AperFunction,Plated,PTH,ViaDrill
T1C0.400
; #@! TA.AperFunction,Plated,PTH,ComponentDrill
T2C1.000
%
G90
G05
T1
X102.8Y-97.8
X102.8Y-99.8
X102.8Y-101.8
X102.8Y-103.8
X102.8Y-105.8
X102.8Y-107.8
X102.8Y-109.8
X102.8Y-111.8
X102.8Y-113.8
X102.8Y-115.8
X102.8Y-117.8
X102.8Y-119.8
X102.8Y-121.8
X103.6Y-96.5
X103.6Y-123.0
X104.1Y-102.2
X104.1Y-107.2
X104.1Y-112.2
X104.1Y-117.2
X105.1Y-95.9
X105.1Y-123.5
X107.1Y-95.9
X107.1Y-123.5
X109.1Y-107.2
X109.1Y-112.2
X109.1Y-117.2
X109.1Y-122.2
X109.1Y-123.5
X111.1Y-123.5
X113.1Y-123.5
X114.1Y-107.2
X114.1Y-112.2
X114.1Y-122.2
X115.1Y-123.5
X117.1Y-123.5
X119.1Y-102.2
X119.1Y-107.2
X119.1Y-112.2
X119.1Y-122.2
X119.1Y-123.5
X121.1Y-123.5
X123.1Y-123.5
X124.1Y-107.2
X124.1Y-112.2
X124.1Y-117.2
X124.1Y-122.2
X125.1Y-123.5
X127.1Y-123.5
X129.1Y-112.2
X129.1Y-122.2
X129.1Y-123.5
X129.75Y-107.0
X131.1Y-123.5
X133.1Y-123.5
X133.812Y-112.025
X134.1Y-107.2
X134.1Y-122.2
X135.1Y-123.5
X137.1Y-123.5
X139.1Y-102.2
X139.1Y-117.2
X139.1Y-122.2
X139.1Y-123.5
X139.4Y-107.225
X139.713Y-104.125
X141.1Y-123.5
X141.228Y-114.6
X143.1Y-123.5
X144.1Y-102.2
X144.1Y-107.2
X144.1Y-112.2
X144.1Y-117.2
X144.1Y-122.2
X145.1Y-123.5
X147.1Y-123.5
X149.1Y-102.2
X149.1Y-107.2
X149.1Y-117.2
X149.1Y-122.2
X149.1Y-123.5
X151.1Y-123.5
X153.1Y-123.5
X154.1Y-102.2
X154.1Y-107.2
X154.1Y-112.2
X154.1Y-117.2
X154.1Y-122.2
X155.1Y-123.5
X157.1Y-123.5
X159.1Y-102.2
X159.1Y-117.2
X159.1Y-122.2
X159.1Y-123.5
X161.1Y-95.9
X161.1Y-123.5
X163.1Y-95.9
X163.1Y-123.5
X164.1Y-102.2
X164.1Y-107.2
X164.1Y-117.2
X164.6Y-96.4
X164.7Y-123.0
X165.4Y-97.7
X165.4Y-99.7
X165.4Y-101.7
X165.4Y-103.7
X165.4Y-105.7
X165.4Y-107.7
X165.4Y-109.7
X165.4Y-111.7
X165.4Y-113.7
X165.4Y-115.7
X165.4Y-117.7
X165.4Y-119.7
X165.4Y-121.7
T2
X109.983Y-96.955
X109.983Y-99.495
X112.522Y-96.955
X112.522Y-99.495
X113.558Y-120.34
X115.062Y-96.955
X115.062Y-99.495
X116.098Y-120.34
X117.602Y-96.955
X117.602Y-99.495
X118.638Y-120.34
X120.142Y-96.955
X120.142Y-99.495
X121.178Y-120.34
X122.682Y-96.955
X122.682Y-99.495
X123.718Y-120.34
X125.222Y-96.955
X125.222Y-99.495
X126.258Y-120.34
X127.762Y-96.955
X127.762Y-99.495
X128.798Y-120.34
X130.302Y-96.955
X130.302Y-99.495
X131.338Y-120.34
X132.843Y-96.955
X132.843Y-99.495
X135.382Y-96.955
X135.382Y-99.495
X137.468Y-120.34
X137.922Y-96.955
X137.922Y-99.495
X140.008Y-120.34
X140.463Y-96.955
X140.463Y-99.495
X142.548Y-120.34
X143.002Y-96.955
X143.002Y-99.495
X145.088Y-120.34
X145.542Y-96.955
X145.542Y-99.495
X147.628Y-120.34
X148.082Y-96.955
X148.082Y-99.495
X150.168Y-120.34
X150.623Y-96.955
X150.623Y-99.495
X152.708Y-120.34
X153.162Y-96.955
X153.162Y-99.495
X155.248Y-120.34
X155.702Y-96.955
X155.702Y-99.495
X158.243Y-96.955
X158.243Y-99.495
X162.227Y-106.115
X162.227Y-108.655
X162.227Y-111.195
X162.227Y-113.735
M30
