%TF.GenerationSoftware,KiCad,Pcbnew,9.0.7*%
%TF.CreationDate,2026-04-13T16:57:23+02:00*%
%TF.ProjectId,PCB_Khess_Module_Payment,5043425f-4b68-4657-9373-5f4d6f64756c,rev?*%
%TF.SameCoordinates,Original*%
%TF.FileFunction,Legend,Top*%
%TF.FilePolarity,Positive*%
%FSLAX46Y46*%
G04 Gerber Fmt 4.6, Leading zero omitted, Abs format (unit mm)*
G04 Created by KiCad (PCBNEW 9.0.7) date 2026-04-13 16:57:23*
%MOMM*%
%LPD*%
G01*
G04 APERTURE LIST*
%ADD10C,0.150000*%
%ADD11C,0.120000*%
%ADD12C,0.127000*%
%ADD13C,0.200000*%
G04 APERTURE END LIST*
D10*
X113486905Y-101754819D02*
X113486905Y-100754819D01*
X113486905Y-100754819D02*
X113725000Y-100754819D01*
X113725000Y-100754819D02*
X113867857Y-100802438D01*
X113867857Y-100802438D02*
X113963095Y-100897676D01*
X113963095Y-100897676D02*
X114010714Y-100992914D01*
X114010714Y-100992914D02*
X114058333Y-101183390D01*
X114058333Y-101183390D02*
X114058333Y-101326247D01*
X114058333Y-101326247D02*
X114010714Y-101516723D01*
X114010714Y-101516723D02*
X113963095Y-101611961D01*
X113963095Y-101611961D02*
X113867857Y-101707200D01*
X113867857Y-101707200D02*
X113725000Y-101754819D01*
X113725000Y-101754819D02*
X113486905Y-101754819D01*
X114391667Y-100754819D02*
X115010714Y-100754819D01*
X115010714Y-100754819D02*
X114677381Y-101135771D01*
X114677381Y-101135771D02*
X114820238Y-101135771D01*
X114820238Y-101135771D02*
X114915476Y-101183390D01*
X114915476Y-101183390D02*
X114963095Y-101231009D01*
X114963095Y-101231009D02*
X115010714Y-101326247D01*
X115010714Y-101326247D02*
X115010714Y-101564342D01*
X115010714Y-101564342D02*
X114963095Y-101659580D01*
X114963095Y-101659580D02*
X114915476Y-101707200D01*
X114915476Y-101707200D02*
X114820238Y-101754819D01*
X114820238Y-101754819D02*
X114534524Y-101754819D01*
X114534524Y-101754819D02*
X114439286Y-101707200D01*
X114439286Y-101707200D02*
X114391667Y-101659580D01*
X155754720Y-116794819D02*
X155754720Y-117509104D01*
X155754720Y-117509104D02*
X155707101Y-117651961D01*
X155707101Y-117651961D02*
X155611863Y-117747200D01*
X155611863Y-117747200D02*
X155469006Y-117794819D01*
X155469006Y-117794819D02*
X155373768Y-117794819D01*
X156659482Y-116794819D02*
X156469006Y-116794819D01*
X156469006Y-116794819D02*
X156373768Y-116842438D01*
X156373768Y-116842438D02*
X156326149Y-116890057D01*
X156326149Y-116890057D02*
X156230911Y-117032914D01*
X156230911Y-117032914D02*
X156183292Y-117223390D01*
X156183292Y-117223390D02*
X156183292Y-117604342D01*
X156183292Y-117604342D02*
X156230911Y-117699580D01*
X156230911Y-117699580D02*
X156278530Y-117747200D01*
X156278530Y-117747200D02*
X156373768Y-117794819D01*
X156373768Y-117794819D02*
X156564244Y-117794819D01*
X156564244Y-117794819D02*
X156659482Y-117747200D01*
X156659482Y-117747200D02*
X156707101Y-117699580D01*
X156707101Y-117699580D02*
X156754720Y-117604342D01*
X156754720Y-117604342D02*
X156754720Y-117366247D01*
X156754720Y-117366247D02*
X156707101Y-117271009D01*
X156707101Y-117271009D02*
X156659482Y-117223390D01*
X156659482Y-117223390D02*
X156564244Y-117175771D01*
X156564244Y-117175771D02*
X156373768Y-117175771D01*
X156373768Y-117175771D02*
X156278530Y-117223390D01*
X156278530Y-117223390D02*
X156230911Y-117271009D01*
X156230911Y-117271009D02*
X156183292Y-117366247D01*
X137917319Y-111855357D02*
X137441128Y-112188690D01*
X137917319Y-112426785D02*
X136917319Y-112426785D01*
X136917319Y-112426785D02*
X136917319Y-112045833D01*
X136917319Y-112045833D02*
X136964938Y-111950595D01*
X136964938Y-111950595D02*
X137012557Y-111902976D01*
X137012557Y-111902976D02*
X137107795Y-111855357D01*
X137107795Y-111855357D02*
X137250652Y-111855357D01*
X137250652Y-111855357D02*
X137345890Y-111902976D01*
X137345890Y-111902976D02*
X137393509Y-111950595D01*
X137393509Y-111950595D02*
X137441128Y-112045833D01*
X137441128Y-112045833D02*
X137441128Y-112426785D01*
X137012557Y-111474404D02*
X136964938Y-111426785D01*
X136964938Y-111426785D02*
X136917319Y-111331547D01*
X136917319Y-111331547D02*
X136917319Y-111093452D01*
X136917319Y-111093452D02*
X136964938Y-110998214D01*
X136964938Y-110998214D02*
X137012557Y-110950595D01*
X137012557Y-110950595D02*
X137107795Y-110902976D01*
X137107795Y-110902976D02*
X137203033Y-110902976D01*
X137203033Y-110902976D02*
X137345890Y-110950595D01*
X137345890Y-110950595D02*
X137917319Y-111522023D01*
X137917319Y-111522023D02*
X137917319Y-110902976D01*
X136917319Y-110283928D02*
X136917319Y-110188690D01*
X136917319Y-110188690D02*
X136964938Y-110093452D01*
X136964938Y-110093452D02*
X137012557Y-110045833D01*
X137012557Y-110045833D02*
X137107795Y-109998214D01*
X137107795Y-109998214D02*
X137298271Y-109950595D01*
X137298271Y-109950595D02*
X137536366Y-109950595D01*
X137536366Y-109950595D02*
X137726842Y-109998214D01*
X137726842Y-109998214D02*
X137822080Y-110045833D01*
X137822080Y-110045833D02*
X137869700Y-110093452D01*
X137869700Y-110093452D02*
X137917319Y-110188690D01*
X137917319Y-110188690D02*
X137917319Y-110283928D01*
X137917319Y-110283928D02*
X137869700Y-110379166D01*
X137869700Y-110379166D02*
X137822080Y-110426785D01*
X137822080Y-110426785D02*
X137726842Y-110474404D01*
X137726842Y-110474404D02*
X137536366Y-110522023D01*
X137536366Y-110522023D02*
X137298271Y-110522023D01*
X137298271Y-110522023D02*
X137107795Y-110474404D01*
X137107795Y-110474404D02*
X137012557Y-110426785D01*
X137012557Y-110426785D02*
X136964938Y-110379166D01*
X136964938Y-110379166D02*
X136917319Y-110283928D01*
X120117080Y-116716666D02*
X120164700Y-116764285D01*
X120164700Y-116764285D02*
X120212319Y-116907142D01*
X120212319Y-116907142D02*
X120212319Y-117002380D01*
X120212319Y-117002380D02*
X120164700Y-117145237D01*
X120164700Y-117145237D02*
X120069461Y-117240475D01*
X120069461Y-117240475D02*
X119974223Y-117288094D01*
X119974223Y-117288094D02*
X119783747Y-117335713D01*
X119783747Y-117335713D02*
X119640890Y-117335713D01*
X119640890Y-117335713D02*
X119450414Y-117288094D01*
X119450414Y-117288094D02*
X119355176Y-117240475D01*
X119355176Y-117240475D02*
X119259938Y-117145237D01*
X119259938Y-117145237D02*
X119212319Y-117002380D01*
X119212319Y-117002380D02*
X119212319Y-116907142D01*
X119212319Y-116907142D02*
X119259938Y-116764285D01*
X119259938Y-116764285D02*
X119307557Y-116716666D01*
X119212319Y-116383332D02*
X119212319Y-115716666D01*
X119212319Y-115716666D02*
X120212319Y-116145237D01*
X144367319Y-117291666D02*
X143891128Y-117624999D01*
X144367319Y-117863094D02*
X143367319Y-117863094D01*
X143367319Y-117863094D02*
X143367319Y-117482142D01*
X143367319Y-117482142D02*
X143414938Y-117386904D01*
X143414938Y-117386904D02*
X143462557Y-117339285D01*
X143462557Y-117339285D02*
X143557795Y-117291666D01*
X143557795Y-117291666D02*
X143700652Y-117291666D01*
X143700652Y-117291666D02*
X143795890Y-117339285D01*
X143795890Y-117339285D02*
X143843509Y-117386904D01*
X143843509Y-117386904D02*
X143891128Y-117482142D01*
X143891128Y-117482142D02*
X143891128Y-117863094D01*
X144367319Y-116339285D02*
X144367319Y-116910713D01*
X144367319Y-116624999D02*
X143367319Y-116624999D01*
X143367319Y-116624999D02*
X143510176Y-116720237D01*
X143510176Y-116720237D02*
X143605414Y-116815475D01*
X143605414Y-116815475D02*
X143653033Y-116910713D01*
X140467319Y-111855357D02*
X139991128Y-112188690D01*
X140467319Y-112426785D02*
X139467319Y-112426785D01*
X139467319Y-112426785D02*
X139467319Y-112045833D01*
X139467319Y-112045833D02*
X139514938Y-111950595D01*
X139514938Y-111950595D02*
X139562557Y-111902976D01*
X139562557Y-111902976D02*
X139657795Y-111855357D01*
X139657795Y-111855357D02*
X139800652Y-111855357D01*
X139800652Y-111855357D02*
X139895890Y-111902976D01*
X139895890Y-111902976D02*
X139943509Y-111950595D01*
X139943509Y-111950595D02*
X139991128Y-112045833D01*
X139991128Y-112045833D02*
X139991128Y-112426785D01*
X140467319Y-110902976D02*
X140467319Y-111474404D01*
X140467319Y-111188690D02*
X139467319Y-111188690D01*
X139467319Y-111188690D02*
X139610176Y-111283928D01*
X139610176Y-111283928D02*
X139705414Y-111379166D01*
X139705414Y-111379166D02*
X139753033Y-111474404D01*
X140467319Y-110426785D02*
X140467319Y-110236309D01*
X140467319Y-110236309D02*
X140419700Y-110141071D01*
X140419700Y-110141071D02*
X140372080Y-110093452D01*
X140372080Y-110093452D02*
X140229223Y-109998214D01*
X140229223Y-109998214D02*
X140038747Y-109950595D01*
X140038747Y-109950595D02*
X139657795Y-109950595D01*
X139657795Y-109950595D02*
X139562557Y-109998214D01*
X139562557Y-109998214D02*
X139514938Y-110045833D01*
X139514938Y-110045833D02*
X139467319Y-110141071D01*
X139467319Y-110141071D02*
X139467319Y-110331547D01*
X139467319Y-110331547D02*
X139514938Y-110426785D01*
X139514938Y-110426785D02*
X139562557Y-110474404D01*
X139562557Y-110474404D02*
X139657795Y-110522023D01*
X139657795Y-110522023D02*
X139895890Y-110522023D01*
X139895890Y-110522023D02*
X139991128Y-110474404D01*
X139991128Y-110474404D02*
X140038747Y-110426785D01*
X140038747Y-110426785D02*
X140086366Y-110331547D01*
X140086366Y-110331547D02*
X140086366Y-110141071D01*
X140086366Y-110141071D02*
X140038747Y-110045833D01*
X140038747Y-110045833D02*
X139991128Y-109998214D01*
X139991128Y-109998214D02*
X139895890Y-109950595D01*
X145542319Y-111855357D02*
X145066128Y-112188690D01*
X145542319Y-112426785D02*
X144542319Y-112426785D01*
X144542319Y-112426785D02*
X144542319Y-112045833D01*
X144542319Y-112045833D02*
X144589938Y-111950595D01*
X144589938Y-111950595D02*
X144637557Y-111902976D01*
X144637557Y-111902976D02*
X144732795Y-111855357D01*
X144732795Y-111855357D02*
X144875652Y-111855357D01*
X144875652Y-111855357D02*
X144970890Y-111902976D01*
X144970890Y-111902976D02*
X145018509Y-111950595D01*
X145018509Y-111950595D02*
X145066128Y-112045833D01*
X145066128Y-112045833D02*
X145066128Y-112426785D01*
X145542319Y-110902976D02*
X145542319Y-111474404D01*
X145542319Y-111188690D02*
X144542319Y-111188690D01*
X144542319Y-111188690D02*
X144685176Y-111283928D01*
X144685176Y-111283928D02*
X144780414Y-111379166D01*
X144780414Y-111379166D02*
X144828033Y-111474404D01*
X144875652Y-110045833D02*
X145542319Y-110045833D01*
X144494700Y-110283928D02*
X145208985Y-110522023D01*
X145208985Y-110522023D02*
X145208985Y-109902976D01*
X141767319Y-117291666D02*
X141291128Y-117624999D01*
X141767319Y-117863094D02*
X140767319Y-117863094D01*
X140767319Y-117863094D02*
X140767319Y-117482142D01*
X140767319Y-117482142D02*
X140814938Y-117386904D01*
X140814938Y-117386904D02*
X140862557Y-117339285D01*
X140862557Y-117339285D02*
X140957795Y-117291666D01*
X140957795Y-117291666D02*
X141100652Y-117291666D01*
X141100652Y-117291666D02*
X141195890Y-117339285D01*
X141195890Y-117339285D02*
X141243509Y-117386904D01*
X141243509Y-117386904D02*
X141291128Y-117482142D01*
X141291128Y-117482142D02*
X141291128Y-117863094D01*
X141100652Y-116434523D02*
X141767319Y-116434523D01*
X140719700Y-116672618D02*
X141433985Y-116910713D01*
X141433985Y-116910713D02*
X141433985Y-116291666D01*
X156269642Y-114239819D02*
X155936309Y-113763628D01*
X155698214Y-114239819D02*
X155698214Y-113239819D01*
X155698214Y-113239819D02*
X156079166Y-113239819D01*
X156079166Y-113239819D02*
X156174404Y-113287438D01*
X156174404Y-113287438D02*
X156222023Y-113335057D01*
X156222023Y-113335057D02*
X156269642Y-113430295D01*
X156269642Y-113430295D02*
X156269642Y-113573152D01*
X156269642Y-113573152D02*
X156222023Y-113668390D01*
X156222023Y-113668390D02*
X156174404Y-113716009D01*
X156174404Y-113716009D02*
X156079166Y-113763628D01*
X156079166Y-113763628D02*
X155698214Y-113763628D01*
X157222023Y-114239819D02*
X156650595Y-114239819D01*
X156936309Y-114239819D02*
X156936309Y-113239819D01*
X156936309Y-113239819D02*
X156841071Y-113382676D01*
X156841071Y-113382676D02*
X156745833Y-113477914D01*
X156745833Y-113477914D02*
X156650595Y-113525533D01*
X158174404Y-114239819D02*
X157602976Y-114239819D01*
X157888690Y-114239819D02*
X157888690Y-113239819D01*
X157888690Y-113239819D02*
X157793452Y-113382676D01*
X157793452Y-113382676D02*
X157698214Y-113477914D01*
X157698214Y-113477914D02*
X157602976Y-113525533D01*
X131544720Y-116794819D02*
X131544720Y-117509104D01*
X131544720Y-117509104D02*
X131497101Y-117651961D01*
X131497101Y-117651961D02*
X131401863Y-117747200D01*
X131401863Y-117747200D02*
X131259006Y-117794819D01*
X131259006Y-117794819D02*
X131163768Y-117794819D01*
X131925673Y-116794819D02*
X132544720Y-116794819D01*
X132544720Y-116794819D02*
X132211387Y-117175771D01*
X132211387Y-117175771D02*
X132354244Y-117175771D01*
X132354244Y-117175771D02*
X132449482Y-117223390D01*
X132449482Y-117223390D02*
X132497101Y-117271009D01*
X132497101Y-117271009D02*
X132544720Y-117366247D01*
X132544720Y-117366247D02*
X132544720Y-117604342D01*
X132544720Y-117604342D02*
X132497101Y-117699580D01*
X132497101Y-117699580D02*
X132449482Y-117747200D01*
X132449482Y-117747200D02*
X132354244Y-117794819D01*
X132354244Y-117794819D02*
X132068530Y-117794819D01*
X132068530Y-117794819D02*
X131973292Y-117747200D01*
X131973292Y-117747200D02*
X131925673Y-117699580D01*
X110728333Y-101504819D02*
X110395000Y-101028628D01*
X110156905Y-101504819D02*
X110156905Y-100504819D01*
X110156905Y-100504819D02*
X110537857Y-100504819D01*
X110537857Y-100504819D02*
X110633095Y-100552438D01*
X110633095Y-100552438D02*
X110680714Y-100600057D01*
X110680714Y-100600057D02*
X110728333Y-100695295D01*
X110728333Y-100695295D02*
X110728333Y-100838152D01*
X110728333Y-100838152D02*
X110680714Y-100933390D01*
X110680714Y-100933390D02*
X110633095Y-100981009D01*
X110633095Y-100981009D02*
X110537857Y-101028628D01*
X110537857Y-101028628D02*
X110156905Y-101028628D01*
X111061667Y-100504819D02*
X111680714Y-100504819D01*
X111680714Y-100504819D02*
X111347381Y-100885771D01*
X111347381Y-100885771D02*
X111490238Y-100885771D01*
X111490238Y-100885771D02*
X111585476Y-100933390D01*
X111585476Y-100933390D02*
X111633095Y-100981009D01*
X111633095Y-100981009D02*
X111680714Y-101076247D01*
X111680714Y-101076247D02*
X111680714Y-101314342D01*
X111680714Y-101314342D02*
X111633095Y-101409580D01*
X111633095Y-101409580D02*
X111585476Y-101457200D01*
X111585476Y-101457200D02*
X111490238Y-101504819D01*
X111490238Y-101504819D02*
X111204524Y-101504819D01*
X111204524Y-101504819D02*
X111109286Y-101457200D01*
X111109286Y-101457200D02*
X111061667Y-101409580D01*
X139267319Y-117391666D02*
X138791128Y-117724999D01*
X139267319Y-117963094D02*
X138267319Y-117963094D01*
X138267319Y-117963094D02*
X138267319Y-117582142D01*
X138267319Y-117582142D02*
X138314938Y-117486904D01*
X138314938Y-117486904D02*
X138362557Y-117439285D01*
X138362557Y-117439285D02*
X138457795Y-117391666D01*
X138457795Y-117391666D02*
X138600652Y-117391666D01*
X138600652Y-117391666D02*
X138695890Y-117439285D01*
X138695890Y-117439285D02*
X138743509Y-117486904D01*
X138743509Y-117486904D02*
X138791128Y-117582142D01*
X138791128Y-117582142D02*
X138791128Y-117963094D01*
X138267319Y-116486904D02*
X138267319Y-116963094D01*
X138267319Y-116963094D02*
X138743509Y-117010713D01*
X138743509Y-117010713D02*
X138695890Y-116963094D01*
X138695890Y-116963094D02*
X138648271Y-116867856D01*
X138648271Y-116867856D02*
X138648271Y-116629761D01*
X138648271Y-116629761D02*
X138695890Y-116534523D01*
X138695890Y-116534523D02*
X138743509Y-116486904D01*
X138743509Y-116486904D02*
X138838747Y-116439285D01*
X138838747Y-116439285D02*
X139076842Y-116439285D01*
X139076842Y-116439285D02*
X139172080Y-116486904D01*
X139172080Y-116486904D02*
X139219700Y-116534523D01*
X139219700Y-116534523D02*
X139267319Y-116629761D01*
X139267319Y-116629761D02*
X139267319Y-116867856D01*
X139267319Y-116867856D02*
X139219700Y-116963094D01*
X139219700Y-116963094D02*
X139172080Y-117010713D01*
X110695833Y-107229819D02*
X110362500Y-106753628D01*
X110124405Y-107229819D02*
X110124405Y-106229819D01*
X110124405Y-106229819D02*
X110505357Y-106229819D01*
X110505357Y-106229819D02*
X110600595Y-106277438D01*
X110600595Y-106277438D02*
X110648214Y-106325057D01*
X110648214Y-106325057D02*
X110695833Y-106420295D01*
X110695833Y-106420295D02*
X110695833Y-106563152D01*
X110695833Y-106563152D02*
X110648214Y-106658390D01*
X110648214Y-106658390D02*
X110600595Y-106706009D01*
X110600595Y-106706009D02*
X110505357Y-106753628D01*
X110505357Y-106753628D02*
X110124405Y-106753628D01*
X111076786Y-106325057D02*
X111124405Y-106277438D01*
X111124405Y-106277438D02*
X111219643Y-106229819D01*
X111219643Y-106229819D02*
X111457738Y-106229819D01*
X111457738Y-106229819D02*
X111552976Y-106277438D01*
X111552976Y-106277438D02*
X111600595Y-106325057D01*
X111600595Y-106325057D02*
X111648214Y-106420295D01*
X111648214Y-106420295D02*
X111648214Y-106515533D01*
X111648214Y-106515533D02*
X111600595Y-106658390D01*
X111600595Y-106658390D02*
X111029167Y-107229819D01*
X111029167Y-107229819D02*
X111648214Y-107229819D01*
X136767319Y-117391666D02*
X136291128Y-117724999D01*
X136767319Y-117963094D02*
X135767319Y-117963094D01*
X135767319Y-117963094D02*
X135767319Y-117582142D01*
X135767319Y-117582142D02*
X135814938Y-117486904D01*
X135814938Y-117486904D02*
X135862557Y-117439285D01*
X135862557Y-117439285D02*
X135957795Y-117391666D01*
X135957795Y-117391666D02*
X136100652Y-117391666D01*
X136100652Y-117391666D02*
X136195890Y-117439285D01*
X136195890Y-117439285D02*
X136243509Y-117486904D01*
X136243509Y-117486904D02*
X136291128Y-117582142D01*
X136291128Y-117582142D02*
X136291128Y-117963094D01*
X135767319Y-116534523D02*
X135767319Y-116724999D01*
X135767319Y-116724999D02*
X135814938Y-116820237D01*
X135814938Y-116820237D02*
X135862557Y-116867856D01*
X135862557Y-116867856D02*
X136005414Y-116963094D01*
X136005414Y-116963094D02*
X136195890Y-117010713D01*
X136195890Y-117010713D02*
X136576842Y-117010713D01*
X136576842Y-117010713D02*
X136672080Y-116963094D01*
X136672080Y-116963094D02*
X136719700Y-116915475D01*
X136719700Y-116915475D02*
X136767319Y-116820237D01*
X136767319Y-116820237D02*
X136767319Y-116629761D01*
X136767319Y-116629761D02*
X136719700Y-116534523D01*
X136719700Y-116534523D02*
X136672080Y-116486904D01*
X136672080Y-116486904D02*
X136576842Y-116439285D01*
X136576842Y-116439285D02*
X136338747Y-116439285D01*
X136338747Y-116439285D02*
X136243509Y-116486904D01*
X136243509Y-116486904D02*
X136195890Y-116534523D01*
X136195890Y-116534523D02*
X136148271Y-116629761D01*
X136148271Y-116629761D02*
X136148271Y-116820237D01*
X136148271Y-116820237D02*
X136195890Y-116915475D01*
X136195890Y-116915475D02*
X136243509Y-116963094D01*
X136243509Y-116963094D02*
X136338747Y-117010713D01*
X156169642Y-111674819D02*
X155836309Y-111198628D01*
X155598214Y-111674819D02*
X155598214Y-110674819D01*
X155598214Y-110674819D02*
X155979166Y-110674819D01*
X155979166Y-110674819D02*
X156074404Y-110722438D01*
X156074404Y-110722438D02*
X156122023Y-110770057D01*
X156122023Y-110770057D02*
X156169642Y-110865295D01*
X156169642Y-110865295D02*
X156169642Y-111008152D01*
X156169642Y-111008152D02*
X156122023Y-111103390D01*
X156122023Y-111103390D02*
X156074404Y-111151009D01*
X156074404Y-111151009D02*
X155979166Y-111198628D01*
X155979166Y-111198628D02*
X155598214Y-111198628D01*
X157122023Y-111674819D02*
X156550595Y-111674819D01*
X156836309Y-111674819D02*
X156836309Y-110674819D01*
X156836309Y-110674819D02*
X156741071Y-110817676D01*
X156741071Y-110817676D02*
X156645833Y-110912914D01*
X156645833Y-110912914D02*
X156550595Y-110960533D01*
X157741071Y-110674819D02*
X157836309Y-110674819D01*
X157836309Y-110674819D02*
X157931547Y-110722438D01*
X157931547Y-110722438D02*
X157979166Y-110770057D01*
X157979166Y-110770057D02*
X158026785Y-110865295D01*
X158026785Y-110865295D02*
X158074404Y-111055771D01*
X158074404Y-111055771D02*
X158074404Y-111293866D01*
X158074404Y-111293866D02*
X158026785Y-111484342D01*
X158026785Y-111484342D02*
X157979166Y-111579580D01*
X157979166Y-111579580D02*
X157931547Y-111627200D01*
X157931547Y-111627200D02*
X157836309Y-111674819D01*
X157836309Y-111674819D02*
X157741071Y-111674819D01*
X157741071Y-111674819D02*
X157645833Y-111627200D01*
X157645833Y-111627200D02*
X157598214Y-111579580D01*
X157598214Y-111579580D02*
X157550595Y-111484342D01*
X157550595Y-111484342D02*
X157502976Y-111293866D01*
X157502976Y-111293866D02*
X157502976Y-111055771D01*
X157502976Y-111055771D02*
X157550595Y-110865295D01*
X157550595Y-110865295D02*
X157598214Y-110770057D01*
X157598214Y-110770057D02*
X157645833Y-110722438D01*
X157645833Y-110722438D02*
X157741071Y-110674819D01*
X103780155Y-91962604D02*
X103780155Y-92773657D01*
X103780155Y-92773657D02*
X103827864Y-92869075D01*
X103827864Y-92869075D02*
X103875573Y-92916785D01*
X103875573Y-92916785D02*
X103970991Y-92964494D01*
X103970991Y-92964494D02*
X104161827Y-92964494D01*
X104161827Y-92964494D02*
X104257245Y-92916785D01*
X104257245Y-92916785D02*
X104304954Y-92869075D01*
X104304954Y-92869075D02*
X104352663Y-92773657D01*
X104352663Y-92773657D02*
X104352663Y-91962604D01*
X105354553Y-92964494D02*
X104782045Y-92964494D01*
X105068299Y-92964494D02*
X105068299Y-91962604D01*
X105068299Y-91962604D02*
X104972881Y-92105731D01*
X104972881Y-92105731D02*
X104877463Y-92201149D01*
X104877463Y-92201149D02*
X104782045Y-92248858D01*
X113474405Y-106884819D02*
X113474405Y-105884819D01*
X113474405Y-105884819D02*
X113712500Y-105884819D01*
X113712500Y-105884819D02*
X113855357Y-105932438D01*
X113855357Y-105932438D02*
X113950595Y-106027676D01*
X113950595Y-106027676D02*
X113998214Y-106122914D01*
X113998214Y-106122914D02*
X114045833Y-106313390D01*
X114045833Y-106313390D02*
X114045833Y-106456247D01*
X114045833Y-106456247D02*
X113998214Y-106646723D01*
X113998214Y-106646723D02*
X113950595Y-106741961D01*
X113950595Y-106741961D02*
X113855357Y-106837200D01*
X113855357Y-106837200D02*
X113712500Y-106884819D01*
X113712500Y-106884819D02*
X113474405Y-106884819D01*
X114426786Y-105980057D02*
X114474405Y-105932438D01*
X114474405Y-105932438D02*
X114569643Y-105884819D01*
X114569643Y-105884819D02*
X114807738Y-105884819D01*
X114807738Y-105884819D02*
X114902976Y-105932438D01*
X114902976Y-105932438D02*
X114950595Y-105980057D01*
X114950595Y-105980057D02*
X114998214Y-106075295D01*
X114998214Y-106075295D02*
X114998214Y-106170533D01*
X114998214Y-106170533D02*
X114950595Y-106313390D01*
X114950595Y-106313390D02*
X114379167Y-106884819D01*
X114379167Y-106884819D02*
X114998214Y-106884819D01*
X160879166Y-102779819D02*
X160879166Y-103494104D01*
X160879166Y-103494104D02*
X160831547Y-103636961D01*
X160831547Y-103636961D02*
X160736309Y-103732200D01*
X160736309Y-103732200D02*
X160593452Y-103779819D01*
X160593452Y-103779819D02*
X160498214Y-103779819D01*
X161783928Y-103113152D02*
X161783928Y-103779819D01*
X161545833Y-102732200D02*
X161307738Y-103446485D01*
X161307738Y-103446485D02*
X161926785Y-103446485D01*
X109172080Y-107641666D02*
X109219700Y-107689285D01*
X109219700Y-107689285D02*
X109267319Y-107832142D01*
X109267319Y-107832142D02*
X109267319Y-107927380D01*
X109267319Y-107927380D02*
X109219700Y-108070237D01*
X109219700Y-108070237D02*
X109124461Y-108165475D01*
X109124461Y-108165475D02*
X109029223Y-108213094D01*
X109029223Y-108213094D02*
X108838747Y-108260713D01*
X108838747Y-108260713D02*
X108695890Y-108260713D01*
X108695890Y-108260713D02*
X108505414Y-108213094D01*
X108505414Y-108213094D02*
X108410176Y-108165475D01*
X108410176Y-108165475D02*
X108314938Y-108070237D01*
X108314938Y-108070237D02*
X108267319Y-107927380D01*
X108267319Y-107927380D02*
X108267319Y-107832142D01*
X108267319Y-107832142D02*
X108314938Y-107689285D01*
X108314938Y-107689285D02*
X108362557Y-107641666D01*
X108267319Y-106736904D02*
X108267319Y-107213094D01*
X108267319Y-107213094D02*
X108743509Y-107260713D01*
X108743509Y-107260713D02*
X108695890Y-107213094D01*
X108695890Y-107213094D02*
X108648271Y-107117856D01*
X108648271Y-107117856D02*
X108648271Y-106879761D01*
X108648271Y-106879761D02*
X108695890Y-106784523D01*
X108695890Y-106784523D02*
X108743509Y-106736904D01*
X108743509Y-106736904D02*
X108838747Y-106689285D01*
X108838747Y-106689285D02*
X109076842Y-106689285D01*
X109076842Y-106689285D02*
X109172080Y-106736904D01*
X109172080Y-106736904D02*
X109219700Y-106784523D01*
X109219700Y-106784523D02*
X109267319Y-106879761D01*
X109267319Y-106879761D02*
X109267319Y-107117856D01*
X109267319Y-107117856D02*
X109219700Y-107213094D01*
X109219700Y-107213094D02*
X109172080Y-107260713D01*
X142992319Y-111855357D02*
X142516128Y-112188690D01*
X142992319Y-112426785D02*
X141992319Y-112426785D01*
X141992319Y-112426785D02*
X141992319Y-112045833D01*
X141992319Y-112045833D02*
X142039938Y-111950595D01*
X142039938Y-111950595D02*
X142087557Y-111902976D01*
X142087557Y-111902976D02*
X142182795Y-111855357D01*
X142182795Y-111855357D02*
X142325652Y-111855357D01*
X142325652Y-111855357D02*
X142420890Y-111902976D01*
X142420890Y-111902976D02*
X142468509Y-111950595D01*
X142468509Y-111950595D02*
X142516128Y-112045833D01*
X142516128Y-112045833D02*
X142516128Y-112426785D01*
X142992319Y-110902976D02*
X142992319Y-111474404D01*
X142992319Y-111188690D02*
X141992319Y-111188690D01*
X141992319Y-111188690D02*
X142135176Y-111283928D01*
X142135176Y-111283928D02*
X142230414Y-111379166D01*
X142230414Y-111379166D02*
X142278033Y-111474404D01*
X141992319Y-109998214D02*
X141992319Y-110474404D01*
X141992319Y-110474404D02*
X142468509Y-110522023D01*
X142468509Y-110522023D02*
X142420890Y-110474404D01*
X142420890Y-110474404D02*
X142373271Y-110379166D01*
X142373271Y-110379166D02*
X142373271Y-110141071D01*
X142373271Y-110141071D02*
X142420890Y-110045833D01*
X142420890Y-110045833D02*
X142468509Y-109998214D01*
X142468509Y-109998214D02*
X142563747Y-109950595D01*
X142563747Y-109950595D02*
X142801842Y-109950595D01*
X142801842Y-109950595D02*
X142897080Y-109998214D01*
X142897080Y-109998214D02*
X142944700Y-110045833D01*
X142944700Y-110045833D02*
X142992319Y-110141071D01*
X142992319Y-110141071D02*
X142992319Y-110379166D01*
X142992319Y-110379166D02*
X142944700Y-110474404D01*
X142944700Y-110474404D02*
X142897080Y-110522023D01*
X105111905Y-110029819D02*
X105111905Y-109029819D01*
X105111905Y-109029819D02*
X105350000Y-109029819D01*
X105350000Y-109029819D02*
X105492857Y-109077438D01*
X105492857Y-109077438D02*
X105588095Y-109172676D01*
X105588095Y-109172676D02*
X105635714Y-109267914D01*
X105635714Y-109267914D02*
X105683333Y-109458390D01*
X105683333Y-109458390D02*
X105683333Y-109601247D01*
X105683333Y-109601247D02*
X105635714Y-109791723D01*
X105635714Y-109791723D02*
X105588095Y-109886961D01*
X105588095Y-109886961D02*
X105492857Y-109982200D01*
X105492857Y-109982200D02*
X105350000Y-110029819D01*
X105350000Y-110029819D02*
X105111905Y-110029819D01*
X106635714Y-110029819D02*
X106064286Y-110029819D01*
X106350000Y-110029819D02*
X106350000Y-109029819D01*
X106350000Y-109029819D02*
X106254762Y-109172676D01*
X106254762Y-109172676D02*
X106159524Y-109267914D01*
X106159524Y-109267914D02*
X106064286Y-109315533D01*
X155310833Y-106499580D02*
X155263214Y-106547200D01*
X155263214Y-106547200D02*
X155120357Y-106594819D01*
X155120357Y-106594819D02*
X155025119Y-106594819D01*
X155025119Y-106594819D02*
X154882262Y-106547200D01*
X154882262Y-106547200D02*
X154787024Y-106451961D01*
X154787024Y-106451961D02*
X154739405Y-106356723D01*
X154739405Y-106356723D02*
X154691786Y-106166247D01*
X154691786Y-106166247D02*
X154691786Y-106023390D01*
X154691786Y-106023390D02*
X154739405Y-105832914D01*
X154739405Y-105832914D02*
X154787024Y-105737676D01*
X154787024Y-105737676D02*
X154882262Y-105642438D01*
X154882262Y-105642438D02*
X155025119Y-105594819D01*
X155025119Y-105594819D02*
X155120357Y-105594819D01*
X155120357Y-105594819D02*
X155263214Y-105642438D01*
X155263214Y-105642438D02*
X155310833Y-105690057D01*
X156167976Y-105594819D02*
X155977500Y-105594819D01*
X155977500Y-105594819D02*
X155882262Y-105642438D01*
X155882262Y-105642438D02*
X155834643Y-105690057D01*
X155834643Y-105690057D02*
X155739405Y-105832914D01*
X155739405Y-105832914D02*
X155691786Y-106023390D01*
X155691786Y-106023390D02*
X155691786Y-106404342D01*
X155691786Y-106404342D02*
X155739405Y-106499580D01*
X155739405Y-106499580D02*
X155787024Y-106547200D01*
X155787024Y-106547200D02*
X155882262Y-106594819D01*
X155882262Y-106594819D02*
X156072738Y-106594819D01*
X156072738Y-106594819D02*
X156167976Y-106547200D01*
X156167976Y-106547200D02*
X156215595Y-106499580D01*
X156215595Y-106499580D02*
X156263214Y-106404342D01*
X156263214Y-106404342D02*
X156263214Y-106166247D01*
X156263214Y-106166247D02*
X156215595Y-106071009D01*
X156215595Y-106071009D02*
X156167976Y-106023390D01*
X156167976Y-106023390D02*
X156072738Y-105975771D01*
X156072738Y-105975771D02*
X155882262Y-105975771D01*
X155882262Y-105975771D02*
X155787024Y-106023390D01*
X155787024Y-106023390D02*
X155739405Y-106071009D01*
X155739405Y-106071009D02*
X155691786Y-106166247D01*
D11*
%TO.C,D3*%
X113412500Y-103435000D02*
X115697500Y-103435000D01*
X115697500Y-101965000D02*
X113412500Y-101965000D01*
X115697500Y-103435000D02*
X115697500Y-101965000D01*
%TO.C,J6*%
X137038054Y-121417358D02*
X137038054Y-121730000D01*
X137038054Y-130490000D02*
X137038054Y-124490000D01*
X137898054Y-121417358D02*
X137898054Y-121730000D01*
X137898054Y-124490000D02*
X137898054Y-130490000D01*
X137898054Y-130490000D02*
X137038054Y-130490000D01*
X138738054Y-121730000D02*
X138738054Y-124490000D01*
X139578054Y-121417358D02*
X139578054Y-121730000D01*
X139578054Y-130490000D02*
X139578054Y-124490000D01*
X140438054Y-121417358D02*
X140438054Y-121730000D01*
X140438054Y-124490000D02*
X140438054Y-130490000D01*
X140438054Y-130490000D02*
X139578054Y-130490000D01*
X141278054Y-121730000D02*
X141278054Y-124490000D01*
X142118054Y-121417358D02*
X142118054Y-121730000D01*
X142118054Y-130490000D02*
X142118054Y-124490000D01*
X142978054Y-121417358D02*
X142978054Y-121730000D01*
X142978054Y-124490000D02*
X142978054Y-130490000D01*
X142978054Y-130490000D02*
X142118054Y-130490000D01*
X143818054Y-121730000D02*
X143818054Y-124490000D01*
X144658054Y-121417358D02*
X144658054Y-121730000D01*
X144658054Y-130490000D02*
X144658054Y-124490000D01*
X145518054Y-121417358D02*
X145518054Y-121730000D01*
X145518054Y-124490000D02*
X145518054Y-130490000D01*
X145518054Y-130490000D02*
X144658054Y-130490000D01*
X146358054Y-121730000D02*
X146358054Y-124490000D01*
X147198054Y-121417358D02*
X147198054Y-121730000D01*
X147198054Y-130490000D02*
X147198054Y-124490000D01*
X148058054Y-121417358D02*
X148058054Y-121730000D01*
X148058054Y-124490000D02*
X148058054Y-130490000D01*
X148058054Y-130490000D02*
X147198054Y-130490000D01*
X148898054Y-121730000D02*
X148898054Y-124490000D01*
X149738054Y-121417358D02*
X149738054Y-121730000D01*
X149738054Y-130490000D02*
X149738054Y-124490000D01*
X150598054Y-121417358D02*
X150598054Y-121730000D01*
X150598054Y-124490000D02*
X150598054Y-130490000D01*
X150598054Y-130490000D02*
X149738054Y-130490000D01*
X151438054Y-121730000D02*
X151438054Y-124490000D01*
X152278054Y-121417358D02*
X152278054Y-121730000D01*
X152278054Y-130490000D02*
X152278054Y-124490000D01*
X153138054Y-121417358D02*
X153138054Y-121730000D01*
X153138054Y-124490000D02*
X153138054Y-130490000D01*
X153138054Y-130490000D02*
X152278054Y-130490000D01*
X153978054Y-121730000D02*
X153978054Y-124490000D01*
X154818054Y-121500000D02*
X154818054Y-121730000D01*
X155248054Y-119070000D02*
X156518054Y-119070000D01*
X155678054Y-121500000D02*
X155678054Y-121730000D01*
X156518054Y-119070000D02*
X156518054Y-120340000D01*
X155678054Y-124490000D02*
X154818054Y-124490000D01*
X154818054Y-130490000D01*
X155678054Y-130490000D01*
X155678054Y-124490000D01*
G36*
X155678054Y-124490000D02*
G01*
X154818054Y-124490000D01*
X154818054Y-130490000D01*
X155678054Y-130490000D01*
X155678054Y-124490000D01*
G37*
X156628054Y-121730000D02*
X136088054Y-121730000D01*
X136088054Y-124490000D01*
X156628054Y-124490000D01*
X156628054Y-121730000D01*
%TO.C,R20*%
X136727500Y-114639564D02*
X136727500Y-114185436D01*
X138197500Y-114639564D02*
X138197500Y-114185436D01*
%TO.C,C7*%
X120677500Y-116690580D02*
X120677500Y-116409420D01*
X121697500Y-116690580D02*
X121697500Y-116409420D01*
%TO.C,R1*%
X144707500Y-117036359D02*
X144707500Y-117343641D01*
X145467500Y-117036359D02*
X145467500Y-117343641D01*
%TO.C,R19*%
X139277500Y-114639564D02*
X139277500Y-114185436D01*
X140747500Y-114639564D02*
X140747500Y-114185436D01*
%TO.C,R14*%
X144352500Y-114639564D02*
X144352500Y-114185436D01*
X145822500Y-114639564D02*
X145822500Y-114185436D01*
%TO.C,R4*%
X142157500Y-117036359D02*
X142157500Y-117343641D01*
X142917500Y-117036359D02*
X142917500Y-117343641D01*
%TO.C,R11*%
X159258859Y-113355000D02*
X159566141Y-113355000D01*
X159258859Y-114115000D02*
X159566141Y-114115000D01*
%TO.C,J3*%
X113128054Y-121417358D02*
X113128054Y-121730000D01*
X113128054Y-130490000D02*
X113128054Y-124490000D01*
X113988054Y-121417358D02*
X113988054Y-121730000D01*
X113988054Y-124490000D02*
X113988054Y-130490000D01*
X113988054Y-130490000D02*
X113128054Y-130490000D01*
X114828054Y-121730000D02*
X114828054Y-124490000D01*
X115668054Y-121417358D02*
X115668054Y-121730000D01*
X115668054Y-130490000D02*
X115668054Y-124490000D01*
X116528054Y-121417358D02*
X116528054Y-121730000D01*
X116528054Y-124490000D02*
X116528054Y-130490000D01*
X116528054Y-130490000D02*
X115668054Y-130490000D01*
X117368054Y-121730000D02*
X117368054Y-124490000D01*
X118208054Y-121417358D02*
X118208054Y-121730000D01*
X118208054Y-130490000D02*
X118208054Y-124490000D01*
X119068054Y-121417358D02*
X119068054Y-121730000D01*
X119068054Y-124490000D02*
X119068054Y-130490000D01*
X119068054Y-130490000D02*
X118208054Y-130490000D01*
X119908054Y-121730000D02*
X119908054Y-124490000D01*
X120748054Y-121417358D02*
X120748054Y-121730000D01*
X120748054Y-130490000D02*
X120748054Y-124490000D01*
X121608054Y-121417358D02*
X121608054Y-121730000D01*
X121608054Y-124490000D02*
X121608054Y-130490000D01*
X121608054Y-130490000D02*
X120748054Y-130490000D01*
X122448054Y-121730000D02*
X122448054Y-124490000D01*
X123288054Y-121417358D02*
X123288054Y-121730000D01*
X123288054Y-130490000D02*
X123288054Y-124490000D01*
X124148054Y-121417358D02*
X124148054Y-121730000D01*
X124148054Y-124490000D02*
X124148054Y-130490000D01*
X124148054Y-130490000D02*
X123288054Y-130490000D01*
X124988054Y-121730000D02*
X124988054Y-124490000D01*
X125828054Y-121417358D02*
X125828054Y-121730000D01*
X125828054Y-130490000D02*
X125828054Y-124490000D01*
X126688054Y-121417358D02*
X126688054Y-121730000D01*
X126688054Y-124490000D02*
X126688054Y-130490000D01*
X126688054Y-130490000D02*
X125828054Y-130490000D01*
X127528054Y-121730000D02*
X127528054Y-124490000D01*
X128368054Y-121417358D02*
X128368054Y-121730000D01*
X128368054Y-130490000D02*
X128368054Y-124490000D01*
X129228054Y-121417358D02*
X129228054Y-121730000D01*
X129228054Y-124490000D02*
X129228054Y-130490000D01*
X129228054Y-130490000D02*
X128368054Y-130490000D01*
X130068054Y-121730000D02*
X130068054Y-124490000D01*
X130908054Y-121500000D02*
X130908054Y-121730000D01*
X131338054Y-119070000D02*
X132608054Y-119070000D01*
X131768054Y-121500000D02*
X131768054Y-121730000D01*
X132608054Y-119070000D02*
X132608054Y-120340000D01*
X131768054Y-124490000D02*
X130908054Y-124490000D01*
X130908054Y-130490000D01*
X131768054Y-130490000D01*
X131768054Y-124490000D01*
G36*
X131768054Y-124490000D02*
G01*
X130908054Y-124490000D01*
X130908054Y-130490000D01*
X131768054Y-130490000D01*
X131768054Y-124490000D01*
G37*
X132718054Y-121730000D02*
X112178054Y-121730000D01*
X112178054Y-124490000D01*
X132718054Y-124490000D01*
X132718054Y-121730000D01*
%TO.C,R3*%
X110667936Y-101965000D02*
X111122064Y-101965000D01*
X110667936Y-103435000D02*
X111122064Y-103435000D01*
%TO.C,R5*%
X139632500Y-117036359D02*
X139632500Y-117343641D01*
X140392500Y-117036359D02*
X140392500Y-117343641D01*
%TO.C,R2*%
X110667936Y-104290000D02*
X111122064Y-104290000D01*
X110667936Y-105760000D02*
X111122064Y-105760000D01*
%TO.C,R6*%
X137082500Y-117036359D02*
X137082500Y-117343641D01*
X137842500Y-117036359D02*
X137842500Y-117343641D01*
%TO.C,R10*%
X159258859Y-110815000D02*
X159566141Y-110815000D01*
X159258859Y-111575000D02*
X159566141Y-111575000D01*
D12*
%TO.C,U1*%
X101612500Y-97725000D02*
X101612500Y-121725000D01*
X104612500Y-124725000D02*
X163612500Y-124725000D01*
X138512500Y-124725000D02*
X146862500Y-124725000D01*
X151112500Y-124725000D02*
X159462500Y-124725000D01*
X163612500Y-94725000D02*
X104612500Y-94725000D01*
X166612500Y-121725000D02*
X166612500Y-97725000D01*
X101612500Y-97725000D02*
G75*
G02*
X104612500Y-94725000I3000001J-1D01*
G01*
X104612500Y-124725000D02*
G75*
G02*
X101612500Y-121725000I1J3000001D01*
G01*
X163612500Y-94725000D02*
G75*
G02*
X166612500Y-97725000I0J-3000000D01*
G01*
X166612500Y-121725000D02*
G75*
G02*
X163612500Y-124725000I-3000000J0D01*
G01*
D13*
X99922500Y-99495000D02*
G75*
G02*
X99722500Y-99495000I-100000J0D01*
G01*
X99722500Y-99495000D02*
G75*
G02*
X99922500Y-99495000I100000J0D01*
G01*
D11*
%TO.C,D2*%
X113412500Y-105735000D02*
X115697500Y-105735000D01*
X115697500Y-104265000D02*
X113412500Y-104265000D01*
X115697500Y-105735000D02*
X115697500Y-104265000D01*
%TO.C,J4*%
X160957500Y-104845000D02*
X162227500Y-104845000D01*
X160957500Y-106115000D02*
X160957500Y-104845000D01*
X163304858Y-108225000D02*
X163617500Y-108225000D01*
X163304858Y-109085000D02*
X163617500Y-109085000D01*
X163304858Y-110765000D02*
X163617500Y-110765000D01*
X163304858Y-111625000D02*
X163617500Y-111625000D01*
X163304858Y-113305000D02*
X163617500Y-113305000D01*
X163304858Y-114165000D02*
X163617500Y-114165000D01*
X163387500Y-105685000D02*
X163617500Y-105685000D01*
X163387500Y-106545000D02*
X163617500Y-106545000D01*
X163617500Y-107385000D02*
X166377500Y-107385000D01*
X163617500Y-109925000D02*
X166377500Y-109925000D01*
X163617500Y-112465000D02*
X166377500Y-112465000D01*
X166377500Y-108225000D02*
X172377500Y-108225000D01*
X166377500Y-110765000D02*
X172377500Y-110765000D01*
X166377500Y-113305000D02*
X172377500Y-113305000D01*
X172377500Y-108225000D02*
X172377500Y-109085000D01*
X172377500Y-109085000D02*
X166377500Y-109085000D01*
X172377500Y-110765000D02*
X172377500Y-111625000D01*
X172377500Y-111625000D02*
X166377500Y-111625000D01*
X172377500Y-113305000D02*
X172377500Y-114165000D01*
X172377500Y-114165000D02*
X166377500Y-114165000D01*
X163617500Y-104735000D02*
X166377500Y-104735000D01*
X166377500Y-115115000D01*
X163617500Y-115115000D01*
X163617500Y-104735000D01*
X166377500Y-105685000D02*
X172377500Y-105685000D01*
X172377500Y-106545000D01*
X166377500Y-106545000D01*
X166377500Y-105685000D01*
G36*
X166377500Y-105685000D02*
G01*
X172377500Y-105685000D01*
X172377500Y-106545000D01*
X166377500Y-106545000D01*
X166377500Y-105685000D01*
G37*
%TO.C,C5*%
X108252500Y-105397164D02*
X108252500Y-105612836D01*
X108972500Y-105397164D02*
X108972500Y-105612836D01*
%TO.C,R15*%
X141802500Y-114639564D02*
X141802500Y-114185436D01*
X143272500Y-114639564D02*
X143272500Y-114185436D01*
%TO.C,D1*%
X104150000Y-101815000D02*
X104150000Y-107325000D01*
X107450000Y-101815000D02*
X104150000Y-101815000D01*
X107450000Y-101815000D02*
X107450000Y-107325000D01*
%TO.C,C6*%
X158268080Y-105605000D02*
X157986920Y-105605000D01*
X158268080Y-106625000D02*
X157986920Y-106625000D01*
%TD*%
M02*
