%TF.GenerationSoftware,KiCad,Pcbnew,9.0.7*%
%TF.CreationDate,2026-04-13T16:57:23+02:00*%
%TF.ProjectId,PCB_Khess_Module_Payment,5043425f-4b68-4657-9373-5f4d6f64756c,rev?*%
%TF.SameCoordinates,Original*%
%TF.FileFunction,Copper,L4,Bot*%
%TF.FilePolarity,Positive*%
%FSLAX46Y46*%
G04 Gerber Fmt 4.6, Leading zero omitted, Abs format (unit mm)*
G04 Created by KiCad (PCBNEW 9.0.7) date 2026-04-13 16:57:23*
%MOMM*%
%LPD*%
G01*
G04 APERTURE LIST*
%ADD10C,0.300000*%
%TA.AperFunction,NonConductor*%
%ADD11C,0.300000*%
%TD*%
%TA.AperFunction,ComponentPad*%
%ADD12R,1.700000X1.700000*%
%TD*%
%TA.AperFunction,ComponentPad*%
%ADD13C,1.700000*%
%TD*%
%TA.AperFunction,ComponentPad*%
%ADD14R,1.508000X1.508000*%
%TD*%
%TA.AperFunction,ComponentPad*%
%ADD15C,1.508000*%
%TD*%
%TA.AperFunction,ViaPad*%
%ADD16C,0.800000*%
%TD*%
%TA.AperFunction,Conductor*%
%ADD17C,0.300000*%
%TD*%
G04 APERTURE END LIST*
D10*
D11*
X105695489Y-118015114D02*
X105481203Y-118086542D01*
X105481203Y-118086542D02*
X105409774Y-118157971D01*
X105409774Y-118157971D02*
X105338346Y-118300828D01*
X105338346Y-118300828D02*
X105338346Y-118515114D01*
X105338346Y-118515114D02*
X105409774Y-118657971D01*
X105409774Y-118657971D02*
X105481203Y-118729400D01*
X105481203Y-118729400D02*
X105624060Y-118800828D01*
X105624060Y-118800828D02*
X106195489Y-118800828D01*
X106195489Y-118800828D02*
X106195489Y-117300828D01*
X106195489Y-117300828D02*
X105695489Y-117300828D01*
X105695489Y-117300828D02*
X105552632Y-117372257D01*
X105552632Y-117372257D02*
X105481203Y-117443685D01*
X105481203Y-117443685D02*
X105409774Y-117586542D01*
X105409774Y-117586542D02*
X105409774Y-117729400D01*
X105409774Y-117729400D02*
X105481203Y-117872257D01*
X105481203Y-117872257D02*
X105552632Y-117943685D01*
X105552632Y-117943685D02*
X105695489Y-118015114D01*
X105695489Y-118015114D02*
X106195489Y-118015114D01*
D12*
%TO.P,J6,1,Pin_1*%
%TO.N,ROW1*%
X155248054Y-120340000D03*
D13*
%TO.P,J6,2,Pin_2*%
%TO.N,ROW2*%
X152708054Y-120340000D03*
%TO.P,J6,3,Pin_3*%
%TO.N,ROW3*%
X150168054Y-120340000D03*
%TO.P,J6,4,Pin_4*%
%TO.N,ROW4*%
X147628054Y-120340000D03*
%TO.P,J6,5,Pin_5*%
%TO.N,Net-(J6-Pin_5)*%
X145088054Y-120340000D03*
%TO.P,J6,6,Pin_6*%
%TO.N,Net-(J6-Pin_6)*%
X142548054Y-120340000D03*
%TO.P,J6,7,Pin_7*%
%TO.N,Net-(J6-Pin_7)*%
X140008054Y-120340000D03*
%TO.P,J6,8,Pin_8*%
%TO.N,Net-(J6-Pin_8)*%
X137468054Y-120340000D03*
%TD*%
D12*
%TO.P,J3,1,Pin_1*%
%TO.N,SCK*%
X131338054Y-120340000D03*
D13*
%TO.P,J3,2,Pin_2*%
%TO.N,MISO*%
X128798054Y-120340000D03*
%TO.P,J3,3,Pin_3*%
%TO.N,MOSI*%
X126258054Y-120340000D03*
%TO.P,J3,4,Pin_4*%
%TO.N,SS*%
X123718054Y-120340000D03*
%TO.P,J3,5,Pin_5*%
%TO.N,+5V_PI*%
X121178054Y-120340000D03*
%TO.P,J3,6,Pin_6*%
%TO.N,GND*%
X118638054Y-120340000D03*
%TO.P,J3,7,Pin_7*%
%TO.N,IRQ*%
X116098054Y-120340000D03*
%TO.P,J3,8,Pin_8*%
%TO.N,RSTO*%
X113558054Y-120340000D03*
%TD*%
D14*
%TO.P,U1,1,3V3_1*%
%TO.N,+3.3V_PI*%
X109982500Y-99495000D03*
D15*
%TO.P,U1,2,5V_2*%
%TO.N,+5V_PI*%
X109982500Y-96955000D03*
%TO.P,U1,3,GPIO2/SDA1*%
%TO.N,SDA*%
X112522500Y-99495000D03*
%TO.P,U1,4,5V_4*%
%TO.N,+5V_PI*%
X112522500Y-96955000D03*
%TO.P,U1,5,GPIO3/SCL*%
%TO.N,SCL*%
X115062500Y-99495000D03*
%TO.P,U1,6,GND_6*%
%TO.N,GND*%
X115062500Y-96955000D03*
%TO.P,U1,7,GPIO4/GPIO_GCLK*%
%TO.N,unconnected-(U1-GPIO4{slash}GPIO_GCLK-Pad7)*%
X117602500Y-99495000D03*
%TO.P,U1,8,GPIO14/TXD0*%
%TO.N,unconnected-(U1-GPIO14{slash}TXD0-Pad8)*%
X117602500Y-96955000D03*
%TO.P,U1,9,GND_9*%
%TO.N,GND*%
X120142500Y-99495000D03*
%TO.P,U1,10,GPIO15/RXD0*%
%TO.N,unconnected-(U1-GPIO15{slash}RXD0-Pad10)*%
X120142500Y-96955000D03*
%TO.P,U1,11,GPIO17/GPIO_GEN0*%
%TO.N,Column2*%
X122682500Y-99495000D03*
%TO.P,U1,12,GPIO18/GPIO_GEN1*%
%TO.N,Column3*%
X122682500Y-96955000D03*
%TO.P,U1,13,GPIO27/GPIO_GEN2*%
%TO.N,unconnected-(U1-GPIO27{slash}GPIO_GEN2-Pad13)*%
X125222500Y-99495000D03*
%TO.P,U1,14,GND_14*%
%TO.N,GND*%
X125222500Y-96955000D03*
%TO.P,U1,15,GPIO22/GPIO_GEN3*%
%TO.N,unconnected-(U1-GPIO22{slash}GPIO_GEN3-Pad15)*%
X127762500Y-99495000D03*
%TO.P,U1,16,GPIO23/GPIO_GEN4*%
%TO.N,unconnected-(U1-GPIO23{slash}GPIO_GEN4-Pad16)*%
X127762500Y-96955000D03*
%TO.P,U1,17,3V3_17*%
%TO.N,+3.3V_PI*%
X130302500Y-99495000D03*
%TO.P,U1,18,GPIO24/GPIO_GEN5*%
%TO.N,unconnected-(U1-GPIO24{slash}GPIO_GEN5-Pad18)*%
X130302500Y-96955000D03*
%TO.P,U1,19,GPIO10/SPI_MOSI*%
%TO.N,MOSI*%
X132842500Y-99495000D03*
%TO.P,U1,20,GND_20*%
%TO.N,GND*%
X132842500Y-96955000D03*
%TO.P,U1,21,GPIO9/SPI_MISO*%
%TO.N,MISO*%
X135382500Y-99495000D03*
%TO.P,U1,22,GPIO25/GPIO_GEN6*%
%TO.N,IRQ*%
X135382500Y-96955000D03*
%TO.P,U1,23,GPIO11/SPI_SCLK*%
%TO.N,SCK*%
X137922500Y-99495000D03*
%TO.P,U1,24,GPIO8/SPI_~{CE0}*%
%TO.N,SS*%
X137922500Y-96955000D03*
%TO.P,U1,25,GND_25*%
%TO.N,GND*%
X140462500Y-99495000D03*
%TO.P,U1,26,GPIO7/SPI_~{CE1}*%
%TO.N,RSTO*%
X140462500Y-96955000D03*
%TO.P,U1,27,ID_SD*%
%TO.N,unconnected-(U1-ID_SD-Pad27)*%
X143002500Y-99495000D03*
%TO.P,U1,28,ID_SC*%
%TO.N,unconnected-(U1-ID_SC-Pad28)*%
X143002500Y-96955000D03*
%TO.P,U1,29,GPIO5*%
%TO.N,unconnected-(U1-GPIO5-Pad29)*%
X145542500Y-99495000D03*
%TO.P,U1,30,GND_30*%
%TO.N,GND*%
X145542500Y-96955000D03*
%TO.P,U1,31,GPIO6*%
%TO.N,unconnected-(U1-GPIO6-Pad31)*%
X148082500Y-99495000D03*
%TO.P,U1,32,GPIO12*%
%TO.N,ROW3*%
X148082500Y-96955000D03*
%TO.P,U1,33,GPIO13*%
%TO.N,ROW4*%
X150622500Y-99495000D03*
%TO.P,U1,34,GND_34*%
%TO.N,GND*%
X150622500Y-96955000D03*
%TO.P,U1,35,GPIO19*%
%TO.N,Column4*%
X153162500Y-99495000D03*
%TO.P,U1,36,GPIO16*%
%TO.N,Column1*%
X153162500Y-96955000D03*
%TO.P,U1,37,GPIO26*%
%TO.N,unconnected-(U1-GPIO26-Pad37)*%
X155702500Y-99495000D03*
%TO.P,U1,38,GPIO20*%
%TO.N,ROW1*%
X155702500Y-96955000D03*
%TO.P,U1,39,GND_39*%
%TO.N,GND*%
X158242500Y-99495000D03*
%TO.P,U1,40,GPIO21*%
%TO.N,ROW2*%
X158242500Y-96955000D03*
%TD*%
D12*
%TO.P,J4,1,Pin_1*%
%TO.N,+3.3V_PI*%
X162227500Y-106115000D03*
D13*
%TO.P,J4,2,Pin_2*%
%TO.N,GND*%
X162227500Y-108655000D03*
%TO.P,J4,3,Pin_3*%
%TO.N,SDA*%
X162227500Y-111195000D03*
%TO.P,J4,4,Pin_4*%
%TO.N,SCL*%
X162227500Y-113735000D03*
%TD*%
D16*
%TO.N,GND*%
X124100000Y-122200000D03*
X107100000Y-95900000D03*
X123100000Y-123500000D03*
X163100000Y-123500000D03*
X163100000Y-95900000D03*
X131100000Y-123500000D03*
X105100000Y-123500000D03*
X114100000Y-112200000D03*
X129100000Y-112200000D03*
X102800000Y-121800000D03*
X119100000Y-112200000D03*
X105100000Y-95900000D03*
X161100000Y-95900000D03*
X165400000Y-121700000D03*
X143100000Y-123500000D03*
X102800000Y-101800000D03*
X117100000Y-123500000D03*
X164100000Y-117200000D03*
X144100000Y-122200000D03*
X104100000Y-112200000D03*
X129100000Y-122200000D03*
X159100000Y-102200000D03*
X102800000Y-119800000D03*
X119100000Y-102200000D03*
X103600000Y-123000000D03*
X109100000Y-117200000D03*
X124100000Y-107200000D03*
X145100000Y-123500000D03*
X111100000Y-123500000D03*
X165400000Y-115700000D03*
X144100000Y-112200000D03*
X165400000Y-111700000D03*
X164100000Y-102200000D03*
X102800000Y-103800000D03*
X102800000Y-107800000D03*
X157100000Y-123500000D03*
X165400000Y-99700000D03*
X119100000Y-107200000D03*
X102800000Y-111800000D03*
X165400000Y-119700000D03*
X165400000Y-109700000D03*
X137100000Y-123500000D03*
X149100000Y-122200000D03*
X149100000Y-102200000D03*
X165400000Y-117700000D03*
X159100000Y-122200000D03*
X165400000Y-107700000D03*
X154100000Y-122200000D03*
X109100000Y-123500000D03*
X102800000Y-115800000D03*
X159100000Y-123500000D03*
X149100000Y-107200000D03*
X102800000Y-105800000D03*
X102800000Y-109800000D03*
X165400000Y-105700000D03*
X119100000Y-123500000D03*
X113100000Y-123500000D03*
X134100000Y-107200000D03*
X102800000Y-117800000D03*
X104100000Y-107200000D03*
X161100000Y-123500000D03*
X102800000Y-97800000D03*
X149100000Y-123500000D03*
X153100000Y-123500000D03*
X121100000Y-123500000D03*
X154100000Y-102200000D03*
X151100000Y-123500000D03*
X165400000Y-97700000D03*
X109100000Y-112200000D03*
X125100000Y-123500000D03*
X141100000Y-123500000D03*
X102800000Y-99800000D03*
X109100000Y-107200000D03*
X124100000Y-112200000D03*
X139100000Y-117200000D03*
X144100000Y-102200000D03*
X139100000Y-123500000D03*
X149100000Y-117200000D03*
X164100000Y-107200000D03*
X154100000Y-117200000D03*
X114100000Y-122200000D03*
X134100000Y-122200000D03*
X154100000Y-112200000D03*
X144100000Y-117200000D03*
X159100000Y-117200000D03*
X104100000Y-117200000D03*
X103600000Y-96500000D03*
X139100000Y-102200000D03*
X133100000Y-123500000D03*
X144100000Y-107200000D03*
X135100000Y-123500000D03*
X115100000Y-123500000D03*
X139100000Y-122200000D03*
X154100000Y-107200000D03*
X165400000Y-103700000D03*
X124100000Y-117200000D03*
X109100000Y-122200000D03*
X107100000Y-123500000D03*
X147100000Y-123500000D03*
X104100000Y-102200000D03*
X102800000Y-113800000D03*
X164600000Y-96400000D03*
X165400000Y-113700000D03*
X165400000Y-101700000D03*
X164700000Y-123000000D03*
X127100000Y-123500000D03*
X119100000Y-122200000D03*
X129100000Y-123500000D03*
X155100000Y-123500000D03*
X114100000Y-107200000D03*
%TO.N,Column4*%
X133812500Y-112025000D03*
X139712500Y-104125000D03*
%TO.N,SS*%
X129750000Y-107000000D03*
%TO.N,Column2*%
X139400000Y-107225000D03*
X141228470Y-114600000D03*
%TD*%
D17*
%TO.N,ROW3*%
X150168054Y-120340000D02*
X150168054Y-120269446D01*
X150747500Y-98010000D02*
X149137500Y-98010000D01*
X149137500Y-98010000D02*
X148082500Y-96955000D01*
X150168054Y-120269446D02*
X151677500Y-118760000D01*
X151677500Y-118760000D02*
X151677500Y-98940000D01*
X151677500Y-98940000D02*
X150747500Y-98010000D01*
%TO.N,ROW2*%
X156757500Y-98440000D02*
X158242500Y-96955000D01*
X156757500Y-101155000D02*
X156757500Y-98440000D01*
X152708054Y-120340000D02*
X152708054Y-105204446D01*
X152708054Y-105204446D02*
X156757500Y-101155000D01*
%TO.N,Column4*%
X133812500Y-112025000D02*
X133812500Y-110025000D01*
X139712500Y-104125000D02*
X133812500Y-110025000D01*
%TO.N,ROW4*%
X147628054Y-120340000D02*
X147628054Y-120309446D01*
X147628054Y-120309446D02*
X150622500Y-117315000D01*
X150622500Y-117315000D02*
X150622500Y-99495000D01*
%TO.N,SS*%
X134874496Y-101925000D02*
X136867500Y-99931996D01*
X134825000Y-101925000D02*
X134874496Y-101925000D01*
X136867500Y-98010000D02*
X137922500Y-96955000D01*
X136867500Y-99931996D02*
X136867500Y-98010000D01*
X129750000Y-107000000D02*
X134825000Y-101925000D01*
%TO.N,ROW1*%
X155248054Y-120340000D02*
X155248054Y-104539446D01*
X155248054Y-104539446D02*
X159297500Y-100490000D01*
X158679496Y-95900000D02*
X156757500Y-95900000D01*
X156757500Y-95900000D02*
X155702500Y-96955000D01*
X159297500Y-100490000D02*
X159297500Y-96518004D01*
X159297500Y-96518004D02*
X158679496Y-95900000D01*
%TO.N,Column2*%
X139400000Y-107225000D02*
X139400000Y-107300000D01*
X141212500Y-109112500D02*
X141212500Y-113989321D01*
X141228470Y-114005291D02*
X141228470Y-114600000D01*
X139400000Y-107300000D02*
X141212500Y-109112500D01*
X141212500Y-113989321D02*
X141228470Y-114005291D01*
%TO.N,RSTO*%
X113558054Y-120040000D02*
X113558054Y-114741946D01*
X130434496Y-108475000D02*
X139407500Y-99501996D01*
X139407500Y-99501996D02*
X139407500Y-98010000D01*
X119825000Y-108475000D02*
X130434496Y-108475000D01*
X113558054Y-114741946D02*
X119825000Y-108475000D01*
X139407500Y-98010000D02*
X140462500Y-96955000D01*
%TD*%
%TA.AperFunction,Conductor*%
%TO.N,GND*%
G36*
X156301050Y-95223865D02*
G01*
X156346805Y-95276669D01*
X156356749Y-95345827D01*
X156327724Y-95409383D01*
X156321692Y-95415861D01*
X156049485Y-95688067D01*
X155988162Y-95721552D01*
X155942406Y-95722859D01*
X155801236Y-95700500D01*
X155801231Y-95700500D01*
X155603769Y-95700500D01*
X155603764Y-95700500D01*
X155408736Y-95731389D01*
X155220941Y-95792408D01*
X155044995Y-95882058D01*
X154885253Y-95998115D01*
X154745615Y-96137753D01*
X154629558Y-96297495D01*
X154629556Y-96297499D01*
X154549305Y-96455000D01*
X154542985Y-96467403D01*
X154495010Y-96518199D01*
X154427189Y-96534994D01*
X154361054Y-96512456D01*
X154322015Y-96467403D01*
X154235444Y-96297499D01*
X154209659Y-96262009D01*
X154119384Y-96137753D01*
X153979746Y-95998115D01*
X153820004Y-95882058D01*
X153820003Y-95882057D01*
X153820001Y-95882056D01*
X153644061Y-95792409D01*
X153644058Y-95792408D01*
X153456263Y-95731389D01*
X153261236Y-95700500D01*
X153261231Y-95700500D01*
X153063769Y-95700500D01*
X153063764Y-95700500D01*
X152868736Y-95731389D01*
X152680941Y-95792408D01*
X152504995Y-95882058D01*
X152345253Y-95998115D01*
X152205615Y-96137753D01*
X152089558Y-96297495D01*
X152089556Y-96297499D01*
X152002703Y-96467954D01*
X151954730Y-96518749D01*
X151886909Y-96535544D01*
X151820774Y-96513006D01*
X151781735Y-96467953D01*
X151695020Y-96297768D01*
X151695012Y-96297755D01*
X151669042Y-96262010D01*
X151669041Y-96262009D01*
X151105462Y-96825589D01*
X151088425Y-96762007D01*
X151022599Y-96647993D01*
X150929507Y-96554901D01*
X150815493Y-96489075D01*
X150751909Y-96472037D01*
X151315489Y-95908457D01*
X151279739Y-95882483D01*
X151103873Y-95792873D01*
X150916146Y-95731876D01*
X150721197Y-95701000D01*
X150523803Y-95701000D01*
X150328853Y-95731876D01*
X150141126Y-95792873D01*
X149965262Y-95882482D01*
X149965260Y-95882483D01*
X149929510Y-95908456D01*
X149929510Y-95908457D01*
X150493091Y-96472037D01*
X150429507Y-96489075D01*
X150315493Y-96554901D01*
X150222401Y-96647993D01*
X150156575Y-96762007D01*
X150139537Y-96825591D01*
X149575957Y-96262010D01*
X149575956Y-96262010D01*
X149549983Y-96297760D01*
X149549979Y-96297767D01*
X149463263Y-96467954D01*
X149415288Y-96518749D01*
X149347467Y-96535544D01*
X149281333Y-96513006D01*
X149242298Y-96467957D01*
X149155444Y-96297499D01*
X149155442Y-96297496D01*
X149155441Y-96297494D01*
X149039384Y-96137753D01*
X148899746Y-95998115D01*
X148740004Y-95882058D01*
X148740003Y-95882057D01*
X148740001Y-95882056D01*
X148564061Y-95792409D01*
X148564058Y-95792408D01*
X148376263Y-95731389D01*
X148181236Y-95700500D01*
X148181231Y-95700500D01*
X147983769Y-95700500D01*
X147983764Y-95700500D01*
X147788736Y-95731389D01*
X147600941Y-95792408D01*
X147424995Y-95882058D01*
X147265253Y-95998115D01*
X147125615Y-96137753D01*
X147009558Y-96297495D01*
X147009556Y-96297499D01*
X146922703Y-96467954D01*
X146874730Y-96518749D01*
X146806909Y-96535544D01*
X146740774Y-96513006D01*
X146701735Y-96467953D01*
X146615020Y-96297768D01*
X146615012Y-96297755D01*
X146589042Y-96262010D01*
X146589041Y-96262009D01*
X146025462Y-96825589D01*
X146008425Y-96762007D01*
X145942599Y-96647993D01*
X145849507Y-96554901D01*
X145735493Y-96489075D01*
X145671909Y-96472037D01*
X146235489Y-95908457D01*
X146199739Y-95882483D01*
X146023873Y-95792873D01*
X145836146Y-95731876D01*
X145641197Y-95701000D01*
X145443803Y-95701000D01*
X145248853Y-95731876D01*
X145061126Y-95792873D01*
X144885262Y-95882482D01*
X144885260Y-95882483D01*
X144849510Y-95908456D01*
X144849510Y-95908457D01*
X145413091Y-96472037D01*
X145349507Y-96489075D01*
X145235493Y-96554901D01*
X145142401Y-96647993D01*
X145076575Y-96762007D01*
X145059537Y-96825590D01*
X144495957Y-96262010D01*
X144495956Y-96262010D01*
X144469983Y-96297760D01*
X144469979Y-96297767D01*
X144383263Y-96467954D01*
X144335288Y-96518749D01*
X144267467Y-96535544D01*
X144201333Y-96513006D01*
X144162298Y-96467957D01*
X144075444Y-96297499D01*
X144075442Y-96297496D01*
X144075441Y-96297494D01*
X143959384Y-96137753D01*
X143819746Y-95998115D01*
X143660004Y-95882058D01*
X143660003Y-95882057D01*
X143660001Y-95882056D01*
X143484061Y-95792409D01*
X143484058Y-95792408D01*
X143296263Y-95731389D01*
X143101236Y-95700500D01*
X143101231Y-95700500D01*
X142903769Y-95700500D01*
X142903764Y-95700500D01*
X142708736Y-95731389D01*
X142520941Y-95792408D01*
X142344995Y-95882058D01*
X142185253Y-95998115D01*
X142045615Y-96137753D01*
X141929558Y-96297495D01*
X141929556Y-96297499D01*
X141849305Y-96455000D01*
X141842985Y-96467403D01*
X141795010Y-96518199D01*
X141727189Y-96534994D01*
X141661054Y-96512456D01*
X141622015Y-96467403D01*
X141535444Y-96297499D01*
X141509659Y-96262009D01*
X141419384Y-96137753D01*
X141279746Y-95998115D01*
X141120004Y-95882058D01*
X141120003Y-95882057D01*
X141120001Y-95882056D01*
X140944061Y-95792409D01*
X140944058Y-95792408D01*
X140756263Y-95731389D01*
X140561236Y-95700500D01*
X140561231Y-95700500D01*
X140363769Y-95700500D01*
X140363764Y-95700500D01*
X140168736Y-95731389D01*
X139980941Y-95792408D01*
X139804995Y-95882058D01*
X139645253Y-95998115D01*
X139505615Y-96137753D01*
X139389558Y-96297495D01*
X139389556Y-96297499D01*
X139309305Y-96455000D01*
X139302985Y-96467403D01*
X139255010Y-96518199D01*
X139187189Y-96534994D01*
X139121054Y-96512456D01*
X139082015Y-96467403D01*
X138995444Y-96297499D01*
X138969659Y-96262009D01*
X138879384Y-96137753D01*
X138739746Y-95998115D01*
X138580004Y-95882058D01*
X138580003Y-95882057D01*
X138580001Y-95882056D01*
X138404061Y-95792409D01*
X138404058Y-95792408D01*
X138216263Y-95731389D01*
X138021236Y-95700500D01*
X138021231Y-95700500D01*
X137823769Y-95700500D01*
X137823764Y-95700500D01*
X137628736Y-95731389D01*
X137440941Y-95792408D01*
X137264995Y-95882058D01*
X137105253Y-95998115D01*
X136965615Y-96137753D01*
X136849558Y-96297495D01*
X136849556Y-96297499D01*
X136769305Y-96455000D01*
X136762985Y-96467403D01*
X136715010Y-96518199D01*
X136647189Y-96534994D01*
X136581054Y-96512456D01*
X136542015Y-96467403D01*
X136455444Y-96297499D01*
X136429659Y-96262009D01*
X136339384Y-96137753D01*
X136199746Y-95998115D01*
X136040004Y-95882058D01*
X136040003Y-95882057D01*
X136040001Y-95882056D01*
X135864061Y-95792409D01*
X135864058Y-95792408D01*
X135676263Y-95731389D01*
X135481236Y-95700500D01*
X135481231Y-95700500D01*
X135283769Y-95700500D01*
X135283764Y-95700500D01*
X135088736Y-95731389D01*
X134900941Y-95792408D01*
X134724995Y-95882058D01*
X134565253Y-95998115D01*
X134425615Y-96137753D01*
X134309558Y-96297495D01*
X134309556Y-96297499D01*
X134222703Y-96467954D01*
X134174730Y-96518749D01*
X134106909Y-96535544D01*
X134040774Y-96513006D01*
X134001735Y-96467953D01*
X133915020Y-96297768D01*
X133915012Y-96297755D01*
X133889042Y-96262010D01*
X133889041Y-96262009D01*
X133325462Y-96825589D01*
X133308425Y-96762007D01*
X133242599Y-96647993D01*
X133149507Y-96554901D01*
X133035493Y-96489075D01*
X132971909Y-96472037D01*
X133535489Y-95908457D01*
X133499739Y-95882483D01*
X133323873Y-95792873D01*
X133136146Y-95731876D01*
X132941197Y-95701000D01*
X132743803Y-95701000D01*
X132548853Y-95731876D01*
X132361126Y-95792873D01*
X132185262Y-95882482D01*
X132185260Y-95882483D01*
X132149510Y-95908456D01*
X132149510Y-95908457D01*
X132713091Y-96472037D01*
X132649507Y-96489075D01*
X132535493Y-96554901D01*
X132442401Y-96647993D01*
X132376575Y-96762007D01*
X132359537Y-96825590D01*
X131795957Y-96262010D01*
X131795956Y-96262010D01*
X131769983Y-96297760D01*
X131769979Y-96297767D01*
X131683263Y-96467954D01*
X131635288Y-96518749D01*
X131567467Y-96535544D01*
X131501333Y-96513006D01*
X131462298Y-96467957D01*
X131375444Y-96297499D01*
X131375442Y-96297496D01*
X131375441Y-96297494D01*
X131259384Y-96137753D01*
X131119746Y-95998115D01*
X130960004Y-95882058D01*
X130960003Y-95882057D01*
X130960001Y-95882056D01*
X130784061Y-95792409D01*
X130784058Y-95792408D01*
X130596263Y-95731389D01*
X130401236Y-95700500D01*
X130401231Y-95700500D01*
X130203769Y-95700500D01*
X130203764Y-95700500D01*
X130008736Y-95731389D01*
X129820941Y-95792408D01*
X129644995Y-95882058D01*
X129485253Y-95998115D01*
X129345615Y-96137753D01*
X129229558Y-96297495D01*
X129229556Y-96297499D01*
X129149305Y-96455000D01*
X129142985Y-96467403D01*
X129095010Y-96518199D01*
X129027189Y-96534994D01*
X128961054Y-96512456D01*
X128922015Y-96467403D01*
X128835444Y-96297499D01*
X128809659Y-96262009D01*
X128719384Y-96137753D01*
X128579746Y-95998115D01*
X128420004Y-95882058D01*
X128420003Y-95882057D01*
X128420001Y-95882056D01*
X128244061Y-95792409D01*
X128244058Y-95792408D01*
X128056263Y-95731389D01*
X127861236Y-95700500D01*
X127861231Y-95700500D01*
X127663769Y-95700500D01*
X127663764Y-95700500D01*
X127468736Y-95731389D01*
X127280941Y-95792408D01*
X127104995Y-95882058D01*
X126945253Y-95998115D01*
X126805615Y-96137753D01*
X126689558Y-96297495D01*
X126689556Y-96297499D01*
X126602703Y-96467954D01*
X126554730Y-96518749D01*
X126486909Y-96535544D01*
X126420774Y-96513006D01*
X126381735Y-96467953D01*
X126295020Y-96297768D01*
X126295012Y-96297755D01*
X126269042Y-96262010D01*
X126269041Y-96262009D01*
X125705462Y-96825589D01*
X125688425Y-96762007D01*
X125622599Y-96647993D01*
X125529507Y-96554901D01*
X125415493Y-96489075D01*
X125351909Y-96472037D01*
X125915489Y-95908457D01*
X125879739Y-95882483D01*
X125703873Y-95792873D01*
X125516146Y-95731876D01*
X125321197Y-95701000D01*
X125123803Y-95701000D01*
X124928853Y-95731876D01*
X124741126Y-95792873D01*
X124565262Y-95882482D01*
X124565260Y-95882483D01*
X124529510Y-95908456D01*
X124529510Y-95908457D01*
X125093091Y-96472037D01*
X125029507Y-96489075D01*
X124915493Y-96554901D01*
X124822401Y-96647993D01*
X124756575Y-96762007D01*
X124739537Y-96825590D01*
X124175957Y-96262010D01*
X124175956Y-96262010D01*
X124149983Y-96297760D01*
X124149979Y-96297767D01*
X124063263Y-96467954D01*
X124015288Y-96518749D01*
X123947467Y-96535544D01*
X123881333Y-96513006D01*
X123842298Y-96467957D01*
X123755444Y-96297499D01*
X123755442Y-96297496D01*
X123755441Y-96297494D01*
X123639384Y-96137753D01*
X123499746Y-95998115D01*
X123340004Y-95882058D01*
X123340003Y-95882057D01*
X123340001Y-95882056D01*
X123164061Y-95792409D01*
X123164058Y-95792408D01*
X122976263Y-95731389D01*
X122781236Y-95700500D01*
X122781231Y-95700500D01*
X122583769Y-95700500D01*
X122583764Y-95700500D01*
X122388736Y-95731389D01*
X122200941Y-95792408D01*
X122024995Y-95882058D01*
X121865253Y-95998115D01*
X121725615Y-96137753D01*
X121609558Y-96297495D01*
X121609556Y-96297499D01*
X121529305Y-96455000D01*
X121522985Y-96467403D01*
X121475010Y-96518199D01*
X121407189Y-96534994D01*
X121341054Y-96512456D01*
X121302015Y-96467403D01*
X121215444Y-96297499D01*
X121189659Y-96262009D01*
X121099384Y-96137753D01*
X120959746Y-95998115D01*
X120800004Y-95882058D01*
X120800003Y-95882057D01*
X120800001Y-95882056D01*
X120624061Y-95792409D01*
X120624058Y-95792408D01*
X120436263Y-95731389D01*
X120241236Y-95700500D01*
X120241231Y-95700500D01*
X120043769Y-95700500D01*
X120043764Y-95700500D01*
X119848736Y-95731389D01*
X119660941Y-95792408D01*
X119484995Y-95882058D01*
X119325253Y-95998115D01*
X119185615Y-96137753D01*
X119069558Y-96297495D01*
X119069556Y-96297499D01*
X118989305Y-96455000D01*
X118982985Y-96467403D01*
X118935010Y-96518199D01*
X118867189Y-96534994D01*
X118801054Y-96512456D01*
X118762015Y-96467403D01*
X118675444Y-96297499D01*
X118649659Y-96262009D01*
X118559384Y-96137753D01*
X118419746Y-95998115D01*
X118260004Y-95882058D01*
X118260003Y-95882057D01*
X118260001Y-95882056D01*
X118084061Y-95792409D01*
X118084058Y-95792408D01*
X117896263Y-95731389D01*
X117701236Y-95700500D01*
X117701231Y-95700500D01*
X117503769Y-95700500D01*
X117503764Y-95700500D01*
X117308736Y-95731389D01*
X117120941Y-95792408D01*
X116944995Y-95882058D01*
X116785253Y-95998115D01*
X116645615Y-96137753D01*
X116529558Y-96297495D01*
X116529556Y-96297499D01*
X116442703Y-96467954D01*
X116394730Y-96518749D01*
X116326909Y-96535544D01*
X116260774Y-96513006D01*
X116221735Y-96467953D01*
X116135020Y-96297768D01*
X116135012Y-96297755D01*
X116109042Y-96262010D01*
X116109041Y-96262009D01*
X115545462Y-96825589D01*
X115528425Y-96762007D01*
X115462599Y-96647993D01*
X115369507Y-96554901D01*
X115255493Y-96489075D01*
X115191909Y-96472037D01*
X115755489Y-95908457D01*
X115719739Y-95882483D01*
X115543873Y-95792873D01*
X115356146Y-95731876D01*
X115161197Y-95701000D01*
X114963803Y-95701000D01*
X114768853Y-95731876D01*
X114581126Y-95792873D01*
X114405262Y-95882482D01*
X114405260Y-95882483D01*
X114369510Y-95908456D01*
X114369510Y-95908457D01*
X114933091Y-96472037D01*
X114869507Y-96489075D01*
X114755493Y-96554901D01*
X114662401Y-96647993D01*
X114596575Y-96762007D01*
X114579537Y-96825590D01*
X114015957Y-96262010D01*
X114015956Y-96262010D01*
X113989983Y-96297760D01*
X113989979Y-96297767D01*
X113903263Y-96467954D01*
X113855288Y-96518749D01*
X113787467Y-96535544D01*
X113721333Y-96513006D01*
X113682298Y-96467957D01*
X113595444Y-96297499D01*
X113595442Y-96297496D01*
X113595441Y-96297494D01*
X113479384Y-96137753D01*
X113339746Y-95998115D01*
X113180004Y-95882058D01*
X113180003Y-95882057D01*
X113180001Y-95882056D01*
X113004061Y-95792409D01*
X113004058Y-95792408D01*
X112816263Y-95731389D01*
X112621236Y-95700500D01*
X112621231Y-95700500D01*
X112423769Y-95700500D01*
X112423764Y-95700500D01*
X112228736Y-95731389D01*
X112040941Y-95792408D01*
X111864995Y-95882058D01*
X111705253Y-95998115D01*
X111565615Y-96137753D01*
X111449558Y-96297495D01*
X111449556Y-96297499D01*
X111369305Y-96455000D01*
X111362985Y-96467403D01*
X111315010Y-96518199D01*
X111247189Y-96534994D01*
X111181054Y-96512456D01*
X111142015Y-96467403D01*
X111055444Y-96297499D01*
X111029659Y-96262009D01*
X110939384Y-96137753D01*
X110799746Y-95998115D01*
X110640004Y-95882058D01*
X110640003Y-95882057D01*
X110640001Y-95882056D01*
X110464061Y-95792409D01*
X110464058Y-95792408D01*
X110276263Y-95731389D01*
X110081236Y-95700500D01*
X110081231Y-95700500D01*
X109883769Y-95700500D01*
X109883764Y-95700500D01*
X109688736Y-95731389D01*
X109500941Y-95792408D01*
X109324995Y-95882058D01*
X109165253Y-95998115D01*
X109025615Y-96137753D01*
X108909558Y-96297495D01*
X108819908Y-96473441D01*
X108758889Y-96661236D01*
X108728000Y-96856263D01*
X108728000Y-97053736D01*
X108758889Y-97248763D01*
X108818925Y-97433534D01*
X108819909Y-97436561D01*
X108903709Y-97601025D01*
X108909558Y-97612504D01*
X109025615Y-97772246D01*
X109025621Y-97772252D01*
X109165248Y-97911879D01*
X109308811Y-98016183D01*
X109351476Y-98071511D01*
X109357455Y-98141124D01*
X109324850Y-98202919D01*
X109264012Y-98237277D01*
X109235927Y-98240500D01*
X109180630Y-98240500D01*
X109180623Y-98240501D01*
X109121016Y-98246908D01*
X108986171Y-98297202D01*
X108986164Y-98297206D01*
X108870955Y-98383452D01*
X108870952Y-98383455D01*
X108784706Y-98498664D01*
X108784702Y-98498671D01*
X108734408Y-98633517D01*
X108728001Y-98693116D01*
X108728001Y-98693123D01*
X108728000Y-98693135D01*
X108728000Y-100296870D01*
X108728001Y-100296876D01*
X108734408Y-100356483D01*
X108784702Y-100491328D01*
X108784706Y-100491335D01*
X108870952Y-100606544D01*
X108870955Y-100606547D01*
X108986164Y-100692793D01*
X108986171Y-100692797D01*
X109121017Y-100743091D01*
X109121016Y-100743091D01*
X109127944Y-100743835D01*
X109180627Y-100749500D01*
X110784372Y-100749499D01*
X110843983Y-100743091D01*
X110978831Y-100692796D01*
X111094046Y-100606546D01*
X111180296Y-100491331D01*
X111230591Y-100356483D01*
X111237000Y-100296873D01*
X111236999Y-100241574D01*
X111256682Y-100174538D01*
X111309486Y-100128783D01*
X111378644Y-100118838D01*
X111442200Y-100147862D01*
X111461317Y-100168691D01*
X111565615Y-100312245D01*
X111565619Y-100312250D01*
X111705253Y-100451884D01*
X111845904Y-100554071D01*
X111864999Y-100567944D01*
X112040939Y-100657591D01*
X112166137Y-100698270D01*
X112228736Y-100718610D01*
X112423764Y-100749500D01*
X112423769Y-100749500D01*
X112621236Y-100749500D01*
X112816263Y-100718610D01*
X112858821Y-100704782D01*
X113004061Y-100657591D01*
X113180001Y-100567944D01*
X113285455Y-100491328D01*
X113339746Y-100451884D01*
X113339748Y-100451881D01*
X113339752Y-100451879D01*
X113479379Y-100312252D01*
X113479381Y-100312248D01*
X113479384Y-100312246D01*
X113595441Y-100152505D01*
X113595443Y-100152502D01*
X113595444Y-100152501D01*
X113682017Y-99982593D01*
X113729990Y-99931800D01*
X113797811Y-99915005D01*
X113863946Y-99937542D01*
X113902982Y-99982593D01*
X113972404Y-100118838D01*
X113989558Y-100152505D01*
X114105615Y-100312246D01*
X114245253Y-100451884D01*
X114385904Y-100554071D01*
X114404999Y-100567944D01*
X114580939Y-100657591D01*
X114706137Y-100698270D01*
X114768736Y-100718610D01*
X114963764Y-100749500D01*
X114963769Y-100749500D01*
X115161236Y-100749500D01*
X115356263Y-100718610D01*
X115398821Y-100704782D01*
X115544061Y-100657591D01*
X115720001Y-100567944D01*
X115825455Y-100491328D01*
X115879746Y-100451884D01*
X115879748Y-100451881D01*
X115879752Y-100451879D01*
X116019379Y-100312252D01*
X116019381Y-100312248D01*
X116019384Y-100312246D01*
X116135441Y-100152505D01*
X116135443Y-100152502D01*
X116135444Y-100152501D01*
X116222017Y-99982593D01*
X116269990Y-99931800D01*
X116337811Y-99915005D01*
X116403946Y-99937542D01*
X116442982Y-99982593D01*
X116512404Y-100118838D01*
X116529558Y-100152505D01*
X116645615Y-100312246D01*
X116785253Y-100451884D01*
X116925904Y-100554071D01*
X116944999Y-100567944D01*
X117120939Y-100657591D01*
X117246137Y-100698270D01*
X117308736Y-100718610D01*
X117503764Y-100749500D01*
X117503769Y-100749500D01*
X117701236Y-100749500D01*
X117896263Y-100718610D01*
X117938821Y-100704782D01*
X118084061Y-100657591D01*
X118260001Y-100567944D01*
X118365455Y-100491328D01*
X118419746Y-100451884D01*
X118419748Y-100451881D01*
X118419752Y-100451879D01*
X118559379Y-100312252D01*
X118559381Y-100312248D01*
X118559384Y-100312246D01*
X118675443Y-100152502D01*
X118675579Y-100152236D01*
X118762297Y-99982043D01*
X118810268Y-99931250D01*
X118878089Y-99914455D01*
X118944224Y-99936992D01*
X118983263Y-99982045D01*
X119069981Y-100152236D01*
X119095957Y-100187988D01*
X119095957Y-100187989D01*
X119659537Y-99624409D01*
X119676575Y-99687993D01*
X119742401Y-99802007D01*
X119835493Y-99895099D01*
X119949507Y-99960925D01*
X120013090Y-99977962D01*
X119449509Y-100541541D01*
X119449510Y-100541542D01*
X119485255Y-100567512D01*
X119485268Y-100567520D01*
X119661126Y-100657126D01*
X119848853Y-100718123D01*
X120043803Y-100749000D01*
X120241197Y-100749000D01*
X120436146Y-100718123D01*
X120623873Y-100657126D01*
X120799741Y-100567516D01*
X120835488Y-100541543D01*
X120835488Y-100541541D01*
X120271910Y-99977962D01*
X120335493Y-99960925D01*
X120449507Y-99895099D01*
X120542599Y-99802007D01*
X120608425Y-99687993D01*
X120625462Y-99624409D01*
X121189041Y-100187988D01*
X121189043Y-100187988D01*
X121215016Y-100152241D01*
X121301735Y-99982046D01*
X121349710Y-99931250D01*
X121417531Y-99914455D01*
X121483665Y-99936992D01*
X121522702Y-99982042D01*
X121592404Y-100118838D01*
X121609558Y-100152505D01*
X121725615Y-100312246D01*
X121865253Y-100451884D01*
X122005904Y-100554071D01*
X122024999Y-100567944D01*
X122200939Y-100657591D01*
X122326137Y-100698270D01*
X122388736Y-100718610D01*
X122583764Y-100749500D01*
X122583769Y-100749500D01*
X122781236Y-100749500D01*
X122976263Y-100718610D01*
X123018821Y-100704782D01*
X123164061Y-100657591D01*
X123340001Y-100567944D01*
X123445455Y-100491328D01*
X123499746Y-100451884D01*
X123499748Y-100451881D01*
X123499752Y-100451879D01*
X123639379Y-100312252D01*
X123639381Y-100312248D01*
X123639384Y-100312246D01*
X123755441Y-100152505D01*
X123755443Y-100152502D01*
X123755444Y-100152501D01*
X123842017Y-99982593D01*
X123889990Y-99931800D01*
X123957811Y-99915005D01*
X124023946Y-99937542D01*
X124062982Y-99982593D01*
X124132404Y-100118838D01*
X124149558Y-100152505D01*
X124265615Y-100312246D01*
X124405253Y-100451884D01*
X124545904Y-100554071D01*
X124564999Y-100567944D01*
X124740939Y-100657591D01*
X124866137Y-100698270D01*
X124928736Y-100718610D01*
X125123764Y-100749500D01*
X125123769Y-100749500D01*
X125321236Y-100749500D01*
X125516263Y-100718610D01*
X125558821Y-100704782D01*
X125704061Y-100657591D01*
X125880001Y-100567944D01*
X125985455Y-100491328D01*
X126039746Y-100451884D01*
X126039748Y-100451881D01*
X126039752Y-100451879D01*
X126179379Y-100312252D01*
X126179381Y-100312248D01*
X126179384Y-100312246D01*
X126295441Y-100152505D01*
X126295443Y-100152502D01*
X126295444Y-100152501D01*
X126382017Y-99982593D01*
X126429990Y-99931800D01*
X126497811Y-99915005D01*
X126563946Y-99937542D01*
X126602982Y-99982593D01*
X126672404Y-100118838D01*
X126689558Y-100152505D01*
X126805615Y-100312246D01*
X126945253Y-100451884D01*
X127085904Y-100554071D01*
X127104999Y-100567944D01*
X127280939Y-100657591D01*
X127406137Y-100698270D01*
X127468736Y-100718610D01*
X127663764Y-100749500D01*
X127663769Y-100749500D01*
X127861236Y-100749500D01*
X128056263Y-100718610D01*
X128098821Y-100704782D01*
X128244061Y-100657591D01*
X128420001Y-100567944D01*
X128525455Y-100491328D01*
X128579746Y-100451884D01*
X128579748Y-100451881D01*
X128579752Y-100451879D01*
X128719379Y-100312252D01*
X128719381Y-100312248D01*
X128719384Y-100312246D01*
X128835441Y-100152505D01*
X128835443Y-100152502D01*
X128835444Y-100152501D01*
X128922017Y-99982593D01*
X128969990Y-99931800D01*
X129037811Y-99915005D01*
X129103946Y-99937542D01*
X129142982Y-99982593D01*
X129212404Y-100118838D01*
X129229558Y-100152505D01*
X129345615Y-100312246D01*
X129485253Y-100451884D01*
X129625904Y-100554071D01*
X129644999Y-100567944D01*
X129820939Y-100657591D01*
X129946137Y-100698270D01*
X130008736Y-100718610D01*
X130203764Y-100749500D01*
X130203769Y-100749500D01*
X130401236Y-100749500D01*
X130596263Y-100718610D01*
X130638821Y-100704782D01*
X130784061Y-100657591D01*
X130960001Y-100567944D01*
X131065455Y-100491328D01*
X131119746Y-100451884D01*
X131119748Y-100451881D01*
X131119752Y-100451879D01*
X131259379Y-100312252D01*
X131259381Y-100312248D01*
X131259384Y-100312246D01*
X131375441Y-100152505D01*
X131375443Y-100152502D01*
X131375444Y-100152501D01*
X131462017Y-99982593D01*
X131509990Y-99931800D01*
X131577811Y-99915005D01*
X131643946Y-99937542D01*
X131682982Y-99982593D01*
X131752404Y-100118838D01*
X131769558Y-100152505D01*
X131885615Y-100312246D01*
X132025253Y-100451884D01*
X132165904Y-100554071D01*
X132184999Y-100567944D01*
X132360939Y-100657591D01*
X132486137Y-100698270D01*
X132548736Y-100718610D01*
X132743764Y-100749500D01*
X132743769Y-100749500D01*
X132941236Y-100749500D01*
X133136263Y-100718610D01*
X133178821Y-100704782D01*
X133324061Y-100657591D01*
X133500001Y-100567944D01*
X133605455Y-100491328D01*
X133659746Y-100451884D01*
X133659748Y-100451881D01*
X133659752Y-100451879D01*
X133799379Y-100312252D01*
X133799381Y-100312248D01*
X133799384Y-100312246D01*
X133915441Y-100152505D01*
X133915443Y-100152502D01*
X133915444Y-100152501D01*
X134002017Y-99982593D01*
X134049990Y-99931800D01*
X134117811Y-99915005D01*
X134183946Y-99937542D01*
X134222982Y-99982593D01*
X134292404Y-100118838D01*
X134309558Y-100152505D01*
X134425615Y-100312246D01*
X134565253Y-100451884D01*
X134705904Y-100554071D01*
X134724999Y-100567944D01*
X134900939Y-100657591D01*
X134950786Y-100673787D01*
X135008462Y-100713225D01*
X135035660Y-100777583D01*
X135023745Y-100846430D01*
X135000149Y-100879399D01*
X134558454Y-101321094D01*
X134522092Y-101345394D01*
X134522239Y-101345668D01*
X134519465Y-101347149D01*
X134518245Y-101347966D01*
X134516883Y-101348530D01*
X134516869Y-101348537D01*
X134410326Y-101419726D01*
X134410325Y-101419727D01*
X129766873Y-106063181D01*
X129705550Y-106096666D01*
X129679192Y-106099500D01*
X129661306Y-106099500D01*
X129487341Y-106134103D01*
X129487332Y-106134106D01*
X129323459Y-106201983D01*
X129323446Y-106201990D01*
X129175965Y-106300535D01*
X129175961Y-106300538D01*
X129050538Y-106425961D01*
X129050535Y-106425965D01*
X128951990Y-106573446D01*
X128951983Y-106573459D01*
X128884106Y-106737332D01*
X128884103Y-106737341D01*
X128849500Y-106911304D01*
X128849500Y-107088695D01*
X128884103Y-107262658D01*
X128884106Y-107262667D01*
X128951983Y-107426540D01*
X128951990Y-107426553D01*
X129050535Y-107574034D01*
X129050538Y-107574038D01*
X129089319Y-107612819D01*
X129122804Y-107674142D01*
X129117820Y-107743834D01*
X129075948Y-107799767D01*
X129010484Y-107824184D01*
X129001638Y-107824500D01*
X119760929Y-107824500D01*
X119635261Y-107849497D01*
X119635255Y-107849499D01*
X119516874Y-107898534D01*
X119410326Y-107969726D01*
X119410325Y-107969727D01*
X113052779Y-114327274D01*
X113052778Y-114327275D01*
X113007079Y-114395671D01*
X113007077Y-114395673D01*
X112981593Y-114433810D01*
X112981587Y-114433821D01*
X112932553Y-114552201D01*
X112932551Y-114552207D01*
X112907554Y-114677874D01*
X112907554Y-119080382D01*
X112887869Y-119147421D01*
X112853462Y-119181099D01*
X112854179Y-119182085D01*
X112678267Y-119309890D01*
X112527944Y-119460213D01*
X112403005Y-119632179D01*
X112306498Y-119821585D01*
X112240807Y-120023760D01*
X112207554Y-120233713D01*
X112207554Y-120446286D01*
X112240807Y-120656239D01*
X112306498Y-120858414D01*
X112403005Y-121047820D01*
X112527944Y-121219786D01*
X112678267Y-121370109D01*
X112850233Y-121495048D01*
X112850235Y-121495049D01*
X112850238Y-121495051D01*
X113039642Y-121591557D01*
X113241811Y-121657246D01*
X113451767Y-121690500D01*
X113451768Y-121690500D01*
X113664340Y-121690500D01*
X113664341Y-121690500D01*
X113874297Y-121657246D01*
X114076466Y-121591557D01*
X114265870Y-121495051D01*
X114352192Y-121432335D01*
X114437840Y-121370109D01*
X114437842Y-121370106D01*
X114437846Y-121370104D01*
X114588158Y-121219792D01*
X114588160Y-121219788D01*
X114588163Y-121219786D01*
X114713102Y-121047820D01*
X114713101Y-121047820D01*
X114713105Y-121047816D01*
X114717568Y-121039054D01*
X114765542Y-120988259D01*
X114833362Y-120971463D01*
X114899498Y-120993999D01*
X114938540Y-121039056D01*
X114943005Y-121047820D01*
X115067944Y-121219786D01*
X115218267Y-121370109D01*
X115390233Y-121495048D01*
X115390235Y-121495049D01*
X115390238Y-121495051D01*
X115579642Y-121591557D01*
X115781811Y-121657246D01*
X115991767Y-121690500D01*
X115991768Y-121690500D01*
X116204340Y-121690500D01*
X116204341Y-121690500D01*
X116414297Y-121657246D01*
X116616466Y-121591557D01*
X116805870Y-121495051D01*
X116892192Y-121432335D01*
X116977840Y-121370109D01*
X116977842Y-121370106D01*
X116977846Y-121370104D01*
X117128158Y-121219792D01*
X117128160Y-121219788D01*
X117128163Y-121219786D01*
X117213944Y-121101717D01*
X117253105Y-121047816D01*
X117257847Y-121038508D01*
X117305817Y-120987711D01*
X117373637Y-120970911D01*
X117439773Y-120993445D01*
X117478817Y-121038500D01*
X117483427Y-121047547D01*
X117522782Y-121101716D01*
X118155091Y-120469408D01*
X118172129Y-120532993D01*
X118237955Y-120647007D01*
X118331047Y-120740099D01*
X118445061Y-120805925D01*
X118508644Y-120822962D01*
X117876336Y-121455269D01*
X117876336Y-121455270D01*
X117930503Y-121494624D01*
X118119836Y-121591095D01*
X118321924Y-121656757D01*
X118531808Y-121690000D01*
X118744300Y-121690000D01*
X118954181Y-121656757D01*
X118954184Y-121656757D01*
X119156271Y-121591095D01*
X119345608Y-121494622D01*
X119399770Y-121455270D01*
X119399771Y-121455270D01*
X118767462Y-120822962D01*
X118831047Y-120805925D01*
X118945061Y-120740099D01*
X119038153Y-120647007D01*
X119103979Y-120532993D01*
X119121016Y-120469408D01*
X119753324Y-121101717D01*
X119753324Y-121101716D01*
X119792676Y-121047555D01*
X119797286Y-121038507D01*
X119845259Y-120987709D01*
X119913079Y-120970912D01*
X119979215Y-120993447D01*
X120018258Y-121038504D01*
X120023003Y-121047817D01*
X120147944Y-121219786D01*
X120298267Y-121370109D01*
X120470233Y-121495048D01*
X120470235Y-121495049D01*
X120470238Y-121495051D01*
X120659642Y-121591557D01*
X120861811Y-121657246D01*
X121071767Y-121690500D01*
X121071768Y-121690500D01*
X121284340Y-121690500D01*
X121284341Y-121690500D01*
X121494297Y-121657246D01*
X121696466Y-121591557D01*
X121885870Y-121495051D01*
X121972192Y-121432335D01*
X122057840Y-121370109D01*
X122057842Y-121370106D01*
X122057846Y-121370104D01*
X122208158Y-121219792D01*
X122208160Y-121219788D01*
X122208163Y-121219786D01*
X122333102Y-121047820D01*
X122333101Y-121047820D01*
X122333105Y-121047816D01*
X122337568Y-121039054D01*
X122385542Y-120988259D01*
X122453362Y-120971463D01*
X122519498Y-120993999D01*
X122558540Y-121039056D01*
X122563005Y-121047820D01*
X122687944Y-121219786D01*
X122838267Y-121370109D01*
X123010233Y-121495048D01*
X123010235Y-121495049D01*
X123010238Y-121495051D01*
X123199642Y-121591557D01*
X123401811Y-121657246D01*
X123611767Y-121690500D01*
X123611768Y-121690500D01*
X123824340Y-121690500D01*
X123824341Y-121690500D01*
X124034297Y-121657246D01*
X124236466Y-121591557D01*
X124425870Y-121495051D01*
X124512192Y-121432335D01*
X124597840Y-121370109D01*
X124597842Y-121370106D01*
X124597846Y-121370104D01*
X124748158Y-121219792D01*
X124748160Y-121219788D01*
X124748163Y-121219786D01*
X124873102Y-121047820D01*
X124873101Y-121047820D01*
X124873105Y-121047816D01*
X124877568Y-121039054D01*
X124925542Y-120988259D01*
X124993362Y-120971463D01*
X125059498Y-120993999D01*
X125098540Y-121039056D01*
X125103005Y-121047820D01*
X125227944Y-121219786D01*
X125378267Y-121370109D01*
X125550233Y-121495048D01*
X125550235Y-121495049D01*
X125550238Y-121495051D01*
X125739642Y-121591557D01*
X125941811Y-121657246D01*
X126151767Y-121690500D01*
X126151768Y-121690500D01*
X126364340Y-121690500D01*
X126364341Y-121690500D01*
X126574297Y-121657246D01*
X126776466Y-121591557D01*
X126965870Y-121495051D01*
X127052192Y-121432335D01*
X127137840Y-121370109D01*
X127137842Y-121370106D01*
X127137846Y-121370104D01*
X127288158Y-121219792D01*
X127288160Y-121219788D01*
X127288163Y-121219786D01*
X127413102Y-121047820D01*
X127413101Y-121047820D01*
X127413105Y-121047816D01*
X127417568Y-121039054D01*
X127465542Y-120988259D01*
X127533362Y-120971463D01*
X127599498Y-120993999D01*
X127638540Y-121039056D01*
X127643005Y-121047820D01*
X127767944Y-121219786D01*
X127918267Y-121370109D01*
X128090233Y-121495048D01*
X128090235Y-121495049D01*
X128090238Y-121495051D01*
X128279642Y-121591557D01*
X128481811Y-121657246D01*
X128691767Y-121690500D01*
X128691768Y-121690500D01*
X128904340Y-121690500D01*
X128904341Y-121690500D01*
X129114297Y-121657246D01*
X129316466Y-121591557D01*
X129505870Y-121495051D01*
X129677846Y-121370104D01*
X129791383Y-121256566D01*
X129852702Y-121223084D01*
X129922394Y-121228068D01*
X129978328Y-121269939D01*
X129995243Y-121300917D01*
X130044256Y-121432328D01*
X130044260Y-121432335D01*
X130130506Y-121547544D01*
X130130509Y-121547547D01*
X130245718Y-121633793D01*
X130245725Y-121633797D01*
X130380571Y-121684091D01*
X130380570Y-121684091D01*
X130387498Y-121684835D01*
X130440181Y-121690500D01*
X132235926Y-121690499D01*
X132295537Y-121684091D01*
X132430385Y-121633796D01*
X132545600Y-121547546D01*
X132631850Y-121432331D01*
X132682145Y-121297483D01*
X132688554Y-121237873D01*
X132688553Y-119442128D01*
X132682145Y-119382517D01*
X132680864Y-119379083D01*
X132631851Y-119247671D01*
X132631847Y-119247664D01*
X132545601Y-119132455D01*
X132545598Y-119132452D01*
X132430389Y-119046206D01*
X132430382Y-119046202D01*
X132295536Y-118995908D01*
X132295537Y-118995908D01*
X132235937Y-118989501D01*
X132235935Y-118989500D01*
X132235927Y-118989500D01*
X132235918Y-118989500D01*
X130440183Y-118989500D01*
X130440177Y-118989501D01*
X130380570Y-118995908D01*
X130245725Y-119046202D01*
X130245718Y-119046206D01*
X130130509Y-119132452D01*
X130130506Y-119132455D01*
X130044260Y-119247664D01*
X130044257Y-119247669D01*
X129995243Y-119379083D01*
X129953371Y-119435016D01*
X129887907Y-119459433D01*
X129819634Y-119444581D01*
X129791380Y-119423430D01*
X129677840Y-119309890D01*
X129505874Y-119184951D01*
X129316468Y-119088444D01*
X129316467Y-119088443D01*
X129316466Y-119088443D01*
X129114297Y-119022754D01*
X129114295Y-119022753D01*
X129114294Y-119022753D01*
X128953011Y-118997208D01*
X128904341Y-118989500D01*
X128691767Y-118989500D01*
X128643096Y-118997208D01*
X128481814Y-119022753D01*
X128279639Y-119088444D01*
X128090233Y-119184951D01*
X127918267Y-119309890D01*
X127767944Y-119460213D01*
X127643003Y-119632182D01*
X127638538Y-119640946D01*
X127590563Y-119691742D01*
X127522742Y-119708536D01*
X127456607Y-119685998D01*
X127417570Y-119640946D01*
X127413104Y-119632182D01*
X127288163Y-119460213D01*
X127137840Y-119309890D01*
X126965874Y-119184951D01*
X126776468Y-119088444D01*
X126776467Y-119088443D01*
X126776466Y-119088443D01*
X126574297Y-119022754D01*
X126574295Y-119022753D01*
X126574294Y-119022753D01*
X126413011Y-118997208D01*
X126364341Y-118989500D01*
X126151767Y-118989500D01*
X126103096Y-118997208D01*
X125941814Y-119022753D01*
X125739639Y-119088444D01*
X125550233Y-119184951D01*
X125378267Y-119309890D01*
X125227944Y-119460213D01*
X125103003Y-119632182D01*
X125098538Y-119640946D01*
X125050563Y-119691742D01*
X124982742Y-119708536D01*
X124916607Y-119685998D01*
X124877570Y-119640946D01*
X124873104Y-119632182D01*
X124748163Y-119460213D01*
X124597840Y-119309890D01*
X124425874Y-119184951D01*
X124236468Y-119088444D01*
X124236467Y-119088443D01*
X124236466Y-119088443D01*
X124034297Y-119022754D01*
X124034295Y-119022753D01*
X124034294Y-119022753D01*
X123873011Y-118997208D01*
X123824341Y-118989500D01*
X123611767Y-118989500D01*
X123563096Y-118997208D01*
X123401814Y-119022753D01*
X123199639Y-119088444D01*
X123010233Y-119184951D01*
X122838267Y-119309890D01*
X122687944Y-119460213D01*
X122563003Y-119632182D01*
X122558538Y-119640946D01*
X122510563Y-119691742D01*
X122442742Y-119708536D01*
X122376607Y-119685998D01*
X122337570Y-119640946D01*
X122333104Y-119632182D01*
X122208163Y-119460213D01*
X122057840Y-119309890D01*
X121885874Y-119184951D01*
X121696468Y-119088444D01*
X121696467Y-119088443D01*
X121696466Y-119088443D01*
X121494297Y-119022754D01*
X121494295Y-119022753D01*
X121494294Y-119022753D01*
X121333011Y-118997208D01*
X121284341Y-118989500D01*
X121071767Y-118989500D01*
X121023096Y-118997208D01*
X120861814Y-119022753D01*
X120659639Y-119088444D01*
X120470233Y-119184951D01*
X120298267Y-119309890D01*
X120147944Y-119460213D01*
X120023003Y-119632182D01*
X120018256Y-119641499D01*
X119970281Y-119692293D01*
X119902459Y-119709087D01*
X119836325Y-119686548D01*
X119797288Y-119641495D01*
X119792680Y-119632452D01*
X119753324Y-119578282D01*
X119753323Y-119578282D01*
X119121016Y-120210590D01*
X119103979Y-120147007D01*
X119038153Y-120032993D01*
X118945061Y-119939901D01*
X118831047Y-119874075D01*
X118767463Y-119857037D01*
X119399770Y-119224728D01*
X119345604Y-119185375D01*
X119156271Y-119088904D01*
X118954183Y-119023242D01*
X118744300Y-118990000D01*
X118531808Y-118990000D01*
X118321926Y-119023242D01*
X118321923Y-119023242D01*
X118119836Y-119088904D01*
X117930493Y-119185380D01*
X117876336Y-119224727D01*
X117876336Y-119224728D01*
X118508645Y-119857037D01*
X118445061Y-119874075D01*
X118331047Y-119939901D01*
X118237955Y-120032993D01*
X118172129Y-120147007D01*
X118155091Y-120210591D01*
X117522782Y-119578282D01*
X117522781Y-119578282D01*
X117483434Y-119632440D01*
X117483430Y-119632446D01*
X117478814Y-119641505D01*
X117430835Y-119692297D01*
X117363013Y-119709087D01*
X117296880Y-119686543D01*
X117257848Y-119641493D01*
X117253105Y-119632184D01*
X117253103Y-119632181D01*
X117253102Y-119632179D01*
X117128163Y-119460213D01*
X116977840Y-119309890D01*
X116805874Y-119184951D01*
X116616468Y-119088444D01*
X116616467Y-119088443D01*
X116616466Y-119088443D01*
X116414297Y-119022754D01*
X116414295Y-119022753D01*
X116414294Y-119022753D01*
X116253011Y-118997208D01*
X116204341Y-118989500D01*
X115991767Y-118989500D01*
X115943096Y-118997208D01*
X115781814Y-119022753D01*
X115579639Y-119088444D01*
X115390233Y-119184951D01*
X115218267Y-119309890D01*
X115067944Y-119460213D01*
X114943003Y-119632182D01*
X114938538Y-119640946D01*
X114890563Y-119691742D01*
X114822742Y-119708536D01*
X114756607Y-119685998D01*
X114717570Y-119640946D01*
X114713104Y-119632182D01*
X114588163Y-119460213D01*
X114437840Y-119309890D01*
X114261929Y-119182085D01*
X114262905Y-119180740D01*
X114220888Y-119134295D01*
X114208554Y-119080382D01*
X114208554Y-115062754D01*
X114228239Y-114995715D01*
X114244873Y-114975073D01*
X117283642Y-111936304D01*
X132912000Y-111936304D01*
X132912000Y-112113695D01*
X132946603Y-112287658D01*
X132946606Y-112287667D01*
X133014483Y-112451540D01*
X133014490Y-112451553D01*
X133113035Y-112599034D01*
X133113038Y-112599038D01*
X133238461Y-112724461D01*
X133238465Y-112724464D01*
X133385946Y-112823009D01*
X133385959Y-112823016D01*
X133508863Y-112873923D01*
X133549834Y-112890894D01*
X133549836Y-112890894D01*
X133549841Y-112890896D01*
X133723804Y-112925499D01*
X133723807Y-112925500D01*
X133723809Y-112925500D01*
X133901193Y-112925500D01*
X133901194Y-112925499D01*
X133959182Y-112913964D01*
X134075158Y-112890896D01*
X134075161Y-112890894D01*
X134075166Y-112890894D01*
X134239047Y-112823013D01*
X134386535Y-112724464D01*
X134511964Y-112599035D01*
X134610513Y-112451547D01*
X134678394Y-112287666D01*
X134690838Y-112225109D01*
X134712999Y-112113695D01*
X134713000Y-112113693D01*
X134713000Y-111936306D01*
X134712999Y-111936304D01*
X134678396Y-111762341D01*
X134678393Y-111762332D01*
X134610516Y-111598459D01*
X134610509Y-111598446D01*
X134511964Y-111450965D01*
X134511961Y-111450961D01*
X134499319Y-111438319D01*
X134465834Y-111376996D01*
X134463000Y-111350638D01*
X134463000Y-110345808D01*
X134482685Y-110278769D01*
X134499319Y-110258127D01*
X137621142Y-107136304D01*
X138499500Y-107136304D01*
X138499500Y-107313695D01*
X138534103Y-107487658D01*
X138534106Y-107487667D01*
X138601983Y-107651540D01*
X138601990Y-107651553D01*
X138700535Y-107799034D01*
X138700538Y-107799038D01*
X138825961Y-107924461D01*
X138825965Y-107924464D01*
X138973446Y-108023009D01*
X138973459Y-108023016D01*
X139050106Y-108054763D01*
X139137334Y-108090894D01*
X139267234Y-108116733D01*
X139329143Y-108149116D01*
X139330722Y-108150668D01*
X140525681Y-109345627D01*
X140559166Y-109406950D01*
X140562000Y-109433308D01*
X140562000Y-113941608D01*
X140542315Y-114008647D01*
X140532440Y-114020901D01*
X140532871Y-114021255D01*
X140529005Y-114025965D01*
X140430460Y-114173446D01*
X140430453Y-114173459D01*
X140362576Y-114337332D01*
X140362573Y-114337341D01*
X140327970Y-114511304D01*
X140327970Y-114688695D01*
X140362573Y-114862658D01*
X140362576Y-114862667D01*
X140430453Y-115026540D01*
X140430460Y-115026553D01*
X140529005Y-115174034D01*
X140529008Y-115174038D01*
X140654431Y-115299461D01*
X140654435Y-115299464D01*
X140801916Y-115398009D01*
X140801929Y-115398016D01*
X140924833Y-115448923D01*
X140965804Y-115465894D01*
X140965806Y-115465894D01*
X140965811Y-115465896D01*
X141139774Y-115500499D01*
X141139777Y-115500500D01*
X141139779Y-115500500D01*
X141317163Y-115500500D01*
X141317164Y-115500499D01*
X141375152Y-115488964D01*
X141491128Y-115465896D01*
X141491131Y-115465894D01*
X141491136Y-115465894D01*
X141655017Y-115398013D01*
X141802505Y-115299464D01*
X141927934Y-115174035D01*
X142026483Y-115026547D01*
X142094364Y-114862666D01*
X142128970Y-114688691D01*
X142128970Y-114511309D01*
X142128970Y-114511306D01*
X142128969Y-114511304D01*
X142094366Y-114337341D01*
X142094363Y-114337332D01*
X142026486Y-114173459D01*
X142026479Y-114173446D01*
X141927934Y-114025965D01*
X141927931Y-114025961D01*
X141914252Y-114012282D01*
X141905130Y-113995577D01*
X141891941Y-113981853D01*
X141885133Y-113958956D01*
X141880767Y-113950959D01*
X141880267Y-113948546D01*
X141878970Y-113941955D01*
X141878970Y-113941222D01*
X141865334Y-113872669D01*
X141865345Y-113872539D01*
X141863000Y-113848724D01*
X141863000Y-109048428D01*
X141838002Y-108922761D01*
X141838001Y-108922760D01*
X141838001Y-108922756D01*
X141788965Y-108804373D01*
X141784253Y-108797322D01*
X141774769Y-108783126D01*
X141774769Y-108783125D01*
X141717778Y-108697832D01*
X141717772Y-108697825D01*
X140336819Y-107316872D01*
X140303334Y-107255549D01*
X140300500Y-107229191D01*
X140300500Y-107136306D01*
X140300499Y-107136304D01*
X140265896Y-106962341D01*
X140265893Y-106962332D01*
X140198016Y-106798459D01*
X140198009Y-106798446D01*
X140099464Y-106650965D01*
X140099461Y-106650961D01*
X139974038Y-106525538D01*
X139974034Y-106525535D01*
X139826553Y-106426990D01*
X139826540Y-106426983D01*
X139662667Y-106359106D01*
X139662658Y-106359103D01*
X139488694Y-106324500D01*
X139488691Y-106324500D01*
X139311309Y-106324500D01*
X139311306Y-106324500D01*
X139137341Y-106359103D01*
X139137332Y-106359106D01*
X138973459Y-106426983D01*
X138973446Y-106426990D01*
X138825965Y-106525535D01*
X138825961Y-106525538D01*
X138700538Y-106650961D01*
X138700535Y-106650965D01*
X138601990Y-106798446D01*
X138601983Y-106798459D01*
X138534106Y-106962332D01*
X138534103Y-106962341D01*
X138499500Y-107136304D01*
X137621142Y-107136304D01*
X139695627Y-105061819D01*
X139756950Y-105028334D01*
X139783308Y-105025500D01*
X139801193Y-105025500D01*
X139801194Y-105025499D01*
X139859182Y-105013964D01*
X139975158Y-104990896D01*
X139975161Y-104990894D01*
X139975166Y-104990894D01*
X140139047Y-104923013D01*
X140286535Y-104824464D01*
X140411964Y-104699035D01*
X140510513Y-104551547D01*
X140578394Y-104387666D01*
X140582865Y-104365192D01*
X140601464Y-104271682D01*
X140613000Y-104213691D01*
X140613000Y-104036309D01*
X140613000Y-104036306D01*
X140612999Y-104036304D01*
X140578396Y-103862341D01*
X140578393Y-103862332D01*
X140510516Y-103698459D01*
X140510509Y-103698446D01*
X140411964Y-103550965D01*
X140411961Y-103550961D01*
X140286538Y-103425538D01*
X140286534Y-103425535D01*
X140139053Y-103326990D01*
X140139040Y-103326983D01*
X139975167Y-103259106D01*
X139975158Y-103259103D01*
X139801194Y-103224500D01*
X139801191Y-103224500D01*
X139623809Y-103224500D01*
X139623806Y-103224500D01*
X139449841Y-103259103D01*
X139449832Y-103259106D01*
X139285959Y-103326983D01*
X139285946Y-103326990D01*
X139138465Y-103425535D01*
X139138461Y-103425538D01*
X139013038Y-103550961D01*
X139013035Y-103550965D01*
X138914490Y-103698446D01*
X138914483Y-103698459D01*
X138846606Y-103862332D01*
X138846603Y-103862341D01*
X138812000Y-104036304D01*
X138812000Y-104054191D01*
X138792315Y-104121230D01*
X138775681Y-104141872D01*
X133307227Y-109610325D01*
X133307226Y-109610326D01*
X133236034Y-109716874D01*
X133186999Y-109835255D01*
X133186997Y-109835261D01*
X133162000Y-109960928D01*
X133162000Y-111350638D01*
X133142315Y-111417677D01*
X133125681Y-111438319D01*
X133113038Y-111450961D01*
X133113035Y-111450965D01*
X133014490Y-111598446D01*
X133014483Y-111598459D01*
X132946606Y-111762332D01*
X132946603Y-111762341D01*
X132912000Y-111936304D01*
X117283642Y-111936304D01*
X120058127Y-109161819D01*
X120119450Y-109128334D01*
X120145808Y-109125500D01*
X130498567Y-109125500D01*
X130583111Y-109108682D01*
X130624240Y-109100501D01*
X130742623Y-109051465D01*
X130747164Y-109048431D01*
X130849165Y-108980277D01*
X135130408Y-104699034D01*
X139422842Y-100406601D01*
X139912772Y-99916670D01*
X139912773Y-99916669D01*
X139912777Y-99916665D01*
X139983965Y-99810123D01*
X140018688Y-99726294D01*
X140062401Y-99802007D01*
X140155493Y-99895099D01*
X140269507Y-99960925D01*
X140333090Y-99977962D01*
X139769509Y-100541541D01*
X139769510Y-100541542D01*
X139805255Y-100567512D01*
X139805268Y-100567520D01*
X139981126Y-100657126D01*
X140168853Y-100718123D01*
X140363803Y-100749000D01*
X140561197Y-100749000D01*
X140756146Y-100718123D01*
X140943873Y-100657126D01*
X141119741Y-100567516D01*
X141155488Y-100541543D01*
X141155488Y-100541541D01*
X140591910Y-99977962D01*
X140655493Y-99960925D01*
X140769507Y-99895099D01*
X140862599Y-99802007D01*
X140928425Y-99687993D01*
X140945462Y-99624409D01*
X141509041Y-100187988D01*
X141509043Y-100187988D01*
X141535016Y-100152241D01*
X141621735Y-99982046D01*
X141669710Y-99931250D01*
X141737531Y-99914455D01*
X141803665Y-99936992D01*
X141842702Y-99982042D01*
X141912404Y-100118838D01*
X141929558Y-100152505D01*
X142045615Y-100312246D01*
X142185253Y-100451884D01*
X142325904Y-100554071D01*
X142344999Y-100567944D01*
X142520939Y-100657591D01*
X142646137Y-100698270D01*
X142708736Y-100718610D01*
X142903764Y-100749500D01*
X142903769Y-100749500D01*
X143101236Y-100749500D01*
X143296263Y-100718610D01*
X143338821Y-100704782D01*
X143484061Y-100657591D01*
X143660001Y-100567944D01*
X143765455Y-100491328D01*
X143819746Y-100451884D01*
X143819748Y-100451881D01*
X143819752Y-100451879D01*
X143959379Y-100312252D01*
X143959381Y-100312248D01*
X143959384Y-100312246D01*
X144075441Y-100152505D01*
X144075443Y-100152502D01*
X144075444Y-100152501D01*
X144162017Y-99982593D01*
X144209990Y-99931800D01*
X144277811Y-99915005D01*
X144343946Y-99937542D01*
X144382982Y-99982593D01*
X144452404Y-100118838D01*
X144469558Y-100152505D01*
X144585615Y-100312246D01*
X144725253Y-100451884D01*
X144865904Y-100554071D01*
X144884999Y-100567944D01*
X145060939Y-100657591D01*
X145186137Y-100698270D01*
X145248736Y-100718610D01*
X145443764Y-100749500D01*
X145443769Y-100749500D01*
X145641236Y-100749500D01*
X145836263Y-100718610D01*
X145878821Y-100704782D01*
X146024061Y-100657591D01*
X146200001Y-100567944D01*
X146305455Y-100491328D01*
X146359746Y-100451884D01*
X146359748Y-100451881D01*
X146359752Y-100451879D01*
X146499379Y-100312252D01*
X146499381Y-100312248D01*
X146499384Y-100312246D01*
X146615441Y-100152505D01*
X146615443Y-100152502D01*
X146615444Y-100152501D01*
X146702017Y-99982593D01*
X146749990Y-99931800D01*
X146817811Y-99915005D01*
X146883946Y-99937542D01*
X146922982Y-99982593D01*
X146992404Y-100118838D01*
X147009558Y-100152505D01*
X147125615Y-100312246D01*
X147265253Y-100451884D01*
X147405904Y-100554071D01*
X147424999Y-100567944D01*
X147600939Y-100657591D01*
X147726137Y-100698270D01*
X147788736Y-100718610D01*
X147983764Y-100749500D01*
X147983769Y-100749500D01*
X148181236Y-100749500D01*
X148376263Y-100718610D01*
X148418821Y-100704782D01*
X148564061Y-100657591D01*
X148740001Y-100567944D01*
X148845455Y-100491328D01*
X148899746Y-100451884D01*
X148899748Y-100451881D01*
X148899752Y-100451879D01*
X149039379Y-100312252D01*
X149039381Y-100312248D01*
X149039384Y-100312246D01*
X149155441Y-100152505D01*
X149155443Y-100152502D01*
X149155444Y-100152501D01*
X149242017Y-99982593D01*
X149289990Y-99931800D01*
X149357811Y-99915005D01*
X149423946Y-99937542D01*
X149462982Y-99982593D01*
X149532404Y-100118838D01*
X149549558Y-100152505D01*
X149665615Y-100312246D01*
X149805251Y-100451882D01*
X149859545Y-100491328D01*
X149920885Y-100535893D01*
X149963551Y-100591221D01*
X149972000Y-100636211D01*
X149972000Y-116994191D01*
X149952315Y-117061230D01*
X149935681Y-117081872D01*
X148032569Y-118984983D01*
X147971246Y-119018468D01*
X147925490Y-119019775D01*
X147809832Y-119001456D01*
X147734341Y-118989500D01*
X147521767Y-118989500D01*
X147473096Y-118997208D01*
X147311814Y-119022753D01*
X147109639Y-119088444D01*
X146920233Y-119184951D01*
X146748267Y-119309890D01*
X146597944Y-119460213D01*
X146473003Y-119632182D01*
X146468538Y-119640946D01*
X146420563Y-119691742D01*
X146352742Y-119708536D01*
X146286607Y-119685998D01*
X146247570Y-119640946D01*
X146243104Y-119632182D01*
X146118163Y-119460213D01*
X145967840Y-119309890D01*
X145795874Y-119184951D01*
X145606468Y-119088444D01*
X145606467Y-119088443D01*
X145606466Y-119088443D01*
X145404297Y-119022754D01*
X145404295Y-119022753D01*
X145404294Y-119022753D01*
X145243011Y-118997208D01*
X145194341Y-118989500D01*
X144981767Y-118989500D01*
X144933096Y-118997208D01*
X144771814Y-119022753D01*
X144569639Y-119088444D01*
X144380233Y-119184951D01*
X144208267Y-119309890D01*
X144057944Y-119460213D01*
X143933003Y-119632182D01*
X143928538Y-119640946D01*
X143880563Y-119691742D01*
X143812742Y-119708536D01*
X143746607Y-119685998D01*
X143707570Y-119640946D01*
X143703104Y-119632182D01*
X143578163Y-119460213D01*
X143427840Y-119309890D01*
X143255874Y-119184951D01*
X143066468Y-119088444D01*
X143066467Y-119088443D01*
X143066466Y-119088443D01*
X142864297Y-119022754D01*
X142864295Y-119022753D01*
X142864294Y-119022753D01*
X142703011Y-118997208D01*
X142654341Y-118989500D01*
X142441767Y-118989500D01*
X142393096Y-118997208D01*
X142231814Y-119022753D01*
X142029639Y-119088444D01*
X141840233Y-119184951D01*
X141668267Y-119309890D01*
X141517944Y-119460213D01*
X141393003Y-119632182D01*
X141388538Y-119640946D01*
X141340563Y-119691742D01*
X141272742Y-119708536D01*
X141206607Y-119685998D01*
X141167570Y-119640946D01*
X141163104Y-119632182D01*
X141038163Y-119460213D01*
X140887840Y-119309890D01*
X140715874Y-119184951D01*
X140526468Y-119088444D01*
X140526467Y-119088443D01*
X140526466Y-119088443D01*
X140324297Y-119022754D01*
X140324295Y-119022753D01*
X140324294Y-119022753D01*
X140163011Y-118997208D01*
X140114341Y-118989500D01*
X139901767Y-118989500D01*
X139853096Y-118997208D01*
X139691814Y-119022753D01*
X139489639Y-119088444D01*
X139300233Y-119184951D01*
X139128267Y-119309890D01*
X138977944Y-119460213D01*
X138853003Y-119632182D01*
X138848538Y-119640946D01*
X138800563Y-119691742D01*
X138732742Y-119708536D01*
X138666607Y-119685998D01*
X138627570Y-119640946D01*
X138623104Y-119632182D01*
X138498163Y-119460213D01*
X138347840Y-119309890D01*
X138175874Y-119184951D01*
X137986468Y-119088444D01*
X137986467Y-119088443D01*
X137986466Y-119088443D01*
X137784297Y-119022754D01*
X137784295Y-119022753D01*
X137784294Y-119022753D01*
X137623011Y-118997208D01*
X137574341Y-118989500D01*
X137361767Y-118989500D01*
X137313096Y-118997208D01*
X137151814Y-119022753D01*
X136949639Y-119088444D01*
X136760233Y-119184951D01*
X136588267Y-119309890D01*
X136437944Y-119460213D01*
X136313005Y-119632179D01*
X136216498Y-119821585D01*
X136150807Y-120023760D01*
X136117554Y-120233713D01*
X136117554Y-120446286D01*
X136150807Y-120656239D01*
X136216498Y-120858414D01*
X136313005Y-121047820D01*
X136437944Y-121219786D01*
X136588267Y-121370109D01*
X136760233Y-121495048D01*
X136760235Y-121495049D01*
X136760238Y-121495051D01*
X136949642Y-121591557D01*
X137151811Y-121657246D01*
X137361767Y-121690500D01*
X137361768Y-121690500D01*
X137574340Y-121690500D01*
X137574341Y-121690500D01*
X137784297Y-121657246D01*
X137986466Y-121591557D01*
X138175870Y-121495051D01*
X138262192Y-121432335D01*
X138347840Y-121370109D01*
X138347842Y-121370106D01*
X138347846Y-121370104D01*
X138498158Y-121219792D01*
X138498160Y-121219788D01*
X138498163Y-121219786D01*
X138623102Y-121047820D01*
X138623101Y-121047820D01*
X138623105Y-121047816D01*
X138627568Y-121039054D01*
X138675542Y-120988259D01*
X138743362Y-120971463D01*
X138809498Y-120993999D01*
X138848540Y-121039056D01*
X138853005Y-121047820D01*
X138977944Y-121219786D01*
X139128267Y-121370109D01*
X139300233Y-121495048D01*
X139300235Y-121495049D01*
X139300238Y-121495051D01*
X139489642Y-121591557D01*
X139691811Y-121657246D01*
X139901767Y-121690500D01*
X139901768Y-121690500D01*
X140114340Y-121690500D01*
X140114341Y-121690500D01*
X140324297Y-121657246D01*
X140526466Y-121591557D01*
X140715870Y-121495051D01*
X140802192Y-121432335D01*
X140887840Y-121370109D01*
X140887842Y-121370106D01*
X140887846Y-121370104D01*
X141038158Y-121219792D01*
X141038160Y-121219788D01*
X141038163Y-121219786D01*
X141163102Y-121047820D01*
X141163101Y-121047820D01*
X141163105Y-121047816D01*
X141167568Y-121039054D01*
X141215542Y-120988259D01*
X141283362Y-120971463D01*
X141349498Y-120993999D01*
X141388540Y-121039056D01*
X141393005Y-121047820D01*
X141517944Y-121219786D01*
X141668267Y-121370109D01*
X141840233Y-121495048D01*
X141840235Y-121495049D01*
X141840238Y-121495051D01*
X142029642Y-121591557D01*
X142231811Y-121657246D01*
X142441767Y-121690500D01*
X142441768Y-121690500D01*
X142654340Y-121690500D01*
X142654341Y-121690500D01*
X142864297Y-121657246D01*
X143066466Y-121591557D01*
X143255870Y-121495051D01*
X143342192Y-121432335D01*
X143427840Y-121370109D01*
X143427842Y-121370106D01*
X143427846Y-121370104D01*
X143578158Y-121219792D01*
X143578160Y-121219788D01*
X143578163Y-121219786D01*
X143703102Y-121047820D01*
X143703101Y-121047820D01*
X143703105Y-121047816D01*
X143707568Y-121039054D01*
X143755542Y-120988259D01*
X143823362Y-120971463D01*
X143889498Y-120993999D01*
X143928540Y-121039056D01*
X143933005Y-121047820D01*
X144057944Y-121219786D01*
X144208267Y-121370109D01*
X144380233Y-121495048D01*
X144380235Y-121495049D01*
X144380238Y-121495051D01*
X144569642Y-121591557D01*
X144771811Y-121657246D01*
X144981767Y-121690500D01*
X144981768Y-121690500D01*
X145194340Y-121690500D01*
X145194341Y-121690500D01*
X145404297Y-121657246D01*
X145606466Y-121591557D01*
X145795870Y-121495051D01*
X145882192Y-121432335D01*
X145967840Y-121370109D01*
X145967842Y-121370106D01*
X145967846Y-121370104D01*
X146118158Y-121219792D01*
X146118160Y-121219788D01*
X146118163Y-121219786D01*
X146243102Y-121047820D01*
X146243101Y-121047820D01*
X146243105Y-121047816D01*
X146247568Y-121039054D01*
X146295542Y-120988259D01*
X146363362Y-120971463D01*
X146429498Y-120993999D01*
X146468540Y-121039056D01*
X146473005Y-121047820D01*
X146597944Y-121219786D01*
X146748267Y-121370109D01*
X146920233Y-121495048D01*
X146920235Y-121495049D01*
X146920238Y-121495051D01*
X147109642Y-121591557D01*
X147311811Y-121657246D01*
X147521767Y-121690500D01*
X147521768Y-121690500D01*
X147734340Y-121690500D01*
X147734341Y-121690500D01*
X147944297Y-121657246D01*
X148146466Y-121591557D01*
X148335870Y-121495051D01*
X148422192Y-121432335D01*
X148507840Y-121370109D01*
X148507842Y-121370106D01*
X148507846Y-121370104D01*
X148658158Y-121219792D01*
X148658160Y-121219788D01*
X148658163Y-121219786D01*
X148783102Y-121047820D01*
X148783101Y-121047820D01*
X148783105Y-121047816D01*
X148787568Y-121039054D01*
X148835542Y-120988259D01*
X148903362Y-120971463D01*
X148969498Y-120993999D01*
X149008540Y-121039056D01*
X149013005Y-121047820D01*
X149137944Y-121219786D01*
X149288267Y-121370109D01*
X149460233Y-121495048D01*
X149460235Y-121495049D01*
X149460238Y-121495051D01*
X149649642Y-121591557D01*
X149851811Y-121657246D01*
X150061767Y-121690500D01*
X150061768Y-121690500D01*
X150274340Y-121690500D01*
X150274341Y-121690500D01*
X150484297Y-121657246D01*
X150686466Y-121591557D01*
X150875870Y-121495051D01*
X150962192Y-121432335D01*
X151047840Y-121370109D01*
X151047842Y-121370106D01*
X151047846Y-121370104D01*
X151198158Y-121219792D01*
X151198160Y-121219788D01*
X151198163Y-121219786D01*
X151323102Y-121047820D01*
X151323101Y-121047820D01*
X151323105Y-121047816D01*
X151327568Y-121039054D01*
X151375542Y-120988259D01*
X151443362Y-120971463D01*
X151509498Y-120993999D01*
X151548540Y-121039056D01*
X151553005Y-121047820D01*
X151677944Y-121219786D01*
X151828267Y-121370109D01*
X152000233Y-121495048D01*
X152000235Y-121495049D01*
X152000238Y-121495051D01*
X152189642Y-121591557D01*
X152391811Y-121657246D01*
X152601767Y-121690500D01*
X152601768Y-121690500D01*
X152814340Y-121690500D01*
X152814341Y-121690500D01*
X153024297Y-121657246D01*
X153226466Y-121591557D01*
X153415870Y-121495051D01*
X153587846Y-121370104D01*
X153701383Y-121256566D01*
X153762702Y-121223084D01*
X153832394Y-121228068D01*
X153888328Y-121269939D01*
X153905243Y-121300917D01*
X153954256Y-121432328D01*
X153954260Y-121432335D01*
X154040506Y-121547544D01*
X154040509Y-121547547D01*
X154155718Y-121633793D01*
X154155725Y-121633797D01*
X154290571Y-121684091D01*
X154290570Y-121684091D01*
X154297498Y-121684835D01*
X154350181Y-121690500D01*
X156145926Y-121690499D01*
X156205537Y-121684091D01*
X156340385Y-121633796D01*
X156455600Y-121547546D01*
X156541850Y-121432331D01*
X156592145Y-121297483D01*
X156598554Y-121237873D01*
X156598554Y-121097070D01*
X161487000Y-121097070D01*
X161487000Y-121352929D01*
X161527026Y-121605640D01*
X161606088Y-121848972D01*
X161606089Y-121848975D01*
X161681755Y-121997476D01*
X161689329Y-122012341D01*
X161722250Y-122076950D01*
X161872632Y-122283935D01*
X161872636Y-122283940D01*
X162053559Y-122464863D01*
X162053564Y-122464867D01*
X162177967Y-122555250D01*
X162260553Y-122615252D01*
X162409580Y-122691185D01*
X162488524Y-122731410D01*
X162488527Y-122731411D01*
X162610193Y-122770942D01*
X162731861Y-122810474D01*
X162984570Y-122850500D01*
X162984571Y-122850500D01*
X163240429Y-122850500D01*
X163240430Y-122850500D01*
X163493139Y-122810474D01*
X163736475Y-122731410D01*
X163964447Y-122615252D01*
X164171442Y-122464862D01*
X164352362Y-122283942D01*
X164502752Y-122076947D01*
X164618910Y-121848975D01*
X164697974Y-121605639D01*
X164738000Y-121352930D01*
X164738000Y-121097070D01*
X164697974Y-120844361D01*
X164636850Y-120656239D01*
X164618911Y-120601027D01*
X164618910Y-120601024D01*
X164578685Y-120522080D01*
X164502752Y-120373053D01*
X164401516Y-120233713D01*
X164352367Y-120166064D01*
X164352363Y-120166059D01*
X164171440Y-119985136D01*
X164171435Y-119985132D01*
X163964450Y-119834750D01*
X163964449Y-119834749D01*
X163964447Y-119834748D01*
X163891410Y-119797533D01*
X163736475Y-119718589D01*
X163736472Y-119718588D01*
X163493140Y-119639526D01*
X163366784Y-119619513D01*
X163240430Y-119599500D01*
X162984570Y-119599500D01*
X162900333Y-119612842D01*
X162731859Y-119639526D01*
X162488527Y-119718588D01*
X162488524Y-119718589D01*
X162260549Y-119834750D01*
X162053564Y-119985132D01*
X162053559Y-119985136D01*
X161872636Y-120166059D01*
X161872632Y-120166064D01*
X161722250Y-120373049D01*
X161606089Y-120601024D01*
X161606088Y-120601027D01*
X161527026Y-120844359D01*
X161487000Y-121097070D01*
X156598554Y-121097070D01*
X156598553Y-120340000D01*
X156598553Y-119442129D01*
X156598552Y-119442123D01*
X156592145Y-119382516D01*
X156541851Y-119247671D01*
X156541847Y-119247664D01*
X156455601Y-119132455D01*
X156455598Y-119132452D01*
X156340389Y-119046206D01*
X156340382Y-119046202D01*
X156205536Y-118995908D01*
X156205537Y-118995908D01*
X156145937Y-118989501D01*
X156145935Y-118989500D01*
X156145927Y-118989500D01*
X156145919Y-118989500D01*
X156022554Y-118989500D01*
X155955515Y-118969815D01*
X155909760Y-118917011D01*
X155898554Y-118865500D01*
X155898554Y-105217135D01*
X160877000Y-105217135D01*
X160877000Y-107012870D01*
X160877001Y-107012876D01*
X160883408Y-107072483D01*
X160933702Y-107207328D01*
X160933706Y-107207335D01*
X161019952Y-107322544D01*
X161019955Y-107322547D01*
X161135164Y-107408793D01*
X161135171Y-107408797D01*
X161180118Y-107425561D01*
X161270017Y-107459091D01*
X161329627Y-107465500D01*
X161340185Y-107465499D01*
X161407223Y-107485179D01*
X161427872Y-107501818D01*
X162098091Y-108172037D01*
X162034507Y-108189075D01*
X161920493Y-108254901D01*
X161827401Y-108347993D01*
X161761575Y-108462007D01*
X161744537Y-108525591D01*
X161112228Y-107893282D01*
X161112227Y-107893282D01*
X161072880Y-107947439D01*
X160976404Y-108136782D01*
X160910742Y-108338869D01*
X160910742Y-108338872D01*
X160877500Y-108548753D01*
X160877500Y-108761246D01*
X160910742Y-108971127D01*
X160910742Y-108971130D01*
X160976404Y-109173217D01*
X161072875Y-109362550D01*
X161112228Y-109416716D01*
X161744537Y-108784408D01*
X161761575Y-108847993D01*
X161827401Y-108962007D01*
X161920493Y-109055099D01*
X162034507Y-109120925D01*
X162098090Y-109137962D01*
X161465782Y-109770269D01*
X161465782Y-109770270D01*
X161519952Y-109809626D01*
X161519951Y-109809626D01*
X161528995Y-109814234D01*
X161579792Y-109862208D01*
X161596587Y-109930029D01*
X161574050Y-109996164D01*
X161528999Y-110035202D01*
X161519682Y-110039949D01*
X161347713Y-110164890D01*
X161197390Y-110315213D01*
X161072451Y-110487179D01*
X160975944Y-110676585D01*
X160910253Y-110878760D01*
X160877000Y-111088713D01*
X160877000Y-111301287D01*
X160910254Y-111511243D01*
X160938592Y-111598459D01*
X160975944Y-111713414D01*
X161072451Y-111902820D01*
X161197390Y-112074786D01*
X161347713Y-112225109D01*
X161519682Y-112350050D01*
X161528446Y-112354516D01*
X161579242Y-112402491D01*
X161596036Y-112470312D01*
X161573498Y-112536447D01*
X161528446Y-112575484D01*
X161519682Y-112579949D01*
X161347713Y-112704890D01*
X161197390Y-112855213D01*
X161072451Y-113027179D01*
X160975944Y-113216585D01*
X160910253Y-113418760D01*
X160877000Y-113628713D01*
X160877000Y-113841287D01*
X160887034Y-113904644D01*
X160906249Y-114025961D01*
X160910254Y-114051243D01*
X160949960Y-114173446D01*
X160975944Y-114253414D01*
X161072451Y-114442820D01*
X161197390Y-114614786D01*
X161347713Y-114765109D01*
X161519679Y-114890048D01*
X161519681Y-114890049D01*
X161519684Y-114890051D01*
X161709088Y-114986557D01*
X161911257Y-115052246D01*
X162121213Y-115085500D01*
X162121214Y-115085500D01*
X162333786Y-115085500D01*
X162333787Y-115085500D01*
X162543743Y-115052246D01*
X162745912Y-114986557D01*
X162935316Y-114890051D01*
X162973007Y-114862667D01*
X163107286Y-114765109D01*
X163107288Y-114765106D01*
X163107292Y-114765104D01*
X163257604Y-114614792D01*
X163257606Y-114614788D01*
X163257609Y-114614786D01*
X163382548Y-114442820D01*
X163382547Y-114442820D01*
X163382551Y-114442816D01*
X163479057Y-114253412D01*
X163544746Y-114051243D01*
X163578000Y-113841287D01*
X163578000Y-113628713D01*
X163544746Y-113418757D01*
X163479057Y-113216588D01*
X163382551Y-113027184D01*
X163382549Y-113027181D01*
X163382548Y-113027179D01*
X163257609Y-112855213D01*
X163107286Y-112704890D01*
X162935320Y-112579951D01*
X162934615Y-112579591D01*
X162926554Y-112575485D01*
X162875759Y-112527512D01*
X162858963Y-112459692D01*
X162881499Y-112393556D01*
X162926554Y-112354515D01*
X162935316Y-112350051D01*
X163021181Y-112287667D01*
X163107286Y-112225109D01*
X163107288Y-112225106D01*
X163107292Y-112225104D01*
X163257604Y-112074792D01*
X163257606Y-112074788D01*
X163257609Y-112074786D01*
X163382548Y-111902820D01*
X163382547Y-111902820D01*
X163382551Y-111902816D01*
X163479057Y-111713412D01*
X163544746Y-111511243D01*
X163578000Y-111301287D01*
X163578000Y-111088713D01*
X163544746Y-110878757D01*
X163479057Y-110676588D01*
X163382551Y-110487184D01*
X163382549Y-110487181D01*
X163382548Y-110487179D01*
X163257609Y-110315213D01*
X163107286Y-110164890D01*
X162935317Y-110039949D01*
X162926004Y-110035204D01*
X162875207Y-109987230D01*
X162858412Y-109919409D01*
X162880949Y-109853274D01*
X162926007Y-109814232D01*
X162935055Y-109809622D01*
X162989216Y-109770270D01*
X162989217Y-109770270D01*
X162356908Y-109137962D01*
X162420493Y-109120925D01*
X162534507Y-109055099D01*
X162627599Y-108962007D01*
X162693425Y-108847993D01*
X162710462Y-108784409D01*
X163342770Y-109416717D01*
X163342770Y-109416716D01*
X163382122Y-109362554D01*
X163478595Y-109173217D01*
X163544257Y-108971130D01*
X163544257Y-108971127D01*
X163577500Y-108761246D01*
X163577500Y-108548753D01*
X163544257Y-108338872D01*
X163544257Y-108338869D01*
X163478595Y-108136782D01*
X163382124Y-107947449D01*
X163342770Y-107893282D01*
X163342769Y-107893282D01*
X162710462Y-108525590D01*
X162693425Y-108462007D01*
X162627599Y-108347993D01*
X162534507Y-108254901D01*
X162420493Y-108189075D01*
X162356909Y-108172037D01*
X163027127Y-107501818D01*
X163088450Y-107468333D01*
X163114807Y-107465499D01*
X163125372Y-107465499D01*
X163184983Y-107459091D01*
X163319831Y-107408796D01*
X163435046Y-107322546D01*
X163521296Y-107207331D01*
X163571591Y-107072483D01*
X163578000Y-107012873D01*
X163577999Y-105217128D01*
X163571591Y-105157517D01*
X163521296Y-105022669D01*
X163521295Y-105022668D01*
X163521293Y-105022664D01*
X163435047Y-104907455D01*
X163435044Y-104907452D01*
X163319835Y-104821206D01*
X163319828Y-104821202D01*
X163184982Y-104770908D01*
X163184983Y-104770908D01*
X163125383Y-104764501D01*
X163125381Y-104764500D01*
X163125373Y-104764500D01*
X163125364Y-104764500D01*
X161329629Y-104764500D01*
X161329623Y-104764501D01*
X161270016Y-104770908D01*
X161135171Y-104821202D01*
X161135164Y-104821206D01*
X161019955Y-104907452D01*
X161019952Y-104907455D01*
X160933706Y-105022664D01*
X160933702Y-105022671D01*
X160883408Y-105157517D01*
X160877001Y-105217116D01*
X160877001Y-105217123D01*
X160877000Y-105217135D01*
X155898554Y-105217135D01*
X155898554Y-104860254D01*
X155918239Y-104793215D01*
X155934873Y-104772573D01*
X159802771Y-100904675D01*
X159802776Y-100904670D01*
X159873965Y-100798127D01*
X159923001Y-100679744D01*
X159931182Y-100638615D01*
X159948000Y-100554071D01*
X159948000Y-98097070D01*
X161487000Y-98097070D01*
X161487000Y-98352929D01*
X161527026Y-98605640D01*
X161606088Y-98848972D01*
X161606089Y-98848975D01*
X161680494Y-98995000D01*
X161721533Y-99075544D01*
X161722250Y-99076950D01*
X161872632Y-99283935D01*
X161872636Y-99283940D01*
X162053559Y-99464863D01*
X162053564Y-99464867D01*
X162209062Y-99577842D01*
X162260553Y-99615252D01*
X162403315Y-99687993D01*
X162488524Y-99731410D01*
X162488527Y-99731411D01*
X162610193Y-99770942D01*
X162731861Y-99810474D01*
X162984570Y-99850500D01*
X162984571Y-99850500D01*
X163240429Y-99850500D01*
X163240430Y-99850500D01*
X163493139Y-99810474D01*
X163736475Y-99731410D01*
X163964447Y-99615252D01*
X164171442Y-99464862D01*
X164352362Y-99283942D01*
X164502752Y-99076947D01*
X164618910Y-98848975D01*
X164697974Y-98605639D01*
X164738000Y-98352930D01*
X164738000Y-98097070D01*
X164697974Y-97844361D01*
X164658442Y-97722693D01*
X164618911Y-97601027D01*
X164618910Y-97601024D01*
X164537906Y-97442047D01*
X164502752Y-97373053D01*
X164417879Y-97256235D01*
X164352367Y-97166064D01*
X164352363Y-97166059D01*
X164171440Y-96985136D01*
X164171435Y-96985132D01*
X163964450Y-96834750D01*
X163964449Y-96834749D01*
X163964447Y-96834748D01*
X163891410Y-96797533D01*
X163736475Y-96718589D01*
X163736472Y-96718588D01*
X163493140Y-96639526D01*
X163366784Y-96619513D01*
X163240430Y-96599500D01*
X162984570Y-96599500D01*
X162900333Y-96612842D01*
X162731859Y-96639526D01*
X162488527Y-96718588D01*
X162488524Y-96718589D01*
X162260549Y-96834750D01*
X162053564Y-96985132D01*
X162053559Y-96985136D01*
X161872636Y-97166059D01*
X161872632Y-97166064D01*
X161722250Y-97373049D01*
X161606089Y-97601024D01*
X161606088Y-97601027D01*
X161527026Y-97844359D01*
X161487000Y-98097070D01*
X159948000Y-98097070D01*
X159948000Y-96453932D01*
X159923002Y-96328264D01*
X159923000Y-96328258D01*
X159902689Y-96279225D01*
X159902687Y-96279220D01*
X159873968Y-96209882D01*
X159873962Y-96209872D01*
X159802778Y-96103336D01*
X159802772Y-96103329D01*
X159115304Y-95415861D01*
X159081819Y-95354538D01*
X159086803Y-95284846D01*
X159128675Y-95228913D01*
X159194139Y-95204496D01*
X159202985Y-95204180D01*
X163525287Y-95204180D01*
X163525291Y-95204181D01*
X163587435Y-95204180D01*
X163594919Y-95204405D01*
X163884984Y-95221949D01*
X163899842Y-95223753D01*
X164181991Y-95275458D01*
X164196501Y-95279033D01*
X164470370Y-95364372D01*
X164484367Y-95369681D01*
X164745931Y-95487399D01*
X164759190Y-95494358D01*
X164960262Y-95615909D01*
X165004657Y-95642746D01*
X165016978Y-95651250D01*
X165197157Y-95792409D01*
X165242765Y-95828140D01*
X165253974Y-95838069D01*
X165456805Y-96040897D01*
X165466734Y-96052105D01*
X165643629Y-96277893D01*
X165652135Y-96290216D01*
X165800526Y-96535680D01*
X165807485Y-96548939D01*
X165925207Y-96810502D01*
X165930517Y-96824503D01*
X166015852Y-97098346D01*
X166019436Y-97112885D01*
X166071141Y-97395021D01*
X166072946Y-97409885D01*
X166090454Y-97699285D01*
X166090680Y-97706773D01*
X166090680Y-121637787D01*
X166090679Y-121637791D01*
X166090679Y-121656757D01*
X166090679Y-121682307D01*
X166090679Y-121699934D01*
X166090453Y-121707420D01*
X166072910Y-121997479D01*
X166071105Y-122012344D01*
X166019404Y-122294472D01*
X166015821Y-122309011D01*
X165930488Y-122582859D01*
X165925178Y-122596860D01*
X165807460Y-122858422D01*
X165800501Y-122871681D01*
X165652114Y-123117144D01*
X165643608Y-123129467D01*
X165466711Y-123355259D01*
X165456781Y-123366467D01*
X165253967Y-123569281D01*
X165242759Y-123579211D01*
X165016967Y-123756108D01*
X165004644Y-123764614D01*
X164759181Y-123913001D01*
X164745922Y-123919960D01*
X164484360Y-124037678D01*
X164470359Y-124042988D01*
X164196511Y-124128321D01*
X164181972Y-124131904D01*
X163899844Y-124183605D01*
X163884979Y-124185410D01*
X163594920Y-124202953D01*
X163587436Y-124203179D01*
X163555479Y-124203179D01*
X163525291Y-124203179D01*
X163525287Y-124203179D01*
X163517683Y-124203180D01*
X163517682Y-124203179D01*
X163517681Y-124203180D01*
X104594935Y-124203180D01*
X104587447Y-124202954D01*
X104587430Y-124202953D01*
X104583589Y-124202720D01*
X104297389Y-124185406D01*
X104282525Y-124183601D01*
X104000396Y-124131898D01*
X103985858Y-124128314D01*
X103888925Y-124098108D01*
X103712014Y-124042978D01*
X103698014Y-124037668D01*
X103436458Y-123919950D01*
X103423199Y-123912991D01*
X103177739Y-123764602D01*
X103165416Y-123756096D01*
X102939632Y-123579204D01*
X102928424Y-123569275D01*
X102725599Y-123366447D01*
X102715677Y-123355247D01*
X102538777Y-123129448D01*
X102530279Y-123117135D01*
X102381894Y-122871672D01*
X102374935Y-122858413D01*
X102257220Y-122596855D01*
X102251911Y-122582855D01*
X102166577Y-122309006D01*
X102162993Y-122294467D01*
X102161064Y-122283942D01*
X102111293Y-122012337D01*
X102109489Y-121997476D01*
X102102120Y-121875644D01*
X102091906Y-121706756D01*
X102091680Y-121699270D01*
X102091680Y-121682307D01*
X102091681Y-121637791D01*
X102091680Y-121637787D01*
X102091680Y-121097070D01*
X103487000Y-121097070D01*
X103487000Y-121352929D01*
X103527026Y-121605640D01*
X103606088Y-121848972D01*
X103606089Y-121848975D01*
X103681755Y-121997476D01*
X103689329Y-122012341D01*
X103722250Y-122076950D01*
X103872632Y-122283935D01*
X103872636Y-122283940D01*
X104053559Y-122464863D01*
X104053564Y-122464867D01*
X104177967Y-122555250D01*
X104260553Y-122615252D01*
X104409580Y-122691185D01*
X104488524Y-122731410D01*
X104488527Y-122731411D01*
X104610193Y-122770942D01*
X104731861Y-122810474D01*
X104984570Y-122850500D01*
X104984571Y-122850500D01*
X105240429Y-122850500D01*
X105240430Y-122850500D01*
X105493139Y-122810474D01*
X105736475Y-122731410D01*
X105964447Y-122615252D01*
X106171442Y-122464862D01*
X106352362Y-122283942D01*
X106502752Y-122076947D01*
X106618910Y-121848975D01*
X106697974Y-121605639D01*
X106738000Y-121352930D01*
X106738000Y-121097070D01*
X106697974Y-120844361D01*
X106636850Y-120656239D01*
X106618911Y-120601027D01*
X106618910Y-120601024D01*
X106578685Y-120522080D01*
X106502752Y-120373053D01*
X106401516Y-120233713D01*
X106352367Y-120166064D01*
X106352363Y-120166059D01*
X106171440Y-119985136D01*
X106171435Y-119985132D01*
X105964450Y-119834750D01*
X105964449Y-119834749D01*
X105964447Y-119834748D01*
X105891410Y-119797533D01*
X105736475Y-119718589D01*
X105736472Y-119718588D01*
X105679212Y-119699984D01*
X105621537Y-119660547D01*
X105594338Y-119596188D01*
X105606252Y-119527342D01*
X105653496Y-119475866D01*
X105717530Y-119458053D01*
X106850989Y-119458053D01*
X106850989Y-116643603D01*
X104681121Y-116643603D01*
X104681121Y-119458053D01*
X104687450Y-119464382D01*
X104720935Y-119525705D01*
X104715951Y-119595397D01*
X104674079Y-119651330D01*
X104638087Y-119669994D01*
X104488527Y-119718588D01*
X104488524Y-119718589D01*
X104260549Y-119834750D01*
X104053564Y-119985132D01*
X104053559Y-119985136D01*
X103872636Y-120166059D01*
X103872632Y-120166064D01*
X103722250Y-120373049D01*
X103606089Y-120601024D01*
X103606088Y-120601027D01*
X103527026Y-120844359D01*
X103487000Y-121097070D01*
X102091680Y-121097070D01*
X102091680Y-98097070D01*
X103487000Y-98097070D01*
X103487000Y-98352929D01*
X103527026Y-98605640D01*
X103606088Y-98848972D01*
X103606089Y-98848975D01*
X103680494Y-98995000D01*
X103721533Y-99075544D01*
X103722250Y-99076950D01*
X103872632Y-99283935D01*
X103872636Y-99283940D01*
X104053559Y-99464863D01*
X104053564Y-99464867D01*
X104209062Y-99577842D01*
X104260553Y-99615252D01*
X104403315Y-99687993D01*
X104488524Y-99731410D01*
X104488527Y-99731411D01*
X104610193Y-99770942D01*
X104731861Y-99810474D01*
X104984570Y-99850500D01*
X104984571Y-99850500D01*
X105240429Y-99850500D01*
X105240430Y-99850500D01*
X105493139Y-99810474D01*
X105736475Y-99731410D01*
X105964447Y-99615252D01*
X106171442Y-99464862D01*
X106352362Y-99283942D01*
X106502752Y-99076947D01*
X106618910Y-98848975D01*
X106697974Y-98605639D01*
X106738000Y-98352930D01*
X106738000Y-98097070D01*
X106697974Y-97844361D01*
X106658442Y-97722693D01*
X106618911Y-97601027D01*
X106618910Y-97601024D01*
X106537906Y-97442047D01*
X106502752Y-97373053D01*
X106417879Y-97256235D01*
X106352367Y-97166064D01*
X106352363Y-97166059D01*
X106171440Y-96985136D01*
X106171435Y-96985132D01*
X105964450Y-96834750D01*
X105964449Y-96834749D01*
X105964447Y-96834748D01*
X105891410Y-96797533D01*
X105736475Y-96718589D01*
X105736472Y-96718588D01*
X105493140Y-96639526D01*
X105366784Y-96619513D01*
X105240430Y-96599500D01*
X104984570Y-96599500D01*
X104900333Y-96612842D01*
X104731859Y-96639526D01*
X104488527Y-96718588D01*
X104488524Y-96718589D01*
X104260549Y-96834750D01*
X104053564Y-96985132D01*
X104053559Y-96985136D01*
X103872636Y-97166059D01*
X103872632Y-97166064D01*
X103722250Y-97373049D01*
X103606089Y-97601024D01*
X103606088Y-97601027D01*
X103527026Y-97844359D01*
X103487000Y-98097070D01*
X102091680Y-98097070D01*
X102091680Y-97707429D01*
X102091906Y-97699941D01*
X102095049Y-97647988D01*
X102109453Y-97409883D01*
X102111258Y-97395023D01*
X102162964Y-97112879D01*
X102166543Y-97098361D01*
X102251883Y-96824497D01*
X102257184Y-96810521D01*
X102374914Y-96548939D01*
X102381861Y-96535701D01*
X102530266Y-96290212D01*
X102538753Y-96277916D01*
X102715666Y-96052103D01*
X102725581Y-96040912D01*
X102928412Y-95838081D01*
X102939603Y-95828166D01*
X103165419Y-95651252D01*
X103177712Y-95642766D01*
X103423201Y-95494361D01*
X103436442Y-95487412D01*
X103698021Y-95369684D01*
X103711997Y-95364383D01*
X103985861Y-95279043D01*
X104000379Y-95275464D01*
X104282527Y-95223757D01*
X104297383Y-95221953D01*
X104587447Y-95204405D01*
X104594935Y-95204180D01*
X104657075Y-95204180D01*
X156234011Y-95204180D01*
X156301050Y-95223865D01*
G37*
%TD.AperFunction*%
%TA.AperFunction,Conductor*%
G36*
X154516888Y-104418072D02*
G01*
X154572821Y-104459944D01*
X154597238Y-104525408D01*
X154597554Y-104534254D01*
X154597554Y-118865500D01*
X154577869Y-118932539D01*
X154525065Y-118978294D01*
X154473555Y-118989500D01*
X154350184Y-118989500D01*
X154350177Y-118989501D01*
X154290570Y-118995908D01*
X154155725Y-119046202D01*
X154155718Y-119046206D01*
X154040509Y-119132452D01*
X154040506Y-119132455D01*
X153954260Y-119247664D01*
X153954257Y-119247669D01*
X153905243Y-119379083D01*
X153863371Y-119435016D01*
X153797907Y-119459433D01*
X153729634Y-119444581D01*
X153701380Y-119423430D01*
X153587840Y-119309890D01*
X153411929Y-119182085D01*
X153412905Y-119180740D01*
X153370888Y-119134295D01*
X153358554Y-119080382D01*
X153358554Y-105525254D01*
X153378239Y-105458215D01*
X153394873Y-105437573D01*
X154385873Y-104446573D01*
X154447196Y-104413088D01*
X154516888Y-104418072D01*
G37*
%TD.AperFunction*%
%TA.AperFunction,Conductor*%
G36*
X154449728Y-99919066D02*
G01*
X154462307Y-99918527D01*
X154482170Y-99930121D01*
X154503946Y-99937542D01*
X154513220Y-99948245D01*
X154522649Y-99953749D01*
X154542981Y-99982591D01*
X154612404Y-100118838D01*
X154629558Y-100152505D01*
X154745615Y-100312246D01*
X154885253Y-100451884D01*
X155025904Y-100554071D01*
X155044999Y-100567944D01*
X155220939Y-100657591D01*
X155346137Y-100698270D01*
X155408736Y-100718610D01*
X155603764Y-100749500D01*
X155603769Y-100749500D01*
X155801235Y-100749500D01*
X155892736Y-100735007D01*
X155949268Y-100726053D01*
X156018560Y-100735007D01*
X156072012Y-100780003D01*
X156092652Y-100846754D01*
X156073928Y-100914068D01*
X156056346Y-100936207D01*
X152539681Y-104452873D01*
X152478358Y-104486358D01*
X152408666Y-104481374D01*
X152352733Y-104439502D01*
X152328316Y-104374038D01*
X152328000Y-104365192D01*
X152328000Y-100680108D01*
X152347685Y-100613069D01*
X152400489Y-100567314D01*
X152469647Y-100557370D01*
X152508292Y-100569622D01*
X152680939Y-100657591D01*
X152806137Y-100698270D01*
X152868736Y-100718610D01*
X153063764Y-100749500D01*
X153063769Y-100749500D01*
X153261236Y-100749500D01*
X153456263Y-100718610D01*
X153498821Y-100704782D01*
X153644061Y-100657591D01*
X153820001Y-100567944D01*
X153925455Y-100491328D01*
X153979746Y-100451884D01*
X153979748Y-100451881D01*
X153979752Y-100451879D01*
X154119379Y-100312252D01*
X154119381Y-100312248D01*
X154119384Y-100312246D01*
X154235441Y-100152505D01*
X154235443Y-100152502D01*
X154235444Y-100152501D01*
X154322017Y-99982593D01*
X154330659Y-99973442D01*
X154335395Y-99961776D01*
X154354196Y-99948521D01*
X154369990Y-99931800D01*
X154382210Y-99928773D01*
X154392502Y-99921519D01*
X154415484Y-99920533D01*
X154437811Y-99915005D01*
X154449728Y-99919066D01*
G37*
%TD.AperFunction*%
%TA.AperFunction,Conductor*%
G36*
X118943946Y-97397542D02*
G01*
X118982982Y-97442593D01*
X119028389Y-97531707D01*
X119069558Y-97612505D01*
X119185615Y-97772246D01*
X119325253Y-97911884D01*
X119484994Y-98027941D01*
X119484996Y-98027942D01*
X119484999Y-98027944D01*
X119655456Y-98114797D01*
X119706249Y-98162768D01*
X119723044Y-98230589D01*
X119700507Y-98296724D01*
X119655454Y-98335763D01*
X119485267Y-98422479D01*
X119485260Y-98422483D01*
X119449510Y-98448456D01*
X119449510Y-98448457D01*
X120013091Y-99012037D01*
X119949507Y-99029075D01*
X119835493Y-99094901D01*
X119742401Y-99187993D01*
X119676575Y-99302007D01*
X119659537Y-99365590D01*
X119095957Y-98802010D01*
X119095956Y-98802010D01*
X119069983Y-98837760D01*
X119069979Y-98837767D01*
X118983263Y-99007954D01*
X118935288Y-99058749D01*
X118867467Y-99075544D01*
X118801333Y-99053006D01*
X118762298Y-99007957D01*
X118675444Y-98837499D01*
X118675442Y-98837496D01*
X118675441Y-98837494D01*
X118559384Y-98677753D01*
X118419746Y-98538115D01*
X118260005Y-98422058D01*
X118253619Y-98418804D01*
X118090093Y-98335482D01*
X118039300Y-98287510D01*
X118022505Y-98219689D01*
X118045042Y-98153554D01*
X118090093Y-98114517D01*
X118260001Y-98027944D01*
X118296342Y-98001541D01*
X118419746Y-97911884D01*
X118419748Y-97911881D01*
X118419752Y-97911879D01*
X118559379Y-97772252D01*
X118559381Y-97772248D01*
X118559384Y-97772246D01*
X118675441Y-97612505D01*
X118675443Y-97612502D01*
X118675444Y-97612501D01*
X118762017Y-97442593D01*
X118809990Y-97391800D01*
X118877811Y-97375005D01*
X118943946Y-97397542D01*
G37*
%TD.AperFunction*%
%TA.AperFunction,Conductor*%
G36*
X121483946Y-97397542D02*
G01*
X121522982Y-97442593D01*
X121568389Y-97531707D01*
X121609558Y-97612505D01*
X121725615Y-97772246D01*
X121865253Y-97911884D01*
X121988658Y-98001541D01*
X122024999Y-98027944D01*
X122194904Y-98114516D01*
X122245699Y-98162490D01*
X122262494Y-98230311D01*
X122239956Y-98296446D01*
X122194904Y-98335483D01*
X122160667Y-98352929D01*
X122024995Y-98422058D01*
X121865253Y-98538115D01*
X121725615Y-98677753D01*
X121609558Y-98837495D01*
X121609556Y-98837499D01*
X121522703Y-99007954D01*
X121474730Y-99058749D01*
X121406909Y-99075544D01*
X121340774Y-99053006D01*
X121301735Y-99007953D01*
X121215020Y-98837768D01*
X121215012Y-98837755D01*
X121189042Y-98802010D01*
X121189041Y-98802009D01*
X120625462Y-99365589D01*
X120608425Y-99302007D01*
X120542599Y-99187993D01*
X120449507Y-99094901D01*
X120335493Y-99029075D01*
X120271909Y-99012037D01*
X120835489Y-98448457D01*
X120799736Y-98422481D01*
X120629545Y-98335763D01*
X120578750Y-98287789D01*
X120561955Y-98219968D01*
X120584493Y-98153833D01*
X120629542Y-98114798D01*
X120800001Y-98027944D01*
X120847783Y-97993228D01*
X120959746Y-97911884D01*
X120959748Y-97911881D01*
X120959752Y-97911879D01*
X121099379Y-97772252D01*
X121099381Y-97772248D01*
X121099384Y-97772246D01*
X121215441Y-97612505D01*
X121215443Y-97612502D01*
X121215444Y-97612501D01*
X121302017Y-97442593D01*
X121349990Y-97391800D01*
X121417811Y-97375005D01*
X121483946Y-97397542D01*
G37*
%TD.AperFunction*%
%TA.AperFunction,Conductor*%
G36*
X141803946Y-97397542D02*
G01*
X141842982Y-97442593D01*
X141888389Y-97531707D01*
X141929558Y-97612505D01*
X142045615Y-97772246D01*
X142185253Y-97911884D01*
X142308658Y-98001541D01*
X142344999Y-98027944D01*
X142514904Y-98114516D01*
X142565699Y-98162490D01*
X142582494Y-98230311D01*
X142559956Y-98296446D01*
X142514904Y-98335483D01*
X142480667Y-98352929D01*
X142344995Y-98422058D01*
X142185253Y-98538115D01*
X142045615Y-98677753D01*
X141929558Y-98837495D01*
X141929556Y-98837499D01*
X141842703Y-99007954D01*
X141794730Y-99058749D01*
X141726909Y-99075544D01*
X141660774Y-99053006D01*
X141621735Y-99007953D01*
X141535020Y-98837768D01*
X141535012Y-98837755D01*
X141509042Y-98802010D01*
X141509041Y-98802009D01*
X140945462Y-99365589D01*
X140928425Y-99302007D01*
X140862599Y-99187993D01*
X140769507Y-99094901D01*
X140655493Y-99029075D01*
X140591908Y-99012037D01*
X141155489Y-98448457D01*
X141119736Y-98422481D01*
X140949545Y-98335763D01*
X140898750Y-98287789D01*
X140881955Y-98219968D01*
X140904493Y-98153833D01*
X140949542Y-98114798D01*
X141120001Y-98027944D01*
X141167783Y-97993228D01*
X141279746Y-97911884D01*
X141279748Y-97911881D01*
X141279752Y-97911879D01*
X141419379Y-97772252D01*
X141419381Y-97772248D01*
X141419384Y-97772246D01*
X141535441Y-97612505D01*
X141535443Y-97612502D01*
X141535444Y-97612501D01*
X141622017Y-97442593D01*
X141669990Y-97391800D01*
X141737811Y-97375005D01*
X141803946Y-97397542D01*
G37*
%TD.AperFunction*%
%TA.AperFunction,Conductor*%
G36*
X114596575Y-97147993D02*
G01*
X114662401Y-97262007D01*
X114755493Y-97355099D01*
X114869507Y-97420925D01*
X114933090Y-97437962D01*
X114369509Y-98001541D01*
X114369510Y-98001542D01*
X114405255Y-98027512D01*
X114405268Y-98027520D01*
X114575453Y-98114235D01*
X114626249Y-98162210D01*
X114643044Y-98230031D01*
X114620506Y-98296166D01*
X114575454Y-98335203D01*
X114480763Y-98383452D01*
X114404995Y-98422058D01*
X114245253Y-98538115D01*
X114105615Y-98677753D01*
X113989558Y-98837495D01*
X113989556Y-98837499D01*
X113909305Y-98995000D01*
X113902985Y-99007403D01*
X113855010Y-99058199D01*
X113787189Y-99074994D01*
X113721054Y-99052456D01*
X113682015Y-99007403D01*
X113595444Y-98837499D01*
X113551134Y-98776511D01*
X113479384Y-98677753D01*
X113339746Y-98538115D01*
X113180005Y-98422058D01*
X113173619Y-98418804D01*
X113010093Y-98335482D01*
X112959300Y-98287510D01*
X112942505Y-98219689D01*
X112965042Y-98153554D01*
X113010093Y-98114517D01*
X113180001Y-98027944D01*
X113216342Y-98001541D01*
X113339746Y-97911884D01*
X113339748Y-97911881D01*
X113339752Y-97911879D01*
X113479379Y-97772252D01*
X113479381Y-97772248D01*
X113479384Y-97772246D01*
X113595443Y-97612502D01*
X113601291Y-97601025D01*
X113682297Y-97442043D01*
X113730268Y-97391250D01*
X113798089Y-97374455D01*
X113864224Y-97396992D01*
X113903263Y-97442045D01*
X113989981Y-97612236D01*
X114015957Y-97647988D01*
X114015957Y-97647989D01*
X114579537Y-97084409D01*
X114596575Y-97147993D01*
G37*
%TD.AperFunction*%
%TA.AperFunction,Conductor*%
G36*
X116109041Y-97647988D02*
G01*
X116109043Y-97647988D01*
X116135016Y-97612241D01*
X116221735Y-97442046D01*
X116269710Y-97391250D01*
X116337531Y-97374455D01*
X116403665Y-97396992D01*
X116442702Y-97442042D01*
X116488389Y-97531707D01*
X116529558Y-97612505D01*
X116645615Y-97772246D01*
X116785253Y-97911884D01*
X116908658Y-98001541D01*
X116944999Y-98027944D01*
X117114904Y-98114516D01*
X117165699Y-98162490D01*
X117182494Y-98230311D01*
X117159956Y-98296446D01*
X117114904Y-98335483D01*
X117080667Y-98352929D01*
X116944995Y-98422058D01*
X116785253Y-98538115D01*
X116645615Y-98677753D01*
X116529558Y-98837495D01*
X116529556Y-98837499D01*
X116449305Y-98995000D01*
X116442985Y-99007403D01*
X116395010Y-99058199D01*
X116327189Y-99074994D01*
X116261054Y-99052456D01*
X116222015Y-99007403D01*
X116135444Y-98837499D01*
X116091134Y-98776511D01*
X116019384Y-98677753D01*
X115879746Y-98538115D01*
X115720005Y-98422058D01*
X115714834Y-98419423D01*
X115549543Y-98335202D01*
X115498750Y-98287230D01*
X115481955Y-98219409D01*
X115504492Y-98153275D01*
X115549546Y-98114235D01*
X115719741Y-98027516D01*
X115755488Y-98001543D01*
X115755488Y-98001541D01*
X115191910Y-97437962D01*
X115255493Y-97420925D01*
X115369507Y-97355099D01*
X115462599Y-97262007D01*
X115528425Y-97147993D01*
X115545462Y-97084409D01*
X116109041Y-97647988D01*
G37*
%TD.AperFunction*%
%TA.AperFunction,Conductor*%
G36*
X124756575Y-97147993D02*
G01*
X124822401Y-97262007D01*
X124915493Y-97355099D01*
X125029507Y-97420925D01*
X125093090Y-97437962D01*
X124529509Y-98001541D01*
X124529510Y-98001542D01*
X124565255Y-98027512D01*
X124565268Y-98027520D01*
X124735453Y-98114235D01*
X124786249Y-98162210D01*
X124803044Y-98230031D01*
X124780506Y-98296166D01*
X124735454Y-98335203D01*
X124640763Y-98383452D01*
X124564995Y-98422058D01*
X124405253Y-98538115D01*
X124265615Y-98677753D01*
X124149558Y-98837495D01*
X124149556Y-98837499D01*
X124069305Y-98995000D01*
X124062985Y-99007403D01*
X124015010Y-99058199D01*
X123947189Y-99074994D01*
X123881054Y-99052456D01*
X123842015Y-99007403D01*
X123755444Y-98837499D01*
X123711134Y-98776511D01*
X123639384Y-98677753D01*
X123499746Y-98538115D01*
X123340005Y-98422058D01*
X123333619Y-98418804D01*
X123170093Y-98335482D01*
X123119300Y-98287510D01*
X123102505Y-98219689D01*
X123125042Y-98153554D01*
X123170093Y-98114517D01*
X123340001Y-98027944D01*
X123376342Y-98001541D01*
X123499746Y-97911884D01*
X123499748Y-97911881D01*
X123499752Y-97911879D01*
X123639379Y-97772252D01*
X123639381Y-97772248D01*
X123639384Y-97772246D01*
X123755443Y-97612502D01*
X123761291Y-97601025D01*
X123842297Y-97442043D01*
X123890268Y-97391250D01*
X123958089Y-97374455D01*
X124024224Y-97396992D01*
X124063263Y-97442045D01*
X124149981Y-97612236D01*
X124175957Y-97647988D01*
X124175957Y-97647989D01*
X124739537Y-97084409D01*
X124756575Y-97147993D01*
G37*
%TD.AperFunction*%
%TA.AperFunction,Conductor*%
G36*
X126269041Y-97647988D02*
G01*
X126269043Y-97647988D01*
X126295016Y-97612241D01*
X126381735Y-97442046D01*
X126429710Y-97391250D01*
X126497531Y-97374455D01*
X126563665Y-97396992D01*
X126602702Y-97442042D01*
X126648389Y-97531707D01*
X126689558Y-97612505D01*
X126805615Y-97772246D01*
X126945253Y-97911884D01*
X127068658Y-98001541D01*
X127104999Y-98027944D01*
X127274904Y-98114516D01*
X127325699Y-98162490D01*
X127342494Y-98230311D01*
X127319956Y-98296446D01*
X127274904Y-98335483D01*
X127240667Y-98352929D01*
X127104995Y-98422058D01*
X126945253Y-98538115D01*
X126805615Y-98677753D01*
X126689558Y-98837495D01*
X126689556Y-98837499D01*
X126609305Y-98995000D01*
X126602985Y-99007403D01*
X126555010Y-99058199D01*
X126487189Y-99074994D01*
X126421054Y-99052456D01*
X126382015Y-99007403D01*
X126295444Y-98837499D01*
X126251134Y-98776511D01*
X126179384Y-98677753D01*
X126039746Y-98538115D01*
X125880005Y-98422058D01*
X125874834Y-98419423D01*
X125709543Y-98335202D01*
X125658750Y-98287230D01*
X125641955Y-98219409D01*
X125664492Y-98153275D01*
X125709546Y-98114235D01*
X125879741Y-98027516D01*
X125915488Y-98001543D01*
X125915488Y-98001541D01*
X125351910Y-97437962D01*
X125415493Y-97420925D01*
X125529507Y-97355099D01*
X125622599Y-97262007D01*
X125688425Y-97147993D01*
X125705462Y-97084409D01*
X126269041Y-97647988D01*
G37*
%TD.AperFunction*%
%TA.AperFunction,Conductor*%
G36*
X132376575Y-97147993D02*
G01*
X132442401Y-97262007D01*
X132535493Y-97355099D01*
X132649507Y-97420925D01*
X132713090Y-97437962D01*
X132149509Y-98001541D01*
X132149510Y-98001542D01*
X132185255Y-98027512D01*
X132185268Y-98027520D01*
X132355453Y-98114235D01*
X132406249Y-98162210D01*
X132423044Y-98230031D01*
X132400506Y-98296166D01*
X132355454Y-98335203D01*
X132260763Y-98383452D01*
X132184995Y-98422058D01*
X132025253Y-98538115D01*
X131885615Y-98677753D01*
X131769558Y-98837495D01*
X131769556Y-98837499D01*
X131689305Y-98995000D01*
X131682985Y-99007403D01*
X131635010Y-99058199D01*
X131567189Y-99074994D01*
X131501054Y-99052456D01*
X131462015Y-99007403D01*
X131375444Y-98837499D01*
X131331134Y-98776511D01*
X131259384Y-98677753D01*
X131119746Y-98538115D01*
X130960005Y-98422058D01*
X130953619Y-98418804D01*
X130790093Y-98335482D01*
X130739300Y-98287510D01*
X130722505Y-98219689D01*
X130745042Y-98153554D01*
X130790093Y-98114517D01*
X130960001Y-98027944D01*
X130996342Y-98001541D01*
X131119746Y-97911884D01*
X131119748Y-97911881D01*
X131119752Y-97911879D01*
X131259379Y-97772252D01*
X131259381Y-97772248D01*
X131259384Y-97772246D01*
X131375443Y-97612502D01*
X131381291Y-97601025D01*
X131462297Y-97442043D01*
X131510268Y-97391250D01*
X131578089Y-97374455D01*
X131644224Y-97396992D01*
X131683263Y-97442045D01*
X131769981Y-97612236D01*
X131795957Y-97647988D01*
X131795957Y-97647989D01*
X132359537Y-97084409D01*
X132376575Y-97147993D01*
G37*
%TD.AperFunction*%
%TA.AperFunction,Conductor*%
G36*
X133889041Y-97647988D02*
G01*
X133889043Y-97647988D01*
X133915016Y-97612241D01*
X134001735Y-97442046D01*
X134049710Y-97391250D01*
X134117531Y-97374455D01*
X134183665Y-97396992D01*
X134222702Y-97442042D01*
X134268389Y-97531707D01*
X134309558Y-97612505D01*
X134425615Y-97772246D01*
X134565253Y-97911884D01*
X134688658Y-98001541D01*
X134724999Y-98027944D01*
X134894904Y-98114516D01*
X134945699Y-98162490D01*
X134962494Y-98230311D01*
X134939956Y-98296446D01*
X134894904Y-98335483D01*
X134860667Y-98352929D01*
X134724995Y-98422058D01*
X134565253Y-98538115D01*
X134425615Y-98677753D01*
X134309558Y-98837495D01*
X134309556Y-98837499D01*
X134229305Y-98995000D01*
X134222985Y-99007403D01*
X134175010Y-99058199D01*
X134107189Y-99074994D01*
X134041054Y-99052456D01*
X134002015Y-99007403D01*
X133915444Y-98837499D01*
X133871134Y-98776511D01*
X133799384Y-98677753D01*
X133659746Y-98538115D01*
X133500005Y-98422058D01*
X133494834Y-98419423D01*
X133329543Y-98335202D01*
X133278750Y-98287230D01*
X133261955Y-98219409D01*
X133284492Y-98153275D01*
X133329546Y-98114235D01*
X133499741Y-98027516D01*
X133535488Y-98001543D01*
X133535488Y-98001541D01*
X132971910Y-97437962D01*
X133035493Y-97420925D01*
X133149507Y-97355099D01*
X133242599Y-97262007D01*
X133308425Y-97147993D01*
X133325462Y-97084409D01*
X133889041Y-97647988D01*
G37*
%TD.AperFunction*%
%TA.AperFunction,Conductor*%
G36*
X145076575Y-97147993D02*
G01*
X145142401Y-97262007D01*
X145235493Y-97355099D01*
X145349507Y-97420925D01*
X145413090Y-97437962D01*
X144849509Y-98001541D01*
X144849510Y-98001542D01*
X144885255Y-98027512D01*
X144885268Y-98027520D01*
X145055453Y-98114235D01*
X145106249Y-98162210D01*
X145123044Y-98230031D01*
X145100506Y-98296166D01*
X145055454Y-98335203D01*
X144960763Y-98383452D01*
X144884995Y-98422058D01*
X144725253Y-98538115D01*
X144585615Y-98677753D01*
X144469558Y-98837495D01*
X144469556Y-98837499D01*
X144389305Y-98995000D01*
X144382985Y-99007403D01*
X144335010Y-99058199D01*
X144267189Y-99074994D01*
X144201054Y-99052456D01*
X144162015Y-99007403D01*
X144075444Y-98837499D01*
X144031134Y-98776511D01*
X143959384Y-98677753D01*
X143819746Y-98538115D01*
X143660005Y-98422058D01*
X143653619Y-98418804D01*
X143490093Y-98335482D01*
X143439300Y-98287510D01*
X143422505Y-98219689D01*
X143445042Y-98153554D01*
X143490093Y-98114517D01*
X143660001Y-98027944D01*
X143696342Y-98001541D01*
X143819746Y-97911884D01*
X143819748Y-97911881D01*
X143819752Y-97911879D01*
X143959379Y-97772252D01*
X143959381Y-97772248D01*
X143959384Y-97772246D01*
X144075443Y-97612502D01*
X144081291Y-97601025D01*
X144162297Y-97442043D01*
X144210268Y-97391250D01*
X144278089Y-97374455D01*
X144344224Y-97396992D01*
X144383263Y-97442045D01*
X144469981Y-97612236D01*
X144495957Y-97647988D01*
X144495957Y-97647989D01*
X145059537Y-97084409D01*
X145076575Y-97147993D01*
G37*
%TD.AperFunction*%
%TA.AperFunction,Conductor*%
G36*
X146589041Y-97647988D02*
G01*
X146589043Y-97647988D01*
X146615016Y-97612241D01*
X146701735Y-97442046D01*
X146749710Y-97391250D01*
X146817531Y-97374455D01*
X146883665Y-97396992D01*
X146922702Y-97442042D01*
X146968389Y-97531707D01*
X147009558Y-97612505D01*
X147125615Y-97772246D01*
X147265253Y-97911884D01*
X147388658Y-98001541D01*
X147424999Y-98027944D01*
X147594904Y-98114516D01*
X147645699Y-98162490D01*
X147662494Y-98230311D01*
X147639956Y-98296446D01*
X147594904Y-98335483D01*
X147560667Y-98352929D01*
X147424995Y-98422058D01*
X147265253Y-98538115D01*
X147125615Y-98677753D01*
X147009558Y-98837495D01*
X147009556Y-98837499D01*
X146929305Y-98995000D01*
X146922985Y-99007403D01*
X146875010Y-99058199D01*
X146807189Y-99074994D01*
X146741054Y-99052456D01*
X146702015Y-99007403D01*
X146615444Y-98837499D01*
X146571134Y-98776511D01*
X146499384Y-98677753D01*
X146359746Y-98538115D01*
X146200005Y-98422058D01*
X146194834Y-98419423D01*
X146029543Y-98335202D01*
X145978750Y-98287230D01*
X145961955Y-98219409D01*
X145984492Y-98153275D01*
X146029546Y-98114235D01*
X146199741Y-98027516D01*
X146235488Y-98001543D01*
X146235488Y-98001541D01*
X145671910Y-97437962D01*
X145735493Y-97420925D01*
X145849507Y-97355099D01*
X145942599Y-97262007D01*
X146008425Y-97147993D01*
X146025462Y-97084409D01*
X146589041Y-97647988D01*
G37*
%TD.AperFunction*%
%TA.AperFunction,Conductor*%
G36*
X151669041Y-97647988D02*
G01*
X151669043Y-97647988D01*
X151695016Y-97612241D01*
X151781735Y-97442046D01*
X151829710Y-97391250D01*
X151897531Y-97374455D01*
X151963665Y-97396992D01*
X152002702Y-97442042D01*
X152048389Y-97531707D01*
X152089558Y-97612505D01*
X152205615Y-97772246D01*
X152345253Y-97911884D01*
X152468658Y-98001541D01*
X152504999Y-98027944D01*
X152674904Y-98114516D01*
X152725699Y-98162490D01*
X152742494Y-98230311D01*
X152719956Y-98296446D01*
X152674904Y-98335483D01*
X152640667Y-98352929D01*
X152504999Y-98422055D01*
X152344233Y-98538858D01*
X152278426Y-98562337D01*
X152210372Y-98546511D01*
X152183667Y-98526220D01*
X151162173Y-97504726D01*
X151087752Y-97455000D01*
X151055627Y-97433535D01*
X150976752Y-97400864D01*
X150937244Y-97384499D01*
X150937238Y-97384497D01*
X150893616Y-97375820D01*
X150929507Y-97355099D01*
X151022599Y-97262007D01*
X151088425Y-97147993D01*
X151105462Y-97084409D01*
X151669041Y-97647988D01*
G37*
%TD.AperFunction*%
%TD*%
M02*
