%TF.GenerationSoftware,KiCad,Pcbnew,9.0.7*%
%TF.CreationDate,2026-04-13T16:57:24+02:00*%
%TF.ProjectId,PCB_Khess_Module_Payment,5043425f-4b68-4657-9373-5f4d6f64756c,rev?*%
%TF.SameCoordinates,Original*%
%TF.FileFunction,Soldermask,Bot*%
%TF.FilePolarity,Negative*%
%FSLAX46Y46*%
G04 Gerber Fmt 4.6, Leading zero omitted, Abs format (unit mm)*
G04 Created by KiCad (PCBNEW 9.0.7) date 2026-04-13 16:57:24*
%MOMM*%
%LPD*%
G01*
G04 APERTURE LIST*
G04 Aperture macros list*
%AMRoundRect*
0 Rectangle with rounded corners*
0 $1 Rounding radius*
0 $2 $3 $4 $5 $6 $7 $8 $9 X,Y pos of 4 corners*
0 Add a 4 corners polygon primitive as box body*
4,1,4,$2,$3,$4,$5,$6,$7,$8,$9,$2,$3,0*
0 Add four circle primitives for the rounded corners*
1,1,$1+$1,$2,$3*
1,1,$1+$1,$4,$5*
1,1,$1+$1,$6,$7*
1,1,$1+$1,$8,$9*
0 Add four rect primitives between the rounded corners*
20,1,$1+$1,$2,$3,$4,$5,0*
20,1,$1+$1,$4,$5,$6,$7,0*
20,1,$1+$1,$6,$7,$8,$9,0*
20,1,$1+$1,$8,$9,$2,$3,0*%
G04 Aperture macros list end*
%ADD10R,1.700000X1.700000*%
%ADD11C,1.700000*%
%ADD12C,2.750000*%
%ADD13RoundRect,0.102000X-0.754000X-0.754000X0.754000X-0.754000X0.754000X0.754000X-0.754000X0.754000X0*%
%ADD14C,1.712000*%
G04 APERTURE END LIST*
D10*
%TO.C,J6*%
X155248054Y-120340000D03*
D11*
X152708054Y-120340000D03*
X150168054Y-120340000D03*
X147628054Y-120340000D03*
X145088054Y-120340000D03*
X142548054Y-120340000D03*
X140008054Y-120340000D03*
X137468054Y-120340000D03*
%TD*%
D10*
%TO.C,J3*%
X131338054Y-120340000D03*
D11*
X128798054Y-120340000D03*
X126258054Y-120340000D03*
X123718054Y-120340000D03*
X121178054Y-120340000D03*
X118638054Y-120340000D03*
X116098054Y-120340000D03*
X113558054Y-120340000D03*
%TD*%
D12*
%TO.C,U1*%
X105112500Y-98225000D03*
X105112500Y-121225000D03*
X163112500Y-98225000D03*
X163112500Y-121225000D03*
D13*
X109982500Y-99495000D03*
D14*
X109982500Y-96955000D03*
X112522500Y-99495000D03*
X112522500Y-96955000D03*
X115062500Y-99495000D03*
X115062500Y-96955000D03*
X117602500Y-99495000D03*
X117602500Y-96955000D03*
X120142500Y-99495000D03*
X120142500Y-96955000D03*
X122682500Y-99495000D03*
X122682500Y-96955000D03*
X125222500Y-99495000D03*
X125222500Y-96955000D03*
X127762500Y-99495000D03*
X127762500Y-96955000D03*
X130302500Y-99495000D03*
X130302500Y-96955000D03*
X132842500Y-99495000D03*
X132842500Y-96955000D03*
X135382500Y-99495000D03*
X135382500Y-96955000D03*
X137922500Y-99495000D03*
X137922500Y-96955000D03*
X140462500Y-99495000D03*
X140462500Y-96955000D03*
X143002500Y-99495000D03*
X143002500Y-96955000D03*
X145542500Y-99495000D03*
X145542500Y-96955000D03*
X148082500Y-99495000D03*
X148082500Y-96955000D03*
X150622500Y-99495000D03*
X150622500Y-96955000D03*
X153162500Y-99495000D03*
X153162500Y-96955000D03*
X155702500Y-99495000D03*
X155702500Y-96955000D03*
X158242500Y-99495000D03*
X158242500Y-96955000D03*
%TD*%
D10*
%TO.C,J4*%
X162227500Y-106115000D03*
D11*
X162227500Y-108655000D03*
X162227500Y-111195000D03*
X162227500Y-113735000D03*
%TD*%
M02*
