%TF.GenerationSoftware,KiCad,Pcbnew,9.0.7*%
%TF.CreationDate,2026-04-13T16:57:23+02:00*%
%TF.ProjectId,PCB_Khess_Module_Payment,5043425f-4b68-4657-9373-5f4d6f64756c,rev?*%
%TF.SameCoordinates,Original*%
%TF.FileFunction,Copper,L1,Top*%
%TF.FilePolarity,Positive*%
%FSLAX46Y46*%
G04 Gerber Fmt 4.6, Leading zero omitted, Abs format (unit mm)*
G04 Created by KiCad (PCBNEW 9.0.7) date 2026-04-13 16:57:23*
%MOMM*%
%LPD*%
G01*
G04 APERTURE LIST*
G04 Aperture macros list*
%AMRoundRect*
0 Rectangle with rounded corners*
0 $1 Rounding radius*
0 $2 $3 $4 $5 $6 $7 $8 $9 X,Y pos of 4 corners*
0 Add a 4 corners polygon primitive as box body*
4,1,4,$2,$3,$4,$5,$6,$7,$8,$9,$2,$3,0*
0 Add four circle primitives for the rounded corners*
1,1,$1+$1,$2,$3*
1,1,$1+$1,$4,$5*
1,1,$1+$1,$6,$7*
1,1,$1+$1,$8,$9*
0 Add four rect primitives between the rounded corners*
20,1,$1+$1,$2,$3,$4,$5,0*
20,1,$1+$1,$4,$5,$6,$7,0*
20,1,$1+$1,$6,$7,$8,$9,0*
20,1,$1+$1,$8,$9,$2,$3,0*%
G04 Aperture macros list end*
%ADD10C,0.125000*%
%TA.AperFunction,NonConductor*%
%ADD11C,0.125000*%
%TD*%
%ADD12C,0.300000*%
%TA.AperFunction,NonConductor*%
%ADD13C,0.300000*%
%TD*%
%TA.AperFunction,SMDPad,CuDef*%
%ADD14RoundRect,0.218750X0.218750X0.256250X-0.218750X0.256250X-0.218750X-0.256250X0.218750X-0.256250X0*%
%TD*%
%TA.AperFunction,ComponentPad*%
%ADD15R,1.700000X1.700000*%
%TD*%
%TA.AperFunction,ComponentPad*%
%ADD16C,1.700000*%
%TD*%
%TA.AperFunction,SMDPad,CuDef*%
%ADD17RoundRect,0.250000X0.450000X-0.262500X0.450000X0.262500X-0.450000X0.262500X-0.450000X-0.262500X0*%
%TD*%
%TA.AperFunction,SMDPad,CuDef*%
%ADD18RoundRect,0.225000X0.250000X-0.225000X0.250000X0.225000X-0.250000X0.225000X-0.250000X-0.225000X0*%
%TD*%
%TA.AperFunction,SMDPad,CuDef*%
%ADD19RoundRect,0.135000X-0.185000X0.135000X-0.185000X-0.135000X0.185000X-0.135000X0.185000X0.135000X0*%
%TD*%
%TA.AperFunction,SMDPad,CuDef*%
%ADD20RoundRect,0.135000X-0.135000X-0.185000X0.135000X-0.185000X0.135000X0.185000X-0.135000X0.185000X0*%
%TD*%
%TA.AperFunction,SMDPad,CuDef*%
%ADD21RoundRect,0.250000X-0.262500X-0.450000X0.262500X-0.450000X0.262500X0.450000X-0.262500X0.450000X0*%
%TD*%
%TA.AperFunction,ComponentPad*%
%ADD22R,1.508000X1.508000*%
%TD*%
%TA.AperFunction,ComponentPad*%
%ADD23C,1.508000*%
%TD*%
%TA.AperFunction,SMDPad,CuDef*%
%ADD24RoundRect,0.140000X-0.170000X0.140000X-0.170000X-0.140000X0.170000X-0.140000X0.170000X0.140000X0*%
%TD*%
%TA.AperFunction,SMDPad,CuDef*%
%ADD25RoundRect,0.250000X-0.650000X1.000000X-0.650000X-1.000000X0.650000X-1.000000X0.650000X1.000000X0*%
%TD*%
%TA.AperFunction,SMDPad,CuDef*%
%ADD26RoundRect,0.225000X0.225000X0.250000X-0.225000X0.250000X-0.225000X-0.250000X0.225000X-0.250000X0*%
%TD*%
%TA.AperFunction,ViaPad*%
%ADD27C,0.800000*%
%TD*%
%TA.AperFunction,Conductor*%
%ADD28C,0.500000*%
%TD*%
%TA.AperFunction,Conductor*%
%ADD29C,0.300000*%
%TD*%
G04 APERTURE END LIST*
D10*
D11*
X111201283Y-113505488D02*
X111367950Y-113505488D01*
X111439378Y-113767393D02*
X111201283Y-113767393D01*
X111201283Y-113767393D02*
X111201283Y-113267393D01*
X111201283Y-113267393D02*
X111439378Y-113267393D01*
X111653664Y-113719774D02*
X111677474Y-113743584D01*
X111677474Y-113743584D02*
X111653664Y-113767393D01*
X111653664Y-113767393D02*
X111629855Y-113743584D01*
X111629855Y-113743584D02*
X111653664Y-113719774D01*
X111653664Y-113719774D02*
X111653664Y-113767393D01*
X112225092Y-113267393D02*
X112558425Y-113267393D01*
X112558425Y-113267393D02*
X112225092Y-113767393D01*
X112225092Y-113767393D02*
X112558425Y-113767393D01*
X112748901Y-113767393D02*
X112748901Y-113267393D01*
X112748901Y-113505488D02*
X113034615Y-113505488D01*
X113034615Y-113767393D02*
X113034615Y-113267393D01*
X113248902Y-113624536D02*
X113486997Y-113624536D01*
X113201283Y-113767393D02*
X113367949Y-113267393D01*
X113367949Y-113267393D02*
X113534616Y-113767393D01*
X113701282Y-113767393D02*
X113701282Y-113267393D01*
X113701282Y-113267393D02*
X113986996Y-113767393D01*
X113986996Y-113767393D02*
X113986996Y-113267393D01*
X114486997Y-113291203D02*
X114439378Y-113267393D01*
X114439378Y-113267393D02*
X114367949Y-113267393D01*
X114367949Y-113267393D02*
X114296521Y-113291203D01*
X114296521Y-113291203D02*
X114248902Y-113338822D01*
X114248902Y-113338822D02*
X114225092Y-113386441D01*
X114225092Y-113386441D02*
X114201283Y-113481679D01*
X114201283Y-113481679D02*
X114201283Y-113553107D01*
X114201283Y-113553107D02*
X114225092Y-113648345D01*
X114225092Y-113648345D02*
X114248902Y-113695964D01*
X114248902Y-113695964D02*
X114296521Y-113743584D01*
X114296521Y-113743584D02*
X114367949Y-113767393D01*
X114367949Y-113767393D02*
X114415568Y-113767393D01*
X114415568Y-113767393D02*
X114486997Y-113743584D01*
X114486997Y-113743584D02*
X114510806Y-113719774D01*
X114510806Y-113719774D02*
X114510806Y-113553107D01*
X114510806Y-113553107D02*
X114415568Y-113553107D01*
X111486997Y-114524746D02*
X111463188Y-114548556D01*
X111463188Y-114548556D02*
X111391759Y-114572365D01*
X111391759Y-114572365D02*
X111344140Y-114572365D01*
X111344140Y-114572365D02*
X111272712Y-114548556D01*
X111272712Y-114548556D02*
X111225093Y-114500936D01*
X111225093Y-114500936D02*
X111201283Y-114453317D01*
X111201283Y-114453317D02*
X111177474Y-114358079D01*
X111177474Y-114358079D02*
X111177474Y-114286651D01*
X111177474Y-114286651D02*
X111201283Y-114191413D01*
X111201283Y-114191413D02*
X111225093Y-114143794D01*
X111225093Y-114143794D02*
X111272712Y-114096175D01*
X111272712Y-114096175D02*
X111344140Y-114072365D01*
X111344140Y-114072365D02*
X111391759Y-114072365D01*
X111391759Y-114072365D02*
X111463188Y-114096175D01*
X111463188Y-114096175D02*
X111486997Y-114119984D01*
X111701283Y-114524746D02*
X111725093Y-114548556D01*
X111725093Y-114548556D02*
X111701283Y-114572365D01*
X111701283Y-114572365D02*
X111677474Y-114548556D01*
X111677474Y-114548556D02*
X111701283Y-114524746D01*
X111701283Y-114524746D02*
X111701283Y-114572365D01*
X112463187Y-114072365D02*
X112463187Y-114429508D01*
X112463187Y-114429508D02*
X112439378Y-114500936D01*
X112439378Y-114500936D02*
X112391759Y-114548556D01*
X112391759Y-114548556D02*
X112320330Y-114572365D01*
X112320330Y-114572365D02*
X112272711Y-114572365D01*
X112796520Y-114072365D02*
X112891758Y-114072365D01*
X112891758Y-114072365D02*
X112939377Y-114096175D01*
X112939377Y-114096175D02*
X112986996Y-114143794D01*
X112986996Y-114143794D02*
X113010806Y-114239032D01*
X113010806Y-114239032D02*
X113010806Y-114405698D01*
X113010806Y-114405698D02*
X112986996Y-114500936D01*
X112986996Y-114500936D02*
X112939377Y-114548556D01*
X112939377Y-114548556D02*
X112891758Y-114572365D01*
X112891758Y-114572365D02*
X112796520Y-114572365D01*
X112796520Y-114572365D02*
X112748901Y-114548556D01*
X112748901Y-114548556D02*
X112701282Y-114500936D01*
X112701282Y-114500936D02*
X112677473Y-114405698D01*
X112677473Y-114405698D02*
X112677473Y-114239032D01*
X112677473Y-114239032D02*
X112701282Y-114143794D01*
X112701282Y-114143794D02*
X112748901Y-114096175D01*
X112748901Y-114096175D02*
X112796520Y-114072365D01*
X113225092Y-114072365D02*
X113225092Y-114477127D01*
X113225092Y-114477127D02*
X113248902Y-114524746D01*
X113248902Y-114524746D02*
X113272711Y-114548556D01*
X113272711Y-114548556D02*
X113320330Y-114572365D01*
X113320330Y-114572365D02*
X113415568Y-114572365D01*
X113415568Y-114572365D02*
X113463187Y-114548556D01*
X113463187Y-114548556D02*
X113486997Y-114524746D01*
X113486997Y-114524746D02*
X113510806Y-114477127D01*
X113510806Y-114477127D02*
X113510806Y-114072365D01*
X114034616Y-114572365D02*
X113867950Y-114334270D01*
X113748902Y-114572365D02*
X113748902Y-114072365D01*
X113748902Y-114072365D02*
X113939378Y-114072365D01*
X113939378Y-114072365D02*
X113986997Y-114096175D01*
X113986997Y-114096175D02*
X114010807Y-114119984D01*
X114010807Y-114119984D02*
X114034616Y-114167603D01*
X114034616Y-114167603D02*
X114034616Y-114239032D01*
X114034616Y-114239032D02*
X114010807Y-114286651D01*
X114010807Y-114286651D02*
X113986997Y-114310460D01*
X113986997Y-114310460D02*
X113939378Y-114334270D01*
X113939378Y-114334270D02*
X113748902Y-114334270D01*
X114248902Y-114572365D02*
X114248902Y-114072365D01*
X114248902Y-114072365D02*
X114534616Y-114572365D01*
X114534616Y-114572365D02*
X114534616Y-114072365D01*
X114772712Y-114310460D02*
X114939379Y-114310460D01*
X115010807Y-114572365D02*
X114772712Y-114572365D01*
X114772712Y-114572365D02*
X114772712Y-114072365D01*
X114772712Y-114072365D02*
X115010807Y-114072365D01*
X115201284Y-114429508D02*
X115439379Y-114429508D01*
X115153665Y-114572365D02*
X115320331Y-114072365D01*
X115320331Y-114072365D02*
X115486998Y-114572365D01*
X115653664Y-114072365D02*
X115653664Y-114477127D01*
X115653664Y-114477127D02*
X115677474Y-114524746D01*
X115677474Y-114524746D02*
X115701283Y-114548556D01*
X115701283Y-114548556D02*
X115748902Y-114572365D01*
X115748902Y-114572365D02*
X115844140Y-114572365D01*
X115844140Y-114572365D02*
X115891759Y-114548556D01*
X115891759Y-114548556D02*
X115915569Y-114524746D01*
X115915569Y-114524746D02*
X115939378Y-114477127D01*
X115939378Y-114477127D02*
X115939378Y-114072365D01*
X111486997Y-115377337D02*
X111320331Y-115139242D01*
X111201283Y-115377337D02*
X111201283Y-114877337D01*
X111201283Y-114877337D02*
X111391759Y-114877337D01*
X111391759Y-114877337D02*
X111439378Y-114901147D01*
X111439378Y-114901147D02*
X111463188Y-114924956D01*
X111463188Y-114924956D02*
X111486997Y-114972575D01*
X111486997Y-114972575D02*
X111486997Y-115044004D01*
X111486997Y-115044004D02*
X111463188Y-115091623D01*
X111463188Y-115091623D02*
X111439378Y-115115432D01*
X111439378Y-115115432D02*
X111391759Y-115139242D01*
X111391759Y-115139242D02*
X111201283Y-115139242D01*
X111701283Y-115329718D02*
X111725093Y-115353528D01*
X111725093Y-115353528D02*
X111701283Y-115377337D01*
X111701283Y-115377337D02*
X111677474Y-115353528D01*
X111677474Y-115353528D02*
X111701283Y-115329718D01*
X111701283Y-115329718D02*
X111701283Y-115377337D01*
X112486997Y-115115432D02*
X112558425Y-115139242D01*
X112558425Y-115139242D02*
X112582235Y-115163051D01*
X112582235Y-115163051D02*
X112606044Y-115210670D01*
X112606044Y-115210670D02*
X112606044Y-115282099D01*
X112606044Y-115282099D02*
X112582235Y-115329718D01*
X112582235Y-115329718D02*
X112558425Y-115353528D01*
X112558425Y-115353528D02*
X112510806Y-115377337D01*
X112510806Y-115377337D02*
X112320330Y-115377337D01*
X112320330Y-115377337D02*
X112320330Y-114877337D01*
X112320330Y-114877337D02*
X112486997Y-114877337D01*
X112486997Y-114877337D02*
X112534616Y-114901147D01*
X112534616Y-114901147D02*
X112558425Y-114924956D01*
X112558425Y-114924956D02*
X112582235Y-114972575D01*
X112582235Y-114972575D02*
X112582235Y-115020194D01*
X112582235Y-115020194D02*
X112558425Y-115067813D01*
X112558425Y-115067813D02*
X112534616Y-115091623D01*
X112534616Y-115091623D02*
X112486997Y-115115432D01*
X112486997Y-115115432D02*
X112320330Y-115115432D01*
X112915568Y-114877337D02*
X113010806Y-114877337D01*
X113010806Y-114877337D02*
X113058425Y-114901147D01*
X113058425Y-114901147D02*
X113106044Y-114948766D01*
X113106044Y-114948766D02*
X113129854Y-115044004D01*
X113129854Y-115044004D02*
X113129854Y-115210670D01*
X113129854Y-115210670D02*
X113106044Y-115305908D01*
X113106044Y-115305908D02*
X113058425Y-115353528D01*
X113058425Y-115353528D02*
X113010806Y-115377337D01*
X113010806Y-115377337D02*
X112915568Y-115377337D01*
X112915568Y-115377337D02*
X112867949Y-115353528D01*
X112867949Y-115353528D02*
X112820330Y-115305908D01*
X112820330Y-115305908D02*
X112796521Y-115210670D01*
X112796521Y-115210670D02*
X112796521Y-115044004D01*
X112796521Y-115044004D02*
X112820330Y-114948766D01*
X112820330Y-114948766D02*
X112867949Y-114901147D01*
X112867949Y-114901147D02*
X112915568Y-114877337D01*
X113344140Y-114877337D02*
X113344140Y-115282099D01*
X113344140Y-115282099D02*
X113367950Y-115329718D01*
X113367950Y-115329718D02*
X113391759Y-115353528D01*
X113391759Y-115353528D02*
X113439378Y-115377337D01*
X113439378Y-115377337D02*
X113534616Y-115377337D01*
X113534616Y-115377337D02*
X113582235Y-115353528D01*
X113582235Y-115353528D02*
X113606045Y-115329718D01*
X113606045Y-115329718D02*
X113629854Y-115282099D01*
X113629854Y-115282099D02*
X113629854Y-114877337D01*
X114153664Y-115329718D02*
X114129855Y-115353528D01*
X114129855Y-115353528D02*
X114058426Y-115377337D01*
X114058426Y-115377337D02*
X114010807Y-115377337D01*
X114010807Y-115377337D02*
X113939379Y-115353528D01*
X113939379Y-115353528D02*
X113891760Y-115305908D01*
X113891760Y-115305908D02*
X113867950Y-115258289D01*
X113867950Y-115258289D02*
X113844141Y-115163051D01*
X113844141Y-115163051D02*
X113844141Y-115091623D01*
X113844141Y-115091623D02*
X113867950Y-114996385D01*
X113867950Y-114996385D02*
X113891760Y-114948766D01*
X113891760Y-114948766D02*
X113939379Y-114901147D01*
X113939379Y-114901147D02*
X114010807Y-114877337D01*
X114010807Y-114877337D02*
X114058426Y-114877337D01*
X114058426Y-114877337D02*
X114129855Y-114901147D01*
X114129855Y-114901147D02*
X114153664Y-114924956D01*
X114367950Y-115377337D02*
X114367950Y-114877337D01*
X114367950Y-115115432D02*
X114653664Y-115115432D01*
X114653664Y-115377337D02*
X114653664Y-114877337D01*
X114891760Y-115377337D02*
X114891760Y-114877337D01*
X115129855Y-115377337D02*
X115129855Y-114877337D01*
X115415569Y-115377337D02*
X115201284Y-115091623D01*
X115415569Y-114877337D02*
X115129855Y-115163051D01*
X115629855Y-115377337D02*
X115629855Y-114877337D01*
X115629855Y-115115432D02*
X115915569Y-115115432D01*
X115915569Y-115377337D02*
X115915569Y-114877337D01*
X116153665Y-115377337D02*
X116153665Y-114877337D01*
D10*
D11*
X105367950Y-113505488D02*
X105439378Y-113529298D01*
X105439378Y-113529298D02*
X105463188Y-113553107D01*
X105463188Y-113553107D02*
X105486997Y-113600726D01*
X105486997Y-113600726D02*
X105486997Y-113672155D01*
X105486997Y-113672155D02*
X105463188Y-113719774D01*
X105463188Y-113719774D02*
X105439378Y-113743584D01*
X105439378Y-113743584D02*
X105391759Y-113767393D01*
X105391759Y-113767393D02*
X105201283Y-113767393D01*
X105201283Y-113767393D02*
X105201283Y-113267393D01*
X105201283Y-113267393D02*
X105367950Y-113267393D01*
X105367950Y-113267393D02*
X105415569Y-113291203D01*
X105415569Y-113291203D02*
X105439378Y-113315012D01*
X105439378Y-113315012D02*
X105463188Y-113362631D01*
X105463188Y-113362631D02*
X105463188Y-113410250D01*
X105463188Y-113410250D02*
X105439378Y-113457869D01*
X105439378Y-113457869D02*
X105415569Y-113481679D01*
X105415569Y-113481679D02*
X105367950Y-113505488D01*
X105367950Y-113505488D02*
X105201283Y-113505488D01*
X105701283Y-113719774D02*
X105725093Y-113743584D01*
X105725093Y-113743584D02*
X105701283Y-113767393D01*
X105701283Y-113767393D02*
X105677474Y-113743584D01*
X105677474Y-113743584D02*
X105701283Y-113719774D01*
X105701283Y-113719774D02*
X105701283Y-113767393D01*
X106320330Y-113767393D02*
X106320330Y-113267393D01*
X106558425Y-113767393D02*
X106558425Y-113267393D01*
X106558425Y-113267393D02*
X106844139Y-113767393D01*
X106844139Y-113767393D02*
X106844139Y-113267393D01*
X107344140Y-113291203D02*
X107296521Y-113267393D01*
X107296521Y-113267393D02*
X107225092Y-113267393D01*
X107225092Y-113267393D02*
X107153664Y-113291203D01*
X107153664Y-113291203D02*
X107106045Y-113338822D01*
X107106045Y-113338822D02*
X107082235Y-113386441D01*
X107082235Y-113386441D02*
X107058426Y-113481679D01*
X107058426Y-113481679D02*
X107058426Y-113553107D01*
X107058426Y-113553107D02*
X107082235Y-113648345D01*
X107082235Y-113648345D02*
X107106045Y-113695964D01*
X107106045Y-113695964D02*
X107153664Y-113743584D01*
X107153664Y-113743584D02*
X107225092Y-113767393D01*
X107225092Y-113767393D02*
X107272711Y-113767393D01*
X107272711Y-113767393D02*
X107344140Y-113743584D01*
X107344140Y-113743584D02*
X107367949Y-113719774D01*
X107367949Y-113719774D02*
X107367949Y-113553107D01*
X107367949Y-113553107D02*
X107272711Y-113553107D01*
X105201283Y-114572365D02*
X105201283Y-114072365D01*
X105201283Y-114072365D02*
X105486997Y-114572365D01*
X105486997Y-114572365D02*
X105486997Y-114072365D01*
X105725093Y-114524746D02*
X105748903Y-114548556D01*
X105748903Y-114548556D02*
X105725093Y-114572365D01*
X105725093Y-114572365D02*
X105701284Y-114548556D01*
X105701284Y-114548556D02*
X105725093Y-114524746D01*
X105725093Y-114524746D02*
X105725093Y-114572365D01*
X106344140Y-114572365D02*
X106344140Y-114072365D01*
X106629854Y-114572365D02*
X106415569Y-114286651D01*
X106629854Y-114072365D02*
X106344140Y-114358079D01*
X107129854Y-114572365D02*
X106963188Y-114334270D01*
X106844140Y-114572365D02*
X106844140Y-114072365D01*
X106844140Y-114072365D02*
X107034616Y-114072365D01*
X107034616Y-114072365D02*
X107082235Y-114096175D01*
X107082235Y-114096175D02*
X107106045Y-114119984D01*
X107106045Y-114119984D02*
X107129854Y-114167603D01*
X107129854Y-114167603D02*
X107129854Y-114239032D01*
X107129854Y-114239032D02*
X107106045Y-114286651D01*
X107106045Y-114286651D02*
X107082235Y-114310460D01*
X107082235Y-114310460D02*
X107034616Y-114334270D01*
X107034616Y-114334270D02*
X106844140Y-114334270D01*
X107344140Y-114572365D02*
X107344140Y-114072365D01*
X107582235Y-114572365D02*
X107582235Y-114072365D01*
X107582235Y-114072365D02*
X107748902Y-114429508D01*
X107748902Y-114429508D02*
X107915568Y-114072365D01*
X107915568Y-114072365D02*
X107915568Y-114572365D01*
X108129855Y-114429508D02*
X108367950Y-114429508D01*
X108082236Y-114572365D02*
X108248902Y-114072365D01*
X108248902Y-114072365D02*
X108415569Y-114572365D01*
X108510807Y-114072365D02*
X108796521Y-114072365D01*
X108653664Y-114572365D02*
X108653664Y-114072365D01*
X105201283Y-115377337D02*
X105201283Y-114877337D01*
X105201283Y-114877337D02*
X105367950Y-115234480D01*
X105367950Y-115234480D02*
X105534616Y-114877337D01*
X105534616Y-114877337D02*
X105534616Y-115377337D01*
X105772712Y-115329718D02*
X105796522Y-115353528D01*
X105796522Y-115353528D02*
X105772712Y-115377337D01*
X105772712Y-115377337D02*
X105748903Y-115353528D01*
X105748903Y-115353528D02*
X105772712Y-115329718D01*
X105772712Y-115329718D02*
X105772712Y-115377337D01*
X106629854Y-115377337D02*
X106391759Y-115377337D01*
X106391759Y-115377337D02*
X106391759Y-114877337D01*
X106772712Y-115234480D02*
X107010807Y-115234480D01*
X106725093Y-115377337D02*
X106891759Y-114877337D01*
X106891759Y-114877337D02*
X107058426Y-115377337D01*
X107225092Y-115377337D02*
X107225092Y-114877337D01*
X107225092Y-114877337D02*
X107415568Y-114877337D01*
X107415568Y-114877337D02*
X107463187Y-114901147D01*
X107463187Y-114901147D02*
X107486997Y-114924956D01*
X107486997Y-114924956D02*
X107510806Y-114972575D01*
X107510806Y-114972575D02*
X107510806Y-115044004D01*
X107510806Y-115044004D02*
X107486997Y-115091623D01*
X107486997Y-115091623D02*
X107463187Y-115115432D01*
X107463187Y-115115432D02*
X107415568Y-115139242D01*
X107415568Y-115139242D02*
X107225092Y-115139242D01*
X107963187Y-115377337D02*
X107725092Y-115377337D01*
X107725092Y-115377337D02*
X107725092Y-114877337D01*
X108106045Y-115234480D02*
X108344140Y-115234480D01*
X108058426Y-115377337D02*
X108225092Y-114877337D01*
X108225092Y-114877337D02*
X108391759Y-115377337D01*
X108558425Y-115377337D02*
X108558425Y-114877337D01*
X108558425Y-114877337D02*
X108844139Y-115377337D01*
X108844139Y-115377337D02*
X108844139Y-114877337D01*
X109010807Y-114877337D02*
X109296521Y-114877337D01*
X109153664Y-115377337D02*
X109153664Y-114877337D01*
X109463187Y-115115432D02*
X109629854Y-115115432D01*
X109701282Y-115377337D02*
X109463187Y-115377337D01*
X109463187Y-115377337D02*
X109463187Y-114877337D01*
X109463187Y-114877337D02*
X109701282Y-114877337D01*
X105486997Y-116182309D02*
X105320331Y-115944214D01*
X105201283Y-116182309D02*
X105201283Y-115682309D01*
X105201283Y-115682309D02*
X105391759Y-115682309D01*
X105391759Y-115682309D02*
X105439378Y-115706119D01*
X105439378Y-115706119D02*
X105463188Y-115729928D01*
X105463188Y-115729928D02*
X105486997Y-115777547D01*
X105486997Y-115777547D02*
X105486997Y-115848976D01*
X105486997Y-115848976D02*
X105463188Y-115896595D01*
X105463188Y-115896595D02*
X105439378Y-115920404D01*
X105439378Y-115920404D02*
X105391759Y-115944214D01*
X105391759Y-115944214D02*
X105201283Y-115944214D01*
X105701283Y-116134690D02*
X105725093Y-116158500D01*
X105725093Y-116158500D02*
X105701283Y-116182309D01*
X105701283Y-116182309D02*
X105677474Y-116158500D01*
X105677474Y-116158500D02*
X105701283Y-116134690D01*
X105701283Y-116134690D02*
X105701283Y-116182309D01*
X106558425Y-116182309D02*
X106320330Y-116182309D01*
X106320330Y-116182309D02*
X106320330Y-115682309D01*
X106701283Y-116039452D02*
X106939378Y-116039452D01*
X106653664Y-116182309D02*
X106820330Y-115682309D01*
X106820330Y-115682309D02*
X106986997Y-116182309D01*
X107415568Y-115706119D02*
X107367949Y-115682309D01*
X107367949Y-115682309D02*
X107296520Y-115682309D01*
X107296520Y-115682309D02*
X107225092Y-115706119D01*
X107225092Y-115706119D02*
X107177473Y-115753738D01*
X107177473Y-115753738D02*
X107153663Y-115801357D01*
X107153663Y-115801357D02*
X107129854Y-115896595D01*
X107129854Y-115896595D02*
X107129854Y-115968023D01*
X107129854Y-115968023D02*
X107153663Y-116063261D01*
X107153663Y-116063261D02*
X107177473Y-116110880D01*
X107177473Y-116110880D02*
X107225092Y-116158500D01*
X107225092Y-116158500D02*
X107296520Y-116182309D01*
X107296520Y-116182309D02*
X107344139Y-116182309D01*
X107344139Y-116182309D02*
X107415568Y-116158500D01*
X107415568Y-116158500D02*
X107439377Y-116134690D01*
X107439377Y-116134690D02*
X107439377Y-115968023D01*
X107439377Y-115968023D02*
X107344139Y-115968023D01*
X107653663Y-116182309D02*
X107653663Y-115682309D01*
X107653663Y-115920404D02*
X107939377Y-115920404D01*
X107939377Y-116182309D02*
X107939377Y-115682309D01*
X108272711Y-115682309D02*
X108367949Y-115682309D01*
X108367949Y-115682309D02*
X108415568Y-115706119D01*
X108415568Y-115706119D02*
X108463187Y-115753738D01*
X108463187Y-115753738D02*
X108486997Y-115848976D01*
X108486997Y-115848976D02*
X108486997Y-116015642D01*
X108486997Y-116015642D02*
X108463187Y-116110880D01*
X108463187Y-116110880D02*
X108415568Y-116158500D01*
X108415568Y-116158500D02*
X108367949Y-116182309D01*
X108367949Y-116182309D02*
X108272711Y-116182309D01*
X108272711Y-116182309D02*
X108225092Y-116158500D01*
X108225092Y-116158500D02*
X108177473Y-116110880D01*
X108177473Y-116110880D02*
X108153664Y-116015642D01*
X108153664Y-116015642D02*
X108153664Y-115848976D01*
X108153664Y-115848976D02*
X108177473Y-115753738D01*
X108177473Y-115753738D02*
X108225092Y-115706119D01*
X108225092Y-115706119D02*
X108272711Y-115682309D01*
X108701283Y-115682309D02*
X108701283Y-116087071D01*
X108701283Y-116087071D02*
X108725093Y-116134690D01*
X108725093Y-116134690D02*
X108748902Y-116158500D01*
X108748902Y-116158500D02*
X108796521Y-116182309D01*
X108796521Y-116182309D02*
X108891759Y-116182309D01*
X108891759Y-116182309D02*
X108939378Y-116158500D01*
X108939378Y-116158500D02*
X108963188Y-116134690D01*
X108963188Y-116134690D02*
X108986997Y-116087071D01*
X108986997Y-116087071D02*
X108986997Y-115682309D01*
X109201284Y-116039452D02*
X109439379Y-116039452D01*
X109153665Y-116182309D02*
X109320331Y-115682309D01*
X109320331Y-115682309D02*
X109486998Y-116182309D01*
X109653664Y-116182309D02*
X109653664Y-115682309D01*
X109653664Y-115682309D02*
X109939378Y-116182309D01*
X109939378Y-116182309D02*
X109939378Y-115682309D01*
X110177474Y-115920404D02*
X110344141Y-115920404D01*
X110415569Y-116182309D02*
X110177474Y-116182309D01*
X110177474Y-116182309D02*
X110177474Y-115682309D01*
X110177474Y-115682309D02*
X110415569Y-115682309D01*
D12*
D13*
X105340225Y-117300828D02*
X106197368Y-117300828D01*
X105768796Y-118800828D02*
X105768796Y-117300828D01*
D14*
%TO.P,D3,1,K*%
%TO.N,GND*%
X115000000Y-102700000D03*
%TO.P,D3,2,A*%
%TO.N,Net-(D3-A)*%
X113425000Y-102700000D03*
%TD*%
D15*
%TO.P,J6,1,Pin_1*%
%TO.N,ROW1*%
X155248054Y-120340000D03*
D16*
%TO.P,J6,2,Pin_2*%
%TO.N,ROW2*%
X152708054Y-120340000D03*
%TO.P,J6,3,Pin_3*%
%TO.N,ROW3*%
X150168054Y-120340000D03*
%TO.P,J6,4,Pin_4*%
%TO.N,ROW4*%
X147628054Y-120340000D03*
%TO.P,J6,5,Pin_5*%
%TO.N,Net-(J6-Pin_5)*%
X145088054Y-120340000D03*
%TO.P,J6,6,Pin_6*%
%TO.N,Net-(J6-Pin_6)*%
X142548054Y-120340000D03*
%TO.P,J6,7,Pin_7*%
%TO.N,Net-(J6-Pin_7)*%
X140008054Y-120340000D03*
%TO.P,J6,8,Pin_8*%
%TO.N,Net-(J6-Pin_8)*%
X137468054Y-120340000D03*
%TD*%
D17*
%TO.P,R20,1*%
%TO.N,Column4*%
X137462500Y-115325000D03*
%TO.P,R20,2*%
%TO.N,GND*%
X137462500Y-113500000D03*
%TD*%
D18*
%TO.P,C7,1*%
%TO.N,+5V_PI*%
X121187500Y-117325000D03*
%TO.P,C7,2*%
%TO.N,GND*%
X121187500Y-115775000D03*
%TD*%
D19*
%TO.P,R1,1*%
%TO.N,Column1*%
X145087500Y-116680000D03*
%TO.P,R1,2*%
%TO.N,Net-(J6-Pin_5)*%
X145087500Y-117700000D03*
%TD*%
D17*
%TO.P,R19,1*%
%TO.N,Column3*%
X140012500Y-115325000D03*
%TO.P,R19,2*%
%TO.N,GND*%
X140012500Y-113500000D03*
%TD*%
%TO.P,R14,1*%
%TO.N,Column1*%
X145087500Y-115325000D03*
%TO.P,R14,2*%
%TO.N,GND*%
X145087500Y-113500000D03*
%TD*%
D19*
%TO.P,R4,1*%
%TO.N,Column2*%
X142537500Y-116680000D03*
%TO.P,R4,2*%
%TO.N,Net-(J6-Pin_6)*%
X142537500Y-117700000D03*
%TD*%
D20*
%TO.P,R11,1*%
%TO.N,+3.3V_PI*%
X158902500Y-113735000D03*
%TO.P,R11,2*%
%TO.N,SCL*%
X159922500Y-113735000D03*
%TD*%
D15*
%TO.P,J3,1,Pin_1*%
%TO.N,SCK*%
X131338054Y-120340000D03*
D16*
%TO.P,J3,2,Pin_2*%
%TO.N,MISO*%
X128798054Y-120340000D03*
%TO.P,J3,3,Pin_3*%
%TO.N,MOSI*%
X126258054Y-120340000D03*
%TO.P,J3,4,Pin_4*%
%TO.N,SS*%
X123718054Y-120340000D03*
%TO.P,J3,5,Pin_5*%
%TO.N,+5V_PI*%
X121178054Y-120340000D03*
%TO.P,J3,6,Pin_6*%
%TO.N,GND*%
X118638054Y-120340000D03*
%TO.P,J3,7,Pin_7*%
%TO.N,IRQ*%
X116098054Y-120340000D03*
%TO.P,J3,8,Pin_8*%
%TO.N,RSTO*%
X113558054Y-120340000D03*
%TD*%
D21*
%TO.P,R3,1*%
%TO.N,+3.3V_PI*%
X109982500Y-102700000D03*
%TO.P,R3,2*%
%TO.N,Net-(D3-A)*%
X111807500Y-102700000D03*
%TD*%
D19*
%TO.P,R5,1*%
%TO.N,Column3*%
X140012500Y-116680000D03*
%TO.P,R5,2*%
%TO.N,Net-(J6-Pin_7)*%
X140012500Y-117700000D03*
%TD*%
D21*
%TO.P,R2,1*%
%TO.N,+5V_PI*%
X109982500Y-105025000D03*
%TO.P,R2,2*%
%TO.N,Net-(D2-A)*%
X111807500Y-105025000D03*
%TD*%
D19*
%TO.P,R6,1*%
%TO.N,Column4*%
X137462500Y-116680000D03*
%TO.P,R6,2*%
%TO.N,Net-(J6-Pin_8)*%
X137462500Y-117700000D03*
%TD*%
D20*
%TO.P,R10,1*%
%TO.N,+3.3V_PI*%
X158902500Y-111195000D03*
%TO.P,R10,2*%
%TO.N,SDA*%
X159922500Y-111195000D03*
%TD*%
D22*
%TO.P,U1,1,3V3_1*%
%TO.N,+3.3V_PI*%
X109982500Y-99495000D03*
D23*
%TO.P,U1,2,5V_2*%
%TO.N,+5V_PI*%
X109982500Y-96955000D03*
%TO.P,U1,3,GPIO2/SDA1*%
%TO.N,SDA*%
X112522500Y-99495000D03*
%TO.P,U1,4,5V_4*%
%TO.N,+5V_PI*%
X112522500Y-96955000D03*
%TO.P,U1,5,GPIO3/SCL*%
%TO.N,SCL*%
X115062500Y-99495000D03*
%TO.P,U1,6,GND_6*%
%TO.N,GND*%
X115062500Y-96955000D03*
%TO.P,U1,7,GPIO4/GPIO_GCLK*%
%TO.N,unconnected-(U1-GPIO4{slash}GPIO_GCLK-Pad7)*%
X117602500Y-99495000D03*
%TO.P,U1,8,GPIO14/TXD0*%
%TO.N,unconnected-(U1-GPIO14{slash}TXD0-Pad8)*%
X117602500Y-96955000D03*
%TO.P,U1,9,GND_9*%
%TO.N,GND*%
X120142500Y-99495000D03*
%TO.P,U1,10,GPIO15/RXD0*%
%TO.N,unconnected-(U1-GPIO15{slash}RXD0-Pad10)*%
X120142500Y-96955000D03*
%TO.P,U1,11,GPIO17/GPIO_GEN0*%
%TO.N,Column2*%
X122682500Y-99495000D03*
%TO.P,U1,12,GPIO18/GPIO_GEN1*%
%TO.N,Column3*%
X122682500Y-96955000D03*
%TO.P,U1,13,GPIO27/GPIO_GEN2*%
%TO.N,unconnected-(U1-GPIO27{slash}GPIO_GEN2-Pad13)*%
X125222500Y-99495000D03*
%TO.P,U1,14,GND_14*%
%TO.N,GND*%
X125222500Y-96955000D03*
%TO.P,U1,15,GPIO22/GPIO_GEN3*%
%TO.N,unconnected-(U1-GPIO22{slash}GPIO_GEN3-Pad15)*%
X127762500Y-99495000D03*
%TO.P,U1,16,GPIO23/GPIO_GEN4*%
%TO.N,unconnected-(U1-GPIO23{slash}GPIO_GEN4-Pad16)*%
X127762500Y-96955000D03*
%TO.P,U1,17,3V3_17*%
%TO.N,+3.3V_PI*%
X130302500Y-99495000D03*
%TO.P,U1,18,GPIO24/GPIO_GEN5*%
%TO.N,unconnected-(U1-GPIO24{slash}GPIO_GEN5-Pad18)*%
X130302500Y-96955000D03*
%TO.P,U1,19,GPIO10/SPI_MOSI*%
%TO.N,MOSI*%
X132842500Y-99495000D03*
%TO.P,U1,20,GND_20*%
%TO.N,GND*%
X132842500Y-96955000D03*
%TO.P,U1,21,GPIO9/SPI_MISO*%
%TO.N,MISO*%
X135382500Y-99495000D03*
%TO.P,U1,22,GPIO25/GPIO_GEN6*%
%TO.N,IRQ*%
X135382500Y-96955000D03*
%TO.P,U1,23,GPIO11/SPI_SCLK*%
%TO.N,SCK*%
X137922500Y-99495000D03*
%TO.P,U1,24,GPIO8/SPI_~{CE0}*%
%TO.N,SS*%
X137922500Y-96955000D03*
%TO.P,U1,25,GND_25*%
%TO.N,GND*%
X140462500Y-99495000D03*
%TO.P,U1,26,GPIO7/SPI_~{CE1}*%
%TO.N,RSTO*%
X140462500Y-96955000D03*
%TO.P,U1,27,ID_SD*%
%TO.N,unconnected-(U1-ID_SD-Pad27)*%
X143002500Y-99495000D03*
%TO.P,U1,28,ID_SC*%
%TO.N,unconnected-(U1-ID_SC-Pad28)*%
X143002500Y-96955000D03*
%TO.P,U1,29,GPIO5*%
%TO.N,unconnected-(U1-GPIO5-Pad29)*%
X145542500Y-99495000D03*
%TO.P,U1,30,GND_30*%
%TO.N,GND*%
X145542500Y-96955000D03*
%TO.P,U1,31,GPIO6*%
%TO.N,unconnected-(U1-GPIO6-Pad31)*%
X148082500Y-99495000D03*
%TO.P,U1,32,GPIO12*%
%TO.N,ROW3*%
X148082500Y-96955000D03*
%TO.P,U1,33,GPIO13*%
%TO.N,ROW4*%
X150622500Y-99495000D03*
%TO.P,U1,34,GND_34*%
%TO.N,GND*%
X150622500Y-96955000D03*
%TO.P,U1,35,GPIO19*%
%TO.N,Column4*%
X153162500Y-99495000D03*
%TO.P,U1,36,GPIO16*%
%TO.N,Column1*%
X153162500Y-96955000D03*
%TO.P,U1,37,GPIO26*%
%TO.N,unconnected-(U1-GPIO26-Pad37)*%
X155702500Y-99495000D03*
%TO.P,U1,38,GPIO20*%
%TO.N,ROW1*%
X155702500Y-96955000D03*
%TO.P,U1,39,GND_39*%
%TO.N,GND*%
X158242500Y-99495000D03*
%TO.P,U1,40,GPIO21*%
%TO.N,ROW2*%
X158242500Y-96955000D03*
%TD*%
D14*
%TO.P,D2,1,K*%
%TO.N,GND*%
X115000000Y-105000000D03*
%TO.P,D2,2,A*%
%TO.N,Net-(D2-A)*%
X113425000Y-105000000D03*
%TD*%
D15*
%TO.P,J4,1,Pin_1*%
%TO.N,+3.3V_PI*%
X162227500Y-106115000D03*
D16*
%TO.P,J4,2,Pin_2*%
%TO.N,GND*%
X162227500Y-108655000D03*
%TO.P,J4,3,Pin_3*%
%TO.N,SDA*%
X162227500Y-111195000D03*
%TO.P,J4,4,Pin_4*%
%TO.N,SCL*%
X162227500Y-113735000D03*
%TD*%
D24*
%TO.P,C5,1*%
%TO.N,+5V_PI*%
X108612500Y-105025000D03*
%TO.P,C5,2*%
%TO.N,GND*%
X108612500Y-105985000D03*
%TD*%
D17*
%TO.P,R15,1*%
%TO.N,Column2*%
X142537500Y-115325000D03*
%TO.P,R15,2*%
%TO.N,GND*%
X142537500Y-113500000D03*
%TD*%
D25*
%TO.P,D1,1,K*%
%TO.N,+5V_PI*%
X105800000Y-103325000D03*
%TO.P,D1,2,A*%
%TO.N,GND*%
X105800000Y-107325000D03*
%TD*%
D26*
%TO.P,C6,1*%
%TO.N,+3.3V_PI*%
X158902500Y-106115000D03*
%TO.P,C6,2*%
%TO.N,GND*%
X157352500Y-106115000D03*
%TD*%
D27*
%TO.N,GND*%
X124100000Y-122200000D03*
X107100000Y-95900000D03*
X123100000Y-123500000D03*
X163100000Y-123500000D03*
X163100000Y-95900000D03*
X131100000Y-123500000D03*
X105100000Y-123500000D03*
X114100000Y-112200000D03*
X129100000Y-112200000D03*
X102800000Y-121800000D03*
X119100000Y-112200000D03*
X105100000Y-95900000D03*
X161100000Y-95900000D03*
X165400000Y-121700000D03*
X143100000Y-123500000D03*
X102800000Y-101800000D03*
X117100000Y-123500000D03*
X164100000Y-117200000D03*
X144100000Y-122200000D03*
X104100000Y-112200000D03*
X129100000Y-122200000D03*
X159100000Y-102200000D03*
X102800000Y-119800000D03*
X119100000Y-102200000D03*
X103600000Y-123000000D03*
X109100000Y-117200000D03*
X124100000Y-107200000D03*
X145100000Y-123500000D03*
X111100000Y-123500000D03*
X165400000Y-115700000D03*
X144100000Y-112200000D03*
X165400000Y-111700000D03*
X164100000Y-102200000D03*
X102800000Y-103800000D03*
X102800000Y-107800000D03*
X157100000Y-123500000D03*
X165400000Y-99700000D03*
X119100000Y-107200000D03*
X102800000Y-111800000D03*
X165400000Y-119700000D03*
X165400000Y-109700000D03*
X137100000Y-123500000D03*
X149100000Y-122200000D03*
X149100000Y-102200000D03*
X165400000Y-117700000D03*
X159100000Y-122200000D03*
X165400000Y-107700000D03*
X154100000Y-122200000D03*
X109100000Y-123500000D03*
X102800000Y-115800000D03*
X159100000Y-123500000D03*
X149100000Y-107200000D03*
X102800000Y-105800000D03*
X102800000Y-109800000D03*
X165400000Y-105700000D03*
X119100000Y-123500000D03*
X113100000Y-123500000D03*
X134100000Y-107200000D03*
X102800000Y-117800000D03*
X104100000Y-107200000D03*
X161100000Y-123500000D03*
X102800000Y-97800000D03*
X149100000Y-123500000D03*
X153100000Y-123500000D03*
X121100000Y-123500000D03*
X154100000Y-102200000D03*
X151100000Y-123500000D03*
X165400000Y-97700000D03*
X109100000Y-112200000D03*
X125100000Y-123500000D03*
X141100000Y-123500000D03*
X102800000Y-99800000D03*
X109100000Y-107200000D03*
X124100000Y-112200000D03*
X139100000Y-117200000D03*
X144100000Y-102200000D03*
X139100000Y-123500000D03*
X149100000Y-117200000D03*
X164100000Y-107200000D03*
X154100000Y-117200000D03*
X114100000Y-122200000D03*
X134100000Y-122200000D03*
X154100000Y-112200000D03*
X144100000Y-117200000D03*
X159100000Y-117200000D03*
X104100000Y-117200000D03*
X103600000Y-96500000D03*
X139100000Y-102200000D03*
X133100000Y-123500000D03*
X144100000Y-107200000D03*
X135100000Y-123500000D03*
X115100000Y-123500000D03*
X139100000Y-122200000D03*
X154100000Y-107200000D03*
X165400000Y-103700000D03*
X124100000Y-117200000D03*
X109100000Y-122200000D03*
X107100000Y-123500000D03*
X147100000Y-123500000D03*
X104100000Y-102200000D03*
X102800000Y-113800000D03*
X164600000Y-96400000D03*
X165400000Y-113700000D03*
X165400000Y-101700000D03*
X164700000Y-123000000D03*
X127100000Y-123500000D03*
X119100000Y-122200000D03*
X129100000Y-123500000D03*
X155100000Y-123500000D03*
X114100000Y-107200000D03*
%TO.N,Column4*%
X133812500Y-112025000D03*
X139712500Y-104125000D03*
%TO.N,SS*%
X129750000Y-107000000D03*
%TO.N,Column2*%
X139400000Y-107225000D03*
X141228470Y-114600000D03*
%TD*%
D28*
%TO.N,+5V_PI*%
X108612500Y-105025000D02*
X107500000Y-105025000D01*
X121187500Y-120330554D02*
X121178054Y-120340000D01*
X121187500Y-117325000D02*
X121187500Y-120330554D01*
X109982500Y-105025000D02*
X109982500Y-106120000D01*
X109982500Y-106120000D02*
X121187500Y-117325000D01*
X121178054Y-120340000D02*
X121178054Y-120040000D01*
X107500000Y-105025000D02*
X105800000Y-103325000D01*
X105800000Y-103325000D02*
X105800000Y-101137500D01*
X105800000Y-101137500D02*
X109982500Y-96955000D01*
X109982500Y-105025000D02*
X108612500Y-105025000D01*
%TO.N,+3.3V_PI*%
X158902500Y-106115000D02*
X158902500Y-111195000D01*
X162192500Y-106150000D02*
X162227500Y-106115000D01*
X109982500Y-102700000D02*
X109982500Y-99495000D01*
X162227500Y-106115000D02*
X158902500Y-106115000D01*
X158902500Y-113735000D02*
X158902500Y-111195000D01*
D29*
%TO.N,Net-(D2-A)*%
X111832500Y-105000000D02*
X111807500Y-105025000D01*
X113425000Y-105000000D02*
X111832500Y-105000000D01*
%TO.N,Net-(D3-A)*%
X111807500Y-102700000D02*
X113425000Y-102700000D01*
%TO.N,Column1*%
X145087500Y-115325000D02*
X145087500Y-116680000D01*
X152107500Y-98010000D02*
X152107500Y-108305000D01*
X152107500Y-108305000D02*
X145087500Y-115325000D01*
X153162500Y-96955000D02*
X152107500Y-98010000D01*
%TO.N,SDA*%
X159922500Y-111195000D02*
X162227500Y-111195000D01*
%TO.N,Column4*%
X137462500Y-116680000D02*
X137462500Y-115325000D01*
X135525000Y-115325000D02*
X133812500Y-113612500D01*
X133812500Y-113612500D02*
X133812500Y-112025000D01*
X137462500Y-115325000D02*
X135525000Y-115325000D01*
%TO.N,SS*%
X129750000Y-107000000D02*
X125412500Y-111337500D01*
X125412500Y-118625000D02*
X123718054Y-120319446D01*
X123718054Y-120319446D02*
X123718054Y-120340000D01*
X125412500Y-111337500D02*
X125412500Y-118625000D01*
%TO.N,Column2*%
X141953470Y-115325000D02*
X142537500Y-115325000D01*
X127812500Y-104625000D02*
X122682500Y-99495000D01*
X136725000Y-104625000D02*
X127812500Y-104625000D01*
X139400000Y-107225000D02*
X139325000Y-107225000D01*
X141228470Y-114600000D02*
X141953470Y-115325000D01*
X139325000Y-107225000D02*
X136725000Y-104625000D01*
X142537500Y-116680000D02*
X142537500Y-115325000D01*
%TO.N,SCL*%
X159922500Y-113735000D02*
X162227500Y-113735000D01*
%TO.N,Column3*%
X140012500Y-116680000D02*
X140012500Y-115325000D01*
X121627500Y-98010000D02*
X122682500Y-96955000D01*
X136412500Y-105625000D02*
X127320504Y-105625000D01*
X121627500Y-99931996D02*
X121627500Y-98010000D01*
X127320504Y-105625000D02*
X121627500Y-99931996D01*
X138463500Y-113776000D02*
X138463500Y-107676000D01*
X138463500Y-107676000D02*
X136412500Y-105625000D01*
X140012500Y-115325000D02*
X138463500Y-113776000D01*
%TO.N,Net-(J6-Pin_6)*%
X142548054Y-117710554D02*
X142537500Y-117700000D01*
X142548054Y-120340000D02*
X142548054Y-117710554D01*
%TO.N,Net-(J6-Pin_5)*%
X145088054Y-120340000D02*
X145088054Y-117725554D01*
X145088054Y-117725554D02*
X145062500Y-117700000D01*
%TO.N,Net-(J6-Pin_7)*%
X140008054Y-117704446D02*
X140012500Y-117700000D01*
X140008054Y-120340000D02*
X140008054Y-117704446D01*
%TO.N,Net-(J6-Pin_8)*%
X137468054Y-117705554D02*
X137462500Y-117700000D01*
X137468054Y-120340000D02*
X137468054Y-117705554D01*
%TD*%
%TA.AperFunction,Conductor*%
%TO.N,GND*%
G36*
X120945406Y-99944352D02*
G01*
X120978891Y-100005675D01*
X120979342Y-100007841D01*
X121001997Y-100121734D01*
X121001999Y-100121740D01*
X121051035Y-100240123D01*
X121122223Y-100346665D01*
X121122226Y-100346669D01*
X126905831Y-106130274D01*
X127001083Y-106193919D01*
X127001082Y-106193919D01*
X127012375Y-106201464D01*
X127012376Y-106201464D01*
X127012377Y-106201465D01*
X127130760Y-106250501D01*
X127130764Y-106250501D01*
X127130765Y-106250502D01*
X127256432Y-106275500D01*
X127256435Y-106275500D01*
X128919085Y-106275500D01*
X128986124Y-106295185D01*
X129031879Y-106347989D01*
X129041823Y-106417147D01*
X129022187Y-106468391D01*
X128951990Y-106573446D01*
X128951983Y-106573459D01*
X128884106Y-106737332D01*
X128884103Y-106737341D01*
X128849500Y-106911304D01*
X128849500Y-106929191D01*
X128829815Y-106996230D01*
X128813181Y-107016872D01*
X124907227Y-110922825D01*
X124907224Y-110922828D01*
X124852149Y-111005254D01*
X124852150Y-111005255D01*
X124836036Y-111029371D01*
X124836033Y-111029377D01*
X124786999Y-111147755D01*
X124786997Y-111147761D01*
X124762000Y-111273428D01*
X124762000Y-118304191D01*
X124742315Y-118371230D01*
X124725681Y-118391872D01*
X124131202Y-118986350D01*
X124069879Y-119019835D01*
X124024123Y-119021142D01*
X123866891Y-118996239D01*
X123824341Y-118989500D01*
X123611767Y-118989500D01*
X123563096Y-118997208D01*
X123401814Y-119022753D01*
X123199639Y-119088444D01*
X123010233Y-119184951D01*
X122838267Y-119309890D01*
X122687944Y-119460213D01*
X122563003Y-119632182D01*
X122558538Y-119640946D01*
X122510563Y-119691742D01*
X122442742Y-119708536D01*
X122376607Y-119685998D01*
X122337570Y-119640946D01*
X122333104Y-119632182D01*
X122208163Y-119460213D01*
X122057844Y-119309894D01*
X122057839Y-119309890D01*
X121989115Y-119259959D01*
X121946449Y-119204629D01*
X121938000Y-119159641D01*
X121938000Y-118126874D01*
X121957685Y-118059835D01*
X121974319Y-118039193D01*
X122010468Y-118003044D01*
X122099503Y-117858697D01*
X122152849Y-117697708D01*
X122163000Y-117598345D01*
X122162999Y-117051656D01*
X122152849Y-116952292D01*
X122099503Y-116791303D01*
X122099499Y-116791297D01*
X122099498Y-116791294D01*
X122010470Y-116646959D01*
X122010467Y-116646955D01*
X122000839Y-116637327D01*
X121967354Y-116576004D01*
X121972338Y-116506312D01*
X122000845Y-116461959D01*
X122010073Y-116452731D01*
X122099042Y-116308492D01*
X122099047Y-116308481D01*
X122152355Y-116147606D01*
X122162499Y-116048322D01*
X122162500Y-116048309D01*
X122162500Y-116025000D01*
X121311500Y-116025000D01*
X121244461Y-116005315D01*
X121198706Y-115952511D01*
X121187500Y-115901000D01*
X121187500Y-115775000D01*
X121061500Y-115775000D01*
X120994461Y-115755315D01*
X120948706Y-115702511D01*
X120937500Y-115651000D01*
X120937500Y-115525000D01*
X121437500Y-115525000D01*
X122162499Y-115525000D01*
X122162499Y-115501692D01*
X122162498Y-115501677D01*
X122152355Y-115402392D01*
X122099047Y-115241518D01*
X122099042Y-115241507D01*
X122010075Y-115097271D01*
X122010072Y-115097267D01*
X121890232Y-114977427D01*
X121890228Y-114977424D01*
X121745992Y-114888457D01*
X121745981Y-114888452D01*
X121585106Y-114835144D01*
X121485822Y-114825000D01*
X121437500Y-114825000D01*
X121437500Y-115525000D01*
X120937500Y-115525000D01*
X120937500Y-114825000D01*
X120937499Y-114824999D01*
X120889193Y-114825000D01*
X120889175Y-114825001D01*
X120789892Y-114835144D01*
X120629018Y-114888452D01*
X120629007Y-114888457D01*
X120484771Y-114977424D01*
X120484767Y-114977427D01*
X120364926Y-115097268D01*
X120316099Y-115176429D01*
X120264151Y-115223153D01*
X120195188Y-115234374D01*
X120131106Y-115206530D01*
X120122880Y-115199012D01*
X111356504Y-106432636D01*
X111323019Y-106371313D01*
X111328003Y-106301621D01*
X111369875Y-106245688D01*
X111435339Y-106221271D01*
X111456786Y-106221596D01*
X111494991Y-106225500D01*
X112120008Y-106225499D01*
X112120016Y-106225498D01*
X112120019Y-106225498D01*
X112176302Y-106219748D01*
X112222797Y-106214999D01*
X112389334Y-106159814D01*
X112538656Y-106067712D01*
X112662712Y-105943656D01*
X112676967Y-105920543D01*
X112728913Y-105873818D01*
X112797875Y-105862594D01*
X112847603Y-105880098D01*
X112900213Y-105912549D01*
X113059815Y-105965436D01*
X113158326Y-105975500D01*
X113158331Y-105975500D01*
X113691669Y-105975500D01*
X113691674Y-105975500D01*
X113790185Y-105965436D01*
X113949787Y-105912549D01*
X114092891Y-105824281D01*
X114125172Y-105792000D01*
X114186495Y-105758515D01*
X114256187Y-105763499D01*
X114300534Y-105792000D01*
X114332419Y-105823885D01*
X114475422Y-105912091D01*
X114475427Y-105912093D01*
X114634916Y-105964942D01*
X114733356Y-105974999D01*
X115250000Y-105974999D01*
X115266636Y-105974999D01*
X115266652Y-105974998D01*
X115365083Y-105964943D01*
X115524572Y-105912093D01*
X115524577Y-105912091D01*
X115667580Y-105823885D01*
X115786385Y-105705080D01*
X115874591Y-105562077D01*
X115874593Y-105562072D01*
X115927442Y-105402583D01*
X115937499Y-105304150D01*
X115937500Y-105304137D01*
X115937500Y-105250000D01*
X115250000Y-105250000D01*
X115250000Y-105974999D01*
X114733356Y-105974999D01*
X114750000Y-105974998D01*
X114750000Y-104750000D01*
X115250000Y-104750000D01*
X115937499Y-104750000D01*
X115937499Y-104695864D01*
X115937498Y-104695847D01*
X115927443Y-104597416D01*
X115874593Y-104437927D01*
X115874591Y-104437922D01*
X115786385Y-104294919D01*
X115667580Y-104176114D01*
X115524577Y-104087908D01*
X115524572Y-104087906D01*
X115365083Y-104035057D01*
X115266650Y-104025000D01*
X115250000Y-104025000D01*
X115250000Y-104750000D01*
X114750000Y-104750000D01*
X114750000Y-104024999D01*
X114733356Y-104025000D01*
X114634915Y-104035057D01*
X114475427Y-104087906D01*
X114475422Y-104087908D01*
X114332419Y-104176114D01*
X114300533Y-104208000D01*
X114239209Y-104241485D01*
X114169518Y-104236499D01*
X114125173Y-104208000D01*
X114092892Y-104175719D01*
X114092887Y-104175716D01*
X113949795Y-104087455D01*
X113949789Y-104087452D01*
X113949787Y-104087451D01*
X113790185Y-104034564D01*
X113790183Y-104034563D01*
X113691681Y-104024500D01*
X113691674Y-104024500D01*
X113158326Y-104024500D01*
X113158318Y-104024500D01*
X113059816Y-104034563D01*
X113059815Y-104034564D01*
X112980719Y-104060773D01*
X112900215Y-104087450D01*
X112900206Y-104087454D01*
X112824449Y-104134182D01*
X112757057Y-104152622D01*
X112690393Y-104131699D01*
X112674921Y-104119458D01*
X112665261Y-104110477D01*
X112662712Y-104106344D01*
X112538656Y-103982288D01*
X112505157Y-103961625D01*
X112496218Y-103953315D01*
X112484355Y-103933353D01*
X112468829Y-103916092D01*
X112466842Y-103903884D01*
X112460523Y-103893251D01*
X112461335Y-103870046D01*
X112457606Y-103847130D01*
X112462535Y-103835785D01*
X112462968Y-103823424D01*
X112476196Y-103804342D01*
X112485449Y-103783047D01*
X112499251Y-103771087D01*
X112502776Y-103766003D01*
X112507272Y-103764136D01*
X112515552Y-103756962D01*
X112538656Y-103742712D01*
X112662712Y-103618656D01*
X112665795Y-103613656D01*
X112717739Y-103566930D01*
X112786701Y-103555703D01*
X112836434Y-103573210D01*
X112900204Y-103612544D01*
X112900207Y-103612545D01*
X112900213Y-103612549D01*
X113059815Y-103665436D01*
X113158326Y-103675500D01*
X113158331Y-103675500D01*
X113691669Y-103675500D01*
X113691674Y-103675500D01*
X113790185Y-103665436D01*
X113949787Y-103612549D01*
X114092891Y-103524281D01*
X114125172Y-103492000D01*
X114186495Y-103458515D01*
X114256187Y-103463499D01*
X114300534Y-103492000D01*
X114332419Y-103523885D01*
X114475422Y-103612091D01*
X114475427Y-103612093D01*
X114634916Y-103664942D01*
X114733356Y-103674999D01*
X115250000Y-103674999D01*
X115266636Y-103674999D01*
X115266652Y-103674998D01*
X115365083Y-103664943D01*
X115524572Y-103612093D01*
X115524577Y-103612091D01*
X115667580Y-103523885D01*
X115786385Y-103405080D01*
X115874591Y-103262077D01*
X115874593Y-103262072D01*
X115927442Y-103102583D01*
X115937499Y-103004150D01*
X115937500Y-103004137D01*
X115937500Y-102950000D01*
X115250000Y-102950000D01*
X115250000Y-103674999D01*
X114733356Y-103674999D01*
X114750000Y-103674998D01*
X114750000Y-102450000D01*
X115250000Y-102450000D01*
X115937499Y-102450000D01*
X115937499Y-102395864D01*
X115937498Y-102395847D01*
X115927443Y-102297416D01*
X115874593Y-102137927D01*
X115874591Y-102137922D01*
X115786385Y-101994919D01*
X115667580Y-101876114D01*
X115524577Y-101787908D01*
X115524572Y-101787906D01*
X115365083Y-101735057D01*
X115266650Y-101725000D01*
X115250000Y-101725000D01*
X115250000Y-102450000D01*
X114750000Y-102450000D01*
X114750000Y-101724999D01*
X114733356Y-101725000D01*
X114634915Y-101735057D01*
X114475427Y-101787906D01*
X114475422Y-101787908D01*
X114332419Y-101876114D01*
X114300533Y-101908000D01*
X114239209Y-101941485D01*
X114169518Y-101936499D01*
X114125173Y-101908000D01*
X114092892Y-101875719D01*
X114092887Y-101875716D01*
X113949795Y-101787455D01*
X113949789Y-101787452D01*
X113949787Y-101787451D01*
X113790185Y-101734564D01*
X113790183Y-101734563D01*
X113691681Y-101724500D01*
X113691674Y-101724500D01*
X113158326Y-101724500D01*
X113158318Y-101724500D01*
X113059816Y-101734563D01*
X113059815Y-101734564D01*
X112997271Y-101755289D01*
X112900215Y-101787450D01*
X112900204Y-101787455D01*
X112836434Y-101826790D01*
X112769042Y-101845231D01*
X112702378Y-101824309D01*
X112665800Y-101786352D01*
X112662712Y-101781344D01*
X112538656Y-101657288D01*
X112431062Y-101590924D01*
X112389336Y-101565187D01*
X112389331Y-101565185D01*
X112378026Y-101561439D01*
X112222797Y-101510001D01*
X112222795Y-101510000D01*
X112120010Y-101499500D01*
X111494998Y-101499500D01*
X111494980Y-101499501D01*
X111392203Y-101510000D01*
X111392200Y-101510001D01*
X111225668Y-101565185D01*
X111225663Y-101565187D01*
X111076342Y-101657289D01*
X110982681Y-101750951D01*
X110974735Y-101755289D01*
X110969310Y-101762537D01*
X110944550Y-101771771D01*
X110921358Y-101784436D01*
X110912328Y-101783790D01*
X110903846Y-101786954D01*
X110878025Y-101781337D01*
X110851666Y-101779452D01*
X110842612Y-101773633D01*
X110835573Y-101772102D01*
X110807319Y-101750951D01*
X110769319Y-101712951D01*
X110735834Y-101651628D01*
X110733000Y-101625270D01*
X110733000Y-100866406D01*
X110752685Y-100799367D01*
X110805489Y-100753612D01*
X110836486Y-100745108D01*
X110836432Y-100744876D01*
X110842944Y-100743336D01*
X110843750Y-100743116D01*
X110843983Y-100743091D01*
X110843989Y-100743089D01*
X110978828Y-100692797D01*
X110978827Y-100692797D01*
X110978831Y-100692796D01*
X111094046Y-100606546D01*
X111180296Y-100491331D01*
X111230591Y-100356483D01*
X111237000Y-100296873D01*
X111236999Y-100241574D01*
X111256682Y-100174538D01*
X111309486Y-100128783D01*
X111378644Y-100118838D01*
X111442200Y-100147862D01*
X111461317Y-100168691D01*
X111565615Y-100312245D01*
X111565619Y-100312250D01*
X111705253Y-100451884D01*
X111828658Y-100541541D01*
X111864999Y-100567944D01*
X112040939Y-100657591D01*
X112166137Y-100698270D01*
X112228736Y-100718610D01*
X112423764Y-100749500D01*
X112423769Y-100749500D01*
X112621236Y-100749500D01*
X112816263Y-100718610D01*
X112817762Y-100718123D01*
X113004061Y-100657591D01*
X113180001Y-100567944D01*
X113285455Y-100491328D01*
X113339746Y-100451884D01*
X113339748Y-100451881D01*
X113339752Y-100451879D01*
X113479379Y-100312252D01*
X113479381Y-100312248D01*
X113479384Y-100312246D01*
X113595441Y-100152505D01*
X113595443Y-100152502D01*
X113595444Y-100152501D01*
X113682017Y-99982593D01*
X113729990Y-99931800D01*
X113797811Y-99915005D01*
X113863946Y-99937542D01*
X113902982Y-99982593D01*
X113972404Y-100118838D01*
X113989558Y-100152505D01*
X114105615Y-100312246D01*
X114245253Y-100451884D01*
X114368658Y-100541541D01*
X114404999Y-100567944D01*
X114580939Y-100657591D01*
X114706137Y-100698270D01*
X114768736Y-100718610D01*
X114963764Y-100749500D01*
X114963769Y-100749500D01*
X115161236Y-100749500D01*
X115356263Y-100718610D01*
X115357762Y-100718123D01*
X115544061Y-100657591D01*
X115720001Y-100567944D01*
X115825455Y-100491328D01*
X115879746Y-100451884D01*
X115879748Y-100451881D01*
X115879752Y-100451879D01*
X116019379Y-100312252D01*
X116019381Y-100312248D01*
X116019384Y-100312246D01*
X116135441Y-100152505D01*
X116135443Y-100152502D01*
X116135444Y-100152501D01*
X116222017Y-99982593D01*
X116269990Y-99931800D01*
X116337811Y-99915005D01*
X116403946Y-99937542D01*
X116442982Y-99982593D01*
X116512404Y-100118838D01*
X116529558Y-100152505D01*
X116645615Y-100312246D01*
X116785253Y-100451884D01*
X116908658Y-100541541D01*
X116944999Y-100567944D01*
X117120939Y-100657591D01*
X117246137Y-100698270D01*
X117308736Y-100718610D01*
X117503764Y-100749500D01*
X117503769Y-100749500D01*
X117701236Y-100749500D01*
X117896263Y-100718610D01*
X117897762Y-100718123D01*
X118084061Y-100657591D01*
X118260001Y-100567944D01*
X118365455Y-100491328D01*
X118419746Y-100451884D01*
X118419748Y-100451881D01*
X118419752Y-100451879D01*
X118559379Y-100312252D01*
X118559381Y-100312248D01*
X118559384Y-100312246D01*
X118675443Y-100152502D01*
X118675579Y-100152236D01*
X118762297Y-99982043D01*
X118810268Y-99931250D01*
X118878089Y-99914455D01*
X118944224Y-99936992D01*
X118983263Y-99982045D01*
X119069981Y-100152236D01*
X119095957Y-100187988D01*
X119095957Y-100187989D01*
X119659537Y-99624409D01*
X119676575Y-99687993D01*
X119742401Y-99802007D01*
X119835493Y-99895099D01*
X119949507Y-99960925D01*
X120013090Y-99977962D01*
X119449509Y-100541541D01*
X119449510Y-100541542D01*
X119485255Y-100567512D01*
X119485268Y-100567520D01*
X119661126Y-100657126D01*
X119848853Y-100718123D01*
X120043803Y-100749000D01*
X120241197Y-100749000D01*
X120436146Y-100718123D01*
X120623873Y-100657126D01*
X120799741Y-100567516D01*
X120835488Y-100541543D01*
X120835488Y-100541541D01*
X120271910Y-99977962D01*
X120335493Y-99960925D01*
X120449507Y-99895099D01*
X120542599Y-99802007D01*
X120608425Y-99687993D01*
X120625462Y-99624408D01*
X120945406Y-99944352D01*
G37*
%TD.AperFunction*%
%TA.AperFunction,Conductor*%
G36*
X138754446Y-115760161D02*
G01*
X138785101Y-115763498D01*
X138788523Y-115766263D01*
X138792856Y-115767039D01*
X138815461Y-115788029D01*
X138839447Y-115807410D01*
X138842134Y-115812797D01*
X138844057Y-115814582D01*
X138855204Y-115838991D01*
X138875753Y-115901000D01*
X138877686Y-115906834D01*
X138969788Y-116056156D01*
X139093844Y-116180212D01*
X139164373Y-116223714D01*
X139211097Y-116275660D01*
X139222320Y-116344622D01*
X139218353Y-116363846D01*
X139194834Y-116444797D01*
X139192000Y-116480811D01*
X139192000Y-116879169D01*
X139192001Y-116879191D01*
X139194835Y-116915205D01*
X139239629Y-117069388D01*
X139239632Y-117069395D01*
X139273628Y-117126881D01*
X139290809Y-117194605D01*
X139273628Y-117253119D01*
X139239632Y-117310604D01*
X139239629Y-117310611D01*
X139194835Y-117464791D01*
X139194834Y-117464797D01*
X139192000Y-117500811D01*
X139192000Y-117899169D01*
X139192001Y-117899191D01*
X139194835Y-117935205D01*
X139239629Y-118089388D01*
X139239631Y-118089393D01*
X139321363Y-118227595D01*
X139326148Y-118233764D01*
X139325109Y-118234569D01*
X139354718Y-118288780D01*
X139357554Y-118315149D01*
X139357554Y-119080382D01*
X139337869Y-119147421D01*
X139303462Y-119181099D01*
X139304179Y-119182085D01*
X139128267Y-119309890D01*
X138977944Y-119460213D01*
X138853003Y-119632182D01*
X138848538Y-119640946D01*
X138800563Y-119691742D01*
X138732742Y-119708536D01*
X138666607Y-119685998D01*
X138627570Y-119640946D01*
X138623104Y-119632182D01*
X138498163Y-119460213D01*
X138347840Y-119309890D01*
X138171929Y-119182085D01*
X138172905Y-119180740D01*
X138130888Y-119134295D01*
X138118554Y-119080382D01*
X138118554Y-118314041D01*
X138138239Y-118247002D01*
X138148886Y-118233790D01*
X138148852Y-118233764D01*
X138153631Y-118227602D01*
X138153635Y-118227598D01*
X138235369Y-118089393D01*
X138280165Y-117935204D01*
X138283000Y-117899181D01*
X138282999Y-117500820D01*
X138280165Y-117464796D01*
X138235369Y-117310607D01*
X138201369Y-117253117D01*
X138184188Y-117185398D01*
X138201369Y-117126882D01*
X138235369Y-117069393D01*
X138240521Y-117051662D01*
X138280164Y-116915208D01*
X138280164Y-116915206D01*
X138280165Y-116915204D01*
X138283000Y-116879181D01*
X138282999Y-116480820D01*
X138280165Y-116444796D01*
X138256647Y-116363846D01*
X138256846Y-116293978D01*
X138294788Y-116235308D01*
X138310612Y-116223723D01*
X138381156Y-116180212D01*
X138505212Y-116056156D01*
X138597314Y-115906834D01*
X138619794Y-115838991D01*
X138637348Y-115813637D01*
X138653122Y-115787132D01*
X138657059Y-115785167D01*
X138659565Y-115781549D01*
X138688048Y-115769706D01*
X138715642Y-115755939D01*
X138720015Y-115756414D01*
X138724080Y-115754725D01*
X138754446Y-115760161D01*
G37*
%TD.AperFunction*%
%TA.AperFunction,Conductor*%
G36*
X143867856Y-115767039D02*
G01*
X143919057Y-115814582D01*
X143930204Y-115838991D01*
X143950753Y-115901000D01*
X143952686Y-115906834D01*
X144044788Y-116056156D01*
X144168844Y-116180212D01*
X144239373Y-116223714D01*
X144286097Y-116275660D01*
X144297320Y-116344622D01*
X144293353Y-116363846D01*
X144269834Y-116444797D01*
X144267000Y-116480811D01*
X144267000Y-116879169D01*
X144267001Y-116879191D01*
X144269835Y-116915205D01*
X144314629Y-117069388D01*
X144314632Y-117069395D01*
X144348628Y-117126881D01*
X144365809Y-117194605D01*
X144348628Y-117253119D01*
X144314632Y-117310604D01*
X144314629Y-117310611D01*
X144269835Y-117464791D01*
X144269834Y-117464797D01*
X144267000Y-117500811D01*
X144267000Y-117899169D01*
X144267001Y-117899191D01*
X144269835Y-117935205D01*
X144314629Y-118089388D01*
X144314631Y-118089393D01*
X144396365Y-118227598D01*
X144396368Y-118227601D01*
X144401231Y-118232464D01*
X144434719Y-118293785D01*
X144437554Y-118320149D01*
X144437554Y-119080382D01*
X144417869Y-119147421D01*
X144383462Y-119181099D01*
X144384179Y-119182085D01*
X144208267Y-119309890D01*
X144057944Y-119460213D01*
X143933003Y-119632182D01*
X143928538Y-119640946D01*
X143880563Y-119691742D01*
X143812742Y-119708536D01*
X143746607Y-119685998D01*
X143707570Y-119640946D01*
X143703104Y-119632182D01*
X143578163Y-119460213D01*
X143427840Y-119309890D01*
X143251929Y-119182085D01*
X143252905Y-119180740D01*
X143210888Y-119134295D01*
X143198554Y-119080382D01*
X143198554Y-118308833D01*
X143218239Y-118241794D01*
X143224575Y-118232832D01*
X143228632Y-118227600D01*
X143228635Y-118227598D01*
X143310369Y-118089393D01*
X143355165Y-117935204D01*
X143358000Y-117899181D01*
X143357999Y-117500820D01*
X143355165Y-117464796D01*
X143310369Y-117310607D01*
X143276369Y-117253117D01*
X143259188Y-117185398D01*
X143276369Y-117126882D01*
X143310369Y-117069393D01*
X143315521Y-117051662D01*
X143355164Y-116915208D01*
X143355164Y-116915206D01*
X143355165Y-116915204D01*
X143358000Y-116879181D01*
X143357999Y-116480820D01*
X143355165Y-116444796D01*
X143331647Y-116363846D01*
X143331846Y-116293978D01*
X143369788Y-116235308D01*
X143385612Y-116223723D01*
X143456156Y-116180212D01*
X143580212Y-116056156D01*
X143672314Y-115906834D01*
X143694794Y-115838991D01*
X143734565Y-115781549D01*
X143799080Y-115754725D01*
X143867856Y-115767039D01*
G37*
%TD.AperFunction*%
%TA.AperFunction,Conductor*%
G36*
X141509041Y-100187988D02*
G01*
X141509043Y-100187988D01*
X141535016Y-100152241D01*
X141621735Y-99982046D01*
X141669710Y-99931250D01*
X141737531Y-99914455D01*
X141803665Y-99936992D01*
X141842702Y-99982042D01*
X141912404Y-100118838D01*
X141929558Y-100152505D01*
X142045615Y-100312246D01*
X142185253Y-100451884D01*
X142308658Y-100541541D01*
X142344999Y-100567944D01*
X142520939Y-100657591D01*
X142646137Y-100698270D01*
X142708736Y-100718610D01*
X142903764Y-100749500D01*
X142903769Y-100749500D01*
X143101236Y-100749500D01*
X143296263Y-100718610D01*
X143297762Y-100718123D01*
X143484061Y-100657591D01*
X143660001Y-100567944D01*
X143765455Y-100491328D01*
X143819746Y-100451884D01*
X143819748Y-100451881D01*
X143819752Y-100451879D01*
X143959379Y-100312252D01*
X143959381Y-100312248D01*
X143959384Y-100312246D01*
X144075441Y-100152505D01*
X144075443Y-100152502D01*
X144075444Y-100152501D01*
X144162017Y-99982593D01*
X144209990Y-99931800D01*
X144277811Y-99915005D01*
X144343946Y-99937542D01*
X144382982Y-99982593D01*
X144452404Y-100118838D01*
X144469558Y-100152505D01*
X144585615Y-100312246D01*
X144725253Y-100451884D01*
X144848658Y-100541541D01*
X144884999Y-100567944D01*
X145060939Y-100657591D01*
X145186137Y-100698270D01*
X145248736Y-100718610D01*
X145443764Y-100749500D01*
X145443769Y-100749500D01*
X145641236Y-100749500D01*
X145836263Y-100718610D01*
X145837762Y-100718123D01*
X146024061Y-100657591D01*
X146200001Y-100567944D01*
X146305455Y-100491328D01*
X146359746Y-100451884D01*
X146359748Y-100451881D01*
X146359752Y-100451879D01*
X146499379Y-100312252D01*
X146499381Y-100312248D01*
X146499384Y-100312246D01*
X146615441Y-100152505D01*
X146615443Y-100152502D01*
X146615444Y-100152501D01*
X146702017Y-99982593D01*
X146749990Y-99931800D01*
X146817811Y-99915005D01*
X146883946Y-99937542D01*
X146922982Y-99982593D01*
X146992404Y-100118838D01*
X147009558Y-100152505D01*
X147125615Y-100312246D01*
X147265253Y-100451884D01*
X147388658Y-100541541D01*
X147424999Y-100567944D01*
X147600939Y-100657591D01*
X147726137Y-100698270D01*
X147788736Y-100718610D01*
X147983764Y-100749500D01*
X147983769Y-100749500D01*
X148181236Y-100749500D01*
X148376263Y-100718610D01*
X148377762Y-100718123D01*
X148564061Y-100657591D01*
X148740001Y-100567944D01*
X148845455Y-100491328D01*
X148899746Y-100451884D01*
X148899748Y-100451881D01*
X148899752Y-100451879D01*
X149039379Y-100312252D01*
X149039381Y-100312248D01*
X149039384Y-100312246D01*
X149155441Y-100152505D01*
X149155443Y-100152502D01*
X149155444Y-100152501D01*
X149242017Y-99982593D01*
X149289990Y-99931800D01*
X149357811Y-99915005D01*
X149423946Y-99937542D01*
X149462982Y-99982593D01*
X149532404Y-100118838D01*
X149549558Y-100152505D01*
X149665615Y-100312246D01*
X149805253Y-100451884D01*
X149928658Y-100541541D01*
X149964999Y-100567944D01*
X150140939Y-100657591D01*
X150266137Y-100698270D01*
X150328736Y-100718610D01*
X150523764Y-100749500D01*
X150523769Y-100749500D01*
X150721236Y-100749500D01*
X150916263Y-100718610D01*
X150917762Y-100718123D01*
X151104061Y-100657591D01*
X151276706Y-100569622D01*
X151345374Y-100556727D01*
X151410115Y-100583003D01*
X151450372Y-100640109D01*
X151457000Y-100680108D01*
X151457000Y-107984191D01*
X151437315Y-108051230D01*
X151420681Y-108071872D01*
X146451699Y-113040853D01*
X146390376Y-113074338D01*
X146320684Y-113069354D01*
X146264751Y-113027482D01*
X146246312Y-112992176D01*
X146221858Y-112918380D01*
X146221856Y-112918375D01*
X146129815Y-112769154D01*
X146005845Y-112645184D01*
X145856624Y-112553143D01*
X145856619Y-112553141D01*
X145690197Y-112497994D01*
X145690190Y-112497993D01*
X145587486Y-112487500D01*
X145337500Y-112487500D01*
X145337500Y-113376000D01*
X145317815Y-113443039D01*
X145265011Y-113488794D01*
X145213500Y-113500000D01*
X145087500Y-113500000D01*
X145087500Y-113626000D01*
X145067815Y-113693039D01*
X145015011Y-113738794D01*
X144963500Y-113750000D01*
X143876959Y-113750000D01*
X143838856Y-113770805D01*
X143769164Y-113765819D01*
X143744550Y-113750000D01*
X141554172Y-113750000D01*
X141506723Y-113740562D01*
X141491136Y-113734106D01*
X141491132Y-113734105D01*
X141491128Y-113734103D01*
X141317164Y-113699500D01*
X141317161Y-113699500D01*
X141139779Y-113699500D01*
X141139776Y-113699500D01*
X140965811Y-113734103D01*
X140965807Y-113734105D01*
X140965805Y-113734105D01*
X140965804Y-113734106D01*
X140950216Y-113740562D01*
X140902768Y-113750000D01*
X139408808Y-113750000D01*
X139379367Y-113741355D01*
X139349381Y-113734832D01*
X139344365Y-113731077D01*
X139341769Y-113730315D01*
X139321127Y-113713681D01*
X139150319Y-113542873D01*
X139116834Y-113481550D01*
X139114000Y-113455192D01*
X139114000Y-113374000D01*
X139133685Y-113306961D01*
X139186489Y-113261206D01*
X139238000Y-113250000D01*
X139762500Y-113250000D01*
X140262500Y-113250000D01*
X141233429Y-113250000D01*
X141248635Y-113241696D01*
X141318327Y-113246677D01*
X141323498Y-113250000D01*
X142287500Y-113250000D01*
X142787500Y-113250000D01*
X143748040Y-113250000D01*
X143786138Y-113229195D01*
X143855830Y-113234178D01*
X143880450Y-113250000D01*
X144837500Y-113250000D01*
X144837500Y-112487500D01*
X144587529Y-112487500D01*
X144587512Y-112487501D01*
X144484802Y-112497994D01*
X144318380Y-112553141D01*
X144318375Y-112553143D01*
X144169154Y-112645184D01*
X144045184Y-112769154D01*
X143953143Y-112918375D01*
X143953141Y-112918380D01*
X143930206Y-112987595D01*
X143890433Y-113045040D01*
X143825917Y-113071863D01*
X143757141Y-113059548D01*
X143705942Y-113012005D01*
X143694794Y-112987595D01*
X143671858Y-112918380D01*
X143671856Y-112918375D01*
X143579815Y-112769154D01*
X143455845Y-112645184D01*
X143306624Y-112553143D01*
X143306619Y-112553141D01*
X143140197Y-112497994D01*
X143140190Y-112497993D01*
X143037486Y-112487500D01*
X142787500Y-112487500D01*
X142787500Y-113250000D01*
X142287500Y-113250000D01*
X142287500Y-112487500D01*
X142037529Y-112487500D01*
X142037512Y-112487501D01*
X141934802Y-112497994D01*
X141768380Y-112553141D01*
X141768375Y-112553143D01*
X141619154Y-112645184D01*
X141495184Y-112769154D01*
X141403143Y-112918375D01*
X141403142Y-112918378D01*
X141392706Y-112949873D01*
X141352933Y-113007318D01*
X141288416Y-113034140D01*
X141219641Y-113021825D01*
X141168441Y-112974281D01*
X141157294Y-112949873D01*
X141146857Y-112918378D01*
X141146856Y-112918375D01*
X141054815Y-112769154D01*
X140930845Y-112645184D01*
X140781624Y-112553143D01*
X140781619Y-112553141D01*
X140615197Y-112497994D01*
X140615190Y-112497993D01*
X140512486Y-112487500D01*
X140262500Y-112487500D01*
X140262500Y-113250000D01*
X139762500Y-113250000D01*
X139762500Y-112487500D01*
X139512529Y-112487500D01*
X139512512Y-112487501D01*
X139409802Y-112497994D01*
X139277004Y-112541999D01*
X139207175Y-112544401D01*
X139147134Y-112508669D01*
X139115941Y-112446148D01*
X139114000Y-112424293D01*
X139114000Y-108237347D01*
X139133685Y-108170308D01*
X139186489Y-108124553D01*
X139255647Y-108114609D01*
X139262192Y-108115730D01*
X139311307Y-108125500D01*
X139311309Y-108125500D01*
X139488693Y-108125500D01*
X139488694Y-108125499D01*
X139546682Y-108113964D01*
X139662658Y-108090896D01*
X139662661Y-108090894D01*
X139662666Y-108090894D01*
X139826547Y-108023013D01*
X139974035Y-107924464D01*
X140099464Y-107799035D01*
X140198013Y-107651547D01*
X140265894Y-107487666D01*
X140270304Y-107465499D01*
X140298738Y-107322547D01*
X140300500Y-107313691D01*
X140300500Y-107136309D01*
X140300500Y-107136306D01*
X140300499Y-107136304D01*
X140265896Y-106962341D01*
X140265893Y-106962332D01*
X140198016Y-106798459D01*
X140198009Y-106798446D01*
X140099464Y-106650965D01*
X140099461Y-106650961D01*
X139974038Y-106525538D01*
X139974034Y-106525535D01*
X139826553Y-106426990D01*
X139826540Y-106426983D01*
X139662667Y-106359106D01*
X139662658Y-106359103D01*
X139488694Y-106324500D01*
X139488691Y-106324500D01*
X139395808Y-106324500D01*
X139328769Y-106304815D01*
X139308127Y-106288181D01*
X137139674Y-104119727D01*
X137139673Y-104119726D01*
X137119650Y-104106347D01*
X137033127Y-104048535D01*
X137003599Y-104036304D01*
X138812000Y-104036304D01*
X138812000Y-104213695D01*
X138846603Y-104387658D01*
X138846606Y-104387667D01*
X138914483Y-104551540D01*
X138914490Y-104551553D01*
X139013035Y-104699034D01*
X139013038Y-104699038D01*
X139138461Y-104824461D01*
X139138465Y-104824464D01*
X139285946Y-104923009D01*
X139285959Y-104923016D01*
X139408863Y-104973923D01*
X139449834Y-104990894D01*
X139449836Y-104990894D01*
X139449841Y-104990896D01*
X139623804Y-105025499D01*
X139623807Y-105025500D01*
X139623809Y-105025500D01*
X139801193Y-105025500D01*
X139801194Y-105025499D01*
X139859182Y-105013964D01*
X139975158Y-104990896D01*
X139975161Y-104990894D01*
X139975166Y-104990894D01*
X140139047Y-104923013D01*
X140286535Y-104824464D01*
X140411964Y-104699035D01*
X140510513Y-104551547D01*
X140578394Y-104387666D01*
X140580914Y-104375001D01*
X140606303Y-104247357D01*
X140613000Y-104213691D01*
X140613000Y-104036309D01*
X140613000Y-104036306D01*
X140612999Y-104036304D01*
X140578396Y-103862341D01*
X140578393Y-103862332D01*
X140510516Y-103698459D01*
X140510509Y-103698446D01*
X140411964Y-103550965D01*
X140411961Y-103550961D01*
X140286538Y-103425538D01*
X140286534Y-103425535D01*
X140139053Y-103326990D01*
X140139040Y-103326983D01*
X139975167Y-103259106D01*
X139975158Y-103259103D01*
X139801194Y-103224500D01*
X139801191Y-103224500D01*
X139623809Y-103224500D01*
X139623806Y-103224500D01*
X139449841Y-103259103D01*
X139449832Y-103259106D01*
X139285959Y-103326983D01*
X139285946Y-103326990D01*
X139138465Y-103425535D01*
X139138461Y-103425538D01*
X139013038Y-103550961D01*
X139013035Y-103550965D01*
X138914490Y-103698446D01*
X138914483Y-103698459D01*
X138846606Y-103862332D01*
X138846603Y-103862341D01*
X138812000Y-104036304D01*
X137003599Y-104036304D01*
X137000588Y-104035057D01*
X136914744Y-103999499D01*
X136914738Y-103999497D01*
X136789071Y-103974500D01*
X136789069Y-103974500D01*
X128133308Y-103974500D01*
X128066269Y-103954815D01*
X128045627Y-103938181D01*
X125068627Y-100961181D01*
X125035142Y-100899858D01*
X125040126Y-100830166D01*
X125081998Y-100774233D01*
X125147462Y-100749816D01*
X125156308Y-100749500D01*
X125321236Y-100749500D01*
X125516263Y-100718610D01*
X125517762Y-100718123D01*
X125704061Y-100657591D01*
X125880001Y-100567944D01*
X125985455Y-100491328D01*
X126039746Y-100451884D01*
X126039748Y-100451881D01*
X126039752Y-100451879D01*
X126179379Y-100312252D01*
X126179381Y-100312248D01*
X126179384Y-100312246D01*
X126295441Y-100152505D01*
X126295443Y-100152502D01*
X126295444Y-100152501D01*
X126382017Y-99982593D01*
X126429990Y-99931800D01*
X126497811Y-99915005D01*
X126563946Y-99937542D01*
X126602982Y-99982593D01*
X126672404Y-100118838D01*
X126689558Y-100152505D01*
X126805615Y-100312246D01*
X126945253Y-100451884D01*
X127068658Y-100541541D01*
X127104999Y-100567944D01*
X127280939Y-100657591D01*
X127406137Y-100698270D01*
X127468736Y-100718610D01*
X127663764Y-100749500D01*
X127663769Y-100749500D01*
X127861236Y-100749500D01*
X128056263Y-100718610D01*
X128057762Y-100718123D01*
X128244061Y-100657591D01*
X128420001Y-100567944D01*
X128525455Y-100491328D01*
X128579746Y-100451884D01*
X128579748Y-100451881D01*
X128579752Y-100451879D01*
X128719379Y-100312252D01*
X128719381Y-100312248D01*
X128719384Y-100312246D01*
X128835441Y-100152505D01*
X128835443Y-100152502D01*
X128835444Y-100152501D01*
X128922017Y-99982593D01*
X128969990Y-99931800D01*
X129037811Y-99915005D01*
X129103946Y-99937542D01*
X129142982Y-99982593D01*
X129212404Y-100118838D01*
X129229558Y-100152505D01*
X129345615Y-100312246D01*
X129485253Y-100451884D01*
X129608658Y-100541541D01*
X129644999Y-100567944D01*
X129820939Y-100657591D01*
X129946137Y-100698270D01*
X130008736Y-100718610D01*
X130203764Y-100749500D01*
X130203769Y-100749500D01*
X130401236Y-100749500D01*
X130596263Y-100718610D01*
X130597762Y-100718123D01*
X130784061Y-100657591D01*
X130960001Y-100567944D01*
X131065455Y-100491328D01*
X131119746Y-100451884D01*
X131119748Y-100451881D01*
X131119752Y-100451879D01*
X131259379Y-100312252D01*
X131259381Y-100312248D01*
X131259384Y-100312246D01*
X131375441Y-100152505D01*
X131375443Y-100152502D01*
X131375444Y-100152501D01*
X131462017Y-99982593D01*
X131509990Y-99931800D01*
X131577811Y-99915005D01*
X131643946Y-99937542D01*
X131682982Y-99982593D01*
X131752404Y-100118838D01*
X131769558Y-100152505D01*
X131885615Y-100312246D01*
X132025253Y-100451884D01*
X132148658Y-100541541D01*
X132184999Y-100567944D01*
X132360939Y-100657591D01*
X132486137Y-100698270D01*
X132548736Y-100718610D01*
X132743764Y-100749500D01*
X132743769Y-100749500D01*
X132941236Y-100749500D01*
X133136263Y-100718610D01*
X133137762Y-100718123D01*
X133324061Y-100657591D01*
X133500001Y-100567944D01*
X133605455Y-100491328D01*
X133659746Y-100451884D01*
X133659748Y-100451881D01*
X133659752Y-100451879D01*
X133799379Y-100312252D01*
X133799381Y-100312248D01*
X133799384Y-100312246D01*
X133915441Y-100152505D01*
X133915443Y-100152502D01*
X133915444Y-100152501D01*
X134002017Y-99982593D01*
X134049990Y-99931800D01*
X134117811Y-99915005D01*
X134183946Y-99937542D01*
X134222982Y-99982593D01*
X134292404Y-100118838D01*
X134309558Y-100152505D01*
X134425615Y-100312246D01*
X134565253Y-100451884D01*
X134688658Y-100541541D01*
X134724999Y-100567944D01*
X134900939Y-100657591D01*
X135026137Y-100698270D01*
X135088736Y-100718610D01*
X135283764Y-100749500D01*
X135283769Y-100749500D01*
X135481236Y-100749500D01*
X135676263Y-100718610D01*
X135677762Y-100718123D01*
X135864061Y-100657591D01*
X136040001Y-100567944D01*
X136145455Y-100491328D01*
X136199746Y-100451884D01*
X136199748Y-100451881D01*
X136199752Y-100451879D01*
X136339379Y-100312252D01*
X136339381Y-100312248D01*
X136339384Y-100312246D01*
X136455441Y-100152505D01*
X136455443Y-100152502D01*
X136455444Y-100152501D01*
X136542017Y-99982593D01*
X136589990Y-99931800D01*
X136657811Y-99915005D01*
X136723946Y-99937542D01*
X136762982Y-99982593D01*
X136832404Y-100118838D01*
X136849558Y-100152505D01*
X136965615Y-100312246D01*
X137105253Y-100451884D01*
X137228658Y-100541541D01*
X137264999Y-100567944D01*
X137440939Y-100657591D01*
X137566137Y-100698270D01*
X137628736Y-100718610D01*
X137823764Y-100749500D01*
X137823769Y-100749500D01*
X138021236Y-100749500D01*
X138216263Y-100718610D01*
X138217762Y-100718123D01*
X138404061Y-100657591D01*
X138580001Y-100567944D01*
X138685455Y-100491328D01*
X138739746Y-100451884D01*
X138739748Y-100451881D01*
X138739752Y-100451879D01*
X138879379Y-100312252D01*
X138879381Y-100312248D01*
X138879384Y-100312246D01*
X138995443Y-100152502D01*
X138995579Y-100152236D01*
X139082297Y-99982043D01*
X139130268Y-99931250D01*
X139198089Y-99914455D01*
X139264224Y-99936992D01*
X139303263Y-99982045D01*
X139389981Y-100152236D01*
X139415957Y-100187988D01*
X139415957Y-100187989D01*
X139979537Y-99624409D01*
X139996575Y-99687993D01*
X140062401Y-99802007D01*
X140155493Y-99895099D01*
X140269507Y-99960925D01*
X140333090Y-99977962D01*
X139769509Y-100541541D01*
X139769510Y-100541542D01*
X139805255Y-100567512D01*
X139805268Y-100567520D01*
X139981126Y-100657126D01*
X140168853Y-100718123D01*
X140363803Y-100749000D01*
X140561197Y-100749000D01*
X140756146Y-100718123D01*
X140943873Y-100657126D01*
X141119741Y-100567516D01*
X141155488Y-100541543D01*
X141155488Y-100541541D01*
X140591910Y-99977962D01*
X140655493Y-99960925D01*
X140769507Y-99895099D01*
X140862599Y-99802007D01*
X140928425Y-99687993D01*
X140945462Y-99624409D01*
X141509041Y-100187988D01*
G37*
%TD.AperFunction*%
%TA.AperFunction,Conductor*%
G36*
X118943946Y-97397542D02*
G01*
X118982982Y-97442593D01*
X119028389Y-97531707D01*
X119069558Y-97612505D01*
X119185615Y-97772246D01*
X119325253Y-97911884D01*
X119484994Y-98027941D01*
X119484996Y-98027942D01*
X119484999Y-98027944D01*
X119655456Y-98114797D01*
X119706249Y-98162768D01*
X119723044Y-98230589D01*
X119700507Y-98296724D01*
X119655454Y-98335763D01*
X119485267Y-98422479D01*
X119485260Y-98422483D01*
X119449510Y-98448456D01*
X119449510Y-98448457D01*
X120013091Y-99012037D01*
X119949507Y-99029075D01*
X119835493Y-99094901D01*
X119742401Y-99187993D01*
X119676575Y-99302007D01*
X119659537Y-99365590D01*
X119095957Y-98802010D01*
X119095956Y-98802010D01*
X119069983Y-98837760D01*
X119069979Y-98837767D01*
X118983263Y-99007954D01*
X118935288Y-99058749D01*
X118867467Y-99075544D01*
X118801333Y-99053006D01*
X118762298Y-99007957D01*
X118675444Y-98837499D01*
X118675442Y-98837496D01*
X118675441Y-98837494D01*
X118559384Y-98677753D01*
X118419746Y-98538115D01*
X118260005Y-98422058D01*
X118253619Y-98418804D01*
X118090093Y-98335482D01*
X118039300Y-98287510D01*
X118022505Y-98219689D01*
X118045042Y-98153554D01*
X118090093Y-98114517D01*
X118260001Y-98027944D01*
X118309641Y-97991879D01*
X118419746Y-97911884D01*
X118419748Y-97911881D01*
X118419752Y-97911879D01*
X118559379Y-97772252D01*
X118559381Y-97772248D01*
X118559384Y-97772246D01*
X118675441Y-97612505D01*
X118675443Y-97612502D01*
X118675444Y-97612501D01*
X118762017Y-97442593D01*
X118809990Y-97391800D01*
X118877811Y-97375005D01*
X118943946Y-97397542D01*
G37*
%TD.AperFunction*%
%TA.AperFunction,Conductor*%
G36*
X139263946Y-97397542D02*
G01*
X139302982Y-97442593D01*
X139348389Y-97531707D01*
X139389558Y-97612505D01*
X139505615Y-97772246D01*
X139645253Y-97911884D01*
X139804994Y-98027941D01*
X139804996Y-98027942D01*
X139804999Y-98027944D01*
X139975456Y-98114797D01*
X140026249Y-98162768D01*
X140043044Y-98230589D01*
X140020507Y-98296724D01*
X139975454Y-98335763D01*
X139805267Y-98422479D01*
X139805260Y-98422483D01*
X139769510Y-98448456D01*
X139769510Y-98448457D01*
X140333091Y-99012037D01*
X140269507Y-99029075D01*
X140155493Y-99094901D01*
X140062401Y-99187993D01*
X139996575Y-99302007D01*
X139979537Y-99365590D01*
X139415956Y-98802010D01*
X139389983Y-98837760D01*
X139389979Y-98837767D01*
X139303263Y-99007954D01*
X139255288Y-99058749D01*
X139187467Y-99075544D01*
X139121333Y-99053006D01*
X139082298Y-99007957D01*
X138995444Y-98837499D01*
X138995442Y-98837496D01*
X138995441Y-98837494D01*
X138879384Y-98677753D01*
X138739746Y-98538115D01*
X138580005Y-98422058D01*
X138573619Y-98418804D01*
X138410093Y-98335482D01*
X138359300Y-98287510D01*
X138342505Y-98219689D01*
X138365042Y-98153554D01*
X138410093Y-98114517D01*
X138580001Y-98027944D01*
X138629641Y-97991879D01*
X138739746Y-97911884D01*
X138739748Y-97911881D01*
X138739752Y-97911879D01*
X138879379Y-97772252D01*
X138879381Y-97772248D01*
X138879384Y-97772246D01*
X138995441Y-97612505D01*
X138995443Y-97612502D01*
X138995444Y-97612501D01*
X139082017Y-97442593D01*
X139129990Y-97391800D01*
X139197811Y-97375005D01*
X139263946Y-97397542D01*
G37*
%TD.AperFunction*%
%TA.AperFunction,Conductor*%
G36*
X157043946Y-97397542D02*
G01*
X157082982Y-97442593D01*
X157128389Y-97531707D01*
X157169558Y-97612505D01*
X157285615Y-97772246D01*
X157425253Y-97911884D01*
X157584994Y-98027941D01*
X157584996Y-98027942D01*
X157584999Y-98027944D01*
X157755456Y-98114797D01*
X157806249Y-98162768D01*
X157823044Y-98230589D01*
X157800507Y-98296724D01*
X157755454Y-98335763D01*
X157585267Y-98422479D01*
X157585260Y-98422483D01*
X157549510Y-98448456D01*
X157549510Y-98448457D01*
X158113091Y-99012037D01*
X158049507Y-99029075D01*
X157935493Y-99094901D01*
X157842401Y-99187993D01*
X157776575Y-99302007D01*
X157759537Y-99365590D01*
X157195957Y-98802010D01*
X157195956Y-98802010D01*
X157169983Y-98837760D01*
X157169979Y-98837767D01*
X157083263Y-99007954D01*
X157035288Y-99058749D01*
X156967467Y-99075544D01*
X156901333Y-99053006D01*
X156862298Y-99007957D01*
X156775444Y-98837499D01*
X156775442Y-98837496D01*
X156775441Y-98837494D01*
X156659384Y-98677753D01*
X156519746Y-98538115D01*
X156360005Y-98422058D01*
X156353619Y-98418804D01*
X156190093Y-98335482D01*
X156139300Y-98287510D01*
X156122505Y-98219689D01*
X156145042Y-98153554D01*
X156190093Y-98114517D01*
X156360001Y-98027944D01*
X156409641Y-97991879D01*
X156519746Y-97911884D01*
X156519748Y-97911881D01*
X156519752Y-97911879D01*
X156659379Y-97772252D01*
X156659381Y-97772248D01*
X156659384Y-97772246D01*
X156775441Y-97612505D01*
X156775443Y-97612502D01*
X156775444Y-97612501D01*
X156862017Y-97442593D01*
X156909990Y-97391800D01*
X156977811Y-97375005D01*
X157043946Y-97397542D01*
G37*
%TD.AperFunction*%
%TA.AperFunction,Conductor*%
G36*
X141803946Y-97397542D02*
G01*
X141842982Y-97442593D01*
X141888389Y-97531707D01*
X141929558Y-97612505D01*
X142045615Y-97772246D01*
X142185253Y-97911884D01*
X142308658Y-98001541D01*
X142344999Y-98027944D01*
X142514904Y-98114516D01*
X142565699Y-98162490D01*
X142582494Y-98230311D01*
X142559956Y-98296446D01*
X142514904Y-98335483D01*
X142480667Y-98352929D01*
X142344995Y-98422058D01*
X142185253Y-98538115D01*
X142045615Y-98677753D01*
X141929558Y-98837495D01*
X141929556Y-98837499D01*
X141842703Y-99007954D01*
X141794730Y-99058749D01*
X141726909Y-99075544D01*
X141660774Y-99053006D01*
X141621735Y-99007953D01*
X141535020Y-98837768D01*
X141535012Y-98837755D01*
X141509042Y-98802010D01*
X141509041Y-98802009D01*
X140945462Y-99365589D01*
X140928425Y-99302007D01*
X140862599Y-99187993D01*
X140769507Y-99094901D01*
X140655493Y-99029075D01*
X140591909Y-99012037D01*
X141155489Y-98448457D01*
X141119736Y-98422481D01*
X140949545Y-98335763D01*
X140898750Y-98287789D01*
X140881955Y-98219968D01*
X140904493Y-98153833D01*
X140949542Y-98114798D01*
X141120001Y-98027944D01*
X141169641Y-97991879D01*
X141279746Y-97911884D01*
X141279748Y-97911881D01*
X141279752Y-97911879D01*
X141419379Y-97772252D01*
X141419381Y-97772248D01*
X141419384Y-97772246D01*
X141535441Y-97612505D01*
X141535443Y-97612502D01*
X141535444Y-97612501D01*
X141622017Y-97442593D01*
X141669990Y-97391800D01*
X141737811Y-97375005D01*
X141803946Y-97397542D01*
G37*
%TD.AperFunction*%
%TA.AperFunction,Conductor*%
G36*
X114596575Y-97147993D02*
G01*
X114662401Y-97262007D01*
X114755493Y-97355099D01*
X114869507Y-97420925D01*
X114933090Y-97437962D01*
X114369509Y-98001541D01*
X114369510Y-98001542D01*
X114405255Y-98027512D01*
X114405268Y-98027520D01*
X114575453Y-98114235D01*
X114626249Y-98162210D01*
X114643044Y-98230031D01*
X114620506Y-98296166D01*
X114575454Y-98335203D01*
X114480763Y-98383452D01*
X114404995Y-98422058D01*
X114245253Y-98538115D01*
X114105615Y-98677753D01*
X113989558Y-98837495D01*
X113989556Y-98837499D01*
X113909305Y-98995000D01*
X113902985Y-99007403D01*
X113855010Y-99058199D01*
X113787189Y-99074994D01*
X113721054Y-99052456D01*
X113682015Y-99007403D01*
X113595444Y-98837499D01*
X113551134Y-98776511D01*
X113479384Y-98677753D01*
X113339746Y-98538115D01*
X113180005Y-98422058D01*
X113173619Y-98418804D01*
X113010093Y-98335482D01*
X112959300Y-98287510D01*
X112942505Y-98219689D01*
X112965042Y-98153554D01*
X113010093Y-98114517D01*
X113180001Y-98027944D01*
X113229641Y-97991879D01*
X113339746Y-97911884D01*
X113339748Y-97911881D01*
X113339752Y-97911879D01*
X113479379Y-97772252D01*
X113479381Y-97772248D01*
X113479384Y-97772246D01*
X113595443Y-97612502D01*
X113601291Y-97601025D01*
X113682297Y-97442043D01*
X113730268Y-97391250D01*
X113798089Y-97374455D01*
X113864224Y-97396992D01*
X113903263Y-97442045D01*
X113989981Y-97612236D01*
X114015957Y-97647988D01*
X114015957Y-97647989D01*
X114579537Y-97084409D01*
X114596575Y-97147993D01*
G37*
%TD.AperFunction*%
%TA.AperFunction,Conductor*%
G36*
X116109041Y-97647988D02*
G01*
X116109043Y-97647988D01*
X116135016Y-97612241D01*
X116221735Y-97442046D01*
X116269710Y-97391250D01*
X116337531Y-97374455D01*
X116403665Y-97396992D01*
X116442702Y-97442042D01*
X116488389Y-97531707D01*
X116529558Y-97612505D01*
X116645615Y-97772246D01*
X116785253Y-97911884D01*
X116908658Y-98001541D01*
X116944999Y-98027944D01*
X117114904Y-98114516D01*
X117165699Y-98162490D01*
X117182494Y-98230311D01*
X117159956Y-98296446D01*
X117114904Y-98335483D01*
X117080667Y-98352929D01*
X116944995Y-98422058D01*
X116785253Y-98538115D01*
X116645615Y-98677753D01*
X116529558Y-98837495D01*
X116529556Y-98837499D01*
X116449305Y-98995000D01*
X116442985Y-99007403D01*
X116395010Y-99058199D01*
X116327189Y-99074994D01*
X116261054Y-99052456D01*
X116222015Y-99007403D01*
X116135444Y-98837499D01*
X116091134Y-98776511D01*
X116019384Y-98677753D01*
X115879746Y-98538115D01*
X115720005Y-98422058D01*
X115714834Y-98419423D01*
X115549543Y-98335202D01*
X115498750Y-98287230D01*
X115481955Y-98219409D01*
X115504492Y-98153275D01*
X115549546Y-98114235D01*
X115719741Y-98027516D01*
X115755488Y-98001543D01*
X115755488Y-98001541D01*
X115191910Y-97437962D01*
X115255493Y-97420925D01*
X115369507Y-97355099D01*
X115462599Y-97262007D01*
X115528425Y-97147993D01*
X115545462Y-97084409D01*
X116109041Y-97647988D01*
G37*
%TD.AperFunction*%
%TA.AperFunction,Conductor*%
G36*
X124756575Y-97147993D02*
G01*
X124822401Y-97262007D01*
X124915493Y-97355099D01*
X125029507Y-97420925D01*
X125093090Y-97437962D01*
X124529509Y-98001541D01*
X124529510Y-98001542D01*
X124565255Y-98027512D01*
X124565268Y-98027520D01*
X124735453Y-98114235D01*
X124786249Y-98162210D01*
X124803044Y-98230031D01*
X124780506Y-98296166D01*
X124735454Y-98335203D01*
X124640763Y-98383452D01*
X124564995Y-98422058D01*
X124405253Y-98538115D01*
X124265615Y-98677753D01*
X124149558Y-98837495D01*
X124149556Y-98837499D01*
X124069305Y-98995000D01*
X124062985Y-99007403D01*
X124015010Y-99058199D01*
X123947189Y-99074994D01*
X123881054Y-99052456D01*
X123842015Y-99007403D01*
X123755444Y-98837499D01*
X123711134Y-98776511D01*
X123639384Y-98677753D01*
X123499746Y-98538115D01*
X123340005Y-98422058D01*
X123333619Y-98418804D01*
X123170093Y-98335482D01*
X123119300Y-98287510D01*
X123102505Y-98219689D01*
X123125042Y-98153554D01*
X123170093Y-98114517D01*
X123340001Y-98027944D01*
X123389641Y-97991879D01*
X123499746Y-97911884D01*
X123499748Y-97911881D01*
X123499752Y-97911879D01*
X123639379Y-97772252D01*
X123639381Y-97772248D01*
X123639384Y-97772246D01*
X123755443Y-97612502D01*
X123761291Y-97601025D01*
X123842297Y-97442043D01*
X123890268Y-97391250D01*
X123958089Y-97374455D01*
X124024224Y-97396992D01*
X124063263Y-97442045D01*
X124149981Y-97612236D01*
X124175957Y-97647988D01*
X124175957Y-97647989D01*
X124739537Y-97084409D01*
X124756575Y-97147993D01*
G37*
%TD.AperFunction*%
%TA.AperFunction,Conductor*%
G36*
X126269041Y-97647988D02*
G01*
X126269043Y-97647988D01*
X126295016Y-97612241D01*
X126381735Y-97442046D01*
X126429710Y-97391250D01*
X126497531Y-97374455D01*
X126563665Y-97396992D01*
X126602702Y-97442042D01*
X126648389Y-97531707D01*
X126689558Y-97612505D01*
X126805615Y-97772246D01*
X126945253Y-97911884D01*
X127068658Y-98001541D01*
X127104999Y-98027944D01*
X127274904Y-98114516D01*
X127325699Y-98162490D01*
X127342494Y-98230311D01*
X127319956Y-98296446D01*
X127274904Y-98335483D01*
X127240667Y-98352929D01*
X127104995Y-98422058D01*
X126945253Y-98538115D01*
X126805615Y-98677753D01*
X126689558Y-98837495D01*
X126689556Y-98837499D01*
X126609305Y-98995000D01*
X126602985Y-99007403D01*
X126555010Y-99058199D01*
X126487189Y-99074994D01*
X126421054Y-99052456D01*
X126382015Y-99007403D01*
X126295444Y-98837499D01*
X126251134Y-98776511D01*
X126179384Y-98677753D01*
X126039746Y-98538115D01*
X125880005Y-98422058D01*
X125874834Y-98419423D01*
X125709543Y-98335202D01*
X125658750Y-98287230D01*
X125641955Y-98219409D01*
X125664492Y-98153275D01*
X125709546Y-98114235D01*
X125879741Y-98027516D01*
X125915488Y-98001543D01*
X125915488Y-98001541D01*
X125351910Y-97437962D01*
X125415493Y-97420925D01*
X125529507Y-97355099D01*
X125622599Y-97262007D01*
X125688425Y-97147993D01*
X125705462Y-97084409D01*
X126269041Y-97647988D01*
G37*
%TD.AperFunction*%
%TA.AperFunction,Conductor*%
G36*
X132376575Y-97147993D02*
G01*
X132442401Y-97262007D01*
X132535493Y-97355099D01*
X132649507Y-97420925D01*
X132713090Y-97437962D01*
X132149509Y-98001541D01*
X132149510Y-98001542D01*
X132185255Y-98027512D01*
X132185268Y-98027520D01*
X132355453Y-98114235D01*
X132406249Y-98162210D01*
X132423044Y-98230031D01*
X132400506Y-98296166D01*
X132355454Y-98335203D01*
X132260763Y-98383452D01*
X132184995Y-98422058D01*
X132025253Y-98538115D01*
X131885615Y-98677753D01*
X131769558Y-98837495D01*
X131769556Y-98837499D01*
X131689305Y-98995000D01*
X131682985Y-99007403D01*
X131635010Y-99058199D01*
X131567189Y-99074994D01*
X131501054Y-99052456D01*
X131462015Y-99007403D01*
X131375444Y-98837499D01*
X131331134Y-98776511D01*
X131259384Y-98677753D01*
X131119746Y-98538115D01*
X130960005Y-98422058D01*
X130953619Y-98418804D01*
X130790093Y-98335482D01*
X130739300Y-98287510D01*
X130722505Y-98219689D01*
X130745042Y-98153554D01*
X130790093Y-98114517D01*
X130960001Y-98027944D01*
X131009641Y-97991879D01*
X131119746Y-97911884D01*
X131119748Y-97911881D01*
X131119752Y-97911879D01*
X131259379Y-97772252D01*
X131259381Y-97772248D01*
X131259384Y-97772246D01*
X131375443Y-97612502D01*
X131381291Y-97601025D01*
X131462297Y-97442043D01*
X131510268Y-97391250D01*
X131578089Y-97374455D01*
X131644224Y-97396992D01*
X131683263Y-97442045D01*
X131769981Y-97612236D01*
X131795957Y-97647988D01*
X131795957Y-97647989D01*
X132359537Y-97084409D01*
X132376575Y-97147993D01*
G37*
%TD.AperFunction*%
%TA.AperFunction,Conductor*%
G36*
X133889041Y-97647988D02*
G01*
X133889043Y-97647988D01*
X133915016Y-97612241D01*
X134001735Y-97442046D01*
X134049710Y-97391250D01*
X134117531Y-97374455D01*
X134183665Y-97396992D01*
X134222702Y-97442042D01*
X134268389Y-97531707D01*
X134309558Y-97612505D01*
X134425615Y-97772246D01*
X134565253Y-97911884D01*
X134688658Y-98001541D01*
X134724999Y-98027944D01*
X134894904Y-98114516D01*
X134945699Y-98162490D01*
X134962494Y-98230311D01*
X134939956Y-98296446D01*
X134894904Y-98335483D01*
X134860667Y-98352929D01*
X134724995Y-98422058D01*
X134565253Y-98538115D01*
X134425615Y-98677753D01*
X134309558Y-98837495D01*
X134309556Y-98837499D01*
X134229305Y-98995000D01*
X134222985Y-99007403D01*
X134175010Y-99058199D01*
X134107189Y-99074994D01*
X134041054Y-99052456D01*
X134002015Y-99007403D01*
X133915444Y-98837499D01*
X133871134Y-98776511D01*
X133799384Y-98677753D01*
X133659746Y-98538115D01*
X133500005Y-98422058D01*
X133494834Y-98419423D01*
X133329543Y-98335202D01*
X133278750Y-98287230D01*
X133261955Y-98219409D01*
X133284492Y-98153275D01*
X133329546Y-98114235D01*
X133499741Y-98027516D01*
X133535488Y-98001543D01*
X133535488Y-98001541D01*
X132971910Y-97437962D01*
X133035493Y-97420925D01*
X133149507Y-97355099D01*
X133242599Y-97262007D01*
X133308425Y-97147993D01*
X133325462Y-97084409D01*
X133889041Y-97647988D01*
G37*
%TD.AperFunction*%
%TA.AperFunction,Conductor*%
G36*
X145076575Y-97147993D02*
G01*
X145142401Y-97262007D01*
X145235493Y-97355099D01*
X145349507Y-97420925D01*
X145413090Y-97437962D01*
X144849509Y-98001541D01*
X144849510Y-98001542D01*
X144885255Y-98027512D01*
X144885268Y-98027520D01*
X145055453Y-98114235D01*
X145106249Y-98162210D01*
X145123044Y-98230031D01*
X145100506Y-98296166D01*
X145055454Y-98335203D01*
X144960763Y-98383452D01*
X144884995Y-98422058D01*
X144725253Y-98538115D01*
X144585615Y-98677753D01*
X144469558Y-98837495D01*
X144469556Y-98837499D01*
X144389305Y-98995000D01*
X144382985Y-99007403D01*
X144335010Y-99058199D01*
X144267189Y-99074994D01*
X144201054Y-99052456D01*
X144162015Y-99007403D01*
X144075444Y-98837499D01*
X144031134Y-98776511D01*
X143959384Y-98677753D01*
X143819746Y-98538115D01*
X143660005Y-98422058D01*
X143653619Y-98418804D01*
X143490093Y-98335482D01*
X143439300Y-98287510D01*
X143422505Y-98219689D01*
X143445042Y-98153554D01*
X143490093Y-98114517D01*
X143660001Y-98027944D01*
X143709641Y-97991879D01*
X143819746Y-97911884D01*
X143819748Y-97911881D01*
X143819752Y-97911879D01*
X143959379Y-97772252D01*
X143959381Y-97772248D01*
X143959384Y-97772246D01*
X144075443Y-97612502D01*
X144081291Y-97601025D01*
X144162297Y-97442043D01*
X144210268Y-97391250D01*
X144278089Y-97374455D01*
X144344224Y-97396992D01*
X144383263Y-97442045D01*
X144469981Y-97612236D01*
X144495957Y-97647988D01*
X144495957Y-97647989D01*
X145059537Y-97084409D01*
X145076575Y-97147993D01*
G37*
%TD.AperFunction*%
%TA.AperFunction,Conductor*%
G36*
X146589041Y-97647988D02*
G01*
X146589043Y-97647988D01*
X146615016Y-97612241D01*
X146701735Y-97442046D01*
X146749710Y-97391250D01*
X146817531Y-97374455D01*
X146883665Y-97396992D01*
X146922702Y-97442042D01*
X146968389Y-97531707D01*
X147009558Y-97612505D01*
X147125615Y-97772246D01*
X147265253Y-97911884D01*
X147388658Y-98001541D01*
X147424999Y-98027944D01*
X147594904Y-98114516D01*
X147645699Y-98162490D01*
X147662494Y-98230311D01*
X147639956Y-98296446D01*
X147594904Y-98335483D01*
X147560667Y-98352929D01*
X147424995Y-98422058D01*
X147265253Y-98538115D01*
X147125615Y-98677753D01*
X147009558Y-98837495D01*
X147009556Y-98837499D01*
X146929305Y-98995000D01*
X146922985Y-99007403D01*
X146875010Y-99058199D01*
X146807189Y-99074994D01*
X146741054Y-99052456D01*
X146702015Y-99007403D01*
X146615444Y-98837499D01*
X146571134Y-98776511D01*
X146499384Y-98677753D01*
X146359746Y-98538115D01*
X146200005Y-98422058D01*
X146194834Y-98419423D01*
X146029543Y-98335202D01*
X145978750Y-98287230D01*
X145961955Y-98219409D01*
X145984492Y-98153275D01*
X146029546Y-98114235D01*
X146199741Y-98027516D01*
X146235488Y-98001543D01*
X146235488Y-98001541D01*
X145671910Y-97437962D01*
X145735493Y-97420925D01*
X145849507Y-97355099D01*
X145942599Y-97262007D01*
X146008425Y-97147993D01*
X146025462Y-97084409D01*
X146589041Y-97647988D01*
G37*
%TD.AperFunction*%
%TA.AperFunction,Conductor*%
G36*
X150156575Y-97147993D02*
G01*
X150222401Y-97262007D01*
X150315493Y-97355099D01*
X150429507Y-97420925D01*
X150493090Y-97437962D01*
X149929509Y-98001541D01*
X149929510Y-98001542D01*
X149965255Y-98027512D01*
X149965268Y-98027520D01*
X150135453Y-98114235D01*
X150186249Y-98162210D01*
X150203044Y-98230031D01*
X150180506Y-98296166D01*
X150135454Y-98335203D01*
X150040763Y-98383452D01*
X149964995Y-98422058D01*
X149805253Y-98538115D01*
X149665615Y-98677753D01*
X149549558Y-98837495D01*
X149549556Y-98837499D01*
X149469305Y-98995000D01*
X149462985Y-99007403D01*
X149415010Y-99058199D01*
X149347189Y-99074994D01*
X149281054Y-99052456D01*
X149242015Y-99007403D01*
X149155444Y-98837499D01*
X149111134Y-98776511D01*
X149039384Y-98677753D01*
X148899746Y-98538115D01*
X148740005Y-98422058D01*
X148733619Y-98418804D01*
X148570093Y-98335482D01*
X148519300Y-98287510D01*
X148502505Y-98219689D01*
X148525042Y-98153554D01*
X148570093Y-98114517D01*
X148740001Y-98027944D01*
X148789641Y-97991879D01*
X148899746Y-97911884D01*
X148899748Y-97911881D01*
X148899752Y-97911879D01*
X149039379Y-97772252D01*
X149039381Y-97772248D01*
X149039384Y-97772246D01*
X149155443Y-97612502D01*
X149161291Y-97601025D01*
X149242297Y-97442043D01*
X149290268Y-97391250D01*
X149358089Y-97374455D01*
X149424224Y-97396992D01*
X149463263Y-97442045D01*
X149549981Y-97612236D01*
X149575957Y-97647988D01*
X149575957Y-97647989D01*
X150139537Y-97084409D01*
X150156575Y-97147993D01*
G37*
%TD.AperFunction*%
%TA.AperFunction,Conductor*%
G36*
X160820040Y-106885185D02*
G01*
X160865795Y-106937989D01*
X160877001Y-106989500D01*
X160877001Y-107012876D01*
X160883408Y-107072483D01*
X160933702Y-107207328D01*
X160933706Y-107207335D01*
X161019952Y-107322544D01*
X161019955Y-107322547D01*
X161135164Y-107408793D01*
X161135171Y-107408797D01*
X161180118Y-107425561D01*
X161270017Y-107459091D01*
X161329627Y-107465500D01*
X161340185Y-107465499D01*
X161407223Y-107485179D01*
X161427872Y-107501818D01*
X162098091Y-108172037D01*
X162034507Y-108189075D01*
X161920493Y-108254901D01*
X161827401Y-108347993D01*
X161761575Y-108462007D01*
X161744537Y-108525591D01*
X161112228Y-107893282D01*
X161112227Y-107893282D01*
X161072880Y-107947439D01*
X160976404Y-108136782D01*
X160910742Y-108338869D01*
X160910742Y-108338872D01*
X160877500Y-108548753D01*
X160877500Y-108761246D01*
X160910742Y-108971127D01*
X160910742Y-108971130D01*
X160976404Y-109173217D01*
X161072875Y-109362550D01*
X161112228Y-109416716D01*
X161744537Y-108784408D01*
X161761575Y-108847993D01*
X161827401Y-108962007D01*
X161920493Y-109055099D01*
X162034507Y-109120925D01*
X162098090Y-109137962D01*
X161465782Y-109770269D01*
X161465782Y-109770270D01*
X161519952Y-109809626D01*
X161519951Y-109809626D01*
X161528995Y-109814234D01*
X161579792Y-109862208D01*
X161596587Y-109930029D01*
X161574050Y-109996164D01*
X161528999Y-110035202D01*
X161519682Y-110039949D01*
X161347713Y-110164890D01*
X161197390Y-110315213D01*
X161069585Y-110491125D01*
X161068240Y-110490148D01*
X161021795Y-110532166D01*
X160967882Y-110544500D01*
X160542096Y-110544500D01*
X160475057Y-110524815D01*
X160454415Y-110508181D01*
X160450103Y-110503869D01*
X160450095Y-110503863D01*
X160311893Y-110422131D01*
X160311888Y-110422129D01*
X160157708Y-110377335D01*
X160157702Y-110377334D01*
X160121688Y-110374500D01*
X159777000Y-110374500D01*
X159709961Y-110354815D01*
X159664206Y-110302011D01*
X159653000Y-110250500D01*
X159653000Y-106989500D01*
X159672685Y-106922461D01*
X159725489Y-106876706D01*
X159777000Y-106865500D01*
X160753001Y-106865500D01*
X160820040Y-106885185D01*
G37*
%TD.AperFunction*%
%TA.AperFunction,Conductor*%
G36*
X163525291Y-95204181D02*
G01*
X163587435Y-95204180D01*
X163594919Y-95204405D01*
X163884984Y-95221949D01*
X163899842Y-95223753D01*
X164181991Y-95275458D01*
X164196501Y-95279033D01*
X164470370Y-95364372D01*
X164484367Y-95369681D01*
X164745931Y-95487399D01*
X164759190Y-95494358D01*
X164960262Y-95615909D01*
X165004657Y-95642746D01*
X165016978Y-95651250D01*
X165197157Y-95792409D01*
X165242765Y-95828140D01*
X165253974Y-95838069D01*
X165456805Y-96040897D01*
X165466734Y-96052105D01*
X165643629Y-96277893D01*
X165652135Y-96290216D01*
X165800526Y-96535680D01*
X165807485Y-96548939D01*
X165925207Y-96810502D01*
X165930517Y-96824503D01*
X166015852Y-97098346D01*
X166019436Y-97112885D01*
X166071141Y-97395021D01*
X166072946Y-97409885D01*
X166090454Y-97699285D01*
X166090680Y-97706773D01*
X166090680Y-121637787D01*
X166090679Y-121637791D01*
X166090679Y-121656757D01*
X166090679Y-121682307D01*
X166090679Y-121699934D01*
X166090453Y-121707420D01*
X166072910Y-121997479D01*
X166071105Y-122012344D01*
X166019404Y-122294472D01*
X166015821Y-122309011D01*
X165930488Y-122582859D01*
X165925178Y-122596860D01*
X165807460Y-122858422D01*
X165800501Y-122871681D01*
X165652114Y-123117144D01*
X165643608Y-123129467D01*
X165466711Y-123355259D01*
X165456781Y-123366467D01*
X165253967Y-123569281D01*
X165242759Y-123579211D01*
X165016967Y-123756108D01*
X165004644Y-123764614D01*
X164759181Y-123913001D01*
X164745922Y-123919960D01*
X164484360Y-124037678D01*
X164470359Y-124042988D01*
X164196511Y-124128321D01*
X164181972Y-124131904D01*
X163899844Y-124183605D01*
X163884979Y-124185410D01*
X163594920Y-124202953D01*
X163587436Y-124203179D01*
X163555479Y-124203179D01*
X163525291Y-124203179D01*
X163525287Y-124203179D01*
X163517683Y-124203180D01*
X163517682Y-124203179D01*
X163517681Y-124203180D01*
X104594935Y-124203180D01*
X104587447Y-124202954D01*
X104587430Y-124202953D01*
X104583589Y-124202720D01*
X104297389Y-124185406D01*
X104282525Y-124183601D01*
X104000396Y-124131898D01*
X103985858Y-124128314D01*
X103888925Y-124098108D01*
X103712014Y-124042978D01*
X103698014Y-124037668D01*
X103436458Y-123919950D01*
X103423199Y-123912991D01*
X103177739Y-123764602D01*
X103165416Y-123756096D01*
X102939632Y-123579204D01*
X102928424Y-123569275D01*
X102725599Y-123366447D01*
X102715677Y-123355247D01*
X102538777Y-123129448D01*
X102530279Y-123117135D01*
X102381894Y-122871672D01*
X102374935Y-122858413D01*
X102257220Y-122596855D01*
X102251911Y-122582855D01*
X102166577Y-122309006D01*
X102162993Y-122294467D01*
X102161064Y-122283942D01*
X102111293Y-122012337D01*
X102109489Y-121997476D01*
X102102120Y-121875644D01*
X102091906Y-121706756D01*
X102091680Y-121699270D01*
X102091680Y-121682307D01*
X102091681Y-121637791D01*
X102091680Y-121637787D01*
X102091680Y-108374986D01*
X104400001Y-108374986D01*
X104410494Y-108477697D01*
X104465641Y-108644119D01*
X104465643Y-108644124D01*
X104557684Y-108793345D01*
X104681654Y-108917315D01*
X104830875Y-109009356D01*
X104830880Y-109009358D01*
X104997302Y-109064505D01*
X104997309Y-109064506D01*
X105100019Y-109074999D01*
X105549999Y-109074999D01*
X106050000Y-109074999D01*
X106499972Y-109074999D01*
X106499986Y-109074998D01*
X106602697Y-109064505D01*
X106769119Y-109009358D01*
X106769124Y-109009356D01*
X106918345Y-108917315D01*
X107042315Y-108793345D01*
X107134356Y-108644124D01*
X107134358Y-108644119D01*
X107189505Y-108477697D01*
X107189506Y-108477690D01*
X107199999Y-108374986D01*
X107200000Y-108374973D01*
X107200000Y-107575000D01*
X106050000Y-107575000D01*
X106050000Y-109074999D01*
X105549999Y-109074999D01*
X105550000Y-109074998D01*
X105550000Y-107575000D01*
X104400001Y-107575000D01*
X104400001Y-108374986D01*
X102091680Y-108374986D01*
X102091680Y-106275013D01*
X104400000Y-106275013D01*
X104400000Y-107075000D01*
X105550000Y-107075000D01*
X105550000Y-105575000D01*
X105100028Y-105575000D01*
X105100012Y-105575001D01*
X104997302Y-105585494D01*
X104830880Y-105640641D01*
X104830875Y-105640643D01*
X104681654Y-105732684D01*
X104557684Y-105856654D01*
X104465643Y-106005875D01*
X104465641Y-106005880D01*
X104410494Y-106172302D01*
X104410493Y-106172309D01*
X104400000Y-106275013D01*
X102091680Y-106275013D01*
X102091680Y-98097070D01*
X103487000Y-98097070D01*
X103487000Y-98352929D01*
X103527026Y-98605640D01*
X103606088Y-98848972D01*
X103606089Y-98848975D01*
X103680494Y-98995000D01*
X103721533Y-99075544D01*
X103722250Y-99076950D01*
X103872632Y-99283935D01*
X103872636Y-99283940D01*
X104053559Y-99464863D01*
X104053564Y-99464867D01*
X104230885Y-99593697D01*
X104260553Y-99615252D01*
X104380005Y-99676116D01*
X104488524Y-99731410D01*
X104488527Y-99731411D01*
X104610193Y-99770942D01*
X104731861Y-99810474D01*
X104984570Y-99850500D01*
X104984571Y-99850500D01*
X105240429Y-99850500D01*
X105240430Y-99850500D01*
X105493139Y-99810474D01*
X105736475Y-99731410D01*
X105736475Y-99731409D01*
X105736480Y-99731408D01*
X105844995Y-99676116D01*
X105871253Y-99662736D01*
X105939921Y-99649840D01*
X106004662Y-99676116D01*
X106044920Y-99733222D01*
X106047912Y-99803027D01*
X106015229Y-99860902D01*
X105217047Y-100659084D01*
X105217043Y-100659089D01*
X105194523Y-100692795D01*
X105194523Y-100692796D01*
X105134913Y-100782008D01*
X105078343Y-100918582D01*
X105078340Y-100918592D01*
X105049500Y-101063579D01*
X105049500Y-101478130D01*
X105029815Y-101545169D01*
X104977011Y-101590924D01*
X104964505Y-101595836D01*
X104830666Y-101640186D01*
X104830663Y-101640187D01*
X104681342Y-101732289D01*
X104557289Y-101856342D01*
X104465187Y-102005663D01*
X104465186Y-102005666D01*
X104410001Y-102172203D01*
X104410001Y-102172204D01*
X104410000Y-102172204D01*
X104399500Y-102274983D01*
X104399500Y-104375001D01*
X104399501Y-104375018D01*
X104410000Y-104477796D01*
X104410001Y-104477799D01*
X104434437Y-104551540D01*
X104465186Y-104644334D01*
X104557288Y-104793656D01*
X104681344Y-104917712D01*
X104830666Y-105009814D01*
X104997203Y-105064999D01*
X105099991Y-105075500D01*
X106437769Y-105075499D01*
X106504808Y-105095184D01*
X106525450Y-105111818D01*
X106825634Y-105412002D01*
X106859119Y-105473325D01*
X106854135Y-105543017D01*
X106812263Y-105598950D01*
X106746799Y-105623367D01*
X106698950Y-105617389D01*
X106602700Y-105585495D01*
X106602690Y-105585493D01*
X106499986Y-105575000D01*
X106050000Y-105575000D01*
X106050000Y-107075000D01*
X107199999Y-107075000D01*
X107199999Y-106275028D01*
X107199998Y-106275011D01*
X107195911Y-106235000D01*
X107807996Y-106235000D01*
X107850468Y-106381195D01*
X107932777Y-106520372D01*
X107932785Y-106520383D01*
X108047116Y-106634714D01*
X108047125Y-106634721D01*
X108186304Y-106717031D01*
X108341589Y-106762145D01*
X108362500Y-106763789D01*
X108362500Y-106235000D01*
X107807996Y-106235000D01*
X107195911Y-106235000D01*
X107194654Y-106222696D01*
X107189505Y-106172302D01*
X107134358Y-106005880D01*
X107134353Y-106005869D01*
X107070592Y-105902497D01*
X107052151Y-105835105D01*
X107073073Y-105768441D01*
X107126715Y-105723672D01*
X107196046Y-105715010D01*
X107223582Y-105722838D01*
X107281087Y-105746658D01*
X107281091Y-105746658D01*
X107281092Y-105746659D01*
X107426079Y-105775500D01*
X107426082Y-105775500D01*
X107426083Y-105775500D01*
X107573917Y-105775500D01*
X108230434Y-105775500D01*
X108265028Y-105780423D01*
X108341507Y-105802643D01*
X108377810Y-105805500D01*
X108377818Y-105805500D01*
X108488500Y-105805500D01*
X108555539Y-105825185D01*
X108601294Y-105877989D01*
X108612500Y-105929500D01*
X108612500Y-105985000D01*
X108738500Y-105985000D01*
X108805539Y-106004685D01*
X108851294Y-106057489D01*
X108862500Y-106109000D01*
X108862500Y-106763789D01*
X108883410Y-106762145D01*
X109038695Y-106717031D01*
X109177874Y-106634721D01*
X109177883Y-106634714D01*
X109219251Y-106593346D01*
X109280574Y-106559860D01*
X109350265Y-106564844D01*
X109393567Y-106595780D01*
X109395240Y-106594108D01*
X115284120Y-112482988D01*
X115317605Y-112544311D01*
X115312621Y-112614003D01*
X115270749Y-112669936D01*
X115205285Y-112694353D01*
X115196439Y-112694669D01*
X110553856Y-112694669D01*
X110553847Y-112694670D01*
X104628499Y-112694670D01*
X104628499Y-116755032D01*
X104648406Y-116774939D01*
X104681891Y-116836262D01*
X104684725Y-116862620D01*
X104684725Y-119456328D01*
X104691472Y-119463075D01*
X104724957Y-119524398D01*
X104719973Y-119594090D01*
X104678101Y-119650023D01*
X104642109Y-119668687D01*
X104488527Y-119718588D01*
X104488524Y-119718589D01*
X104260549Y-119834750D01*
X104053564Y-119985132D01*
X104053559Y-119985136D01*
X103872636Y-120166059D01*
X103872632Y-120166064D01*
X103722250Y-120373049D01*
X103606089Y-120601024D01*
X103606088Y-120601027D01*
X103527026Y-120844359D01*
X103487000Y-121097070D01*
X103487000Y-121352929D01*
X103527026Y-121605640D01*
X103606088Y-121848972D01*
X103606089Y-121848975D01*
X103681755Y-121997476D01*
X103689329Y-122012341D01*
X103722250Y-122076950D01*
X103872632Y-122283935D01*
X103872636Y-122283940D01*
X104053559Y-122464863D01*
X104053564Y-122464867D01*
X104177967Y-122555250D01*
X104260553Y-122615252D01*
X104409580Y-122691185D01*
X104488524Y-122731410D01*
X104488527Y-122731411D01*
X104610193Y-122770942D01*
X104731861Y-122810474D01*
X104984570Y-122850500D01*
X104984571Y-122850500D01*
X105240429Y-122850500D01*
X105240430Y-122850500D01*
X105493139Y-122810474D01*
X105736475Y-122731410D01*
X105964447Y-122615252D01*
X106171442Y-122464862D01*
X106352362Y-122283942D01*
X106502752Y-122076947D01*
X106618910Y-121848975D01*
X106697974Y-121605639D01*
X106738000Y-121352930D01*
X106738000Y-121097070D01*
X106697974Y-120844361D01*
X106636850Y-120656239D01*
X106618911Y-120601027D01*
X106618910Y-120601024D01*
X106578685Y-120522080D01*
X106502752Y-120373053D01*
X106478737Y-120339999D01*
X106450931Y-120301726D01*
X106352367Y-120166064D01*
X106352363Y-120166059D01*
X106171440Y-119985136D01*
X106171435Y-119985132D01*
X105964450Y-119834750D01*
X105964449Y-119834749D01*
X105964447Y-119834748D01*
X105891410Y-119797533D01*
X105736475Y-119718589D01*
X105736472Y-119718588D01*
X105673903Y-119698259D01*
X105616228Y-119658822D01*
X105589029Y-119594463D01*
X105600943Y-119525617D01*
X105648187Y-119474141D01*
X105712221Y-119456328D01*
X106852868Y-119456328D01*
X106852868Y-116879032D01*
X106872553Y-116811993D01*
X106925357Y-116766238D01*
X106976868Y-116755032D01*
X110983569Y-116755032D01*
X110983569Y-116074060D01*
X111003254Y-116007021D01*
X111056058Y-115961266D01*
X111107569Y-115950060D01*
X116721665Y-115950060D01*
X116721665Y-114219895D01*
X116741350Y-114152856D01*
X116794154Y-114107101D01*
X116863312Y-114097157D01*
X116926868Y-114126182D01*
X116933346Y-114132214D01*
X120175681Y-117374549D01*
X120209166Y-117435872D01*
X120212000Y-117462229D01*
X120212000Y-117598336D01*
X120212001Y-117598355D01*
X120222150Y-117697707D01*
X120222151Y-117697710D01*
X120275496Y-117858694D01*
X120275501Y-117858705D01*
X120364529Y-118003040D01*
X120364532Y-118003044D01*
X120400681Y-118039193D01*
X120434166Y-118100516D01*
X120437000Y-118126874D01*
X120437000Y-119145916D01*
X120417315Y-119212955D01*
X120385885Y-119246234D01*
X120298265Y-119309893D01*
X120298259Y-119309898D01*
X120147944Y-119460213D01*
X120023003Y-119632182D01*
X120018256Y-119641499D01*
X119970281Y-119692293D01*
X119902459Y-119709087D01*
X119836325Y-119686548D01*
X119797288Y-119641495D01*
X119792680Y-119632452D01*
X119753324Y-119578282D01*
X119753323Y-119578282D01*
X119121016Y-120210590D01*
X119103979Y-120147007D01*
X119038153Y-120032993D01*
X118945061Y-119939901D01*
X118831047Y-119874075D01*
X118767463Y-119857037D01*
X119399770Y-119224728D01*
X119345604Y-119185375D01*
X119156271Y-119088904D01*
X118954183Y-119023242D01*
X118744300Y-118990000D01*
X118531808Y-118990000D01*
X118321926Y-119023242D01*
X118321923Y-119023242D01*
X118119836Y-119088904D01*
X117930493Y-119185380D01*
X117876336Y-119224727D01*
X117876336Y-119224728D01*
X118508645Y-119857037D01*
X118445061Y-119874075D01*
X118331047Y-119939901D01*
X118237955Y-120032993D01*
X118172129Y-120147007D01*
X118155091Y-120210591D01*
X117522782Y-119578282D01*
X117522781Y-119578282D01*
X117483434Y-119632440D01*
X117483430Y-119632446D01*
X117478814Y-119641505D01*
X117430835Y-119692297D01*
X117363013Y-119709087D01*
X117296880Y-119686543D01*
X117257848Y-119641493D01*
X117253105Y-119632184D01*
X117253103Y-119632181D01*
X117253102Y-119632179D01*
X117128163Y-119460213D01*
X116977840Y-119309890D01*
X116805874Y-119184951D01*
X116616468Y-119088444D01*
X116616467Y-119088443D01*
X116616466Y-119088443D01*
X116414297Y-119022754D01*
X116414295Y-119022753D01*
X116414294Y-119022753D01*
X116253011Y-118997208D01*
X116204341Y-118989500D01*
X115991767Y-118989500D01*
X115943096Y-118997208D01*
X115781814Y-119022753D01*
X115579639Y-119088444D01*
X115390233Y-119184951D01*
X115218267Y-119309890D01*
X115067944Y-119460213D01*
X114943003Y-119632182D01*
X114938538Y-119640946D01*
X114890563Y-119691742D01*
X114822742Y-119708536D01*
X114756607Y-119685998D01*
X114717570Y-119640946D01*
X114713104Y-119632182D01*
X114588163Y-119460213D01*
X114437840Y-119309890D01*
X114265874Y-119184951D01*
X114076468Y-119088444D01*
X114076467Y-119088443D01*
X114076466Y-119088443D01*
X113874297Y-119022754D01*
X113874295Y-119022753D01*
X113874294Y-119022753D01*
X113713011Y-118997208D01*
X113664341Y-118989500D01*
X113451767Y-118989500D01*
X113403096Y-118997208D01*
X113241814Y-119022753D01*
X113039639Y-119088444D01*
X112850233Y-119184951D01*
X112678267Y-119309890D01*
X112527944Y-119460213D01*
X112403005Y-119632179D01*
X112306498Y-119821585D01*
X112240807Y-120023760D01*
X112207554Y-120233713D01*
X112207554Y-120446286D01*
X112240807Y-120656239D01*
X112306498Y-120858414D01*
X112403005Y-121047820D01*
X112527944Y-121219786D01*
X112678267Y-121370109D01*
X112850233Y-121495048D01*
X112850235Y-121495049D01*
X112850238Y-121495051D01*
X113039642Y-121591557D01*
X113241811Y-121657246D01*
X113451767Y-121690500D01*
X113451768Y-121690500D01*
X113664340Y-121690500D01*
X113664341Y-121690500D01*
X113874297Y-121657246D01*
X114076466Y-121591557D01*
X114265870Y-121495051D01*
X114352192Y-121432335D01*
X114437840Y-121370109D01*
X114437842Y-121370106D01*
X114437846Y-121370104D01*
X114588158Y-121219792D01*
X114588160Y-121219788D01*
X114588163Y-121219786D01*
X114713102Y-121047820D01*
X114713101Y-121047820D01*
X114713105Y-121047816D01*
X114717568Y-121039054D01*
X114765542Y-120988259D01*
X114833362Y-120971463D01*
X114899498Y-120993999D01*
X114938540Y-121039056D01*
X114943005Y-121047820D01*
X115067944Y-121219786D01*
X115218267Y-121370109D01*
X115390233Y-121495048D01*
X115390235Y-121495049D01*
X115390238Y-121495051D01*
X115579642Y-121591557D01*
X115781811Y-121657246D01*
X115991767Y-121690500D01*
X115991768Y-121690500D01*
X116204340Y-121690500D01*
X116204341Y-121690500D01*
X116414297Y-121657246D01*
X116616466Y-121591557D01*
X116805870Y-121495051D01*
X116892192Y-121432335D01*
X116977840Y-121370109D01*
X116977842Y-121370106D01*
X116977846Y-121370104D01*
X117128158Y-121219792D01*
X117128160Y-121219788D01*
X117128163Y-121219786D01*
X117213944Y-121101717D01*
X117253105Y-121047816D01*
X117257847Y-121038508D01*
X117305817Y-120987711D01*
X117373637Y-120970911D01*
X117439773Y-120993445D01*
X117478817Y-121038500D01*
X117483427Y-121047547D01*
X117522782Y-121101716D01*
X118155091Y-120469408D01*
X118172129Y-120532993D01*
X118237955Y-120647007D01*
X118331047Y-120740099D01*
X118445061Y-120805925D01*
X118508644Y-120822962D01*
X117876336Y-121455269D01*
X117876336Y-121455270D01*
X117930503Y-121494624D01*
X118119836Y-121591095D01*
X118321924Y-121656757D01*
X118531808Y-121690000D01*
X118744300Y-121690000D01*
X118954181Y-121656757D01*
X118954184Y-121656757D01*
X119156271Y-121591095D01*
X119345608Y-121494622D01*
X119399770Y-121455270D01*
X119399771Y-121455270D01*
X118767462Y-120822962D01*
X118831047Y-120805925D01*
X118945061Y-120740099D01*
X119038153Y-120647007D01*
X119103979Y-120532993D01*
X119121016Y-120469408D01*
X119753324Y-121101717D01*
X119753324Y-121101716D01*
X119792676Y-121047555D01*
X119797286Y-121038507D01*
X119845259Y-120987709D01*
X119913079Y-120970912D01*
X119979215Y-120993447D01*
X120018258Y-121038504D01*
X120023003Y-121047817D01*
X120147944Y-121219786D01*
X120298267Y-121370109D01*
X120470233Y-121495048D01*
X120470235Y-121495049D01*
X120470238Y-121495051D01*
X120659642Y-121591557D01*
X120861811Y-121657246D01*
X121071767Y-121690500D01*
X121071768Y-121690500D01*
X121284340Y-121690500D01*
X121284341Y-121690500D01*
X121494297Y-121657246D01*
X121696466Y-121591557D01*
X121885870Y-121495051D01*
X121972192Y-121432335D01*
X122057840Y-121370109D01*
X122057842Y-121370106D01*
X122057846Y-121370104D01*
X122208158Y-121219792D01*
X122208160Y-121219788D01*
X122208163Y-121219786D01*
X122333102Y-121047820D01*
X122333101Y-121047820D01*
X122333105Y-121047816D01*
X122337568Y-121039054D01*
X122385542Y-120988259D01*
X122453362Y-120971463D01*
X122519498Y-120993999D01*
X122558540Y-121039056D01*
X122563005Y-121047820D01*
X122687944Y-121219786D01*
X122838267Y-121370109D01*
X123010233Y-121495048D01*
X123010235Y-121495049D01*
X123010238Y-121495051D01*
X123199642Y-121591557D01*
X123401811Y-121657246D01*
X123611767Y-121690500D01*
X123611768Y-121690500D01*
X123824340Y-121690500D01*
X123824341Y-121690500D01*
X124034297Y-121657246D01*
X124236466Y-121591557D01*
X124425870Y-121495051D01*
X124512192Y-121432335D01*
X124597840Y-121370109D01*
X124597842Y-121370106D01*
X124597846Y-121370104D01*
X124748158Y-121219792D01*
X124748160Y-121219788D01*
X124748163Y-121219786D01*
X124873102Y-121047820D01*
X124873101Y-121047820D01*
X124873105Y-121047816D01*
X124877568Y-121039054D01*
X124925542Y-120988259D01*
X124993362Y-120971463D01*
X125059498Y-120993999D01*
X125098540Y-121039056D01*
X125103005Y-121047820D01*
X125227944Y-121219786D01*
X125378267Y-121370109D01*
X125550233Y-121495048D01*
X125550235Y-121495049D01*
X125550238Y-121495051D01*
X125739642Y-121591557D01*
X125941811Y-121657246D01*
X126151767Y-121690500D01*
X126151768Y-121690500D01*
X126364340Y-121690500D01*
X126364341Y-121690500D01*
X126574297Y-121657246D01*
X126776466Y-121591557D01*
X126965870Y-121495051D01*
X127052192Y-121432335D01*
X127137840Y-121370109D01*
X127137842Y-121370106D01*
X127137846Y-121370104D01*
X127288158Y-121219792D01*
X127288160Y-121219788D01*
X127288163Y-121219786D01*
X127413102Y-121047820D01*
X127413101Y-121047820D01*
X127413105Y-121047816D01*
X127417568Y-121039054D01*
X127465542Y-120988259D01*
X127533362Y-120971463D01*
X127599498Y-120993999D01*
X127638540Y-121039056D01*
X127643005Y-121047820D01*
X127767944Y-121219786D01*
X127918267Y-121370109D01*
X128090233Y-121495048D01*
X128090235Y-121495049D01*
X128090238Y-121495051D01*
X128279642Y-121591557D01*
X128481811Y-121657246D01*
X128691767Y-121690500D01*
X128691768Y-121690500D01*
X128904340Y-121690500D01*
X128904341Y-121690500D01*
X129114297Y-121657246D01*
X129316466Y-121591557D01*
X129505870Y-121495051D01*
X129677846Y-121370104D01*
X129791383Y-121256566D01*
X129852702Y-121223084D01*
X129922394Y-121228068D01*
X129978328Y-121269939D01*
X129995243Y-121300917D01*
X130044256Y-121432328D01*
X130044260Y-121432335D01*
X130130506Y-121547544D01*
X130130509Y-121547547D01*
X130245718Y-121633793D01*
X130245725Y-121633797D01*
X130380571Y-121684091D01*
X130380570Y-121684091D01*
X130387498Y-121684835D01*
X130440181Y-121690500D01*
X132235926Y-121690499D01*
X132295537Y-121684091D01*
X132430385Y-121633796D01*
X132545600Y-121547546D01*
X132631850Y-121432331D01*
X132682145Y-121297483D01*
X132688554Y-121237873D01*
X132688553Y-119442128D01*
X132682145Y-119382517D01*
X132680864Y-119379083D01*
X132631851Y-119247671D01*
X132631847Y-119247664D01*
X132545601Y-119132455D01*
X132545598Y-119132452D01*
X132430389Y-119046206D01*
X132430382Y-119046202D01*
X132295536Y-118995908D01*
X132295537Y-118995908D01*
X132235937Y-118989501D01*
X132235935Y-118989500D01*
X132235927Y-118989500D01*
X132235918Y-118989500D01*
X130440183Y-118989500D01*
X130440177Y-118989501D01*
X130380570Y-118995908D01*
X130245725Y-119046202D01*
X130245718Y-119046206D01*
X130130509Y-119132452D01*
X130130506Y-119132455D01*
X130044260Y-119247664D01*
X130044257Y-119247669D01*
X129995243Y-119379083D01*
X129953371Y-119435016D01*
X129887907Y-119459433D01*
X129819634Y-119444581D01*
X129791380Y-119423430D01*
X129677840Y-119309890D01*
X129505874Y-119184951D01*
X129316468Y-119088444D01*
X129316467Y-119088443D01*
X129316466Y-119088443D01*
X129114297Y-119022754D01*
X129114295Y-119022753D01*
X129114294Y-119022753D01*
X128953011Y-118997208D01*
X128904341Y-118989500D01*
X128691767Y-118989500D01*
X128643096Y-118997208D01*
X128481814Y-119022753D01*
X128279639Y-119088444D01*
X128090233Y-119184951D01*
X127918267Y-119309890D01*
X127767944Y-119460213D01*
X127643003Y-119632182D01*
X127638538Y-119640946D01*
X127590563Y-119691742D01*
X127522742Y-119708536D01*
X127456607Y-119685998D01*
X127417570Y-119640946D01*
X127413104Y-119632182D01*
X127288163Y-119460213D01*
X127137840Y-119309890D01*
X126965874Y-119184951D01*
X126776468Y-119088444D01*
X126776467Y-119088443D01*
X126776466Y-119088443D01*
X126574297Y-119022754D01*
X126574295Y-119022753D01*
X126574294Y-119022753D01*
X126413011Y-118997208D01*
X126364341Y-118989500D01*
X126151767Y-118989500D01*
X126151193Y-118989500D01*
X126084154Y-118969815D01*
X126038399Y-118917011D01*
X126028455Y-118847853D01*
X126036629Y-118818053D01*
X126038001Y-118814743D01*
X126063000Y-118689068D01*
X126063000Y-118560931D01*
X126063000Y-111658308D01*
X126082685Y-111591269D01*
X126099319Y-111570627D01*
X129733127Y-107936819D01*
X129794450Y-107903334D01*
X129820808Y-107900500D01*
X129838693Y-107900500D01*
X129838694Y-107900499D01*
X129896682Y-107888964D01*
X130012658Y-107865896D01*
X130012661Y-107865894D01*
X130012666Y-107865894D01*
X130152535Y-107807958D01*
X130176540Y-107798016D01*
X130176540Y-107798015D01*
X130176547Y-107798013D01*
X130324035Y-107699464D01*
X130449464Y-107574035D01*
X130548013Y-107426547D01*
X130615894Y-107262666D01*
X130626902Y-107207328D01*
X130650499Y-107088695D01*
X130650500Y-107088693D01*
X130650500Y-106911306D01*
X130650499Y-106911304D01*
X130615896Y-106737341D01*
X130615893Y-106737332D01*
X130548016Y-106573459D01*
X130548009Y-106573446D01*
X130477813Y-106468391D01*
X130456935Y-106401714D01*
X130475419Y-106334333D01*
X130527398Y-106287643D01*
X130580915Y-106275500D01*
X136091692Y-106275500D01*
X136158731Y-106295185D01*
X136179373Y-106311819D01*
X137776681Y-107909127D01*
X137810166Y-107970450D01*
X137813000Y-107996808D01*
X137813000Y-112363500D01*
X137793315Y-112430539D01*
X137740511Y-112476294D01*
X137719033Y-112480966D01*
X137712500Y-112487500D01*
X137712500Y-113250000D01*
X137722268Y-113259768D01*
X137756039Y-113269685D01*
X137801794Y-113322489D01*
X137813000Y-113374000D01*
X137813000Y-113626000D01*
X137793315Y-113693039D01*
X137740511Y-113738794D01*
X137689000Y-113750000D01*
X136262501Y-113750000D01*
X136262501Y-113812486D01*
X136272994Y-113915197D01*
X136328141Y-114081619D01*
X136328143Y-114081624D01*
X136420184Y-114230845D01*
X136513804Y-114324465D01*
X136516655Y-114329687D01*
X136521591Y-114333014D01*
X136533210Y-114360004D01*
X136547289Y-114385788D01*
X136546864Y-114391723D01*
X136549218Y-114397190D01*
X136544400Y-114426175D01*
X136542305Y-114455480D01*
X136538487Y-114461757D01*
X136537763Y-114466114D01*
X136524399Y-114484919D01*
X136518036Y-114495381D01*
X136515973Y-114497658D01*
X136419788Y-114593844D01*
X136400390Y-114625292D01*
X136392745Y-114633735D01*
X136372269Y-114646268D01*
X136354422Y-114662322D01*
X136341098Y-114665349D01*
X136333154Y-114670213D01*
X136320879Y-114669944D01*
X136300832Y-114674500D01*
X135845808Y-114674500D01*
X135778769Y-114654815D01*
X135758127Y-114638181D01*
X134499319Y-113379373D01*
X134465834Y-113318050D01*
X134463000Y-113291692D01*
X134463000Y-113187513D01*
X136262500Y-113187513D01*
X136262500Y-113250000D01*
X137212500Y-113250000D01*
X137212500Y-112487500D01*
X136962529Y-112487500D01*
X136962512Y-112487501D01*
X136859802Y-112497994D01*
X136693380Y-112553141D01*
X136693375Y-112553143D01*
X136544154Y-112645184D01*
X136420184Y-112769154D01*
X136328143Y-112918375D01*
X136328141Y-112918380D01*
X136272994Y-113084802D01*
X136272993Y-113084809D01*
X136262500Y-113187513D01*
X134463000Y-113187513D01*
X134463000Y-112699361D01*
X134482685Y-112632322D01*
X134499316Y-112611682D01*
X134511964Y-112599035D01*
X134610513Y-112451547D01*
X134678394Y-112287666D01*
X134690838Y-112225109D01*
X134712999Y-112113695D01*
X134713000Y-112113693D01*
X134713000Y-111936306D01*
X134712999Y-111936304D01*
X134678396Y-111762341D01*
X134678393Y-111762332D01*
X134610516Y-111598459D01*
X134610509Y-111598446D01*
X134511964Y-111450965D01*
X134511961Y-111450961D01*
X134386538Y-111325538D01*
X134386534Y-111325535D01*
X134239053Y-111226990D01*
X134239040Y-111226983D01*
X134075167Y-111159106D01*
X134075158Y-111159103D01*
X133901194Y-111124500D01*
X133901191Y-111124500D01*
X133723809Y-111124500D01*
X133723806Y-111124500D01*
X133549841Y-111159103D01*
X133549832Y-111159106D01*
X133385959Y-111226983D01*
X133385946Y-111226990D01*
X133238465Y-111325535D01*
X133238461Y-111325538D01*
X133113038Y-111450961D01*
X133113035Y-111450965D01*
X133014490Y-111598446D01*
X133014483Y-111598459D01*
X132946606Y-111762332D01*
X132946603Y-111762341D01*
X132912000Y-111936304D01*
X132912000Y-112113695D01*
X132946603Y-112287658D01*
X132946606Y-112287667D01*
X133014483Y-112451540D01*
X133014490Y-112451553D01*
X133113034Y-112599033D01*
X133113035Y-112599034D01*
X133113036Y-112599035D01*
X133125680Y-112611679D01*
X133159165Y-112672999D01*
X133162000Y-112699361D01*
X133162000Y-113676573D01*
X133186364Y-113799060D01*
X133186365Y-113799060D01*
X133186998Y-113802241D01*
X133187000Y-113802248D01*
X133236033Y-113920625D01*
X133307226Y-114027173D01*
X135110326Y-115830273D01*
X135110329Y-115830275D01*
X135110331Y-115830277D01*
X135216873Y-115901465D01*
X135335256Y-115950501D01*
X135335260Y-115950501D01*
X135335261Y-115950502D01*
X135460928Y-115975500D01*
X135460931Y-115975500D01*
X136300832Y-115975500D01*
X136367871Y-115995185D01*
X136406370Y-116034403D01*
X136419785Y-116056152D01*
X136419788Y-116056156D01*
X136543844Y-116180212D01*
X136614373Y-116223714D01*
X136661097Y-116275660D01*
X136672320Y-116344622D01*
X136668353Y-116363846D01*
X136644834Y-116444797D01*
X136642000Y-116480811D01*
X136642000Y-116879169D01*
X136642001Y-116879191D01*
X136644835Y-116915205D01*
X136689629Y-117069388D01*
X136689632Y-117069395D01*
X136723628Y-117126881D01*
X136740809Y-117194605D01*
X136723628Y-117253119D01*
X136689632Y-117310604D01*
X136689629Y-117310611D01*
X136644835Y-117464791D01*
X136644834Y-117464797D01*
X136642000Y-117500811D01*
X136642000Y-117899169D01*
X136642001Y-117899191D01*
X136644835Y-117935205D01*
X136689629Y-118089388D01*
X136689631Y-118089393D01*
X136771363Y-118227595D01*
X136771368Y-118227602D01*
X136781232Y-118237465D01*
X136814719Y-118298787D01*
X136817554Y-118325149D01*
X136817554Y-119080382D01*
X136797869Y-119147421D01*
X136763462Y-119181099D01*
X136764179Y-119182085D01*
X136588267Y-119309890D01*
X136437944Y-119460213D01*
X136313005Y-119632179D01*
X136216498Y-119821585D01*
X136150807Y-120023760D01*
X136117554Y-120233713D01*
X136117554Y-120446286D01*
X136150807Y-120656239D01*
X136216498Y-120858414D01*
X136313005Y-121047820D01*
X136437944Y-121219786D01*
X136588267Y-121370109D01*
X136760233Y-121495048D01*
X136760235Y-121495049D01*
X136760238Y-121495051D01*
X136949642Y-121591557D01*
X137151811Y-121657246D01*
X137361767Y-121690500D01*
X137361768Y-121690500D01*
X137574340Y-121690500D01*
X137574341Y-121690500D01*
X137784297Y-121657246D01*
X137986466Y-121591557D01*
X138175870Y-121495051D01*
X138262192Y-121432335D01*
X138347840Y-121370109D01*
X138347842Y-121370106D01*
X138347846Y-121370104D01*
X138498158Y-121219792D01*
X138498160Y-121219788D01*
X138498163Y-121219786D01*
X138623102Y-121047820D01*
X138623101Y-121047820D01*
X138623105Y-121047816D01*
X138627568Y-121039054D01*
X138675542Y-120988259D01*
X138743362Y-120971463D01*
X138809498Y-120993999D01*
X138848540Y-121039056D01*
X138853005Y-121047820D01*
X138977944Y-121219786D01*
X139128267Y-121370109D01*
X139300233Y-121495048D01*
X139300235Y-121495049D01*
X139300238Y-121495051D01*
X139489642Y-121591557D01*
X139691811Y-121657246D01*
X139901767Y-121690500D01*
X139901768Y-121690500D01*
X140114340Y-121690500D01*
X140114341Y-121690500D01*
X140324297Y-121657246D01*
X140526466Y-121591557D01*
X140715870Y-121495051D01*
X140802192Y-121432335D01*
X140887840Y-121370109D01*
X140887842Y-121370106D01*
X140887846Y-121370104D01*
X141038158Y-121219792D01*
X141038160Y-121219788D01*
X141038163Y-121219786D01*
X141163102Y-121047820D01*
X141163101Y-121047820D01*
X141163105Y-121047816D01*
X141167568Y-121039054D01*
X141215542Y-120988259D01*
X141283362Y-120971463D01*
X141349498Y-120993999D01*
X141388540Y-121039056D01*
X141393005Y-121047820D01*
X141517944Y-121219786D01*
X141668267Y-121370109D01*
X141840233Y-121495048D01*
X141840235Y-121495049D01*
X141840238Y-121495051D01*
X142029642Y-121591557D01*
X142231811Y-121657246D01*
X142441767Y-121690500D01*
X142441768Y-121690500D01*
X142654340Y-121690500D01*
X142654341Y-121690500D01*
X142864297Y-121657246D01*
X143066466Y-121591557D01*
X143255870Y-121495051D01*
X143342192Y-121432335D01*
X143427840Y-121370109D01*
X143427842Y-121370106D01*
X143427846Y-121370104D01*
X143578158Y-121219792D01*
X143578160Y-121219788D01*
X143578163Y-121219786D01*
X143703102Y-121047820D01*
X143703101Y-121047820D01*
X143703105Y-121047816D01*
X143707568Y-121039054D01*
X143755542Y-120988259D01*
X143823362Y-120971463D01*
X143889498Y-120993999D01*
X143928540Y-121039056D01*
X143933005Y-121047820D01*
X144057944Y-121219786D01*
X144208267Y-121370109D01*
X144380233Y-121495048D01*
X144380235Y-121495049D01*
X144380238Y-121495051D01*
X144569642Y-121591557D01*
X144771811Y-121657246D01*
X144981767Y-121690500D01*
X144981768Y-121690500D01*
X145194340Y-121690500D01*
X145194341Y-121690500D01*
X145404297Y-121657246D01*
X145606466Y-121591557D01*
X145795870Y-121495051D01*
X145882192Y-121432335D01*
X145967840Y-121370109D01*
X145967842Y-121370106D01*
X145967846Y-121370104D01*
X146118158Y-121219792D01*
X146118160Y-121219788D01*
X146118163Y-121219786D01*
X146243102Y-121047820D01*
X146243101Y-121047820D01*
X146243105Y-121047816D01*
X146247568Y-121039054D01*
X146295542Y-120988259D01*
X146363362Y-120971463D01*
X146429498Y-120993999D01*
X146468540Y-121039056D01*
X146473005Y-121047820D01*
X146597944Y-121219786D01*
X146748267Y-121370109D01*
X146920233Y-121495048D01*
X146920235Y-121495049D01*
X146920238Y-121495051D01*
X147109642Y-121591557D01*
X147311811Y-121657246D01*
X147521767Y-121690500D01*
X147521768Y-121690500D01*
X147734340Y-121690500D01*
X147734341Y-121690500D01*
X147944297Y-121657246D01*
X148146466Y-121591557D01*
X148335870Y-121495051D01*
X148422192Y-121432335D01*
X148507840Y-121370109D01*
X148507842Y-121370106D01*
X148507846Y-121370104D01*
X148658158Y-121219792D01*
X148658160Y-121219788D01*
X148658163Y-121219786D01*
X148783102Y-121047820D01*
X148783101Y-121047820D01*
X148783105Y-121047816D01*
X148787568Y-121039054D01*
X148835542Y-120988259D01*
X148903362Y-120971463D01*
X148969498Y-120993999D01*
X149008540Y-121039056D01*
X149013005Y-121047820D01*
X149137944Y-121219786D01*
X149288267Y-121370109D01*
X149460233Y-121495048D01*
X149460235Y-121495049D01*
X149460238Y-121495051D01*
X149649642Y-121591557D01*
X149851811Y-121657246D01*
X150061767Y-121690500D01*
X150061768Y-121690500D01*
X150274340Y-121690500D01*
X150274341Y-121690500D01*
X150484297Y-121657246D01*
X150686466Y-121591557D01*
X150875870Y-121495051D01*
X150962192Y-121432335D01*
X151047840Y-121370109D01*
X151047842Y-121370106D01*
X151047846Y-121370104D01*
X151198158Y-121219792D01*
X151198160Y-121219788D01*
X151198163Y-121219786D01*
X151323102Y-121047820D01*
X151323101Y-121047820D01*
X151323105Y-121047816D01*
X151327568Y-121039054D01*
X151375542Y-120988259D01*
X151443362Y-120971463D01*
X151509498Y-120993999D01*
X151548540Y-121039056D01*
X151553005Y-121047820D01*
X151677944Y-121219786D01*
X151828267Y-121370109D01*
X152000233Y-121495048D01*
X152000235Y-121495049D01*
X152000238Y-121495051D01*
X152189642Y-121591557D01*
X152391811Y-121657246D01*
X152601767Y-121690500D01*
X152601768Y-121690500D01*
X152814340Y-121690500D01*
X152814341Y-121690500D01*
X153024297Y-121657246D01*
X153226466Y-121591557D01*
X153415870Y-121495051D01*
X153587846Y-121370104D01*
X153701383Y-121256566D01*
X153762702Y-121223084D01*
X153832394Y-121228068D01*
X153888328Y-121269939D01*
X153905243Y-121300917D01*
X153954256Y-121432328D01*
X153954260Y-121432335D01*
X154040506Y-121547544D01*
X154040509Y-121547547D01*
X154155718Y-121633793D01*
X154155725Y-121633797D01*
X154290571Y-121684091D01*
X154290570Y-121684091D01*
X154297498Y-121684835D01*
X154350181Y-121690500D01*
X156145926Y-121690499D01*
X156205537Y-121684091D01*
X156340385Y-121633796D01*
X156455600Y-121547546D01*
X156541850Y-121432331D01*
X156592145Y-121297483D01*
X156598554Y-121237873D01*
X156598554Y-121097070D01*
X161487000Y-121097070D01*
X161487000Y-121352929D01*
X161527026Y-121605640D01*
X161606088Y-121848972D01*
X161606089Y-121848975D01*
X161681755Y-121997476D01*
X161689329Y-122012341D01*
X161722250Y-122076950D01*
X161872632Y-122283935D01*
X161872636Y-122283940D01*
X162053559Y-122464863D01*
X162053564Y-122464867D01*
X162177967Y-122555250D01*
X162260553Y-122615252D01*
X162409580Y-122691185D01*
X162488524Y-122731410D01*
X162488527Y-122731411D01*
X162610193Y-122770942D01*
X162731861Y-122810474D01*
X162984570Y-122850500D01*
X162984571Y-122850500D01*
X163240429Y-122850500D01*
X163240430Y-122850500D01*
X163493139Y-122810474D01*
X163736475Y-122731410D01*
X163964447Y-122615252D01*
X164171442Y-122464862D01*
X164352362Y-122283942D01*
X164502752Y-122076947D01*
X164618910Y-121848975D01*
X164697974Y-121605639D01*
X164738000Y-121352930D01*
X164738000Y-121097070D01*
X164697974Y-120844361D01*
X164636850Y-120656239D01*
X164618911Y-120601027D01*
X164618910Y-120601024D01*
X164578685Y-120522080D01*
X164502752Y-120373053D01*
X164401516Y-120233713D01*
X164352367Y-120166064D01*
X164352363Y-120166059D01*
X164171440Y-119985136D01*
X164171435Y-119985132D01*
X163964450Y-119834750D01*
X163964449Y-119834749D01*
X163964447Y-119834748D01*
X163891410Y-119797533D01*
X163736475Y-119718589D01*
X163736472Y-119718588D01*
X163493140Y-119639526D01*
X163366784Y-119619513D01*
X163240430Y-119599500D01*
X162984570Y-119599500D01*
X162900333Y-119612842D01*
X162731859Y-119639526D01*
X162488527Y-119718588D01*
X162488524Y-119718589D01*
X162260549Y-119834750D01*
X162053564Y-119985132D01*
X162053559Y-119985136D01*
X161872636Y-120166059D01*
X161872632Y-120166064D01*
X161722250Y-120373049D01*
X161606089Y-120601024D01*
X161606088Y-120601027D01*
X161527026Y-120844359D01*
X161487000Y-121097070D01*
X156598554Y-121097070D01*
X156598553Y-120340000D01*
X156598553Y-119442129D01*
X156598552Y-119442123D01*
X156592145Y-119382516D01*
X156541851Y-119247671D01*
X156541847Y-119247664D01*
X156455601Y-119132455D01*
X156455598Y-119132452D01*
X156340389Y-119046206D01*
X156340382Y-119046202D01*
X156205536Y-118995908D01*
X156205537Y-118995908D01*
X156145937Y-118989501D01*
X156145935Y-118989500D01*
X156145927Y-118989500D01*
X156145918Y-118989500D01*
X154350183Y-118989500D01*
X154350177Y-118989501D01*
X154290570Y-118995908D01*
X154155725Y-119046202D01*
X154155718Y-119046206D01*
X154040509Y-119132452D01*
X154040506Y-119132455D01*
X153954260Y-119247664D01*
X153954257Y-119247669D01*
X153905243Y-119379083D01*
X153863371Y-119435016D01*
X153797907Y-119459433D01*
X153729634Y-119444581D01*
X153701380Y-119423430D01*
X153587840Y-119309890D01*
X153415874Y-119184951D01*
X153226468Y-119088444D01*
X153226467Y-119088443D01*
X153226466Y-119088443D01*
X153024297Y-119022754D01*
X153024295Y-119022753D01*
X153024294Y-119022753D01*
X152863011Y-118997208D01*
X152814341Y-118989500D01*
X152601767Y-118989500D01*
X152553096Y-118997208D01*
X152391814Y-119022753D01*
X152189639Y-119088444D01*
X152000233Y-119184951D01*
X151828267Y-119309890D01*
X151677944Y-119460213D01*
X151553003Y-119632182D01*
X151548538Y-119640946D01*
X151500563Y-119691742D01*
X151432742Y-119708536D01*
X151366607Y-119685998D01*
X151327570Y-119640946D01*
X151323104Y-119632182D01*
X151198163Y-119460213D01*
X151047840Y-119309890D01*
X150875874Y-119184951D01*
X150686468Y-119088444D01*
X150686467Y-119088443D01*
X150686466Y-119088443D01*
X150484297Y-119022754D01*
X150484295Y-119022753D01*
X150484294Y-119022753D01*
X150323011Y-118997208D01*
X150274341Y-118989500D01*
X150061767Y-118989500D01*
X150013096Y-118997208D01*
X149851814Y-119022753D01*
X149649639Y-119088444D01*
X149460233Y-119184951D01*
X149288267Y-119309890D01*
X149137944Y-119460213D01*
X149013003Y-119632182D01*
X149008538Y-119640946D01*
X148960563Y-119691742D01*
X148892742Y-119708536D01*
X148826607Y-119685998D01*
X148787570Y-119640946D01*
X148783104Y-119632182D01*
X148658163Y-119460213D01*
X148507840Y-119309890D01*
X148335874Y-119184951D01*
X148146468Y-119088444D01*
X148146467Y-119088443D01*
X148146466Y-119088443D01*
X147944297Y-119022754D01*
X147944295Y-119022753D01*
X147944294Y-119022753D01*
X147783011Y-118997208D01*
X147734341Y-118989500D01*
X147521767Y-118989500D01*
X147473096Y-118997208D01*
X147311814Y-119022753D01*
X147109639Y-119088444D01*
X146920233Y-119184951D01*
X146748267Y-119309890D01*
X146597944Y-119460213D01*
X146473003Y-119632182D01*
X146468538Y-119640946D01*
X146420563Y-119691742D01*
X146352742Y-119708536D01*
X146286607Y-119685998D01*
X146247570Y-119640946D01*
X146243104Y-119632182D01*
X146118163Y-119460213D01*
X145967840Y-119309890D01*
X145791929Y-119182085D01*
X145792905Y-119180740D01*
X145750888Y-119134295D01*
X145738554Y-119080382D01*
X145738554Y-118319041D01*
X145758239Y-118252002D01*
X145774872Y-118231360D01*
X145778635Y-118227598D01*
X145860369Y-118089393D01*
X145905165Y-117935204D01*
X145908000Y-117899181D01*
X145907999Y-117500820D01*
X145905165Y-117464796D01*
X145860369Y-117310607D01*
X145826369Y-117253117D01*
X145809188Y-117185398D01*
X145826369Y-117126882D01*
X145860369Y-117069393D01*
X145865521Y-117051662D01*
X145905164Y-116915208D01*
X145905164Y-116915206D01*
X145905165Y-116915204D01*
X145908000Y-116879181D01*
X145907999Y-116480820D01*
X145905165Y-116444796D01*
X145881647Y-116363846D01*
X145881846Y-116293978D01*
X145919788Y-116235308D01*
X145935612Y-116223723D01*
X146006156Y-116180212D01*
X146130212Y-116056156D01*
X146222314Y-115906834D01*
X146277499Y-115740297D01*
X146288000Y-115637509D01*
X146287999Y-115095806D01*
X146307683Y-115028768D01*
X146324313Y-115008131D01*
X152612776Y-108719669D01*
X152683965Y-108613127D01*
X152733001Y-108494744D01*
X152758000Y-108369069D01*
X152758000Y-106413322D01*
X156402501Y-106413322D01*
X156412644Y-106512607D01*
X156465952Y-106673481D01*
X156465957Y-106673492D01*
X156554924Y-106817728D01*
X156554927Y-106817732D01*
X156674767Y-106937572D01*
X156674771Y-106937575D01*
X156819007Y-107026542D01*
X156819018Y-107026547D01*
X156979893Y-107079855D01*
X157079183Y-107089999D01*
X157102500Y-107089998D01*
X157102500Y-106365000D01*
X156402501Y-106365000D01*
X156402501Y-106413322D01*
X152758000Y-106413322D01*
X152758000Y-105816677D01*
X156402500Y-105816677D01*
X156402500Y-105865000D01*
X157102500Y-105865000D01*
X157102500Y-105140000D01*
X157602500Y-105140000D01*
X157602500Y-107089999D01*
X157625808Y-107089999D01*
X157625822Y-107089998D01*
X157725107Y-107079855D01*
X157885981Y-107026547D01*
X157885988Y-107026544D01*
X157962902Y-106979102D01*
X158030294Y-106960661D01*
X158096958Y-106981583D01*
X158141728Y-107035224D01*
X158152000Y-107084640D01*
X158152000Y-110833064D01*
X158147077Y-110867657D01*
X158134836Y-110909792D01*
X158134834Y-110909802D01*
X158132000Y-110945811D01*
X158132000Y-111444169D01*
X158132001Y-111444191D01*
X158134835Y-111480203D01*
X158147076Y-111522336D01*
X158152000Y-111556932D01*
X158152000Y-113373064D01*
X158147077Y-113407657D01*
X158134836Y-113449792D01*
X158134834Y-113449802D01*
X158132000Y-113485811D01*
X158132000Y-113984169D01*
X158132001Y-113984191D01*
X158134835Y-114020205D01*
X158179629Y-114174388D01*
X158179631Y-114174393D01*
X158261363Y-114312595D01*
X158261369Y-114312603D01*
X158374896Y-114426130D01*
X158374900Y-114426133D01*
X158374902Y-114426135D01*
X158513107Y-114507869D01*
X158513114Y-114507871D01*
X158667291Y-114552664D01*
X158667294Y-114552664D01*
X158667296Y-114552665D01*
X158703319Y-114555500D01*
X159101680Y-114555499D01*
X159137704Y-114552665D01*
X159291893Y-114507869D01*
X159349382Y-114473869D01*
X159417102Y-114456688D01*
X159475617Y-114473869D01*
X159533107Y-114507869D01*
X159533110Y-114507869D01*
X159533112Y-114507871D01*
X159687291Y-114552664D01*
X159687294Y-114552664D01*
X159687296Y-114552665D01*
X159723319Y-114555500D01*
X160121680Y-114555499D01*
X160157704Y-114552665D01*
X160311893Y-114507869D01*
X160450098Y-114426135D01*
X160450103Y-114426130D01*
X160454415Y-114421819D01*
X160515738Y-114388334D01*
X160542096Y-114385500D01*
X160967882Y-114385500D01*
X161034921Y-114405185D01*
X161068599Y-114439591D01*
X161069585Y-114438875D01*
X161197390Y-114614786D01*
X161347713Y-114765109D01*
X161519679Y-114890048D01*
X161519681Y-114890049D01*
X161519684Y-114890051D01*
X161709088Y-114986557D01*
X161911257Y-115052246D01*
X162121213Y-115085500D01*
X162121214Y-115085500D01*
X162333786Y-115085500D01*
X162333787Y-115085500D01*
X162543743Y-115052246D01*
X162745912Y-114986557D01*
X162935316Y-114890051D01*
X163010890Y-114835144D01*
X163107286Y-114765109D01*
X163107288Y-114765106D01*
X163107292Y-114765104D01*
X163257604Y-114614792D01*
X163257606Y-114614788D01*
X163257609Y-114614786D01*
X163382548Y-114442820D01*
X163382547Y-114442820D01*
X163382551Y-114442816D01*
X163479057Y-114253412D01*
X163544746Y-114051243D01*
X163578000Y-113841287D01*
X163578000Y-113628713D01*
X163544746Y-113418757D01*
X163479057Y-113216588D01*
X163382551Y-113027184D01*
X163382549Y-113027181D01*
X163382548Y-113027179D01*
X163257609Y-112855213D01*
X163107286Y-112704890D01*
X162935320Y-112579951D01*
X162934615Y-112579591D01*
X162926554Y-112575485D01*
X162875759Y-112527512D01*
X162858963Y-112459692D01*
X162881499Y-112393556D01*
X162926554Y-112354515D01*
X162935316Y-112350051D01*
X163021181Y-112287667D01*
X163107286Y-112225109D01*
X163107288Y-112225106D01*
X163107292Y-112225104D01*
X163257604Y-112074792D01*
X163257606Y-112074788D01*
X163257609Y-112074786D01*
X163382548Y-111902820D01*
X163382547Y-111902820D01*
X163382551Y-111902816D01*
X163479057Y-111713412D01*
X163544746Y-111511243D01*
X163578000Y-111301287D01*
X163578000Y-111088713D01*
X163544746Y-110878757D01*
X163479057Y-110676588D01*
X163382551Y-110487184D01*
X163382549Y-110487181D01*
X163382548Y-110487179D01*
X163257609Y-110315213D01*
X163107286Y-110164890D01*
X162935317Y-110039949D01*
X162926004Y-110035204D01*
X162875207Y-109987230D01*
X162858412Y-109919409D01*
X162880949Y-109853274D01*
X162926007Y-109814232D01*
X162935055Y-109809622D01*
X162989216Y-109770270D01*
X162989217Y-109770270D01*
X162356908Y-109137962D01*
X162420493Y-109120925D01*
X162534507Y-109055099D01*
X162627599Y-108962007D01*
X162693425Y-108847993D01*
X162710462Y-108784409D01*
X163342770Y-109416717D01*
X163342770Y-109416716D01*
X163382122Y-109362554D01*
X163478595Y-109173217D01*
X163544257Y-108971130D01*
X163544257Y-108971127D01*
X163577500Y-108761246D01*
X163577500Y-108548753D01*
X163544257Y-108338872D01*
X163544257Y-108338869D01*
X163478595Y-108136782D01*
X163382124Y-107947449D01*
X163342770Y-107893282D01*
X163342769Y-107893282D01*
X162710462Y-108525590D01*
X162693425Y-108462007D01*
X162627599Y-108347993D01*
X162534507Y-108254901D01*
X162420493Y-108189075D01*
X162356909Y-108172037D01*
X163027127Y-107501818D01*
X163088450Y-107468333D01*
X163114807Y-107465499D01*
X163125372Y-107465499D01*
X163184983Y-107459091D01*
X163319831Y-107408796D01*
X163435046Y-107322546D01*
X163521296Y-107207331D01*
X163571591Y-107072483D01*
X163578000Y-107012873D01*
X163577999Y-105217128D01*
X163571591Y-105157517D01*
X163568657Y-105149651D01*
X163521297Y-105022671D01*
X163521293Y-105022664D01*
X163435047Y-104907455D01*
X163435044Y-104907452D01*
X163319835Y-104821206D01*
X163319828Y-104821202D01*
X163184982Y-104770908D01*
X163184983Y-104770908D01*
X163125383Y-104764501D01*
X163125381Y-104764500D01*
X163125373Y-104764500D01*
X163125364Y-104764500D01*
X161329629Y-104764500D01*
X161329623Y-104764501D01*
X161270016Y-104770908D01*
X161135171Y-104821202D01*
X161135164Y-104821206D01*
X161019955Y-104907452D01*
X161019952Y-104907455D01*
X160933706Y-105022664D01*
X160933702Y-105022671D01*
X160883408Y-105157517D01*
X160877001Y-105217116D01*
X160877001Y-105217123D01*
X160877000Y-105217135D01*
X160877000Y-105240500D01*
X160857315Y-105307539D01*
X160804511Y-105353294D01*
X160753000Y-105364500D01*
X159704374Y-105364500D01*
X159637335Y-105344815D01*
X159616693Y-105328181D01*
X159580544Y-105292032D01*
X159580540Y-105292029D01*
X159436205Y-105203001D01*
X159436199Y-105202998D01*
X159436197Y-105202997D01*
X159436194Y-105202996D01*
X159275209Y-105149651D01*
X159175846Y-105139500D01*
X158629162Y-105139500D01*
X158629144Y-105139501D01*
X158529792Y-105149650D01*
X158529789Y-105149651D01*
X158368805Y-105202996D01*
X158368794Y-105203001D01*
X158224459Y-105292029D01*
X158224453Y-105292033D01*
X158214824Y-105301663D01*
X158153500Y-105335146D01*
X158083808Y-105330159D01*
X158039465Y-105301660D01*
X158030232Y-105292427D01*
X158030228Y-105292424D01*
X157885992Y-105203457D01*
X157885981Y-105203452D01*
X157725106Y-105150144D01*
X157625822Y-105140000D01*
X157602500Y-105140000D01*
X157102500Y-105140000D01*
X157102500Y-105139999D01*
X157079193Y-105140000D01*
X157079174Y-105140001D01*
X156979892Y-105150144D01*
X156819018Y-105203452D01*
X156819007Y-105203457D01*
X156674771Y-105292424D01*
X156674767Y-105292427D01*
X156554927Y-105412267D01*
X156554924Y-105412271D01*
X156465957Y-105556507D01*
X156465952Y-105556518D01*
X156412644Y-105717393D01*
X156402500Y-105816677D01*
X152758000Y-105816677D01*
X152758000Y-100846256D01*
X152777685Y-100779217D01*
X152830489Y-100733462D01*
X152899647Y-100723518D01*
X152901398Y-100723783D01*
X153063764Y-100749500D01*
X153063769Y-100749500D01*
X153261236Y-100749500D01*
X153456263Y-100718610D01*
X153457762Y-100718123D01*
X153644061Y-100657591D01*
X153820001Y-100567944D01*
X153925455Y-100491328D01*
X153979746Y-100451884D01*
X153979748Y-100451881D01*
X153979752Y-100451879D01*
X154119379Y-100312252D01*
X154119381Y-100312248D01*
X154119384Y-100312246D01*
X154235441Y-100152505D01*
X154235443Y-100152502D01*
X154235444Y-100152501D01*
X154322017Y-99982593D01*
X154369990Y-99931800D01*
X154437811Y-99915005D01*
X154503946Y-99937542D01*
X154542982Y-99982593D01*
X154612404Y-100118838D01*
X154629558Y-100152505D01*
X154745615Y-100312246D01*
X154885253Y-100451884D01*
X155008658Y-100541541D01*
X155044999Y-100567944D01*
X155220939Y-100657591D01*
X155346137Y-100698270D01*
X155408736Y-100718610D01*
X155603764Y-100749500D01*
X155603769Y-100749500D01*
X155801236Y-100749500D01*
X155996263Y-100718610D01*
X155997762Y-100718123D01*
X156184061Y-100657591D01*
X156360001Y-100567944D01*
X156465455Y-100491328D01*
X156519746Y-100451884D01*
X156519748Y-100451881D01*
X156519752Y-100451879D01*
X156659379Y-100312252D01*
X156659381Y-100312248D01*
X156659384Y-100312246D01*
X156775443Y-100152502D01*
X156775579Y-100152236D01*
X156862297Y-99982043D01*
X156910268Y-99931250D01*
X156978089Y-99914455D01*
X157044224Y-99936992D01*
X157083263Y-99982045D01*
X157169981Y-100152236D01*
X157195957Y-100187988D01*
X157195957Y-100187989D01*
X157759537Y-99624409D01*
X157776575Y-99687993D01*
X157842401Y-99802007D01*
X157935493Y-99895099D01*
X158049507Y-99960925D01*
X158113090Y-99977962D01*
X157549509Y-100541541D01*
X157549510Y-100541542D01*
X157585255Y-100567512D01*
X157585268Y-100567520D01*
X157761126Y-100657126D01*
X157948853Y-100718123D01*
X158143803Y-100749000D01*
X158341197Y-100749000D01*
X158536146Y-100718123D01*
X158723873Y-100657126D01*
X158899741Y-100567516D01*
X158935488Y-100541543D01*
X158935488Y-100541541D01*
X158371910Y-99977962D01*
X158435493Y-99960925D01*
X158549507Y-99895099D01*
X158642599Y-99802007D01*
X158708425Y-99687993D01*
X158725462Y-99624409D01*
X159289041Y-100187988D01*
X159289043Y-100187988D01*
X159315016Y-100152241D01*
X159404626Y-99976373D01*
X159465623Y-99788646D01*
X159496500Y-99593697D01*
X159496500Y-99396302D01*
X159465623Y-99201353D01*
X159404626Y-99013626D01*
X159315020Y-98837768D01*
X159315012Y-98837755D01*
X159289042Y-98802010D01*
X159289041Y-98802009D01*
X158725462Y-99365589D01*
X158708425Y-99302007D01*
X158642599Y-99187993D01*
X158549507Y-99094901D01*
X158435493Y-99029075D01*
X158371909Y-99012037D01*
X158935489Y-98448457D01*
X158899736Y-98422481D01*
X158729545Y-98335763D01*
X158678750Y-98287789D01*
X158661955Y-98219968D01*
X158684493Y-98153833D01*
X158729542Y-98114798D01*
X158764335Y-98097070D01*
X161487000Y-98097070D01*
X161487000Y-98352929D01*
X161527026Y-98605640D01*
X161606088Y-98848972D01*
X161606089Y-98848975D01*
X161680494Y-98995000D01*
X161721533Y-99075544D01*
X161722250Y-99076950D01*
X161872632Y-99283935D01*
X161872636Y-99283940D01*
X162053559Y-99464863D01*
X162053564Y-99464867D01*
X162230885Y-99593697D01*
X162260553Y-99615252D01*
X162380005Y-99676116D01*
X162488524Y-99731410D01*
X162488527Y-99731411D01*
X162610193Y-99770942D01*
X162731861Y-99810474D01*
X162984570Y-99850500D01*
X162984571Y-99850500D01*
X163240429Y-99850500D01*
X163240430Y-99850500D01*
X163493139Y-99810474D01*
X163736475Y-99731410D01*
X163964447Y-99615252D01*
X164171442Y-99464862D01*
X164352362Y-99283942D01*
X164502752Y-99076947D01*
X164618910Y-98848975D01*
X164697974Y-98605639D01*
X164738000Y-98352930D01*
X164738000Y-98097070D01*
X164697974Y-97844361D01*
X164658442Y-97722693D01*
X164618911Y-97601027D01*
X164618910Y-97601024D01*
X164537906Y-97442047D01*
X164502752Y-97373053D01*
X164417879Y-97256235D01*
X164352367Y-97166064D01*
X164352363Y-97166059D01*
X164171440Y-96985136D01*
X164171435Y-96985132D01*
X163964450Y-96834750D01*
X163964449Y-96834749D01*
X163964447Y-96834748D01*
X163891410Y-96797533D01*
X163736475Y-96718589D01*
X163736472Y-96718588D01*
X163493140Y-96639526D01*
X163366784Y-96619513D01*
X163240430Y-96599500D01*
X162984570Y-96599500D01*
X162900333Y-96612842D01*
X162731859Y-96639526D01*
X162488527Y-96718588D01*
X162488524Y-96718589D01*
X162260549Y-96834750D01*
X162053564Y-96985132D01*
X162053559Y-96985136D01*
X161872636Y-97166059D01*
X161872632Y-97166064D01*
X161722250Y-97373049D01*
X161606089Y-97601024D01*
X161606088Y-97601027D01*
X161527026Y-97844359D01*
X161487000Y-98097070D01*
X158764335Y-98097070D01*
X158900001Y-98027944D01*
X159059752Y-97911879D01*
X159199379Y-97772252D01*
X159199381Y-97772248D01*
X159199384Y-97772246D01*
X159252392Y-97699285D01*
X159315444Y-97612501D01*
X159405091Y-97436561D01*
X159466110Y-97248763D01*
X159475508Y-97189429D01*
X159497000Y-97053736D01*
X159497000Y-96856263D01*
X159466110Y-96661236D01*
X159410171Y-96489075D01*
X159405091Y-96473439D01*
X159315444Y-96297499D01*
X159289659Y-96262009D01*
X159199384Y-96137753D01*
X159059746Y-95998115D01*
X158900004Y-95882058D01*
X158900003Y-95882057D01*
X158900001Y-95882056D01*
X158724061Y-95792409D01*
X158724058Y-95792408D01*
X158536263Y-95731389D01*
X158341236Y-95700500D01*
X158341231Y-95700500D01*
X158143769Y-95700500D01*
X158143764Y-95700500D01*
X157948736Y-95731389D01*
X157760941Y-95792408D01*
X157584995Y-95882058D01*
X157425253Y-95998115D01*
X157285615Y-96137753D01*
X157169558Y-96297495D01*
X157169556Y-96297499D01*
X157089305Y-96455000D01*
X157082985Y-96467403D01*
X157035010Y-96518199D01*
X156967189Y-96534994D01*
X156901054Y-96512456D01*
X156862015Y-96467403D01*
X156775444Y-96297499D01*
X156749659Y-96262009D01*
X156659384Y-96137753D01*
X156519746Y-95998115D01*
X156360004Y-95882058D01*
X156360003Y-95882057D01*
X156360001Y-95882056D01*
X156184061Y-95792409D01*
X156184058Y-95792408D01*
X155996263Y-95731389D01*
X155801236Y-95700500D01*
X155801231Y-95700500D01*
X155603769Y-95700500D01*
X155603764Y-95700500D01*
X155408736Y-95731389D01*
X155220941Y-95792408D01*
X155044995Y-95882058D01*
X154885253Y-95998115D01*
X154745615Y-96137753D01*
X154629558Y-96297495D01*
X154629556Y-96297499D01*
X154549305Y-96455000D01*
X154542985Y-96467403D01*
X154495010Y-96518199D01*
X154427189Y-96534994D01*
X154361054Y-96512456D01*
X154322015Y-96467403D01*
X154235444Y-96297499D01*
X154209659Y-96262009D01*
X154119384Y-96137753D01*
X153979746Y-95998115D01*
X153820004Y-95882058D01*
X153820003Y-95882057D01*
X153820001Y-95882056D01*
X153644061Y-95792409D01*
X153644058Y-95792408D01*
X153456263Y-95731389D01*
X153261236Y-95700500D01*
X153261231Y-95700500D01*
X153063769Y-95700500D01*
X153063764Y-95700500D01*
X152868736Y-95731389D01*
X152680941Y-95792408D01*
X152504995Y-95882058D01*
X152345253Y-95998115D01*
X152205615Y-96137753D01*
X152089558Y-96297495D01*
X152089556Y-96297499D01*
X152002703Y-96467954D01*
X151954730Y-96518749D01*
X151886909Y-96535544D01*
X151820774Y-96513006D01*
X151781735Y-96467953D01*
X151695020Y-96297768D01*
X151695012Y-96297755D01*
X151669042Y-96262010D01*
X151669041Y-96262009D01*
X151105462Y-96825590D01*
X151088425Y-96762007D01*
X151022599Y-96647993D01*
X150929507Y-96554901D01*
X150815493Y-96489075D01*
X150751909Y-96472037D01*
X151315489Y-95908457D01*
X151279739Y-95882483D01*
X151103873Y-95792873D01*
X150916146Y-95731876D01*
X150721197Y-95701000D01*
X150523803Y-95701000D01*
X150328853Y-95731876D01*
X150141126Y-95792873D01*
X149965262Y-95882482D01*
X149965260Y-95882483D01*
X149929510Y-95908456D01*
X149929510Y-95908457D01*
X150493091Y-96472037D01*
X150429507Y-96489075D01*
X150315493Y-96554901D01*
X150222401Y-96647993D01*
X150156575Y-96762007D01*
X150139537Y-96825590D01*
X149575957Y-96262010D01*
X149575956Y-96262010D01*
X149549983Y-96297760D01*
X149549979Y-96297767D01*
X149463263Y-96467954D01*
X149415288Y-96518749D01*
X149347467Y-96535544D01*
X149281333Y-96513006D01*
X149242298Y-96467957D01*
X149155444Y-96297499D01*
X149155442Y-96297496D01*
X149155441Y-96297494D01*
X149039384Y-96137753D01*
X148899746Y-95998115D01*
X148740004Y-95882058D01*
X148740003Y-95882057D01*
X148740001Y-95882056D01*
X148564061Y-95792409D01*
X148564058Y-95792408D01*
X148376263Y-95731389D01*
X148181236Y-95700500D01*
X148181231Y-95700500D01*
X147983769Y-95700500D01*
X147983764Y-95700500D01*
X147788736Y-95731389D01*
X147600941Y-95792408D01*
X147424995Y-95882058D01*
X147265253Y-95998115D01*
X147125615Y-96137753D01*
X147009558Y-96297495D01*
X147009556Y-96297499D01*
X146922703Y-96467954D01*
X146874730Y-96518749D01*
X146806909Y-96535544D01*
X146740774Y-96513006D01*
X146701735Y-96467953D01*
X146615020Y-96297768D01*
X146615012Y-96297755D01*
X146589042Y-96262010D01*
X146589041Y-96262009D01*
X146025462Y-96825589D01*
X146008425Y-96762007D01*
X145942599Y-96647993D01*
X145849507Y-96554901D01*
X145735493Y-96489075D01*
X145671909Y-96472037D01*
X146235489Y-95908457D01*
X146199739Y-95882483D01*
X146023873Y-95792873D01*
X145836146Y-95731876D01*
X145641197Y-95701000D01*
X145443803Y-95701000D01*
X145248853Y-95731876D01*
X145061126Y-95792873D01*
X144885262Y-95882482D01*
X144885260Y-95882483D01*
X144849510Y-95908456D01*
X144849510Y-95908457D01*
X145413091Y-96472037D01*
X145349507Y-96489075D01*
X145235493Y-96554901D01*
X145142401Y-96647993D01*
X145076575Y-96762007D01*
X145059537Y-96825590D01*
X144495957Y-96262010D01*
X144495956Y-96262010D01*
X144469983Y-96297760D01*
X144469979Y-96297767D01*
X144383263Y-96467954D01*
X144335288Y-96518749D01*
X144267467Y-96535544D01*
X144201333Y-96513006D01*
X144162298Y-96467957D01*
X144075444Y-96297499D01*
X144075442Y-96297496D01*
X144075441Y-96297494D01*
X143959384Y-96137753D01*
X143819746Y-95998115D01*
X143660004Y-95882058D01*
X143660003Y-95882057D01*
X143660001Y-95882056D01*
X143484061Y-95792409D01*
X143484058Y-95792408D01*
X143296263Y-95731389D01*
X143101236Y-95700500D01*
X143101231Y-95700500D01*
X142903769Y-95700500D01*
X142903764Y-95700500D01*
X142708736Y-95731389D01*
X142520941Y-95792408D01*
X142344995Y-95882058D01*
X142185253Y-95998115D01*
X142045615Y-96137753D01*
X141929558Y-96297495D01*
X141929556Y-96297499D01*
X141849305Y-96455000D01*
X141842985Y-96467403D01*
X141795010Y-96518199D01*
X141727189Y-96534994D01*
X141661054Y-96512456D01*
X141622015Y-96467403D01*
X141535444Y-96297499D01*
X141509659Y-96262009D01*
X141419384Y-96137753D01*
X141279746Y-95998115D01*
X141120004Y-95882058D01*
X141120003Y-95882057D01*
X141120001Y-95882056D01*
X140944061Y-95792409D01*
X140944058Y-95792408D01*
X140756263Y-95731389D01*
X140561236Y-95700500D01*
X140561231Y-95700500D01*
X140363769Y-95700500D01*
X140363764Y-95700500D01*
X140168736Y-95731389D01*
X139980941Y-95792408D01*
X139804995Y-95882058D01*
X139645253Y-95998115D01*
X139505615Y-96137753D01*
X139389558Y-96297495D01*
X139389556Y-96297499D01*
X139309305Y-96455000D01*
X139302985Y-96467403D01*
X139255010Y-96518199D01*
X139187189Y-96534994D01*
X139121054Y-96512456D01*
X139082015Y-96467403D01*
X138995444Y-96297499D01*
X138969659Y-96262009D01*
X138879384Y-96137753D01*
X138739746Y-95998115D01*
X138580004Y-95882058D01*
X138580003Y-95882057D01*
X138580001Y-95882056D01*
X138404061Y-95792409D01*
X138404058Y-95792408D01*
X138216263Y-95731389D01*
X138021236Y-95700500D01*
X138021231Y-95700500D01*
X137823769Y-95700500D01*
X137823764Y-95700500D01*
X137628736Y-95731389D01*
X137440941Y-95792408D01*
X137264995Y-95882058D01*
X137105253Y-95998115D01*
X136965615Y-96137753D01*
X136849558Y-96297495D01*
X136849556Y-96297499D01*
X136769305Y-96455000D01*
X136762985Y-96467403D01*
X136715010Y-96518199D01*
X136647189Y-96534994D01*
X136581054Y-96512456D01*
X136542015Y-96467403D01*
X136455444Y-96297499D01*
X136429659Y-96262009D01*
X136339384Y-96137753D01*
X136199746Y-95998115D01*
X136040004Y-95882058D01*
X136040003Y-95882057D01*
X136040001Y-95882056D01*
X135864061Y-95792409D01*
X135864058Y-95792408D01*
X135676263Y-95731389D01*
X135481236Y-95700500D01*
X135481231Y-95700500D01*
X135283769Y-95700500D01*
X135283764Y-95700500D01*
X135088736Y-95731389D01*
X134900941Y-95792408D01*
X134724995Y-95882058D01*
X134565253Y-95998115D01*
X134425615Y-96137753D01*
X134309558Y-96297495D01*
X134309556Y-96297499D01*
X134222703Y-96467954D01*
X134174730Y-96518749D01*
X134106909Y-96535544D01*
X134040774Y-96513006D01*
X134001735Y-96467953D01*
X133915020Y-96297768D01*
X133915012Y-96297755D01*
X133889042Y-96262010D01*
X133889041Y-96262009D01*
X133325462Y-96825589D01*
X133308425Y-96762007D01*
X133242599Y-96647993D01*
X133149507Y-96554901D01*
X133035493Y-96489075D01*
X132971909Y-96472037D01*
X133535489Y-95908457D01*
X133499739Y-95882483D01*
X133323873Y-95792873D01*
X133136146Y-95731876D01*
X132941197Y-95701000D01*
X132743803Y-95701000D01*
X132548853Y-95731876D01*
X132361126Y-95792873D01*
X132185262Y-95882482D01*
X132185260Y-95882483D01*
X132149510Y-95908456D01*
X132149510Y-95908457D01*
X132713091Y-96472037D01*
X132649507Y-96489075D01*
X132535493Y-96554901D01*
X132442401Y-96647993D01*
X132376575Y-96762007D01*
X132359537Y-96825590D01*
X131795957Y-96262010D01*
X131795956Y-96262010D01*
X131769983Y-96297760D01*
X131769979Y-96297767D01*
X131683263Y-96467954D01*
X131635288Y-96518749D01*
X131567467Y-96535544D01*
X131501333Y-96513006D01*
X131462298Y-96467957D01*
X131375444Y-96297499D01*
X131375442Y-96297496D01*
X131375441Y-96297494D01*
X131259384Y-96137753D01*
X131119746Y-95998115D01*
X130960004Y-95882058D01*
X130960003Y-95882057D01*
X130960001Y-95882056D01*
X130784061Y-95792409D01*
X130784058Y-95792408D01*
X130596263Y-95731389D01*
X130401236Y-95700500D01*
X130401231Y-95700500D01*
X130203769Y-95700500D01*
X130203764Y-95700500D01*
X130008736Y-95731389D01*
X129820941Y-95792408D01*
X129644995Y-95882058D01*
X129485253Y-95998115D01*
X129345615Y-96137753D01*
X129229558Y-96297495D01*
X129229556Y-96297499D01*
X129149305Y-96455000D01*
X129142985Y-96467403D01*
X129095010Y-96518199D01*
X129027189Y-96534994D01*
X128961054Y-96512456D01*
X128922015Y-96467403D01*
X128835444Y-96297499D01*
X128809659Y-96262009D01*
X128719384Y-96137753D01*
X128579746Y-95998115D01*
X128420004Y-95882058D01*
X128420003Y-95882057D01*
X128420001Y-95882056D01*
X128244061Y-95792409D01*
X128244058Y-95792408D01*
X128056263Y-95731389D01*
X127861236Y-95700500D01*
X127861231Y-95700500D01*
X127663769Y-95700500D01*
X127663764Y-95700500D01*
X127468736Y-95731389D01*
X127280941Y-95792408D01*
X127104995Y-95882058D01*
X126945253Y-95998115D01*
X126805615Y-96137753D01*
X126689558Y-96297495D01*
X126689556Y-96297499D01*
X126602703Y-96467954D01*
X126554730Y-96518749D01*
X126486909Y-96535544D01*
X126420774Y-96513006D01*
X126381735Y-96467953D01*
X126295020Y-96297768D01*
X126295012Y-96297755D01*
X126269042Y-96262010D01*
X126269041Y-96262009D01*
X125705462Y-96825589D01*
X125688425Y-96762007D01*
X125622599Y-96647993D01*
X125529507Y-96554901D01*
X125415493Y-96489075D01*
X125351909Y-96472037D01*
X125915489Y-95908457D01*
X125879739Y-95882483D01*
X125703873Y-95792873D01*
X125516146Y-95731876D01*
X125321197Y-95701000D01*
X125123803Y-95701000D01*
X124928853Y-95731876D01*
X124741126Y-95792873D01*
X124565262Y-95882482D01*
X124565260Y-95882483D01*
X124529510Y-95908456D01*
X124529510Y-95908457D01*
X125093091Y-96472037D01*
X125029507Y-96489075D01*
X124915493Y-96554901D01*
X124822401Y-96647993D01*
X124756575Y-96762007D01*
X124739537Y-96825590D01*
X124175957Y-96262010D01*
X124175956Y-96262010D01*
X124149983Y-96297760D01*
X124149979Y-96297767D01*
X124063263Y-96467954D01*
X124015288Y-96518749D01*
X123947467Y-96535544D01*
X123881333Y-96513006D01*
X123842298Y-96467957D01*
X123755444Y-96297499D01*
X123755442Y-96297496D01*
X123755441Y-96297494D01*
X123639384Y-96137753D01*
X123499746Y-95998115D01*
X123340004Y-95882058D01*
X123340003Y-95882057D01*
X123340001Y-95882056D01*
X123164061Y-95792409D01*
X123164058Y-95792408D01*
X122976263Y-95731389D01*
X122781236Y-95700500D01*
X122781231Y-95700500D01*
X122583769Y-95700500D01*
X122583764Y-95700500D01*
X122388736Y-95731389D01*
X122200941Y-95792408D01*
X122024995Y-95882058D01*
X121865253Y-95998115D01*
X121725615Y-96137753D01*
X121609558Y-96297495D01*
X121609556Y-96297499D01*
X121529305Y-96455000D01*
X121522985Y-96467403D01*
X121475010Y-96518199D01*
X121407189Y-96534994D01*
X121341054Y-96512456D01*
X121302015Y-96467403D01*
X121215444Y-96297499D01*
X121189659Y-96262009D01*
X121099384Y-96137753D01*
X120959746Y-95998115D01*
X120800004Y-95882058D01*
X120800003Y-95882057D01*
X120800001Y-95882056D01*
X120624061Y-95792409D01*
X120624058Y-95792408D01*
X120436263Y-95731389D01*
X120241236Y-95700500D01*
X120241231Y-95700500D01*
X120043769Y-95700500D01*
X120043764Y-95700500D01*
X119848736Y-95731389D01*
X119660941Y-95792408D01*
X119484995Y-95882058D01*
X119325253Y-95998115D01*
X119185615Y-96137753D01*
X119069558Y-96297495D01*
X119069556Y-96297499D01*
X118989305Y-96455000D01*
X118982985Y-96467403D01*
X118935010Y-96518199D01*
X118867189Y-96534994D01*
X118801054Y-96512456D01*
X118762015Y-96467403D01*
X118675444Y-96297499D01*
X118649659Y-96262009D01*
X118559384Y-96137753D01*
X118419746Y-95998115D01*
X118260004Y-95882058D01*
X118260003Y-95882057D01*
X118260001Y-95882056D01*
X118084061Y-95792409D01*
X118084058Y-95792408D01*
X117896263Y-95731389D01*
X117701236Y-95700500D01*
X117701231Y-95700500D01*
X117503769Y-95700500D01*
X117503764Y-95700500D01*
X117308736Y-95731389D01*
X117120941Y-95792408D01*
X116944995Y-95882058D01*
X116785253Y-95998115D01*
X116645615Y-96137753D01*
X116529558Y-96297495D01*
X116529556Y-96297499D01*
X116442703Y-96467954D01*
X116394730Y-96518749D01*
X116326909Y-96535544D01*
X116260774Y-96513006D01*
X116221735Y-96467953D01*
X116135020Y-96297768D01*
X116135012Y-96297755D01*
X116109042Y-96262010D01*
X116109041Y-96262009D01*
X115545462Y-96825589D01*
X115528425Y-96762007D01*
X115462599Y-96647993D01*
X115369507Y-96554901D01*
X115255493Y-96489075D01*
X115191909Y-96472037D01*
X115755489Y-95908457D01*
X115719739Y-95882483D01*
X115543873Y-95792873D01*
X115356146Y-95731876D01*
X115161197Y-95701000D01*
X114963803Y-95701000D01*
X114768853Y-95731876D01*
X114581126Y-95792873D01*
X114405262Y-95882482D01*
X114405260Y-95882483D01*
X114369510Y-95908456D01*
X114369510Y-95908457D01*
X114933091Y-96472037D01*
X114869507Y-96489075D01*
X114755493Y-96554901D01*
X114662401Y-96647993D01*
X114596575Y-96762007D01*
X114579537Y-96825590D01*
X114015957Y-96262010D01*
X114015956Y-96262010D01*
X113989983Y-96297760D01*
X113989979Y-96297767D01*
X113903263Y-96467954D01*
X113855288Y-96518749D01*
X113787467Y-96535544D01*
X113721333Y-96513006D01*
X113682298Y-96467957D01*
X113595444Y-96297499D01*
X113595442Y-96297496D01*
X113595441Y-96297494D01*
X113479384Y-96137753D01*
X113339746Y-95998115D01*
X113180004Y-95882058D01*
X113180003Y-95882057D01*
X113180001Y-95882056D01*
X113004061Y-95792409D01*
X113004058Y-95792408D01*
X112816263Y-95731389D01*
X112621236Y-95700500D01*
X112621231Y-95700500D01*
X112423769Y-95700500D01*
X112423764Y-95700500D01*
X112228736Y-95731389D01*
X112040941Y-95792408D01*
X111864995Y-95882058D01*
X111705253Y-95998115D01*
X111565615Y-96137753D01*
X111449558Y-96297495D01*
X111449556Y-96297499D01*
X111369305Y-96455000D01*
X111362985Y-96467403D01*
X111315010Y-96518199D01*
X111247189Y-96534994D01*
X111181054Y-96512456D01*
X111142015Y-96467403D01*
X111055444Y-96297499D01*
X111029659Y-96262009D01*
X110939384Y-96137753D01*
X110799746Y-95998115D01*
X110640004Y-95882058D01*
X110640003Y-95882057D01*
X110640001Y-95882056D01*
X110464061Y-95792409D01*
X110464058Y-95792408D01*
X110276263Y-95731389D01*
X110081236Y-95700500D01*
X110081231Y-95700500D01*
X109883769Y-95700500D01*
X109883764Y-95700500D01*
X109688736Y-95731389D01*
X109500941Y-95792408D01*
X109324995Y-95882058D01*
X109165253Y-95998115D01*
X109025615Y-96137753D01*
X108909558Y-96297495D01*
X108819908Y-96473441D01*
X108758889Y-96661236D01*
X108728000Y-96856263D01*
X108728000Y-97053734D01*
X108731023Y-97072820D01*
X108722069Y-97142114D01*
X108696231Y-97179900D01*
X106748402Y-99127729D01*
X106687079Y-99161214D01*
X106617387Y-99156230D01*
X106561454Y-99114358D01*
X106537037Y-99048894D01*
X106550237Y-98983752D01*
X106618908Y-98848980D01*
X106618911Y-98848972D01*
X106669549Y-98693123D01*
X106697974Y-98605639D01*
X106738000Y-98352930D01*
X106738000Y-98097070D01*
X106697974Y-97844361D01*
X106658442Y-97722693D01*
X106618911Y-97601027D01*
X106618910Y-97601024D01*
X106537906Y-97442047D01*
X106502752Y-97373053D01*
X106417879Y-97256235D01*
X106352367Y-97166064D01*
X106352363Y-97166059D01*
X106171440Y-96985136D01*
X106171435Y-96985132D01*
X105964450Y-96834750D01*
X105964449Y-96834749D01*
X105964447Y-96834748D01*
X105891410Y-96797533D01*
X105736475Y-96718589D01*
X105736472Y-96718588D01*
X105493140Y-96639526D01*
X105366784Y-96619513D01*
X105240430Y-96599500D01*
X104984570Y-96599500D01*
X104900333Y-96612842D01*
X104731859Y-96639526D01*
X104488527Y-96718588D01*
X104488524Y-96718589D01*
X104260549Y-96834750D01*
X104053564Y-96985132D01*
X104053559Y-96985136D01*
X103872636Y-97166059D01*
X103872632Y-97166064D01*
X103722250Y-97373049D01*
X103606089Y-97601024D01*
X103606088Y-97601027D01*
X103527026Y-97844359D01*
X103487000Y-98097070D01*
X102091680Y-98097070D01*
X102091680Y-97707429D01*
X102091906Y-97699941D01*
X102095049Y-97647988D01*
X102109453Y-97409883D01*
X102111258Y-97395023D01*
X102162964Y-97112879D01*
X102166543Y-97098361D01*
X102251883Y-96824497D01*
X102257184Y-96810521D01*
X102374914Y-96548939D01*
X102381861Y-96535701D01*
X102530266Y-96290212D01*
X102538753Y-96277916D01*
X102715666Y-96052103D01*
X102725581Y-96040912D01*
X102928412Y-95838081D01*
X102939603Y-95828166D01*
X103165419Y-95651252D01*
X103177712Y-95642766D01*
X103423201Y-95494361D01*
X103436442Y-95487412D01*
X103698021Y-95369684D01*
X103711997Y-95364383D01*
X103985861Y-95279043D01*
X104000379Y-95275464D01*
X104282527Y-95223757D01*
X104297383Y-95221953D01*
X104587447Y-95204405D01*
X104594935Y-95204180D01*
X104657075Y-95204180D01*
X163525287Y-95204180D01*
X163525291Y-95204181D01*
G37*
%TD.AperFunction*%
%TD*%
M02*
