%TF.GenerationSoftware,KiCad,Pcbnew,9.0.7*%
%TF.CreationDate,2026-04-13T17:13:09+02:00*%
%TF.ProjectId,PCB_Khess_Cash_Drawer,5043425f-4b68-4657-9373-5f436173685f,rev?*%
%TF.SameCoordinates,Original*%
%TF.FileFunction,Copper,L2,Bot*%
%TF.FilePolarity,Positive*%
%FSLAX46Y46*%
G04 Gerber Fmt 4.6, Leading zero omitted, Abs format (unit mm)*
G04 Created by KiCad (PCBNEW 9.0.7) date 2026-04-13 17:13:09*
%MOMM*%
%LPD*%
G01*
G04 APERTURE LIST*
G04 Aperture macros list*
%AMRoundRect*
0 Rectangle with rounded corners*
0 $1 Rounding radius*
0 $2 $3 $4 $5 $6 $7 $8 $9 X,Y pos of 4 corners*
0 Add a 4 corners polygon primitive as box body*
4,1,4,$2,$3,$4,$5,$6,$7,$8,$9,$2,$3,0*
0 Add four circle primitives for the rounded corners*
1,1,$1+$1,$2,$3*
1,1,$1+$1,$4,$5*
1,1,$1+$1,$6,$7*
1,1,$1+$1,$8,$9*
0 Add four rect primitives between the rounded corners*
20,1,$1+$1,$2,$3,$4,$5,0*
20,1,$1+$1,$4,$5,$6,$7,0*
20,1,$1+$1,$6,$7,$8,$9,0*
20,1,$1+$1,$8,$9,$2,$3,0*%
G04 Aperture macros list end*
%ADD10C,0.300000*%
%TA.AperFunction,NonConductor*%
%ADD11C,0.300000*%
%TD*%
%TA.AperFunction,ComponentPad*%
%ADD12C,5.400000*%
%TD*%
%TA.AperFunction,ComponentPad*%
%ADD13R,1.700000X1.700000*%
%TD*%
%TA.AperFunction,ComponentPad*%
%ADD14C,1.700000*%
%TD*%
%TA.AperFunction,ComponentPad*%
%ADD15RoundRect,0.250000X-1.050000X1.050000X-1.050000X-1.050000X1.050000X-1.050000X1.050000X1.050000X0*%
%TD*%
%TA.AperFunction,ComponentPad*%
%ADD16C,2.600000*%
%TD*%
%TA.AperFunction,ComponentPad*%
%ADD17C,1.650000*%
%TD*%
%TA.AperFunction,ComponentPad*%
%ADD18R,2.250000X2.250000*%
%TD*%
%TA.AperFunction,ComponentPad*%
%ADD19C,2.250000*%
%TD*%
%TA.AperFunction,ComponentPad*%
%ADD20R,1.700000X2.500000*%
%TD*%
%TA.AperFunction,ComponentPad*%
%ADD21O,1.700000X2.500000*%
%TD*%
%TA.AperFunction,ComponentPad*%
%ADD22C,2.400000*%
%TD*%
%TA.AperFunction,ComponentPad*%
%ADD23C,3.000000*%
%TD*%
%TA.AperFunction,ComponentPad*%
%ADD24RoundRect,0.250000X-0.510000X-0.510000X0.510000X-0.510000X0.510000X0.510000X-0.510000X0.510000X0*%
%TD*%
%TA.AperFunction,ComponentPad*%
%ADD25C,1.520000*%
%TD*%
%TA.AperFunction,ViaPad*%
%ADD26C,0.600000*%
%TD*%
%TA.AperFunction,ViaPad*%
%ADD27C,1.200000*%
%TD*%
%TA.AperFunction,Conductor*%
%ADD28C,0.500000*%
%TD*%
G04 APERTURE END LIST*
D10*
D11*
X85645489Y-85515114D02*
X85431203Y-85586542D01*
X85431203Y-85586542D02*
X85359774Y-85657971D01*
X85359774Y-85657971D02*
X85288346Y-85800828D01*
X85288346Y-85800828D02*
X85288346Y-86015114D01*
X85288346Y-86015114D02*
X85359774Y-86157971D01*
X85359774Y-86157971D02*
X85431203Y-86229400D01*
X85431203Y-86229400D02*
X85574060Y-86300828D01*
X85574060Y-86300828D02*
X86145489Y-86300828D01*
X86145489Y-86300828D02*
X86145489Y-84800828D01*
X86145489Y-84800828D02*
X85645489Y-84800828D01*
X85645489Y-84800828D02*
X85502632Y-84872257D01*
X85502632Y-84872257D02*
X85431203Y-84943685D01*
X85431203Y-84943685D02*
X85359774Y-85086542D01*
X85359774Y-85086542D02*
X85359774Y-85229400D01*
X85359774Y-85229400D02*
X85431203Y-85372257D01*
X85431203Y-85372257D02*
X85502632Y-85443685D01*
X85502632Y-85443685D02*
X85645489Y-85515114D01*
X85645489Y-85515114D02*
X86145489Y-85515114D01*
D12*
%TO.P,H2,1,1*%
%TO.N,GND*%
X80000000Y-86100000D03*
%TD*%
D13*
%TO.P,J2,1,Pin_1*%
%TO.N,+5V*%
X129900000Y-88700000D03*
D14*
%TO.P,J2,2,Pin_2*%
%TO.N,GPIO_CONTROL*%
X127360000Y-88700000D03*
%TO.P,J2,3,Pin_3*%
%TO.N,GND*%
X124820000Y-88700000D03*
%TD*%
D15*
%TO.P,J1,1,Pin_1*%
%TO.N,AC_LINE*%
X81625000Y-49025000D03*
D16*
%TO.P,J1,2,Pin_2*%
%TO.N,AC_NEUTRAL*%
X81625000Y-54025000D03*
%TD*%
D17*
%TO.P,RV1,1*%
%TO.N,AC_LINE_FUSE*%
X111250000Y-55950000D03*
%TO.P,RV1,2*%
%TO.N,AC_NEUTRAL*%
X118750000Y-59750000D03*
%TD*%
D12*
%TO.P,H3,1,1*%
%TO.N,GND*%
X187000000Y-40000000D03*
%TD*%
D18*
%TO.P,PS2,1,AC(N)*%
%TO.N,AC_NEUTRAL*%
X140800000Y-59750000D03*
D19*
%TO.P,PS2,2,AC(L)*%
%TO.N,AC_LINE_FUSE_R*%
X140800000Y-49000000D03*
%TO.P,PS2,4,+VO*%
%TO.N,+12V*%
X179300000Y-51750000D03*
%TO.P,PS2,5,-VO*%
%TO.N,GND*%
X179300000Y-59750000D03*
%TD*%
D12*
%TO.P,H1,1,1*%
%TO.N,GND*%
X80000000Y-40000000D03*
%TD*%
D20*
%TO.P,U1,1,IN*%
%TO.N,Net-(U1-IN)*%
X180050000Y-68925000D03*
D21*
%TO.P,U1,2,GND*%
%TO.N,GND*%
X182590000Y-68925000D03*
%TO.P,U1,3,OUT*%
%TO.N,+5V*%
X185130000Y-68925000D03*
%TD*%
D22*
%TO.P,R3,1*%
%TO.N,AC_LINE_FUSE*%
X114900000Y-49000000D03*
%TO.P,R3,2*%
%TO.N,AC_LINE_FUSE_R*%
X135220000Y-49000000D03*
%TD*%
D23*
%TO.P,F1,1*%
%TO.N,AC_LINE*%
X88750000Y-49000000D03*
%TO.P,F1,2*%
%TO.N,AC_LINE_FUSE*%
X111250000Y-49000000D03*
%TD*%
D24*
%TO.P,J3,1,Pin_1*%
%TO.N,unconnected-(J3-Pin_1-Pad1)*%
X110290000Y-75235000D03*
D25*
%TO.P,J3,2,Pin_2*%
%TO.N,CASH_DRAWER_DRIVE*%
X111560000Y-77775000D03*
%TO.P,J3,3,Pin_3*%
%TO.N,unconnected-(J3-Pin_3-Pad3)*%
X112830000Y-75235000D03*
%TO.P,J3,4,Pin_4*%
%TO.N,+12V*%
X114100000Y-77775000D03*
%TO.P,J3,5,Pin_5*%
%TO.N,unconnected-(J3-Pin_5-Pad5)*%
X115370000Y-75235000D03*
%TO.P,J3,6,Pin_6*%
%TO.N,unconnected-(J3-Pin_6-Pad6)*%
X116640000Y-77775000D03*
%TD*%
D12*
%TO.P,H4,1,1*%
%TO.N,GND*%
X187000000Y-86100000D03*
%TD*%
D26*
%TO.N,GND*%
X87500000Y-35000000D03*
X138500000Y-83000000D03*
X148500000Y-88000000D03*
X137500000Y-35000000D03*
X178500000Y-48000000D03*
X101500000Y-35000000D03*
X125500000Y-35000000D03*
X178500000Y-73000000D03*
X183500000Y-48000000D03*
X173500000Y-83000000D03*
X158500000Y-68000000D03*
X119500000Y-35000000D03*
X75500000Y-49000000D03*
X149500000Y-35000000D03*
X183500000Y-38000000D03*
X191500000Y-85000000D03*
X83500000Y-91000000D03*
X133500000Y-73000000D03*
X175500000Y-35000000D03*
X128500000Y-78000000D03*
X99500000Y-35000000D03*
X153500000Y-38000000D03*
X173500000Y-43000000D03*
X173500000Y-78000000D03*
X191500000Y-65000000D03*
X118500000Y-63000000D03*
X139500000Y-35000000D03*
X119500000Y-91000000D03*
X105500000Y-91000000D03*
X93500000Y-35000000D03*
X98500000Y-78000000D03*
X148500000Y-83000000D03*
X168500000Y-88000000D03*
X148500000Y-58000000D03*
X168500000Y-48000000D03*
X87500000Y-91000000D03*
X191500000Y-61000000D03*
X177500000Y-91000000D03*
X75500000Y-65000000D03*
X98500000Y-88000000D03*
X103500000Y-38000000D03*
X88500000Y-43000000D03*
X127500000Y-35000000D03*
X123500000Y-35000000D03*
X113500000Y-83000000D03*
X113500000Y-73000000D03*
X163500000Y-68000000D03*
X83500000Y-88000000D03*
X85500000Y-91000000D03*
X93500000Y-88000000D03*
X175500000Y-91000000D03*
X163500000Y-83000000D03*
X173500000Y-73000000D03*
X188500000Y-63000000D03*
X123500000Y-73000000D03*
X76500000Y-37000000D03*
X103500000Y-83000000D03*
X171500000Y-91000000D03*
X128500000Y-63000000D03*
X85500000Y-35000000D03*
X103500000Y-73000000D03*
X121500000Y-35000000D03*
X183500000Y-78000000D03*
X78500000Y-73000000D03*
X163500000Y-53000000D03*
X95500000Y-35000000D03*
X75500000Y-67000000D03*
X133500000Y-68000000D03*
X88500000Y-78000000D03*
X77500000Y-90000000D03*
X147500000Y-35000000D03*
X75500000Y-55000000D03*
X191500000Y-69000000D03*
X113500000Y-43000000D03*
X168500000Y-58000000D03*
X191500000Y-53000000D03*
X133500000Y-35000000D03*
X183500000Y-53000000D03*
X188500000Y-83000000D03*
X163500000Y-63000000D03*
X75500000Y-61000000D03*
X108500000Y-88000000D03*
X178500000Y-78000000D03*
X183500000Y-83000000D03*
X185500000Y-35000000D03*
X148500000Y-48000000D03*
X127500000Y-91000000D03*
X191500000Y-41000000D03*
X133500000Y-91000000D03*
X98500000Y-83000000D03*
X191500000Y-67000000D03*
X191500000Y-71000000D03*
X109500000Y-91000000D03*
X143500000Y-35000000D03*
X138500000Y-63000000D03*
X181500000Y-91000000D03*
X191500000Y-39000000D03*
X88500000Y-88000000D03*
X153500000Y-48000000D03*
X163500000Y-88000000D03*
X75500000Y-47000000D03*
X91500000Y-35000000D03*
X89500000Y-91000000D03*
X133500000Y-83000000D03*
X75500000Y-87000000D03*
X148500000Y-78000000D03*
X158500000Y-43000000D03*
X165500000Y-91000000D03*
X163500000Y-38000000D03*
X183500000Y-88000000D03*
X133500000Y-53000000D03*
X75500000Y-63000000D03*
X143500000Y-73000000D03*
X83500000Y-73000000D03*
X191000000Y-89000000D03*
X113500000Y-91000000D03*
X191500000Y-63000000D03*
X189250000Y-35750000D03*
X151500000Y-35000000D03*
X158500000Y-63000000D03*
X79500000Y-91000000D03*
X131500000Y-35000000D03*
X145500000Y-91000000D03*
X191500000Y-51000000D03*
X191500000Y-73000000D03*
X178500000Y-88000000D03*
X158500000Y-48000000D03*
X123500000Y-83000000D03*
X118500000Y-53000000D03*
X93500000Y-83000000D03*
X183500000Y-63000000D03*
X115500000Y-91000000D03*
X131500000Y-91000000D03*
X118500000Y-88000000D03*
X168500000Y-38000000D03*
X173500000Y-35000000D03*
X188500000Y-88000000D03*
X139500000Y-91000000D03*
X75500000Y-71000000D03*
X123500000Y-53000000D03*
X138500000Y-38000000D03*
X178500000Y-38000000D03*
X155500000Y-35000000D03*
X93500000Y-91000000D03*
X75500000Y-39000000D03*
X121500000Y-91000000D03*
X148500000Y-73000000D03*
X135500000Y-35000000D03*
X97500000Y-91000000D03*
X105500000Y-35000000D03*
X191500000Y-55000000D03*
X178500000Y-68000000D03*
X168500000Y-83000000D03*
X143500000Y-38000000D03*
X177500000Y-35000000D03*
X78500000Y-43000000D03*
X153500000Y-53000000D03*
X191500000Y-81000000D03*
X143500000Y-53000000D03*
X168500000Y-43000000D03*
X148500000Y-53000000D03*
X133500000Y-78000000D03*
X153500000Y-43000000D03*
X173500000Y-68000000D03*
X143500000Y-78000000D03*
X187500000Y-91000000D03*
X81500000Y-91000000D03*
X145500000Y-35000000D03*
X83500000Y-63000000D03*
X88500000Y-38000000D03*
X98500000Y-68000000D03*
X103500000Y-68000000D03*
X113500000Y-35000000D03*
X141500000Y-35000000D03*
X117500000Y-91000000D03*
X173500000Y-48000000D03*
X103500000Y-48000000D03*
X128500000Y-38000000D03*
X111500000Y-35000000D03*
X103500000Y-91000000D03*
X103500000Y-88000000D03*
X75500000Y-53000000D03*
X83500000Y-35000000D03*
X191500000Y-79000000D03*
X143500000Y-68000000D03*
X158500000Y-38000000D03*
X147500000Y-91000000D03*
X108500000Y-73000000D03*
X75500000Y-73000000D03*
X78500000Y-58000000D03*
X123500000Y-78000000D03*
X188500000Y-43000000D03*
X188500000Y-53000000D03*
X187500000Y-35000000D03*
X158500000Y-58000000D03*
X113500000Y-88000000D03*
X75500000Y-59000000D03*
X158500000Y-73000000D03*
X118500000Y-78000000D03*
X123500000Y-68000000D03*
X93500000Y-43000000D03*
X75500000Y-85000000D03*
X98500000Y-63000000D03*
X93500000Y-38000000D03*
X163500000Y-35000000D03*
X75500000Y-75000000D03*
X107500000Y-35000000D03*
X123500000Y-48000000D03*
X173500000Y-63000000D03*
X88500000Y-68000000D03*
X101500000Y-91000000D03*
X76000000Y-88500000D03*
X75500000Y-51000000D03*
X113500000Y-63000000D03*
X125500000Y-91000000D03*
X148500000Y-38000000D03*
X158500000Y-53000000D03*
X153500000Y-68000000D03*
X123500000Y-38000000D03*
X103500000Y-78000000D03*
X123500000Y-91000000D03*
X75500000Y-79000000D03*
X133500000Y-43000000D03*
X178500000Y-43000000D03*
X88500000Y-63000000D03*
X167500000Y-35000000D03*
X93500000Y-78000000D03*
X103500000Y-53000000D03*
X78500000Y-78000000D03*
X108500000Y-38000000D03*
X108500000Y-43000000D03*
X115500000Y-35000000D03*
X107500000Y-91000000D03*
X178500000Y-63000000D03*
X78500000Y-63000000D03*
X118500000Y-48000000D03*
X161500000Y-35000000D03*
X81500000Y-35000000D03*
X153500000Y-73000000D03*
X191500000Y-43000000D03*
X178500000Y-83000000D03*
X191500000Y-83000000D03*
X79750000Y-35000000D03*
X173500000Y-53000000D03*
X83500000Y-83000000D03*
X148500000Y-43000000D03*
X168500000Y-73000000D03*
X191500000Y-87000000D03*
X163500000Y-43000000D03*
X191500000Y-77000000D03*
X188500000Y-58000000D03*
X185500000Y-91000000D03*
X168500000Y-53000000D03*
X191500000Y-59000000D03*
X128500000Y-43000000D03*
X179500000Y-91000000D03*
X103500000Y-63000000D03*
X153500000Y-35000000D03*
X108500000Y-78000000D03*
X168500000Y-78000000D03*
X89500000Y-35000000D03*
X99500000Y-91000000D03*
X169500000Y-35000000D03*
X137500000Y-91000000D03*
X98500000Y-43000000D03*
X129500000Y-35000000D03*
X98500000Y-53000000D03*
X128500000Y-73000000D03*
X78500000Y-68000000D03*
X83500000Y-78000000D03*
X118500000Y-68000000D03*
X157500000Y-35000000D03*
X93500000Y-63000000D03*
X173500000Y-88000000D03*
X168500000Y-63000000D03*
X138500000Y-68000000D03*
X93500000Y-53000000D03*
X75500000Y-57000000D03*
X171500000Y-35000000D03*
X191500000Y-75000000D03*
X183500000Y-58000000D03*
X183500000Y-35000000D03*
X128500000Y-53000000D03*
X97500000Y-35000000D03*
X143500000Y-63000000D03*
X123500000Y-63000000D03*
X93500000Y-48000000D03*
X188500000Y-78000000D03*
X133500000Y-38000000D03*
X173500000Y-58000000D03*
X168500000Y-68000000D03*
X165500000Y-35000000D03*
X75500000Y-81000000D03*
X129500000Y-91000000D03*
X83500000Y-38000000D03*
X188500000Y-68000000D03*
X148500000Y-63000000D03*
X108500000Y-63000000D03*
X109500000Y-35000000D03*
X173500000Y-38000000D03*
X189500000Y-90250000D03*
X91500000Y-91000000D03*
X153500000Y-58000000D03*
X83500000Y-43000000D03*
X95500000Y-91000000D03*
X113500000Y-38000000D03*
X159500000Y-35000000D03*
X98500000Y-73000000D03*
X78500000Y-83000000D03*
X143500000Y-43000000D03*
X138500000Y-43000000D03*
X135500000Y-91000000D03*
X103500000Y-35000000D03*
X108500000Y-68000000D03*
X103500000Y-43000000D03*
X117500000Y-35000000D03*
X128500000Y-68000000D03*
X148500000Y-68000000D03*
X138500000Y-53000000D03*
X111500000Y-91000000D03*
X118500000Y-73000000D03*
X75500000Y-69000000D03*
X93500000Y-68000000D03*
X163500000Y-58000000D03*
X93500000Y-73000000D03*
X179500000Y-35000000D03*
X163500000Y-91000000D03*
X167500000Y-91000000D03*
X88500000Y-83000000D03*
X183500000Y-91000000D03*
X75500000Y-41000000D03*
X75500000Y-43000000D03*
X118500000Y-43000000D03*
X143500000Y-91000000D03*
X75500000Y-77000000D03*
X183500000Y-43000000D03*
X98500000Y-38000000D03*
X88500000Y-53000000D03*
X118500000Y-38000000D03*
X138500000Y-78000000D03*
X191500000Y-49000000D03*
X133500000Y-63000000D03*
X113500000Y-68000000D03*
X149500000Y-91000000D03*
X169500000Y-91000000D03*
X88500000Y-73000000D03*
X138500000Y-73000000D03*
X75500000Y-45000000D03*
X153500000Y-63000000D03*
X123500000Y-43000000D03*
X163500000Y-48000000D03*
X128500000Y-48000000D03*
X78000000Y-35500000D03*
X173500000Y-91000000D03*
X190750000Y-37000000D03*
X188500000Y-73000000D03*
X191500000Y-57000000D03*
X141500000Y-91000000D03*
X83500000Y-68000000D03*
X75500000Y-83000000D03*
X181500000Y-35000000D03*
D27*
%TO.N,+12V*%
X128300000Y-82800000D03*
%TD*%
D28*
%TO.N,+5V*%
X129900000Y-77500000D02*
X133400000Y-74000000D01*
X133400000Y-74000000D02*
X182000000Y-74000000D01*
X182000000Y-74000000D02*
X185130000Y-70870000D01*
X185130000Y-70870000D02*
X185130000Y-68925000D01*
X129900000Y-88700000D02*
X129900000Y-77500000D01*
%TO.N,+12V*%
X114900000Y-80600000D02*
X114100000Y-79800000D01*
X128300000Y-82600000D02*
X126300000Y-80600000D01*
X114100000Y-79800000D02*
X114100000Y-77775000D01*
X128300000Y-82800000D02*
X128300000Y-82600000D01*
X126300000Y-80600000D02*
X114900000Y-80600000D01*
%TD*%
%TA.AperFunction,Conductor*%
%TO.N,GND*%
G36*
X187002324Y-33500587D02*
G01*
X187042259Y-33502081D01*
X187481082Y-33518500D01*
X187490306Y-33519192D01*
X187964101Y-33572575D01*
X187973247Y-33573954D01*
X188335901Y-33642572D01*
X188441708Y-33662592D01*
X188450749Y-33664655D01*
X188624139Y-33711114D01*
X188911287Y-33788056D01*
X188920133Y-33790784D01*
X189370158Y-33948255D01*
X189378778Y-33951637D01*
X189622667Y-34058045D01*
X189815784Y-34142302D01*
X189824138Y-34146326D01*
X190245640Y-34369096D01*
X190253671Y-34373732D01*
X190657371Y-34627393D01*
X190665033Y-34632617D01*
X191048641Y-34915732D01*
X191055883Y-34921508D01*
X191417275Y-35232511D01*
X191424072Y-35238818D01*
X191761181Y-35575927D01*
X191767488Y-35582724D01*
X192078491Y-35944116D01*
X192084273Y-35951366D01*
X192367382Y-36334966D01*
X192372606Y-36342628D01*
X192626267Y-36746328D01*
X192630903Y-36754359D01*
X192853673Y-37175861D01*
X192857697Y-37184215D01*
X193048359Y-37621215D01*
X193051747Y-37629848D01*
X193209212Y-38079859D01*
X193211945Y-38088719D01*
X193335344Y-38549250D01*
X193337407Y-38558291D01*
X193426043Y-39026741D01*
X193427425Y-39035910D01*
X193480806Y-39509681D01*
X193481499Y-39518928D01*
X193499413Y-39997674D01*
X193499500Y-40002311D01*
X193499500Y-86097688D01*
X193499413Y-86102325D01*
X193481499Y-86581071D01*
X193480806Y-86590318D01*
X193427425Y-87064089D01*
X193426043Y-87073258D01*
X193337407Y-87541708D01*
X193335344Y-87550749D01*
X193211945Y-88011280D01*
X193209212Y-88020140D01*
X193051747Y-88470151D01*
X193048359Y-88478784D01*
X192857697Y-88915784D01*
X192853673Y-88924138D01*
X192630903Y-89345640D01*
X192626267Y-89353671D01*
X192372606Y-89757371D01*
X192367382Y-89765033D01*
X192084273Y-90148633D01*
X192078491Y-90155883D01*
X191767488Y-90517275D01*
X191761181Y-90524072D01*
X191424072Y-90861181D01*
X191417275Y-90867488D01*
X191055883Y-91178491D01*
X191048633Y-91184273D01*
X190665033Y-91467382D01*
X190657371Y-91472606D01*
X190253671Y-91726267D01*
X190245640Y-91730903D01*
X189824138Y-91953673D01*
X189815784Y-91957697D01*
X189378784Y-92148359D01*
X189370151Y-92151747D01*
X188920140Y-92309212D01*
X188911280Y-92311945D01*
X188450749Y-92435344D01*
X188441708Y-92437407D01*
X187973258Y-92526043D01*
X187964089Y-92527425D01*
X187490318Y-92580806D01*
X187481071Y-92581499D01*
X187002325Y-92599413D01*
X186997688Y-92599500D01*
X80002312Y-92599500D01*
X79997675Y-92599413D01*
X79518928Y-92581499D01*
X79509681Y-92580806D01*
X79035910Y-92527425D01*
X79026741Y-92526043D01*
X78558291Y-92437407D01*
X78549250Y-92435344D01*
X78088719Y-92311945D01*
X78079859Y-92309212D01*
X77629848Y-92151747D01*
X77621215Y-92148359D01*
X77184215Y-91957697D01*
X77175861Y-91953673D01*
X76754359Y-91730903D01*
X76746328Y-91726267D01*
X76342628Y-91472606D01*
X76334966Y-91467382D01*
X75951366Y-91184273D01*
X75944116Y-91178491D01*
X75582724Y-90867488D01*
X75575927Y-90861181D01*
X75238818Y-90524072D01*
X75232511Y-90517275D01*
X74921508Y-90155883D01*
X74915726Y-90148633D01*
X74843299Y-90050498D01*
X74652764Y-89792331D01*
X74632617Y-89765033D01*
X74627393Y-89757371D01*
X74373732Y-89353671D01*
X74369096Y-89345640D01*
X74146326Y-88924138D01*
X74142302Y-88915784D01*
X74021310Y-88638468D01*
X73951640Y-88478784D01*
X73948252Y-88470151D01*
X73921253Y-88392993D01*
X73790784Y-88020133D01*
X73788054Y-88011280D01*
X73782937Y-87992184D01*
X73679905Y-87607664D01*
X73664655Y-87550748D01*
X73662592Y-87541708D01*
X73636953Y-87406202D01*
X73573954Y-87073247D01*
X73572574Y-87064089D01*
X73560627Y-86958053D01*
X84631121Y-86958053D01*
X86800989Y-86958053D01*
X86800989Y-84143603D01*
X84631121Y-84143603D01*
X84631121Y-86958053D01*
X73560627Y-86958053D01*
X73519193Y-86590318D01*
X73518500Y-86581070D01*
X73500587Y-86102324D01*
X73500500Y-86097688D01*
X73500500Y-84002065D01*
X106514500Y-84002065D01*
X106514500Y-84247934D01*
X106541227Y-84450939D01*
X106546591Y-84491677D01*
X106546592Y-84491679D01*
X106610222Y-84729152D01*
X106610225Y-84729162D01*
X106704303Y-84956285D01*
X106704306Y-84956292D01*
X106827233Y-85169208D01*
X106827235Y-85169211D01*
X106827236Y-85169212D01*
X106976897Y-85364254D01*
X106976903Y-85364261D01*
X107150738Y-85538096D01*
X107150744Y-85538101D01*
X107345792Y-85687767D01*
X107558708Y-85810694D01*
X107785847Y-85904778D01*
X108023323Y-85968409D01*
X108267073Y-86000500D01*
X108267080Y-86000500D01*
X108512920Y-86000500D01*
X108512927Y-86000500D01*
X108756677Y-85968409D01*
X108994153Y-85904778D01*
X109221292Y-85810694D01*
X109434208Y-85687767D01*
X109629256Y-85538101D01*
X109803101Y-85364256D01*
X109952767Y-85169208D01*
X110075694Y-84956292D01*
X110169778Y-84729153D01*
X110233409Y-84491677D01*
X110265500Y-84247927D01*
X110265500Y-84002073D01*
X110265499Y-84002065D01*
X116674500Y-84002065D01*
X116674500Y-84247934D01*
X116701227Y-84450939D01*
X116706591Y-84491677D01*
X116706592Y-84491679D01*
X116770222Y-84729152D01*
X116770225Y-84729162D01*
X116864303Y-84956285D01*
X116864306Y-84956292D01*
X116987233Y-85169208D01*
X116987235Y-85169211D01*
X116987236Y-85169212D01*
X117136897Y-85364254D01*
X117136903Y-85364261D01*
X117310738Y-85538096D01*
X117310744Y-85538101D01*
X117505792Y-85687767D01*
X117718708Y-85810694D01*
X117945847Y-85904778D01*
X118183323Y-85968409D01*
X118427073Y-86000500D01*
X118427080Y-86000500D01*
X118672920Y-86000500D01*
X118672927Y-86000500D01*
X118916677Y-85968409D01*
X119154153Y-85904778D01*
X119381292Y-85810694D01*
X119594208Y-85687767D01*
X119789256Y-85538101D01*
X119963101Y-85364256D01*
X120112767Y-85169208D01*
X120235694Y-84956292D01*
X120329778Y-84729153D01*
X120393409Y-84491677D01*
X120425500Y-84247927D01*
X120425500Y-84002073D01*
X120393409Y-83758323D01*
X120329778Y-83520847D01*
X120235694Y-83293708D01*
X120112767Y-83080792D01*
X120051030Y-83000335D01*
X119963102Y-82885745D01*
X119963096Y-82885738D01*
X119789261Y-82711903D01*
X119789254Y-82711897D01*
X119594212Y-82562236D01*
X119594211Y-82562235D01*
X119594208Y-82562233D01*
X119381292Y-82439306D01*
X119381285Y-82439303D01*
X119154162Y-82345225D01*
X119154155Y-82345223D01*
X119154153Y-82345222D01*
X118916677Y-82281591D01*
X118875939Y-82276227D01*
X118672934Y-82249500D01*
X118672927Y-82249500D01*
X118427073Y-82249500D01*
X118427065Y-82249500D01*
X118195059Y-82280045D01*
X118183323Y-82281591D01*
X117945847Y-82345222D01*
X117945837Y-82345225D01*
X117718714Y-82439303D01*
X117718705Y-82439307D01*
X117505787Y-82562236D01*
X117310745Y-82711897D01*
X117310738Y-82711903D01*
X117136903Y-82885738D01*
X117136897Y-82885745D01*
X116987236Y-83080787D01*
X116864307Y-83293705D01*
X116864303Y-83293714D01*
X116770225Y-83520837D01*
X116770222Y-83520847D01*
X116711171Y-83741232D01*
X116706592Y-83758320D01*
X116706590Y-83758331D01*
X116674500Y-84002065D01*
X110265499Y-84002065D01*
X110233409Y-83758323D01*
X110169778Y-83520847D01*
X110075694Y-83293708D01*
X109952767Y-83080792D01*
X109891030Y-83000335D01*
X109803102Y-82885745D01*
X109803096Y-82885738D01*
X109629261Y-82711903D01*
X109629254Y-82711897D01*
X109434212Y-82562236D01*
X109434211Y-82562235D01*
X109434208Y-82562233D01*
X109221292Y-82439306D01*
X109221285Y-82439303D01*
X108994162Y-82345225D01*
X108994155Y-82345223D01*
X108994153Y-82345222D01*
X108756677Y-82281591D01*
X108715939Y-82276227D01*
X108512934Y-82249500D01*
X108512927Y-82249500D01*
X108267073Y-82249500D01*
X108267065Y-82249500D01*
X108035059Y-82280045D01*
X108023323Y-82281591D01*
X107785847Y-82345222D01*
X107785837Y-82345225D01*
X107558714Y-82439303D01*
X107558705Y-82439307D01*
X107345787Y-82562236D01*
X107150745Y-82711897D01*
X107150738Y-82711903D01*
X106976903Y-82885738D01*
X106976897Y-82885745D01*
X106827236Y-83080787D01*
X106704307Y-83293705D01*
X106704303Y-83293714D01*
X106610225Y-83520837D01*
X106610222Y-83520847D01*
X106551171Y-83741232D01*
X106546592Y-83758320D01*
X106546590Y-83758331D01*
X106514500Y-84002065D01*
X73500500Y-84002065D01*
X73500500Y-74674983D01*
X109029500Y-74674983D01*
X109029500Y-75795001D01*
X109029501Y-75795018D01*
X109040000Y-75897796D01*
X109040001Y-75897799D01*
X109049123Y-75925326D01*
X109095186Y-76064334D01*
X109187288Y-76213656D01*
X109311344Y-76337712D01*
X109460666Y-76429814D01*
X109627203Y-76484999D01*
X109729991Y-76495500D01*
X110794957Y-76495499D01*
X110861996Y-76515183D01*
X110907751Y-76567987D01*
X110917695Y-76637146D01*
X110888670Y-76700702D01*
X110867842Y-76719817D01*
X110738839Y-76813544D01*
X110738837Y-76813546D01*
X110738836Y-76813546D01*
X110598546Y-76953836D01*
X110598546Y-76953837D01*
X110598544Y-76953839D01*
X110549329Y-77021578D01*
X110481926Y-77114349D01*
X110481924Y-77114352D01*
X110391850Y-77291131D01*
X110375394Y-77341777D01*
X110330537Y-77479832D01*
X110330536Y-77479835D01*
X110330536Y-77479837D01*
X110299500Y-77675790D01*
X110299500Y-77874209D01*
X110330536Y-78070162D01*
X110330537Y-78070168D01*
X110375394Y-78208222D01*
X110391850Y-78258868D01*
X110453021Y-78378922D01*
X110481923Y-78435646D01*
X110598544Y-78596161D01*
X110738839Y-78736456D01*
X110899354Y-78853077D01*
X111012800Y-78910880D01*
X111076131Y-78943149D01*
X111076133Y-78943149D01*
X111076136Y-78943151D01*
X111264832Y-79004463D01*
X111362814Y-79019981D01*
X111460791Y-79035500D01*
X111460796Y-79035500D01*
X111659209Y-79035500D01*
X111748278Y-79021392D01*
X111855168Y-79004463D01*
X112043864Y-78943151D01*
X112220646Y-78853077D01*
X112381161Y-78736456D01*
X112521456Y-78596161D01*
X112638077Y-78435646D01*
X112719515Y-78275812D01*
X112767489Y-78225017D01*
X112835310Y-78208222D01*
X112901445Y-78230759D01*
X112940484Y-78275812D01*
X113021923Y-78435646D01*
X113138544Y-78596161D01*
X113138546Y-78596163D01*
X113278840Y-78736457D01*
X113278845Y-78736461D01*
X113298382Y-78750655D01*
X113341050Y-78805984D01*
X113349500Y-78850975D01*
X113349500Y-79873918D01*
X113349500Y-79873920D01*
X113349499Y-79873920D01*
X113378340Y-80018907D01*
X113378343Y-80018917D01*
X113434914Y-80155492D01*
X113467812Y-80204727D01*
X113467813Y-80204730D01*
X113517046Y-80278414D01*
X113517052Y-80278421D01*
X114421584Y-81182952D01*
X114421586Y-81182954D01*
X114451058Y-81202645D01*
X114495270Y-81232186D01*
X114544505Y-81265084D01*
X114544506Y-81265084D01*
X114544507Y-81265085D01*
X114544509Y-81265086D01*
X114681082Y-81321656D01*
X114681087Y-81321658D01*
X114681091Y-81321658D01*
X114681092Y-81321659D01*
X114826079Y-81350500D01*
X114826082Y-81350500D01*
X114826083Y-81350500D01*
X114973918Y-81350500D01*
X125937770Y-81350500D01*
X126004809Y-81370185D01*
X126025451Y-81386819D01*
X127175678Y-82537045D01*
X127209163Y-82598368D01*
X127210470Y-82644124D01*
X127199500Y-82713383D01*
X127199500Y-82713389D01*
X127199500Y-82886611D01*
X127226598Y-83057701D01*
X127280127Y-83222445D01*
X127358768Y-83376788D01*
X127460586Y-83516928D01*
X127583072Y-83639414D01*
X127723212Y-83741232D01*
X127877555Y-83819873D01*
X128042299Y-83873402D01*
X128213389Y-83900500D01*
X128213390Y-83900500D01*
X128386610Y-83900500D01*
X128386611Y-83900500D01*
X128557701Y-83873402D01*
X128722445Y-83819873D01*
X128876788Y-83741232D01*
X128952614Y-83686140D01*
X129018420Y-83662660D01*
X129086474Y-83678485D01*
X129135169Y-83728590D01*
X129149500Y-83786458D01*
X129149500Y-87225500D01*
X129129815Y-87292539D01*
X129077011Y-87338294D01*
X129025505Y-87349500D01*
X129002132Y-87349500D01*
X129002123Y-87349501D01*
X128942516Y-87355908D01*
X128807671Y-87406202D01*
X128807664Y-87406206D01*
X128692455Y-87492452D01*
X128692452Y-87492455D01*
X128606206Y-87607664D01*
X128606203Y-87607669D01*
X128557189Y-87739083D01*
X128515317Y-87795016D01*
X128449853Y-87819433D01*
X128381580Y-87804581D01*
X128353326Y-87783430D01*
X128239786Y-87669890D01*
X128067820Y-87544951D01*
X127878414Y-87448444D01*
X127878413Y-87448443D01*
X127878412Y-87448443D01*
X127676243Y-87382754D01*
X127676241Y-87382753D01*
X127676240Y-87382753D01*
X127514957Y-87357208D01*
X127466287Y-87349500D01*
X127253713Y-87349500D01*
X127205042Y-87357208D01*
X127043760Y-87382753D01*
X126841585Y-87448444D01*
X126652179Y-87544951D01*
X126480213Y-87669890D01*
X126329890Y-87820213D01*
X126204949Y-87992182D01*
X126200202Y-88001499D01*
X126152227Y-88052293D01*
X126084405Y-88069087D01*
X126018271Y-88046548D01*
X125979234Y-88001495D01*
X125974626Y-87992452D01*
X125935270Y-87938282D01*
X125935269Y-87938282D01*
X125302962Y-88570590D01*
X125285925Y-88507007D01*
X125220099Y-88392993D01*
X125127007Y-88299901D01*
X125012993Y-88234075D01*
X124949409Y-88217037D01*
X125581716Y-87584728D01*
X125527550Y-87545375D01*
X125338217Y-87448904D01*
X125136129Y-87383242D01*
X124926246Y-87350000D01*
X124713754Y-87350000D01*
X124503872Y-87383242D01*
X124503869Y-87383242D01*
X124301782Y-87448904D01*
X124112439Y-87545380D01*
X124058282Y-87584727D01*
X124058282Y-87584728D01*
X124690591Y-88217037D01*
X124627007Y-88234075D01*
X124512993Y-88299901D01*
X124419901Y-88392993D01*
X124354075Y-88507007D01*
X124337037Y-88570591D01*
X123704728Y-87938282D01*
X123704727Y-87938282D01*
X123665380Y-87992439D01*
X123568904Y-88181782D01*
X123503242Y-88383869D01*
X123503242Y-88383872D01*
X123470000Y-88593753D01*
X123470000Y-88806246D01*
X123503242Y-89016127D01*
X123503242Y-89016130D01*
X123568904Y-89218217D01*
X123665375Y-89407550D01*
X123704728Y-89461716D01*
X124337037Y-88829408D01*
X124354075Y-88892993D01*
X124419901Y-89007007D01*
X124512993Y-89100099D01*
X124627007Y-89165925D01*
X124690590Y-89182962D01*
X124058282Y-89815269D01*
X124058282Y-89815270D01*
X124112449Y-89854624D01*
X124301782Y-89951095D01*
X124503870Y-90016757D01*
X124713754Y-90050000D01*
X124926246Y-90050000D01*
X125136127Y-90016757D01*
X125136130Y-90016757D01*
X125338217Y-89951095D01*
X125527554Y-89854622D01*
X125581716Y-89815270D01*
X125581717Y-89815270D01*
X124949408Y-89182962D01*
X125012993Y-89165925D01*
X125127007Y-89100099D01*
X125220099Y-89007007D01*
X125285925Y-88892993D01*
X125302962Y-88829408D01*
X125935270Y-89461717D01*
X125935270Y-89461716D01*
X125974622Y-89407555D01*
X125979232Y-89398507D01*
X126027205Y-89347709D01*
X126095025Y-89330912D01*
X126161161Y-89353447D01*
X126200204Y-89398504D01*
X126204949Y-89407817D01*
X126329890Y-89579786D01*
X126480213Y-89730109D01*
X126652179Y-89855048D01*
X126652181Y-89855049D01*
X126652184Y-89855051D01*
X126841588Y-89951557D01*
X127043757Y-90017246D01*
X127253713Y-90050500D01*
X127253714Y-90050500D01*
X127466286Y-90050500D01*
X127466287Y-90050500D01*
X127676243Y-90017246D01*
X127878412Y-89951557D01*
X128067816Y-89855051D01*
X128191716Y-89765033D01*
X128239784Y-89730110D01*
X128239784Y-89730109D01*
X128239792Y-89730104D01*
X128353329Y-89616566D01*
X128414648Y-89583084D01*
X128484340Y-89588068D01*
X128540274Y-89629939D01*
X128557189Y-89660917D01*
X128606202Y-89792328D01*
X128606206Y-89792335D01*
X128692452Y-89907544D01*
X128692455Y-89907547D01*
X128807664Y-89993793D01*
X128807671Y-89993797D01*
X128942517Y-90044091D01*
X128942516Y-90044091D01*
X128949444Y-90044835D01*
X129002127Y-90050500D01*
X130797872Y-90050499D01*
X130857483Y-90044091D01*
X130992331Y-89993796D01*
X131107546Y-89907546D01*
X131193796Y-89792331D01*
X131244091Y-89657483D01*
X131250500Y-89597873D01*
X131250499Y-87802128D01*
X131244091Y-87742517D01*
X131242810Y-87739083D01*
X131193797Y-87607671D01*
X131193793Y-87607664D01*
X131107547Y-87492455D01*
X131107544Y-87492452D01*
X130992335Y-87406206D01*
X130992328Y-87406202D01*
X130857482Y-87355908D01*
X130857483Y-87355908D01*
X130797883Y-87349501D01*
X130797881Y-87349500D01*
X130797873Y-87349500D01*
X130797865Y-87349500D01*
X130774500Y-87349500D01*
X130707461Y-87329815D01*
X130661706Y-87277011D01*
X130650500Y-87225500D01*
X130650500Y-77862229D01*
X130670185Y-77795190D01*
X130686819Y-77774548D01*
X133674548Y-74786819D01*
X133735871Y-74753334D01*
X133762229Y-74750500D01*
X182073920Y-74750500D01*
X182171462Y-74731096D01*
X182218913Y-74721658D01*
X182355495Y-74665084D01*
X182404729Y-74632186D01*
X182426756Y-74617469D01*
X182429071Y-74615921D01*
X182478416Y-74582952D01*
X185712951Y-71348416D01*
X185795084Y-71225495D01*
X185851658Y-71088913D01*
X185880500Y-70943918D01*
X185880500Y-70512220D01*
X185900185Y-70445181D01*
X185931614Y-70411902D01*
X186009792Y-70355104D01*
X186160104Y-70204792D01*
X186160106Y-70204788D01*
X186160109Y-70204786D01*
X186285048Y-70032820D01*
X186285050Y-70032817D01*
X186285051Y-70032816D01*
X186381557Y-69843412D01*
X186447246Y-69641243D01*
X186480500Y-69431287D01*
X186480500Y-68418713D01*
X186447246Y-68208757D01*
X186381557Y-68006588D01*
X186285051Y-67817184D01*
X186285049Y-67817181D01*
X186285048Y-67817179D01*
X186160109Y-67645213D01*
X186009786Y-67494890D01*
X185837820Y-67369951D01*
X185648414Y-67273444D01*
X185648413Y-67273443D01*
X185648412Y-67273443D01*
X185446243Y-67207754D01*
X185446241Y-67207753D01*
X185446240Y-67207753D01*
X185284957Y-67182208D01*
X185236287Y-67174500D01*
X185023713Y-67174500D01*
X184975042Y-67182208D01*
X184813760Y-67207753D01*
X184611585Y-67273444D01*
X184422179Y-67369951D01*
X184250213Y-67494890D01*
X184099890Y-67645213D01*
X183974949Y-67817182D01*
X183970202Y-67826499D01*
X183922227Y-67877293D01*
X183854405Y-67894087D01*
X183788271Y-67871548D01*
X183749234Y-67826495D01*
X183744622Y-67817444D01*
X183619727Y-67645540D01*
X183619723Y-67645535D01*
X183469464Y-67495276D01*
X183469459Y-67495272D01*
X183297557Y-67370379D01*
X183108215Y-67273903D01*
X182906124Y-67208241D01*
X182840000Y-67197768D01*
X182840000Y-68376517D01*
X182821591Y-68365889D01*
X182668991Y-68325000D01*
X182511009Y-68325000D01*
X182358409Y-68365889D01*
X182340000Y-68376517D01*
X182340000Y-67197768D01*
X182339999Y-67197768D01*
X182273875Y-67208241D01*
X182071784Y-67273903D01*
X181882442Y-67370379D01*
X181710541Y-67495271D01*
X181596865Y-67608947D01*
X181535542Y-67642431D01*
X181465850Y-67637447D01*
X181409917Y-67595575D01*
X181393002Y-67564598D01*
X181343797Y-67432671D01*
X181343793Y-67432664D01*
X181257547Y-67317455D01*
X181257544Y-67317452D01*
X181142335Y-67231206D01*
X181142328Y-67231202D01*
X181007482Y-67180908D01*
X181007483Y-67180908D01*
X180947883Y-67174501D01*
X180947881Y-67174500D01*
X180947873Y-67174500D01*
X180947864Y-67174500D01*
X179152129Y-67174500D01*
X179152123Y-67174501D01*
X179092516Y-67180908D01*
X178957671Y-67231202D01*
X178957664Y-67231206D01*
X178842455Y-67317452D01*
X178842452Y-67317455D01*
X178756206Y-67432664D01*
X178756202Y-67432671D01*
X178705908Y-67567517D01*
X178699501Y-67627116D01*
X178699500Y-67627135D01*
X178699500Y-70222870D01*
X178699501Y-70222876D01*
X178705908Y-70282483D01*
X178756202Y-70417328D01*
X178756206Y-70417335D01*
X178842452Y-70532544D01*
X178842455Y-70532547D01*
X178957664Y-70618793D01*
X178957671Y-70618797D01*
X179092517Y-70669091D01*
X179092516Y-70669091D01*
X179099444Y-70669835D01*
X179152127Y-70675500D01*
X180947872Y-70675499D01*
X181007483Y-70669091D01*
X181142331Y-70618796D01*
X181257546Y-70532546D01*
X181343796Y-70417331D01*
X181393002Y-70285401D01*
X181434872Y-70229468D01*
X181500337Y-70205050D01*
X181568610Y-70219901D01*
X181596865Y-70241053D01*
X181710535Y-70354723D01*
X181710540Y-70354727D01*
X181882442Y-70479620D01*
X182071782Y-70576095D01*
X182273871Y-70641757D01*
X182340000Y-70652231D01*
X182340000Y-69473482D01*
X182358409Y-69484111D01*
X182511009Y-69525000D01*
X182668991Y-69525000D01*
X182821591Y-69484111D01*
X182840000Y-69473482D01*
X182840000Y-70652230D01*
X182906126Y-70641757D01*
X182906129Y-70641757D01*
X183108217Y-70576095D01*
X183297557Y-70479620D01*
X183469459Y-70354727D01*
X183469464Y-70354723D01*
X183619723Y-70204464D01*
X183619727Y-70204459D01*
X183744620Y-70032558D01*
X183749232Y-70023507D01*
X183797205Y-69972709D01*
X183865025Y-69955912D01*
X183931161Y-69978447D01*
X183970204Y-70023504D01*
X183974949Y-70032817D01*
X184099890Y-70204786D01*
X184099896Y-70204792D01*
X184250208Y-70355104D01*
X184325806Y-70410029D01*
X184368473Y-70465358D01*
X184374452Y-70534971D01*
X184341847Y-70596766D01*
X184340603Y-70598028D01*
X181725451Y-73213181D01*
X181664128Y-73246666D01*
X181637770Y-73249500D01*
X133326080Y-73249500D01*
X133181092Y-73278340D01*
X133181082Y-73278343D01*
X133044511Y-73334912D01*
X133044498Y-73334919D01*
X132921584Y-73417048D01*
X132921580Y-73417051D01*
X129317052Y-77021578D01*
X129317049Y-77021581D01*
X129270618Y-77091070D01*
X129270619Y-77091071D01*
X129234914Y-77144508D01*
X129178343Y-77281082D01*
X129178340Y-77281092D01*
X129149500Y-77426079D01*
X129149500Y-81813541D01*
X129129815Y-81880580D01*
X129077011Y-81926335D01*
X129007853Y-81936279D01*
X128952615Y-81913859D01*
X128876791Y-81858770D01*
X128876790Y-81858769D01*
X128876788Y-81858768D01*
X128722445Y-81780127D01*
X128640073Y-81753362D01*
X128557699Y-81726597D01*
X128514632Y-81719776D01*
X128451498Y-81689846D01*
X128446351Y-81684984D01*
X126778421Y-80017052D01*
X126778414Y-80017046D01*
X126704729Y-79967812D01*
X126704729Y-79967813D01*
X126655491Y-79934913D01*
X126518917Y-79878343D01*
X126518907Y-79878340D01*
X126373920Y-79849500D01*
X126373918Y-79849500D01*
X115262230Y-79849500D01*
X115195191Y-79829815D01*
X115174549Y-79813181D01*
X114886819Y-79525451D01*
X114853334Y-79464128D01*
X114850500Y-79437770D01*
X114850500Y-78850975D01*
X114870185Y-78783936D01*
X114901618Y-78750655D01*
X114921154Y-78736461D01*
X114921152Y-78736461D01*
X114921161Y-78736456D01*
X115061456Y-78596161D01*
X115178077Y-78435646D01*
X115259515Y-78275812D01*
X115307489Y-78225017D01*
X115375310Y-78208222D01*
X115441445Y-78230759D01*
X115480484Y-78275812D01*
X115561923Y-78435646D01*
X115678544Y-78596161D01*
X115818839Y-78736456D01*
X115979354Y-78853077D01*
X116092800Y-78910880D01*
X116156131Y-78943149D01*
X116156133Y-78943149D01*
X116156136Y-78943151D01*
X116344832Y-79004463D01*
X116442814Y-79019981D01*
X116540791Y-79035500D01*
X116540796Y-79035500D01*
X116739209Y-79035500D01*
X116828278Y-79021392D01*
X116935168Y-79004463D01*
X117123864Y-78943151D01*
X117300646Y-78853077D01*
X117461161Y-78736456D01*
X117601456Y-78596161D01*
X117718077Y-78435646D01*
X117808151Y-78258864D01*
X117869463Y-78070168D01*
X117886392Y-77963278D01*
X117900500Y-77874209D01*
X117900500Y-77675790D01*
X117883570Y-77568906D01*
X117869463Y-77479832D01*
X117808151Y-77291136D01*
X117808149Y-77291133D01*
X117808149Y-77291131D01*
X117775880Y-77227800D01*
X117718077Y-77114354D01*
X117601456Y-76953839D01*
X117461161Y-76813544D01*
X117300646Y-76696923D01*
X117243922Y-76668021D01*
X117123868Y-76606850D01*
X117078596Y-76592140D01*
X116935168Y-76545537D01*
X116935162Y-76545536D01*
X116739209Y-76514500D01*
X116739204Y-76514500D01*
X116540796Y-76514500D01*
X116540791Y-76514500D01*
X116344837Y-76545536D01*
X116344835Y-76545536D01*
X116344832Y-76545537D01*
X116250484Y-76576193D01*
X116156131Y-76606850D01*
X115979352Y-76696924D01*
X115979349Y-76696926D01*
X115947843Y-76719817D01*
X115818839Y-76813544D01*
X115818837Y-76813546D01*
X115818836Y-76813546D01*
X115678546Y-76953836D01*
X115678546Y-76953837D01*
X115678544Y-76953839D01*
X115629329Y-77021578D01*
X115561926Y-77114349D01*
X115561924Y-77114352D01*
X115480485Y-77274186D01*
X115432510Y-77324982D01*
X115364689Y-77341777D01*
X115298554Y-77319240D01*
X115259515Y-77274186D01*
X115237324Y-77230635D01*
X115178077Y-77114354D01*
X115061456Y-76953839D01*
X114921161Y-76813544D01*
X114760646Y-76696923D01*
X114703922Y-76668021D01*
X114583868Y-76606850D01*
X114538596Y-76592140D01*
X114395168Y-76545537D01*
X114395162Y-76545536D01*
X114199209Y-76514500D01*
X114199204Y-76514500D01*
X114000796Y-76514500D01*
X114000791Y-76514500D01*
X113804837Y-76545536D01*
X113804835Y-76545536D01*
X113804832Y-76545537D01*
X113710484Y-76576193D01*
X113616131Y-76606850D01*
X113439352Y-76696924D01*
X113439349Y-76696926D01*
X113407843Y-76719817D01*
X113278839Y-76813544D01*
X113278837Y-76813546D01*
X113278836Y-76813546D01*
X113138546Y-76953836D01*
X113138546Y-76953837D01*
X113138544Y-76953839D01*
X113089329Y-77021578D01*
X113021926Y-77114349D01*
X113021924Y-77114352D01*
X112940485Y-77274186D01*
X112892510Y-77324982D01*
X112824689Y-77341777D01*
X112758554Y-77319240D01*
X112719515Y-77274186D01*
X112697324Y-77230635D01*
X112638077Y-77114354D01*
X112521456Y-76953839D01*
X112381161Y-76813544D01*
X112220646Y-76696923D01*
X112163922Y-76668021D01*
X112043868Y-76606850D01*
X111998596Y-76592140D01*
X111855168Y-76545537D01*
X111855162Y-76545536D01*
X111659209Y-76514500D01*
X111659204Y-76514500D01*
X111460796Y-76514500D01*
X111399372Y-76524228D01*
X111330078Y-76515272D01*
X111276627Y-76470275D01*
X111255988Y-76403524D01*
X111274713Y-76336210D01*
X111292286Y-76314081D01*
X111392712Y-76213656D01*
X111484814Y-76064334D01*
X111530877Y-75925323D01*
X111570648Y-75867881D01*
X111635164Y-75841058D01*
X111703940Y-75853373D01*
X111747196Y-75893057D01*
X111749059Y-75891704D01*
X111751922Y-75895645D01*
X111751923Y-75895646D01*
X111868544Y-76056161D01*
X112008839Y-76196456D01*
X112169354Y-76313077D01*
X112282800Y-76370880D01*
X112346131Y-76403149D01*
X112346133Y-76403149D01*
X112346136Y-76403151D01*
X112534832Y-76464463D01*
X112632814Y-76479981D01*
X112730791Y-76495500D01*
X112730796Y-76495500D01*
X112929209Y-76495500D01*
X113018278Y-76481392D01*
X113125168Y-76464463D01*
X113313864Y-76403151D01*
X113490646Y-76313077D01*
X113651161Y-76196456D01*
X113791456Y-76056161D01*
X113908077Y-75895646D01*
X113989515Y-75735812D01*
X114037489Y-75685017D01*
X114105310Y-75668222D01*
X114171445Y-75690759D01*
X114210484Y-75735812D01*
X114291923Y-75895646D01*
X114408544Y-76056161D01*
X114548839Y-76196456D01*
X114709354Y-76313077D01*
X114822800Y-76370880D01*
X114886131Y-76403149D01*
X114886133Y-76403149D01*
X114886136Y-76403151D01*
X115074832Y-76464463D01*
X115172814Y-76479981D01*
X115270791Y-76495500D01*
X115270796Y-76495500D01*
X115469209Y-76495500D01*
X115558278Y-76481392D01*
X115665168Y-76464463D01*
X115853864Y-76403151D01*
X116030646Y-76313077D01*
X116191161Y-76196456D01*
X116331456Y-76056161D01*
X116448077Y-75895646D01*
X116538151Y-75718864D01*
X116599463Y-75530168D01*
X116616392Y-75423278D01*
X116630500Y-75334209D01*
X116630500Y-75135790D01*
X116613570Y-75028906D01*
X116599463Y-74939832D01*
X116538151Y-74751136D01*
X116538149Y-74751133D01*
X116538149Y-74751131D01*
X116499354Y-74674992D01*
X116448077Y-74574354D01*
X116331456Y-74413839D01*
X116191161Y-74273544D01*
X116030646Y-74156923D01*
X115973922Y-74128021D01*
X115853868Y-74066850D01*
X115808596Y-74052140D01*
X115665168Y-74005537D01*
X115665162Y-74005536D01*
X115469209Y-73974500D01*
X115469204Y-73974500D01*
X115270796Y-73974500D01*
X115270791Y-73974500D01*
X115074837Y-74005536D01*
X115074835Y-74005536D01*
X115074832Y-74005537D01*
X114980484Y-74036193D01*
X114886131Y-74066850D01*
X114709352Y-74156924D01*
X114709349Y-74156926D01*
X114623255Y-74219477D01*
X114548839Y-74273544D01*
X114548837Y-74273546D01*
X114548836Y-74273546D01*
X114408546Y-74413836D01*
X114408546Y-74413837D01*
X114408544Y-74413839D01*
X114354477Y-74488255D01*
X114291926Y-74574349D01*
X114291924Y-74574352D01*
X114210485Y-74734186D01*
X114162510Y-74784982D01*
X114094689Y-74801777D01*
X114028554Y-74779240D01*
X113989515Y-74734186D01*
X113959354Y-74674992D01*
X113908077Y-74574354D01*
X113791456Y-74413839D01*
X113651161Y-74273544D01*
X113490646Y-74156923D01*
X113433922Y-74128021D01*
X113313868Y-74066850D01*
X113268596Y-74052140D01*
X113125168Y-74005537D01*
X113125162Y-74005536D01*
X112929209Y-73974500D01*
X112929204Y-73974500D01*
X112730796Y-73974500D01*
X112730791Y-73974500D01*
X112534837Y-74005536D01*
X112534835Y-74005536D01*
X112534832Y-74005537D01*
X112440484Y-74036193D01*
X112346131Y-74066850D01*
X112169352Y-74156924D01*
X112169349Y-74156926D01*
X112083255Y-74219477D01*
X112008839Y-74273544D01*
X112008837Y-74273546D01*
X112008836Y-74273546D01*
X111868546Y-74413836D01*
X111868546Y-74413837D01*
X111868544Y-74413839D01*
X111773488Y-74544672D01*
X111749059Y-74578296D01*
X111747219Y-74576959D01*
X111702215Y-74617469D01*
X111633257Y-74628717D01*
X111569164Y-74600898D01*
X111530876Y-74544672D01*
X111487522Y-74413839D01*
X111484814Y-74405666D01*
X111392712Y-74256344D01*
X111268656Y-74132288D01*
X111175888Y-74075069D01*
X111119336Y-74040187D01*
X111119331Y-74040185D01*
X111117862Y-74039698D01*
X110952797Y-73985001D01*
X110952795Y-73985000D01*
X110850010Y-73974500D01*
X109729998Y-73974500D01*
X109729981Y-73974501D01*
X109627203Y-73985000D01*
X109627200Y-73985001D01*
X109460668Y-74040185D01*
X109460663Y-74040187D01*
X109311342Y-74132289D01*
X109187289Y-74256342D01*
X109095187Y-74405663D01*
X109095185Y-74405668D01*
X109067349Y-74489670D01*
X109040001Y-74572203D01*
X109040001Y-74572204D01*
X109040000Y-74572204D01*
X109029500Y-74674983D01*
X73500500Y-74674983D01*
X73500500Y-59591316D01*
X115924500Y-59591316D01*
X115924500Y-59908683D01*
X115960029Y-60224020D01*
X115960032Y-60224034D01*
X116030649Y-60533430D01*
X116030653Y-60533442D01*
X116135466Y-60832979D01*
X116273158Y-61118898D01*
X116273160Y-61118901D01*
X116442002Y-61387612D01*
X116639868Y-61635729D01*
X116864271Y-61860132D01*
X117112388Y-62057998D01*
X117381099Y-62226840D01*
X117667024Y-62364535D01*
X117891994Y-62443255D01*
X117966557Y-62469346D01*
X117966569Y-62469350D01*
X118275965Y-62539968D01*
X118275974Y-62539969D01*
X118275979Y-62539970D01*
X118486203Y-62563656D01*
X118591317Y-62575499D01*
X118591320Y-62575500D01*
X118591323Y-62575500D01*
X118908680Y-62575500D01*
X118908681Y-62575499D01*
X119069845Y-62557340D01*
X119224020Y-62539970D01*
X119224023Y-62539969D01*
X119224035Y-62539968D01*
X119533431Y-62469350D01*
X119832976Y-62364535D01*
X120118901Y-62226840D01*
X120387612Y-62057998D01*
X120635729Y-61860132D01*
X120860132Y-61635729D01*
X121057998Y-61387612D01*
X121226840Y-61118901D01*
X121364535Y-60832976D01*
X121469350Y-60533431D01*
X121539968Y-60224035D01*
X121575500Y-59908677D01*
X121575500Y-59591323D01*
X121539968Y-59275965D01*
X121469350Y-58966569D01*
X121364535Y-58667024D01*
X121309888Y-58553549D01*
X137674500Y-58553549D01*
X137674500Y-60946450D01*
X137689804Y-61160433D01*
X137750628Y-61440037D01*
X137850635Y-61708166D01*
X137987770Y-61959309D01*
X137987775Y-61959317D01*
X138159254Y-62188387D01*
X138159270Y-62188405D01*
X138361594Y-62390729D01*
X138361612Y-62390745D01*
X138590682Y-62562224D01*
X138590690Y-62562229D01*
X138841833Y-62699364D01*
X138841832Y-62699364D01*
X138841836Y-62699365D01*
X138841839Y-62699367D01*
X139109954Y-62799369D01*
X139109960Y-62799370D01*
X139109962Y-62799371D01*
X139389566Y-62860195D01*
X139389568Y-62860195D01*
X139389572Y-62860196D01*
X139603552Y-62875500D01*
X141996448Y-62875500D01*
X142210428Y-62860196D01*
X142490046Y-62799369D01*
X142758161Y-62699367D01*
X143009315Y-62562226D01*
X143238395Y-62390739D01*
X143440739Y-62188395D01*
X143612226Y-61959315D01*
X143749367Y-61708161D01*
X143849369Y-61440046D01*
X143910196Y-61160428D01*
X143925500Y-60946448D01*
X143925500Y-59622110D01*
X177675000Y-59622110D01*
X177675000Y-59877889D01*
X177715013Y-60130523D01*
X177794051Y-60373781D01*
X177794052Y-60373784D01*
X177910175Y-60601686D01*
X177987850Y-60708595D01*
X177987850Y-60708596D01*
X178622421Y-60074024D01*
X178635359Y-60105258D01*
X178717437Y-60228097D01*
X178821903Y-60332563D01*
X178944742Y-60414641D01*
X178975974Y-60427577D01*
X178341402Y-61062148D01*
X178448313Y-61139824D01*
X178676215Y-61255947D01*
X178676218Y-61255948D01*
X178919476Y-61334986D01*
X179172111Y-61375000D01*
X179427889Y-61375000D01*
X179680523Y-61334986D01*
X179923781Y-61255948D01*
X179923784Y-61255947D01*
X180151685Y-61139825D01*
X180258595Y-61062148D01*
X180258596Y-61062148D01*
X179624025Y-60427578D01*
X179655258Y-60414641D01*
X179778097Y-60332563D01*
X179882563Y-60228097D01*
X179964641Y-60105258D01*
X179977578Y-60074025D01*
X180612148Y-60708596D01*
X180612148Y-60708595D01*
X180689825Y-60601685D01*
X180805947Y-60373784D01*
X180805948Y-60373781D01*
X180884986Y-60130523D01*
X180925000Y-59877889D01*
X180925000Y-59622110D01*
X180884986Y-59369476D01*
X180805948Y-59126218D01*
X180805947Y-59126215D01*
X180689824Y-58898313D01*
X180612148Y-58791403D01*
X180612148Y-58791402D01*
X179977577Y-59425973D01*
X179964641Y-59394742D01*
X179882563Y-59271903D01*
X179778097Y-59167437D01*
X179655258Y-59085359D01*
X179624024Y-59072421D01*
X180258596Y-58437850D01*
X180151686Y-58360175D01*
X179923784Y-58244052D01*
X179923781Y-58244051D01*
X179680523Y-58165013D01*
X179427889Y-58125000D01*
X179172111Y-58125000D01*
X178919476Y-58165013D01*
X178676218Y-58244051D01*
X178676215Y-58244052D01*
X178448310Y-58360177D01*
X178341403Y-58437849D01*
X178341402Y-58437850D01*
X178975974Y-59072421D01*
X178944742Y-59085359D01*
X178821903Y-59167437D01*
X178717437Y-59271903D01*
X178635359Y-59394742D01*
X178622421Y-59425974D01*
X177987850Y-58791402D01*
X177987849Y-58791403D01*
X177910177Y-58898310D01*
X177794052Y-59126215D01*
X177794051Y-59126218D01*
X177715013Y-59369476D01*
X177675000Y-59622110D01*
X143925500Y-59622110D01*
X143925500Y-58553552D01*
X143910196Y-58339572D01*
X143860775Y-58112388D01*
X143849371Y-58059962D01*
X143849370Y-58059960D01*
X143849369Y-58059954D01*
X143749367Y-57791839D01*
X143666384Y-57639868D01*
X143612229Y-57540690D01*
X143612224Y-57540682D01*
X143440745Y-57311612D01*
X143440729Y-57311594D01*
X143238405Y-57109270D01*
X143238387Y-57109254D01*
X143009317Y-56937775D01*
X143009309Y-56937770D01*
X142758166Y-56800635D01*
X142758167Y-56800635D01*
X142577983Y-56733430D01*
X142490046Y-56700631D01*
X142490043Y-56700630D01*
X142490037Y-56700628D01*
X142210433Y-56639804D01*
X141996450Y-56624500D01*
X141996448Y-56624500D01*
X139603552Y-56624500D01*
X139603549Y-56624500D01*
X139389566Y-56639804D01*
X139109962Y-56700628D01*
X138841833Y-56800635D01*
X138590690Y-56937770D01*
X138590682Y-56937775D01*
X138361612Y-57109254D01*
X138361594Y-57109270D01*
X138159270Y-57311594D01*
X138159254Y-57311612D01*
X137987775Y-57540682D01*
X137987770Y-57540690D01*
X137850635Y-57791833D01*
X137750628Y-58059962D01*
X137689804Y-58339566D01*
X137674500Y-58553549D01*
X121309888Y-58553549D01*
X121226840Y-58381099D01*
X121057998Y-58112388D01*
X120860132Y-57864271D01*
X120635729Y-57639868D01*
X120387612Y-57442002D01*
X120180086Y-57311605D01*
X120118898Y-57273158D01*
X119832979Y-57135466D01*
X119533442Y-57030653D01*
X119533430Y-57030649D01*
X119294652Y-56976149D01*
X119224035Y-56960032D01*
X119224032Y-56960031D01*
X119224020Y-56960029D01*
X118908683Y-56924500D01*
X118908677Y-56924500D01*
X118591323Y-56924500D01*
X118591316Y-56924500D01*
X118275979Y-56960029D01*
X118275965Y-56960032D01*
X117966569Y-57030649D01*
X117966557Y-57030653D01*
X117667020Y-57135466D01*
X117381101Y-57273158D01*
X117112389Y-57442001D01*
X116864271Y-57639867D01*
X116639867Y-57864271D01*
X116442001Y-58112389D01*
X116273158Y-58381101D01*
X116135466Y-58667020D01*
X116030653Y-58966557D01*
X116030649Y-58966569D01*
X115960032Y-59275965D01*
X115960029Y-59275979D01*
X115924500Y-59591316D01*
X73500500Y-59591316D01*
X73500500Y-47888978D01*
X78324500Y-47888978D01*
X78324500Y-50161020D01*
X78334876Y-50338233D01*
X78389950Y-50634469D01*
X78389952Y-50634479D01*
X78484013Y-50920708D01*
X78484018Y-50920720D01*
X78615393Y-51191866D01*
X78615396Y-51191871D01*
X78781743Y-51443093D01*
X78980093Y-51669906D01*
X79068948Y-51747610D01*
X79106454Y-51806559D01*
X79106136Y-51876428D01*
X79083173Y-51919616D01*
X78970819Y-52056520D01*
X78970811Y-52056532D01*
X78790657Y-52326151D01*
X78790646Y-52326169D01*
X78637788Y-52612145D01*
X78637786Y-52612150D01*
X78513686Y-52911752D01*
X78419548Y-53222086D01*
X78419545Y-53222097D01*
X78356287Y-53540125D01*
X78356284Y-53540142D01*
X78331666Y-53790099D01*
X78326765Y-53839867D01*
X78324500Y-53862860D01*
X78324500Y-54187139D01*
X78356284Y-54509857D01*
X78356287Y-54509874D01*
X78419545Y-54827902D01*
X78419548Y-54827913D01*
X78513686Y-55138247D01*
X78637786Y-55437849D01*
X78637788Y-55437854D01*
X78790646Y-55723830D01*
X78790650Y-55723837D01*
X78790653Y-55723842D01*
X78790656Y-55723847D01*
X78790657Y-55723848D01*
X78970811Y-55993467D01*
X78970821Y-55993481D01*
X79176546Y-56244158D01*
X79405841Y-56473453D01*
X79405846Y-56473457D01*
X79405847Y-56473458D01*
X79656524Y-56679183D01*
X79926158Y-56859347D01*
X79926167Y-56859352D01*
X79926169Y-56859353D01*
X80212145Y-57012211D01*
X80212147Y-57012211D01*
X80212153Y-57012215D01*
X80511754Y-57136314D01*
X80822077Y-57230449D01*
X80822083Y-57230450D01*
X80822086Y-57230451D01*
X80822097Y-57230454D01*
X81021528Y-57270122D01*
X81140132Y-57293714D01*
X81462857Y-57325500D01*
X81462860Y-57325500D01*
X81787140Y-57325500D01*
X81787143Y-57325500D01*
X82109868Y-57293714D01*
X82267295Y-57262399D01*
X82427902Y-57230454D01*
X82427913Y-57230451D01*
X82427913Y-57230450D01*
X82427923Y-57230449D01*
X82738246Y-57136314D01*
X83037847Y-57012215D01*
X83323842Y-56859347D01*
X83593476Y-56679183D01*
X83844153Y-56473458D01*
X84073458Y-56244153D01*
X84279183Y-55993476D01*
X84414262Y-55791316D01*
X108424500Y-55791316D01*
X108424500Y-56108683D01*
X108460029Y-56424020D01*
X108460032Y-56424034D01*
X108530649Y-56733430D01*
X108530653Y-56733442D01*
X108635466Y-57032979D01*
X108773158Y-57318898D01*
X108773160Y-57318901D01*
X108942002Y-57587612D01*
X109139868Y-57835729D01*
X109364271Y-58060132D01*
X109612388Y-58257998D01*
X109881099Y-58426840D01*
X110167024Y-58564535D01*
X110391994Y-58643255D01*
X110466557Y-58669346D01*
X110466569Y-58669350D01*
X110775965Y-58739968D01*
X110775974Y-58739969D01*
X110775979Y-58739970D01*
X110986203Y-58763656D01*
X111091317Y-58775499D01*
X111091320Y-58775500D01*
X111091323Y-58775500D01*
X111408680Y-58775500D01*
X111408681Y-58775499D01*
X111569845Y-58757340D01*
X111724020Y-58739970D01*
X111724023Y-58739969D01*
X111724035Y-58739968D01*
X112033431Y-58669350D01*
X112332976Y-58564535D01*
X112618901Y-58426840D01*
X112887612Y-58257998D01*
X113135729Y-58060132D01*
X113360132Y-57835729D01*
X113557998Y-57587612D01*
X113726840Y-57318901D01*
X113864535Y-57032976D01*
X113969350Y-56733431D01*
X114039968Y-56424035D01*
X114075500Y-56108677D01*
X114075500Y-55791323D01*
X114039968Y-55475965D01*
X113969350Y-55166569D01*
X113959439Y-55138246D01*
X113943255Y-55091994D01*
X113864535Y-54867024D01*
X113726840Y-54581099D01*
X113557998Y-54312388D01*
X113360132Y-54064271D01*
X113135729Y-53839868D01*
X112887612Y-53642002D01*
X112618901Y-53473160D01*
X112618898Y-53473158D01*
X112332979Y-53335466D01*
X112033442Y-53230653D01*
X112033430Y-53230649D01*
X111794652Y-53176149D01*
X111724035Y-53160032D01*
X111724032Y-53160031D01*
X111724020Y-53160029D01*
X111408683Y-53124500D01*
X111408677Y-53124500D01*
X111091323Y-53124500D01*
X111091316Y-53124500D01*
X110775979Y-53160029D01*
X110775965Y-53160032D01*
X110466569Y-53230649D01*
X110466557Y-53230653D01*
X110167020Y-53335466D01*
X109881101Y-53473158D01*
X109612389Y-53642001D01*
X109364271Y-53839867D01*
X109139867Y-54064271D01*
X108942001Y-54312389D01*
X108773158Y-54581101D01*
X108635466Y-54867020D01*
X108530653Y-55166557D01*
X108530649Y-55166569D01*
X108460032Y-55475965D01*
X108460029Y-55475979D01*
X108424500Y-55791316D01*
X84414262Y-55791316D01*
X84459347Y-55723842D01*
X84612215Y-55437847D01*
X84736314Y-55138246D01*
X84830449Y-54827923D01*
X84830451Y-54827913D01*
X84830454Y-54827902D01*
X84862399Y-54667295D01*
X84893714Y-54509868D01*
X84925500Y-54187143D01*
X84925500Y-53862857D01*
X84893714Y-53540132D01*
X84853005Y-53335473D01*
X84830454Y-53222097D01*
X84830451Y-53222086D01*
X84830450Y-53222083D01*
X84830449Y-53222077D01*
X84736314Y-52911754D01*
X84612215Y-52612153D01*
X84606761Y-52601950D01*
X84459353Y-52326169D01*
X84459352Y-52326167D01*
X84459347Y-52326158D01*
X84279183Y-52056524D01*
X84166825Y-51919616D01*
X84139513Y-51855307D01*
X84151304Y-51786439D01*
X84181047Y-51747613D01*
X84269906Y-51669906D01*
X84468255Y-51443095D01*
X84634604Y-51191870D01*
X84765984Y-50920716D01*
X84841452Y-50691064D01*
X84860047Y-50634479D01*
X84860047Y-50634476D01*
X84860050Y-50634469D01*
X84915123Y-50338238D01*
X84925500Y-50161021D01*
X84925499Y-48828031D01*
X85249500Y-48828031D01*
X85249500Y-49171969D01*
X85259751Y-49276054D01*
X85283210Y-49514249D01*
X85350308Y-49851572D01*
X85450150Y-50180706D01*
X85515400Y-50338233D01*
X85580946Y-50496476D01*
X85581770Y-50498464D01*
X85581772Y-50498469D01*
X85743893Y-50801775D01*
X85743904Y-50801793D01*
X85934975Y-51087751D01*
X85934985Y-51087765D01*
X86153176Y-51353632D01*
X86396367Y-51596823D01*
X86396372Y-51596827D01*
X86396373Y-51596828D01*
X86662240Y-51815019D01*
X86948213Y-52006100D01*
X86948222Y-52006105D01*
X86948224Y-52006106D01*
X87251530Y-52168227D01*
X87251532Y-52168227D01*
X87251538Y-52168231D01*
X87569295Y-52299850D01*
X87898422Y-52399690D01*
X88235750Y-52466789D01*
X88578031Y-52500500D01*
X88578034Y-52500500D01*
X88921966Y-52500500D01*
X88921969Y-52500500D01*
X89264250Y-52466789D01*
X89601578Y-52399690D01*
X89930705Y-52299850D01*
X90248462Y-52168231D01*
X90551787Y-52006100D01*
X90837760Y-51815019D01*
X91103627Y-51596828D01*
X91346828Y-51353627D01*
X91565019Y-51087760D01*
X91756100Y-50801787D01*
X91918231Y-50498462D01*
X92049850Y-50180705D01*
X92149690Y-49851578D01*
X92216789Y-49514250D01*
X92250500Y-49171969D01*
X92250500Y-48874038D01*
X98399500Y-48874038D01*
X98399500Y-49125961D01*
X98438910Y-49374785D01*
X98516760Y-49614383D01*
X98631132Y-49838848D01*
X98779201Y-50042649D01*
X98779205Y-50042654D01*
X98957345Y-50220794D01*
X98957350Y-50220798D01*
X99135117Y-50349952D01*
X99161155Y-50368870D01*
X99304184Y-50441747D01*
X99385616Y-50483239D01*
X99385618Y-50483239D01*
X99385621Y-50483241D01*
X99625215Y-50561090D01*
X99874038Y-50600500D01*
X99874039Y-50600500D01*
X100125961Y-50600500D01*
X100125962Y-50600500D01*
X100374785Y-50561090D01*
X100614379Y-50483241D01*
X100838845Y-50368870D01*
X101042656Y-50220793D01*
X101220793Y-50042656D01*
X101368870Y-49838845D01*
X101483241Y-49614379D01*
X101561090Y-49374785D01*
X101600500Y-49125962D01*
X101600500Y-48874038D01*
X101593213Y-48828031D01*
X107749500Y-48828031D01*
X107749500Y-49171969D01*
X107759751Y-49276054D01*
X107783210Y-49514249D01*
X107850308Y-49851572D01*
X107950150Y-50180706D01*
X108015400Y-50338233D01*
X108080946Y-50496476D01*
X108081770Y-50498464D01*
X108081772Y-50498469D01*
X108243893Y-50801775D01*
X108243904Y-50801793D01*
X108434975Y-51087751D01*
X108434985Y-51087765D01*
X108653176Y-51353632D01*
X108896367Y-51596823D01*
X108896372Y-51596827D01*
X108896373Y-51596828D01*
X109162240Y-51815019D01*
X109448213Y-52006100D01*
X109448222Y-52006105D01*
X109448224Y-52006106D01*
X109751530Y-52168227D01*
X109751532Y-52168227D01*
X109751538Y-52168231D01*
X110069295Y-52299850D01*
X110398422Y-52399690D01*
X110735750Y-52466789D01*
X111078031Y-52500500D01*
X111078034Y-52500500D01*
X111421966Y-52500500D01*
X111421969Y-52500500D01*
X111764250Y-52466789D01*
X112101578Y-52399690D01*
X112430705Y-52299850D01*
X112748462Y-52168231D01*
X113051787Y-52006100D01*
X113291979Y-51845608D01*
X113358656Y-51824731D01*
X113414671Y-51836991D01*
X113648977Y-51949826D01*
X113673292Y-51961536D01*
X113928119Y-52050703D01*
X114012580Y-52080258D01*
X114012592Y-52080262D01*
X114363052Y-52160252D01*
X114720260Y-52200499D01*
X114720261Y-52200500D01*
X114720264Y-52200500D01*
X115079739Y-52200500D01*
X115079739Y-52200499D01*
X115436948Y-52160252D01*
X115787408Y-52080262D01*
X116126708Y-51961536D01*
X116450582Y-51805566D01*
X116754956Y-51614315D01*
X117036003Y-51390188D01*
X117290188Y-51136003D01*
X117514315Y-50854956D01*
X117705566Y-50550582D01*
X117861536Y-50226708D01*
X117980262Y-49887408D01*
X118060252Y-49536948D01*
X118100500Y-49179736D01*
X118100500Y-48820264D01*
X118100499Y-48820259D01*
X132019500Y-48820259D01*
X132019500Y-49179740D01*
X132059746Y-49536935D01*
X132059748Y-49536951D01*
X132139737Y-49887407D01*
X132139741Y-49887419D01*
X132258465Y-50226711D01*
X132414432Y-50550579D01*
X132461619Y-50625676D01*
X132605685Y-50854956D01*
X132658127Y-50920716D01*
X132791343Y-51087765D01*
X132829812Y-51136003D01*
X133083997Y-51390188D01*
X133365044Y-51614315D01*
X133669418Y-51805566D01*
X133993292Y-51961536D01*
X134248119Y-52050703D01*
X134332580Y-52080258D01*
X134332592Y-52080262D01*
X134683052Y-52160252D01*
X135040260Y-52200499D01*
X135040261Y-52200500D01*
X135040264Y-52200500D01*
X135399739Y-52200500D01*
X135399739Y-52200499D01*
X135756948Y-52160252D01*
X136107408Y-52080262D01*
X136446708Y-51961536D01*
X136770582Y-51805566D01*
X137074956Y-51614315D01*
X137356003Y-51390188D01*
X137610188Y-51136003D01*
X137834315Y-50854956D01*
X137949295Y-50671965D01*
X138001628Y-50625676D01*
X138070682Y-50615027D01*
X138134530Y-50643402D01*
X138159281Y-50671965D01*
X138246948Y-50811487D01*
X138465823Y-51085948D01*
X138714052Y-51334177D01*
X138988513Y-51553052D01*
X139285754Y-51739821D01*
X139602038Y-51892136D01*
X139602044Y-51892138D01*
X139933375Y-52008076D01*
X139933387Y-52008080D01*
X140275634Y-52086195D01*
X140624472Y-52125499D01*
X140624473Y-52125500D01*
X140624476Y-52125500D01*
X140975527Y-52125500D01*
X140975527Y-52125499D01*
X141324366Y-52086195D01*
X141666613Y-52008080D01*
X141997962Y-51892136D01*
X142314246Y-51739821D01*
X142501646Y-51622070D01*
X177674500Y-51622070D01*
X177674500Y-51877930D01*
X177681103Y-51919616D01*
X177714526Y-52130640D01*
X177793588Y-52373972D01*
X177793589Y-52373975D01*
X177909750Y-52601950D01*
X178060132Y-52808935D01*
X178060136Y-52808940D01*
X178241059Y-52989863D01*
X178241064Y-52989867D01*
X178421607Y-53121038D01*
X178448053Y-53140252D01*
X178597080Y-53216185D01*
X178676024Y-53256410D01*
X178676027Y-53256411D01*
X178797693Y-53295942D01*
X178919361Y-53335474D01*
X179172070Y-53375500D01*
X179172071Y-53375500D01*
X179427929Y-53375500D01*
X179427930Y-53375500D01*
X179680639Y-53335474D01*
X179923975Y-53256410D01*
X180151947Y-53140252D01*
X180358942Y-52989862D01*
X180539862Y-52808942D01*
X180690252Y-52601947D01*
X180806410Y-52373975D01*
X180885474Y-52130639D01*
X180925500Y-51877930D01*
X180925500Y-51622070D01*
X180885474Y-51369361D01*
X180845942Y-51247693D01*
X180806411Y-51126027D01*
X180806410Y-51126024D01*
X180701795Y-50920708D01*
X180690252Y-50898053D01*
X180658939Y-50854954D01*
X180539867Y-50691064D01*
X180539863Y-50691059D01*
X180358940Y-50510136D01*
X180358935Y-50510132D01*
X180151950Y-50359750D01*
X180151949Y-50359749D01*
X180151947Y-50359748D01*
X180078910Y-50322533D01*
X179923975Y-50243589D01*
X179923972Y-50243588D01*
X179680640Y-50164526D01*
X179554284Y-50144513D01*
X179427930Y-50124500D01*
X179172070Y-50124500D01*
X179087833Y-50137842D01*
X178919359Y-50164526D01*
X178676027Y-50243588D01*
X178676024Y-50243589D01*
X178448049Y-50359750D01*
X178241064Y-50510132D01*
X178241059Y-50510136D01*
X178060136Y-50691059D01*
X178060132Y-50691064D01*
X177909750Y-50898049D01*
X177793589Y-51126024D01*
X177793588Y-51126027D01*
X177714526Y-51369359D01*
X177714526Y-51369361D01*
X177674500Y-51622070D01*
X142501646Y-51622070D01*
X142611487Y-51553052D01*
X142885948Y-51334177D01*
X143134177Y-51085948D01*
X143353052Y-50811487D01*
X143539821Y-50514246D01*
X143692136Y-50197962D01*
X143808080Y-49866613D01*
X143886195Y-49524366D01*
X143925500Y-49175524D01*
X143925500Y-48824476D01*
X143886195Y-48475634D01*
X143808080Y-48133387D01*
X143692136Y-47802038D01*
X143539821Y-47485754D01*
X143353052Y-47188513D01*
X143134177Y-46914052D01*
X142885948Y-46665823D01*
X142861558Y-46646373D01*
X142812067Y-46606905D01*
X142611487Y-46446948D01*
X142314246Y-46260179D01*
X142314243Y-46260177D01*
X141997969Y-46107867D01*
X141997955Y-46107861D01*
X141666624Y-45991923D01*
X141666612Y-45991919D01*
X141324369Y-45913805D01*
X141324353Y-45913803D01*
X140975528Y-45874500D01*
X140975524Y-45874500D01*
X140624476Y-45874500D01*
X140624471Y-45874500D01*
X140275646Y-45913803D01*
X140275630Y-45913805D01*
X139933387Y-45991919D01*
X139933375Y-45991923D01*
X139602044Y-46107861D01*
X139602030Y-46107867D01*
X139285756Y-46260177D01*
X138988514Y-46446947D01*
X138714052Y-46665822D01*
X138465822Y-46914052D01*
X138246947Y-47188514D01*
X138159282Y-47328032D01*
X138106947Y-47374323D01*
X138037894Y-47384971D01*
X137974045Y-47356596D01*
X137949294Y-47328032D01*
X137867723Y-47198213D01*
X137834315Y-47145044D01*
X137610188Y-46863997D01*
X137356003Y-46609812D01*
X137074956Y-46385685D01*
X136770582Y-46194434D01*
X136770579Y-46194432D01*
X136446711Y-46038465D01*
X136107419Y-45919741D01*
X136107407Y-45919737D01*
X135756951Y-45839748D01*
X135756935Y-45839746D01*
X135399740Y-45799500D01*
X135399736Y-45799500D01*
X135040264Y-45799500D01*
X135040259Y-45799500D01*
X134683064Y-45839746D01*
X134683048Y-45839748D01*
X134332592Y-45919737D01*
X134332580Y-45919741D01*
X133993288Y-46038465D01*
X133669420Y-46194432D01*
X133365045Y-46385684D01*
X133083997Y-46609811D01*
X132829811Y-46863997D01*
X132605684Y-47145045D01*
X132414432Y-47449420D01*
X132258465Y-47773288D01*
X132139741Y-48112580D01*
X132139737Y-48112592D01*
X132059748Y-48463048D01*
X132059746Y-48463064D01*
X132019500Y-48820259D01*
X118100499Y-48820259D01*
X118060252Y-48463052D01*
X117980262Y-48112592D01*
X117861536Y-47773292D01*
X117705566Y-47449418D01*
X117514315Y-47145044D01*
X117290188Y-46863997D01*
X117036003Y-46609812D01*
X116754956Y-46385685D01*
X116450582Y-46194434D01*
X116450579Y-46194432D01*
X116126711Y-46038465D01*
X115787419Y-45919741D01*
X115787407Y-45919737D01*
X115436951Y-45839748D01*
X115436935Y-45839746D01*
X115079740Y-45799500D01*
X115079736Y-45799500D01*
X114720264Y-45799500D01*
X114720259Y-45799500D01*
X114363064Y-45839746D01*
X114363048Y-45839748D01*
X114012592Y-45919737D01*
X114012580Y-45919741D01*
X113673288Y-46038465D01*
X113673280Y-46038468D01*
X113414671Y-46163008D01*
X113345730Y-46174360D01*
X113291980Y-46154390D01*
X113051803Y-45993910D01*
X113051775Y-45993893D01*
X112748469Y-45831772D01*
X112748464Y-45831770D01*
X112430706Y-45700150D01*
X112101572Y-45600308D01*
X111764248Y-45533210D01*
X111764249Y-45533210D01*
X111506456Y-45507821D01*
X111421969Y-45499500D01*
X111078031Y-45499500D01*
X110999966Y-45507188D01*
X110735750Y-45533210D01*
X110398427Y-45600308D01*
X110069293Y-45700150D01*
X109751535Y-45831770D01*
X109751530Y-45831772D01*
X109448224Y-45993893D01*
X109448206Y-45993904D01*
X109162248Y-46184975D01*
X109162234Y-46184985D01*
X108896367Y-46403176D01*
X108653176Y-46646367D01*
X108434985Y-46912234D01*
X108434975Y-46912248D01*
X108243904Y-47198206D01*
X108243893Y-47198224D01*
X108081772Y-47501530D01*
X108081770Y-47501535D01*
X107950150Y-47819293D01*
X107850308Y-48148427D01*
X107783210Y-48485750D01*
X107769475Y-48625214D01*
X107749500Y-48828031D01*
X101593213Y-48828031D01*
X101561090Y-48625215D01*
X101483241Y-48385621D01*
X101483239Y-48385618D01*
X101483239Y-48385616D01*
X101441747Y-48304184D01*
X101368870Y-48161155D01*
X101333578Y-48112580D01*
X101220798Y-47957350D01*
X101220794Y-47957345D01*
X101042654Y-47779205D01*
X101042649Y-47779201D01*
X100838848Y-47631132D01*
X100838847Y-47631131D01*
X100838845Y-47631130D01*
X100768747Y-47595413D01*
X100614383Y-47516760D01*
X100374785Y-47438910D01*
X100125962Y-47399500D01*
X99874038Y-47399500D01*
X99772823Y-47415531D01*
X99625214Y-47438910D01*
X99385616Y-47516760D01*
X99161151Y-47631132D01*
X98957350Y-47779201D01*
X98957345Y-47779205D01*
X98779205Y-47957345D01*
X98779201Y-47957350D01*
X98631132Y-48161151D01*
X98516760Y-48385616D01*
X98438910Y-48625214D01*
X98399500Y-48874038D01*
X92250500Y-48874038D01*
X92250500Y-48828031D01*
X92216789Y-48485750D01*
X92149690Y-48148422D01*
X92049850Y-47819295D01*
X91918231Y-47501538D01*
X91909795Y-47485756D01*
X91756106Y-47198224D01*
X91756105Y-47198222D01*
X91756100Y-47198213D01*
X91565019Y-46912240D01*
X91346828Y-46646373D01*
X91346827Y-46646372D01*
X91346823Y-46646367D01*
X91103632Y-46403176D01*
X90837765Y-46184985D01*
X90837764Y-46184984D01*
X90837760Y-46184981D01*
X90551787Y-45993900D01*
X90551782Y-45993897D01*
X90551775Y-45993893D01*
X90248469Y-45831772D01*
X90248464Y-45831770D01*
X89930706Y-45700150D01*
X89601572Y-45600308D01*
X89264248Y-45533210D01*
X89264249Y-45533210D01*
X89006456Y-45507821D01*
X88921969Y-45499500D01*
X88578031Y-45499500D01*
X88499966Y-45507188D01*
X88235750Y-45533210D01*
X87898427Y-45600308D01*
X87569293Y-45700150D01*
X87251535Y-45831770D01*
X87251530Y-45831772D01*
X86948224Y-45993893D01*
X86948206Y-45993904D01*
X86662248Y-46184975D01*
X86662234Y-46184985D01*
X86396367Y-46403176D01*
X86153176Y-46646367D01*
X85934985Y-46912234D01*
X85934975Y-46912248D01*
X85743904Y-47198206D01*
X85743893Y-47198224D01*
X85581772Y-47501530D01*
X85581770Y-47501535D01*
X85450150Y-47819293D01*
X85350308Y-48148427D01*
X85283210Y-48485750D01*
X85269475Y-48625214D01*
X85249500Y-48828031D01*
X84925499Y-48828031D01*
X84925499Y-47888980D01*
X84915123Y-47711762D01*
X84860050Y-47415531D01*
X84860047Y-47415524D01*
X84860047Y-47415520D01*
X84765986Y-47129291D01*
X84765984Y-47129284D01*
X84698484Y-46989971D01*
X84634606Y-46858133D01*
X84634603Y-46858128D01*
X84468256Y-46606906D01*
X84269906Y-46380093D01*
X84043093Y-46181743D01*
X83791871Y-46015396D01*
X83791866Y-46015393D01*
X83520720Y-45884018D01*
X83520716Y-45884016D01*
X83520712Y-45884014D01*
X83520708Y-45884013D01*
X83234479Y-45789952D01*
X83234469Y-45789950D01*
X82938233Y-45734876D01*
X82761021Y-45724500D01*
X80488979Y-45724500D01*
X80311766Y-45734876D01*
X80015530Y-45789950D01*
X80015520Y-45789952D01*
X79729291Y-45884013D01*
X79729279Y-45884018D01*
X79458133Y-46015393D01*
X79458128Y-46015396D01*
X79206906Y-46181743D01*
X78980093Y-46380093D01*
X78781743Y-46606906D01*
X78615396Y-46858128D01*
X78615393Y-46858133D01*
X78484018Y-47129279D01*
X78484013Y-47129291D01*
X78389952Y-47415520D01*
X78389950Y-47415530D01*
X78334876Y-47711766D01*
X78324500Y-47888978D01*
X73500500Y-47888978D01*
X73500500Y-40002311D01*
X73500587Y-39997675D01*
X73500738Y-39993634D01*
X73518500Y-39518915D01*
X73519191Y-39509695D01*
X73572576Y-39035894D01*
X73573953Y-39026756D01*
X73662592Y-38558289D01*
X73664655Y-38549250D01*
X73788058Y-38088704D01*
X73790782Y-38079874D01*
X73948258Y-37629832D01*
X73951633Y-37621230D01*
X74142304Y-37184209D01*
X74146326Y-37175861D01*
X74369099Y-36754352D01*
X74373732Y-36746328D01*
X74627399Y-36342618D01*
X74632610Y-36334975D01*
X74915742Y-35951345D01*
X74921508Y-35944116D01*
X75232511Y-35582724D01*
X75238805Y-35575940D01*
X75575940Y-35238805D01*
X75582724Y-35232511D01*
X75944116Y-34921508D01*
X75951345Y-34915742D01*
X76334975Y-34632610D01*
X76342618Y-34627399D01*
X76746334Y-34373728D01*
X76754352Y-34369099D01*
X77175866Y-34146323D01*
X77184209Y-34142304D01*
X77621230Y-33951633D01*
X77629832Y-33948258D01*
X78079874Y-33790782D01*
X78088704Y-33788058D01*
X78549251Y-33664654D01*
X78558291Y-33662592D01*
X79026756Y-33573953D01*
X79035894Y-33572576D01*
X79509695Y-33519191D01*
X79518915Y-33518500D01*
X79960526Y-33501977D01*
X79997676Y-33500587D01*
X80002312Y-33500500D01*
X80065892Y-33500500D01*
X186934108Y-33500500D01*
X186997688Y-33500500D01*
X187002324Y-33500587D01*
G37*
%TD.AperFunction*%
%TD*%
M02*
