M48
; DRILL file {KiCad 9.0.7} date 2026-04-13T17:13:14+0200
; FORMAT={-:-/ absolute / metric / decimal}
; #@! TF.CreationDate,2026-04-13T17:13:14+02:00
; #@! TF.GenerationSoftware,Kicad,Pcbnew,9.0.7
; #@! TF.FileFunction,Plated,1,2,PTH
FMAT,2
METRIC
; #@! TA.AperFunction,Plated,PTH,ViaDrill
T1C0.300
; #@! TA.AperFunction,Plated,PTH,ViaDrill
T2C0.600
; #@! TA.AperFunction,Plated,PTH,ComponentDrill
T3C0.760
; #@! TA.AperFunction,Plated,PTH,ComponentDrill
T4C1.000
; #@! TA.AperFunction,Plated,PTH,ComponentDrill
T5C1.100
; #@! TA.AperFunction,Plated,PTH,ComponentDrill
T6C1.200
; #@! TA.AperFunction,Plated,PTH,ComponentDrill
T7C1.300
; #@! TA.AperFunction,Plated,PTH,ComponentDrill
T8C1.500
; #@! TA.AperFunction,Plated,PTH,ComponentDrill
T9C2.700
%
G90
G05
T1
X75.5Y-39.0
X75.5Y-41.0
X75.5Y-43.0
X75.5Y-45.0
X75.5Y-47.0
X75.5Y-49.0
X75.5Y-51.0
X75.5Y-53.0
X75.5Y-55.0
X75.5Y-57.0
X75.5Y-59.0
X75.5Y-61.0
X75.5Y-63.0
X75.5Y-65.0
X75.5Y-67.0
X75.5Y-69.0
X75.5Y-71.0
X75.5Y-73.0
X75.5Y-75.0
X75.5Y-77.0
X75.5Y-79.0
X75.5Y-81.0
X75.5Y-83.0
X75.5Y-85.0
X75.5Y-87.0
X76.0Y-88.5
X76.5Y-37.0
X77.5Y-90.0
X78.0Y-35.5
X78.5Y-43.0
X78.5Y-58.0
X78.5Y-63.0
X78.5Y-68.0
X78.5Y-73.0
X78.5Y-78.0
X78.5Y-83.0
X79.5Y-91.0
X79.75Y-35.0
X81.5Y-35.0
X81.5Y-91.0
X83.5Y-35.0
X83.5Y-38.0
X83.5Y-43.0
X83.5Y-63.0
X83.5Y-68.0
X83.5Y-73.0
X83.5Y-78.0
X83.5Y-83.0
X83.5Y-88.0
X83.5Y-91.0
X85.5Y-35.0
X85.5Y-91.0
X87.5Y-35.0
X87.5Y-91.0
X88.5Y-38.0
X88.5Y-43.0
X88.5Y-53.0
X88.5Y-63.0
X88.5Y-68.0
X88.5Y-73.0
X88.5Y-78.0
X88.5Y-83.0
X88.5Y-88.0
X89.5Y-35.0
X89.5Y-91.0
X91.5Y-35.0
X91.5Y-91.0
X93.5Y-35.0
X93.5Y-38.0
X93.5Y-43.0
X93.5Y-48.0
X93.5Y-53.0
X93.5Y-63.0
X93.5Y-68.0
X93.5Y-73.0
X93.5Y-78.0
X93.5Y-83.0
X93.5Y-88.0
X93.5Y-91.0
X95.5Y-35.0
X95.5Y-91.0
X97.5Y-35.0
X97.5Y-91.0
X98.5Y-38.0
X98.5Y-43.0
X98.5Y-53.0
X98.5Y-63.0
X98.5Y-68.0
X98.5Y-73.0
X98.5Y-78.0
X98.5Y-83.0
X98.5Y-88.0
X99.5Y-35.0
X99.5Y-91.0
X101.5Y-35.0
X101.5Y-91.0
X103.5Y-35.0
X103.5Y-38.0
X103.5Y-43.0
X103.5Y-48.0
X103.5Y-53.0
X103.5Y-63.0
X103.5Y-68.0
X103.5Y-73.0
X103.5Y-78.0
X103.5Y-83.0
X103.5Y-88.0
X103.5Y-91.0
X105.5Y-35.0
X105.5Y-91.0
X107.5Y-35.0
X107.5Y-91.0
X108.5Y-38.0
X108.5Y-43.0
X108.5Y-63.0
X108.5Y-68.0
X108.5Y-73.0
X108.5Y-78.0
X108.5Y-88.0
X109.5Y-35.0
X109.5Y-91.0
X111.5Y-35.0
X111.5Y-91.0
X113.5Y-35.0
X113.5Y-38.0
X113.5Y-43.0
X113.5Y-63.0
X113.5Y-68.0
X113.5Y-73.0
X113.5Y-83.0
X113.5Y-88.0
X113.5Y-91.0
X115.5Y-35.0
X115.5Y-91.0
X117.5Y-35.0
X117.5Y-91.0
X118.5Y-38.0
X118.5Y-43.0
X118.5Y-48.0
X118.5Y-53.0
X118.5Y-63.0
X118.5Y-68.0
X118.5Y-73.0
X118.5Y-78.0
X118.5Y-88.0
X119.5Y-35.0
X119.5Y-91.0
X121.5Y-35.0
X121.5Y-91.0
X123.5Y-35.0
X123.5Y-38.0
X123.5Y-43.0
X123.5Y-48.0
X123.5Y-53.0
X123.5Y-63.0
X123.5Y-68.0
X123.5Y-73.0
X123.5Y-78.0
X123.5Y-83.0
X123.5Y-91.0
X125.5Y-35.0
X125.5Y-91.0
X127.5Y-35.0
X127.5Y-91.0
X128.5Y-38.0
X128.5Y-43.0
X128.5Y-48.0
X128.5Y-53.0
X128.5Y-63.0
X128.5Y-68.0
X128.5Y-73.0
X128.5Y-78.0
X129.5Y-35.0
X129.5Y-91.0
X131.5Y-35.0
X131.5Y-91.0
X133.5Y-35.0
X133.5Y-38.0
X133.5Y-43.0
X133.5Y-53.0
X133.5Y-63.0
X133.5Y-68.0
X133.5Y-73.0
X133.5Y-78.0
X133.5Y-83.0
X133.5Y-91.0
X135.5Y-35.0
X135.5Y-91.0
X137.5Y-35.0
X137.5Y-91.0
X138.5Y-38.0
X138.5Y-43.0
X138.5Y-53.0
X138.5Y-63.0
X138.5Y-68.0
X138.5Y-73.0
X138.5Y-78.0
X138.5Y-83.0
X139.5Y-35.0
X139.5Y-91.0
X141.5Y-35.0
X141.5Y-91.0
X143.5Y-35.0
X143.5Y-38.0
X143.5Y-43.0
X143.5Y-53.0
X143.5Y-63.0
X143.5Y-68.0
X143.5Y-73.0
X143.5Y-78.0
X143.5Y-91.0
X145.5Y-35.0
X145.5Y-91.0
X147.5Y-35.0
X147.5Y-91.0
X148.5Y-38.0
X148.5Y-43.0
X148.5Y-48.0
X148.5Y-53.0
X148.5Y-58.0
X148.5Y-63.0
X148.5Y-68.0
X148.5Y-73.0
X148.5Y-78.0
X148.5Y-83.0
X148.5Y-88.0
X149.5Y-35.0
X149.5Y-91.0
X151.5Y-35.0
X153.5Y-35.0
X153.5Y-38.0
X153.5Y-43.0
X153.5Y-48.0
X153.5Y-53.0
X153.5Y-58.0
X153.5Y-63.0
X153.5Y-68.0
X153.5Y-73.0
X155.5Y-35.0
X157.5Y-35.0
X158.5Y-38.0
X158.5Y-43.0
X158.5Y-48.0
X158.5Y-53.0
X158.5Y-58.0
X158.5Y-63.0
X158.5Y-68.0
X158.5Y-73.0
X159.5Y-35.0
X161.5Y-35.0
X163.5Y-35.0
X163.5Y-38.0
X163.5Y-43.0
X163.5Y-48.0
X163.5Y-53.0
X163.5Y-58.0
X163.5Y-63.0
X163.5Y-68.0
X163.5Y-83.0
X163.5Y-88.0
X163.5Y-91.0
X165.5Y-35.0
X165.5Y-91.0
X167.5Y-35.0
X167.5Y-91.0
X168.5Y-38.0
X168.5Y-43.0
X168.5Y-48.0
X168.5Y-53.0
X168.5Y-58.0
X168.5Y-63.0
X168.5Y-68.0
X168.5Y-73.0
X168.5Y-78.0
X168.5Y-83.0
X168.5Y-88.0
X169.5Y-35.0
X169.5Y-91.0
X171.5Y-35.0
X171.5Y-91.0
X173.5Y-35.0
X173.5Y-38.0
X173.5Y-43.0
X173.5Y-48.0
X173.5Y-53.0
X173.5Y-58.0
X173.5Y-63.0
X173.5Y-68.0
X173.5Y-73.0
X173.5Y-78.0
X173.5Y-83.0
X173.5Y-88.0
X173.5Y-91.0
X175.5Y-35.0
X175.5Y-91.0
X177.5Y-35.0
X177.5Y-91.0
X178.5Y-38.0
X178.5Y-43.0
X178.5Y-48.0
X178.5Y-63.0
X178.5Y-68.0
X178.5Y-73.0
X178.5Y-78.0
X178.5Y-83.0
X178.5Y-88.0
X179.5Y-35.0
X179.5Y-91.0
X181.5Y-35.0
X181.5Y-91.0
X183.5Y-35.0
X183.5Y-38.0
X183.5Y-43.0
X183.5Y-48.0
X183.5Y-53.0
X183.5Y-58.0
X183.5Y-63.0
X183.5Y-78.0
X183.5Y-83.0
X183.5Y-88.0
X183.5Y-91.0
X185.5Y-35.0
X185.5Y-91.0
X187.5Y-35.0
X187.5Y-91.0
X188.5Y-43.0
X188.5Y-53.0
X188.5Y-58.0
X188.5Y-63.0
X188.5Y-68.0
X188.5Y-73.0
X188.5Y-78.0
X188.5Y-83.0
X188.5Y-88.0
X189.25Y-35.75
X189.5Y-90.25
X190.75Y-37.0
X191.0Y-89.0
X191.5Y-39.0
X191.5Y-41.0
X191.5Y-43.0
X191.5Y-49.0
X191.5Y-51.0
X191.5Y-53.0
X191.5Y-55.0
X191.5Y-57.0
X191.5Y-59.0
X191.5Y-61.0
X191.5Y-63.0
X191.5Y-65.0
X191.5Y-67.0
X191.5Y-69.0
X191.5Y-71.0
X191.5Y-73.0
X191.5Y-75.0
X191.5Y-77.0
X191.5Y-79.0
X191.5Y-81.0
X191.5Y-83.0
X191.5Y-85.0
X191.5Y-87.0
T2
X128.3Y-82.8
T3
X110.29Y-75.235
X111.56Y-77.775
X112.83Y-75.235
X114.1Y-77.775
X115.37Y-75.235
X116.64Y-77.775
T4
X124.82Y-88.7
X127.36Y-88.7
X129.9Y-88.7
T5
X111.25Y-55.95
X118.75Y-59.75
T6
X114.9Y-49.0
X135.22Y-49.0
X180.05Y-68.925
X182.59Y-68.925
X185.13Y-68.925
T7
X81.625Y-49.025
X81.625Y-54.025
X88.75Y-49.0
X111.25Y-49.0
T8
X140.8Y-49.0
X140.8Y-59.75
X179.3Y-51.75
X179.3Y-59.75
T9
X80.0Y-40.0
X80.0Y-86.1
X187.0Y-40.0
X187.0Y-86.1
M30
