%TF.GenerationSoftware,KiCad,Pcbnew,9.0.7*%
%TF.CreationDate,2026-04-13T17:13:09+02:00*%
%TF.ProjectId,PCB_Khess_Cash_Drawer,5043425f-4b68-4657-9373-5f436173685f,rev?*%
%TF.SameCoordinates,Original*%
%TF.FileFunction,Legend,Top*%
%TF.FilePolarity,Positive*%
%FSLAX46Y46*%
G04 Gerber Fmt 4.6, Leading zero omitted, Abs format (unit mm)*
G04 Created by KiCad (PCBNEW 9.0.7) date 2026-04-13 17:13:09*
%MOMM*%
%LPD*%
G01*
G04 APERTURE LIST*
%ADD10C,0.150000*%
%ADD11C,0.120000*%
%ADD12C,0.127000*%
%ADD13C,0.200000*%
G04 APERTURE END LIST*
D10*
X79238095Y-82904819D02*
X79238095Y-81904819D01*
X79238095Y-82381009D02*
X79809523Y-82381009D01*
X79809523Y-82904819D02*
X79809523Y-81904819D01*
X80238095Y-82000057D02*
X80285714Y-81952438D01*
X80285714Y-81952438D02*
X80380952Y-81904819D01*
X80380952Y-81904819D02*
X80619047Y-81904819D01*
X80619047Y-81904819D02*
X80714285Y-81952438D01*
X80714285Y-81952438D02*
X80761904Y-82000057D01*
X80761904Y-82000057D02*
X80809523Y-82095295D01*
X80809523Y-82095295D02*
X80809523Y-82190533D01*
X80809523Y-82190533D02*
X80761904Y-82333390D01*
X80761904Y-82333390D02*
X80190476Y-82904819D01*
X80190476Y-82904819D02*
X80809523Y-82904819D01*
X131734819Y-89033333D02*
X132449104Y-89033333D01*
X132449104Y-89033333D02*
X132591961Y-89080952D01*
X132591961Y-89080952D02*
X132687200Y-89176190D01*
X132687200Y-89176190D02*
X132734819Y-89319047D01*
X132734819Y-89319047D02*
X132734819Y-89414285D01*
X131830057Y-88604761D02*
X131782438Y-88557142D01*
X131782438Y-88557142D02*
X131734819Y-88461904D01*
X131734819Y-88461904D02*
X131734819Y-88223809D01*
X131734819Y-88223809D02*
X131782438Y-88128571D01*
X131782438Y-88128571D02*
X131830057Y-88080952D01*
X131830057Y-88080952D02*
X131925295Y-88033333D01*
X131925295Y-88033333D02*
X132020533Y-88033333D01*
X132020533Y-88033333D02*
X132163390Y-88080952D01*
X132163390Y-88080952D02*
X132734819Y-88652380D01*
X132734819Y-88652380D02*
X132734819Y-88033333D01*
X86199819Y-51858333D02*
X86914104Y-51858333D01*
X86914104Y-51858333D02*
X87056961Y-51905952D01*
X87056961Y-51905952D02*
X87152200Y-52001190D01*
X87152200Y-52001190D02*
X87199819Y-52144047D01*
X87199819Y-52144047D02*
X87199819Y-52239285D01*
X87199819Y-50858333D02*
X87199819Y-51429761D01*
X87199819Y-51144047D02*
X86199819Y-51144047D01*
X86199819Y-51144047D02*
X86342676Y-51239285D01*
X86342676Y-51239285D02*
X86437914Y-51334523D01*
X86437914Y-51334523D02*
X86485533Y-51429761D01*
X114404761Y-54304819D02*
X114071428Y-53828628D01*
X113833333Y-54304819D02*
X113833333Y-53304819D01*
X113833333Y-53304819D02*
X114214285Y-53304819D01*
X114214285Y-53304819D02*
X114309523Y-53352438D01*
X114309523Y-53352438D02*
X114357142Y-53400057D01*
X114357142Y-53400057D02*
X114404761Y-53495295D01*
X114404761Y-53495295D02*
X114404761Y-53638152D01*
X114404761Y-53638152D02*
X114357142Y-53733390D01*
X114357142Y-53733390D02*
X114309523Y-53781009D01*
X114309523Y-53781009D02*
X114214285Y-53828628D01*
X114214285Y-53828628D02*
X113833333Y-53828628D01*
X114690476Y-53304819D02*
X115023809Y-54304819D01*
X115023809Y-54304819D02*
X115357142Y-53304819D01*
X116214285Y-54304819D02*
X115642857Y-54304819D01*
X115928571Y-54304819D02*
X115928571Y-53304819D01*
X115928571Y-53304819D02*
X115833333Y-53447676D01*
X115833333Y-53447676D02*
X115738095Y-53542914D01*
X115738095Y-53542914D02*
X115642857Y-53590533D01*
X190836905Y-48454819D02*
X190836905Y-47454819D01*
X190836905Y-47454819D02*
X191075000Y-47454819D01*
X191075000Y-47454819D02*
X191217857Y-47502438D01*
X191217857Y-47502438D02*
X191313095Y-47597676D01*
X191313095Y-47597676D02*
X191360714Y-47692914D01*
X191360714Y-47692914D02*
X191408333Y-47883390D01*
X191408333Y-47883390D02*
X191408333Y-48026247D01*
X191408333Y-48026247D02*
X191360714Y-48216723D01*
X191360714Y-48216723D02*
X191313095Y-48311961D01*
X191313095Y-48311961D02*
X191217857Y-48407200D01*
X191217857Y-48407200D02*
X191075000Y-48454819D01*
X191075000Y-48454819D02*
X190836905Y-48454819D01*
X191789286Y-47550057D02*
X191836905Y-47502438D01*
X191836905Y-47502438D02*
X191932143Y-47454819D01*
X191932143Y-47454819D02*
X192170238Y-47454819D01*
X192170238Y-47454819D02*
X192265476Y-47502438D01*
X192265476Y-47502438D02*
X192313095Y-47550057D01*
X192313095Y-47550057D02*
X192360714Y-47645295D01*
X192360714Y-47645295D02*
X192360714Y-47740533D01*
X192360714Y-47740533D02*
X192313095Y-47883390D01*
X192313095Y-47883390D02*
X191741667Y-48454819D01*
X191741667Y-48454819D02*
X192360714Y-48454819D01*
X163704819Y-71066666D02*
X163228628Y-71399999D01*
X163704819Y-71638094D02*
X162704819Y-71638094D01*
X162704819Y-71638094D02*
X162704819Y-71257142D01*
X162704819Y-71257142D02*
X162752438Y-71161904D01*
X162752438Y-71161904D02*
X162800057Y-71114285D01*
X162800057Y-71114285D02*
X162895295Y-71066666D01*
X162895295Y-71066666D02*
X163038152Y-71066666D01*
X163038152Y-71066666D02*
X163133390Y-71114285D01*
X163133390Y-71114285D02*
X163181009Y-71161904D01*
X163181009Y-71161904D02*
X163228628Y-71257142D01*
X163228628Y-71257142D02*
X163228628Y-71638094D01*
X163704819Y-70114285D02*
X163704819Y-70685713D01*
X163704819Y-70399999D02*
X162704819Y-70399999D01*
X162704819Y-70399999D02*
X162847676Y-70495237D01*
X162847676Y-70495237D02*
X162942914Y-70590475D01*
X162942914Y-70590475D02*
X162990533Y-70685713D01*
X186238095Y-36804819D02*
X186238095Y-35804819D01*
X186238095Y-36281009D02*
X186809523Y-36281009D01*
X186809523Y-36804819D02*
X186809523Y-35804819D01*
X187190476Y-35804819D02*
X187809523Y-35804819D01*
X187809523Y-35804819D02*
X187476190Y-36185771D01*
X187476190Y-36185771D02*
X187619047Y-36185771D01*
X187619047Y-36185771D02*
X187714285Y-36233390D01*
X187714285Y-36233390D02*
X187761904Y-36281009D01*
X187761904Y-36281009D02*
X187809523Y-36376247D01*
X187809523Y-36376247D02*
X187809523Y-36614342D01*
X187809523Y-36614342D02*
X187761904Y-36709580D01*
X187761904Y-36709580D02*
X187714285Y-36757200D01*
X187714285Y-36757200D02*
X187619047Y-36804819D01*
X187619047Y-36804819D02*
X187333333Y-36804819D01*
X187333333Y-36804819D02*
X187238095Y-36757200D01*
X187238095Y-36757200D02*
X187190476Y-36709580D01*
X139210714Y-37079819D02*
X139210714Y-36079819D01*
X139210714Y-36079819D02*
X139591666Y-36079819D01*
X139591666Y-36079819D02*
X139686904Y-36127438D01*
X139686904Y-36127438D02*
X139734523Y-36175057D01*
X139734523Y-36175057D02*
X139782142Y-36270295D01*
X139782142Y-36270295D02*
X139782142Y-36413152D01*
X139782142Y-36413152D02*
X139734523Y-36508390D01*
X139734523Y-36508390D02*
X139686904Y-36556009D01*
X139686904Y-36556009D02*
X139591666Y-36603628D01*
X139591666Y-36603628D02*
X139210714Y-36603628D01*
X140163095Y-37032200D02*
X140305952Y-37079819D01*
X140305952Y-37079819D02*
X140544047Y-37079819D01*
X140544047Y-37079819D02*
X140639285Y-37032200D01*
X140639285Y-37032200D02*
X140686904Y-36984580D01*
X140686904Y-36984580D02*
X140734523Y-36889342D01*
X140734523Y-36889342D02*
X140734523Y-36794104D01*
X140734523Y-36794104D02*
X140686904Y-36698866D01*
X140686904Y-36698866D02*
X140639285Y-36651247D01*
X140639285Y-36651247D02*
X140544047Y-36603628D01*
X140544047Y-36603628D02*
X140353571Y-36556009D01*
X140353571Y-36556009D02*
X140258333Y-36508390D01*
X140258333Y-36508390D02*
X140210714Y-36460771D01*
X140210714Y-36460771D02*
X140163095Y-36365533D01*
X140163095Y-36365533D02*
X140163095Y-36270295D01*
X140163095Y-36270295D02*
X140210714Y-36175057D01*
X140210714Y-36175057D02*
X140258333Y-36127438D01*
X140258333Y-36127438D02*
X140353571Y-36079819D01*
X140353571Y-36079819D02*
X140591666Y-36079819D01*
X140591666Y-36079819D02*
X140734523Y-36127438D01*
X141115476Y-36175057D02*
X141163095Y-36127438D01*
X141163095Y-36127438D02*
X141258333Y-36079819D01*
X141258333Y-36079819D02*
X141496428Y-36079819D01*
X141496428Y-36079819D02*
X141591666Y-36127438D01*
X141591666Y-36127438D02*
X141639285Y-36175057D01*
X141639285Y-36175057D02*
X141686904Y-36270295D01*
X141686904Y-36270295D02*
X141686904Y-36365533D01*
X141686904Y-36365533D02*
X141639285Y-36508390D01*
X141639285Y-36508390D02*
X141067857Y-37079819D01*
X141067857Y-37079819D02*
X141686904Y-37079819D01*
X79238095Y-36804819D02*
X79238095Y-35804819D01*
X79238095Y-36281009D02*
X79809523Y-36281009D01*
X79809523Y-36804819D02*
X79809523Y-35804819D01*
X80809523Y-36804819D02*
X80238095Y-36804819D01*
X80523809Y-36804819D02*
X80523809Y-35804819D01*
X80523809Y-35804819D02*
X80428571Y-35947676D01*
X80428571Y-35947676D02*
X80333333Y-36042914D01*
X80333333Y-36042914D02*
X80238095Y-36090533D01*
X181828095Y-65319819D02*
X181828095Y-66129342D01*
X181828095Y-66129342D02*
X181875714Y-66224580D01*
X181875714Y-66224580D02*
X181923333Y-66272200D01*
X181923333Y-66272200D02*
X182018571Y-66319819D01*
X182018571Y-66319819D02*
X182209047Y-66319819D01*
X182209047Y-66319819D02*
X182304285Y-66272200D01*
X182304285Y-66272200D02*
X182351904Y-66224580D01*
X182351904Y-66224580D02*
X182399523Y-66129342D01*
X182399523Y-66129342D02*
X182399523Y-65319819D01*
X183399523Y-66319819D02*
X182828095Y-66319819D01*
X183113809Y-66319819D02*
X183113809Y-65319819D01*
X183113809Y-65319819D02*
X183018571Y-65462676D01*
X183018571Y-65462676D02*
X182923333Y-65557914D01*
X182923333Y-65557914D02*
X182828095Y-65605533D01*
X164200057Y-84595238D02*
X164152438Y-84690476D01*
X164152438Y-84690476D02*
X164057200Y-84785714D01*
X164057200Y-84785714D02*
X163914342Y-84928571D01*
X163914342Y-84928571D02*
X163866723Y-85023809D01*
X163866723Y-85023809D02*
X163866723Y-85119047D01*
X164104819Y-85071428D02*
X164057200Y-85166666D01*
X164057200Y-85166666D02*
X163961961Y-85261904D01*
X163961961Y-85261904D02*
X163771485Y-85309523D01*
X163771485Y-85309523D02*
X163438152Y-85309523D01*
X163438152Y-85309523D02*
X163247676Y-85261904D01*
X163247676Y-85261904D02*
X163152438Y-85166666D01*
X163152438Y-85166666D02*
X163104819Y-85071428D01*
X163104819Y-85071428D02*
X163104819Y-84880952D01*
X163104819Y-84880952D02*
X163152438Y-84785714D01*
X163152438Y-84785714D02*
X163247676Y-84690476D01*
X163247676Y-84690476D02*
X163438152Y-84642857D01*
X163438152Y-84642857D02*
X163771485Y-84642857D01*
X163771485Y-84642857D02*
X163961961Y-84690476D01*
X163961961Y-84690476D02*
X164057200Y-84785714D01*
X164057200Y-84785714D02*
X164104819Y-84880952D01*
X164104819Y-84880952D02*
X164104819Y-85071428D01*
X164104819Y-83690476D02*
X164104819Y-84261904D01*
X164104819Y-83976190D02*
X163104819Y-83976190D01*
X163104819Y-83976190D02*
X163247676Y-84071428D01*
X163247676Y-84071428D02*
X163342914Y-84166666D01*
X163342914Y-84166666D02*
X163390533Y-84261904D01*
X191609580Y-54616666D02*
X191657200Y-54664285D01*
X191657200Y-54664285D02*
X191704819Y-54807142D01*
X191704819Y-54807142D02*
X191704819Y-54902380D01*
X191704819Y-54902380D02*
X191657200Y-55045237D01*
X191657200Y-55045237D02*
X191561961Y-55140475D01*
X191561961Y-55140475D02*
X191466723Y-55188094D01*
X191466723Y-55188094D02*
X191276247Y-55235713D01*
X191276247Y-55235713D02*
X191133390Y-55235713D01*
X191133390Y-55235713D02*
X190942914Y-55188094D01*
X190942914Y-55188094D02*
X190847676Y-55140475D01*
X190847676Y-55140475D02*
X190752438Y-55045237D01*
X190752438Y-55045237D02*
X190704819Y-54902380D01*
X190704819Y-54902380D02*
X190704819Y-54807142D01*
X190704819Y-54807142D02*
X190752438Y-54664285D01*
X190752438Y-54664285D02*
X190800057Y-54616666D01*
X191038152Y-53759523D02*
X191704819Y-53759523D01*
X190657200Y-53997618D02*
X191371485Y-54235713D01*
X191371485Y-54235713D02*
X191371485Y-53616666D01*
X148504819Y-88163094D02*
X147504819Y-88163094D01*
X147504819Y-88163094D02*
X147504819Y-87924999D01*
X147504819Y-87924999D02*
X147552438Y-87782142D01*
X147552438Y-87782142D02*
X147647676Y-87686904D01*
X147647676Y-87686904D02*
X147742914Y-87639285D01*
X147742914Y-87639285D02*
X147933390Y-87591666D01*
X147933390Y-87591666D02*
X148076247Y-87591666D01*
X148076247Y-87591666D02*
X148266723Y-87639285D01*
X148266723Y-87639285D02*
X148361961Y-87686904D01*
X148361961Y-87686904D02*
X148457200Y-87782142D01*
X148457200Y-87782142D02*
X148504819Y-87924999D01*
X148504819Y-87924999D02*
X148504819Y-88163094D01*
X148504819Y-86639285D02*
X148504819Y-87210713D01*
X148504819Y-86924999D02*
X147504819Y-86924999D01*
X147504819Y-86924999D02*
X147647676Y-87020237D01*
X147647676Y-87020237D02*
X147742914Y-87115475D01*
X147742914Y-87115475D02*
X147790533Y-87210713D01*
X124893333Y-46084819D02*
X124560000Y-45608628D01*
X124321905Y-46084819D02*
X124321905Y-45084819D01*
X124321905Y-45084819D02*
X124702857Y-45084819D01*
X124702857Y-45084819D02*
X124798095Y-45132438D01*
X124798095Y-45132438D02*
X124845714Y-45180057D01*
X124845714Y-45180057D02*
X124893333Y-45275295D01*
X124893333Y-45275295D02*
X124893333Y-45418152D01*
X124893333Y-45418152D02*
X124845714Y-45513390D01*
X124845714Y-45513390D02*
X124798095Y-45561009D01*
X124798095Y-45561009D02*
X124702857Y-45608628D01*
X124702857Y-45608628D02*
X124321905Y-45608628D01*
X125226667Y-45084819D02*
X125845714Y-45084819D01*
X125845714Y-45084819D02*
X125512381Y-45465771D01*
X125512381Y-45465771D02*
X125655238Y-45465771D01*
X125655238Y-45465771D02*
X125750476Y-45513390D01*
X125750476Y-45513390D02*
X125798095Y-45561009D01*
X125798095Y-45561009D02*
X125845714Y-45656247D01*
X125845714Y-45656247D02*
X125845714Y-45894342D01*
X125845714Y-45894342D02*
X125798095Y-45989580D01*
X125798095Y-45989580D02*
X125750476Y-46037200D01*
X125750476Y-46037200D02*
X125655238Y-46084819D01*
X125655238Y-46084819D02*
X125369524Y-46084819D01*
X125369524Y-46084819D02*
X125274286Y-46037200D01*
X125274286Y-46037200D02*
X125226667Y-45989580D01*
X99666666Y-42931009D02*
X99333333Y-42931009D01*
X99333333Y-43454819D02*
X99333333Y-42454819D01*
X99333333Y-42454819D02*
X99809523Y-42454819D01*
X100714285Y-43454819D02*
X100142857Y-43454819D01*
X100428571Y-43454819D02*
X100428571Y-42454819D01*
X100428571Y-42454819D02*
X100333333Y-42597676D01*
X100333333Y-42597676D02*
X100238095Y-42692914D01*
X100238095Y-42692914D02*
X100142857Y-42740533D01*
X108296666Y-72529819D02*
X108296666Y-73244104D01*
X108296666Y-73244104D02*
X108249047Y-73386961D01*
X108249047Y-73386961D02*
X108153809Y-73482200D01*
X108153809Y-73482200D02*
X108010952Y-73529819D01*
X108010952Y-73529819D02*
X107915714Y-73529819D01*
X108677619Y-72529819D02*
X109296666Y-72529819D01*
X109296666Y-72529819D02*
X108963333Y-72910771D01*
X108963333Y-72910771D02*
X109106190Y-72910771D01*
X109106190Y-72910771D02*
X109201428Y-72958390D01*
X109201428Y-72958390D02*
X109249047Y-73006009D01*
X109249047Y-73006009D02*
X109296666Y-73101247D01*
X109296666Y-73101247D02*
X109296666Y-73339342D01*
X109296666Y-73339342D02*
X109249047Y-73434580D01*
X109249047Y-73434580D02*
X109201428Y-73482200D01*
X109201428Y-73482200D02*
X109106190Y-73529819D01*
X109106190Y-73529819D02*
X108820476Y-73529819D01*
X108820476Y-73529819D02*
X108725238Y-73482200D01*
X108725238Y-73482200D02*
X108677619Y-73434580D01*
X174682080Y-71991666D02*
X174729700Y-72039285D01*
X174729700Y-72039285D02*
X174777319Y-72182142D01*
X174777319Y-72182142D02*
X174777319Y-72277380D01*
X174777319Y-72277380D02*
X174729700Y-72420237D01*
X174729700Y-72420237D02*
X174634461Y-72515475D01*
X174634461Y-72515475D02*
X174539223Y-72563094D01*
X174539223Y-72563094D02*
X174348747Y-72610713D01*
X174348747Y-72610713D02*
X174205890Y-72610713D01*
X174205890Y-72610713D02*
X174015414Y-72563094D01*
X174015414Y-72563094D02*
X173920176Y-72515475D01*
X173920176Y-72515475D02*
X173824938Y-72420237D01*
X173824938Y-72420237D02*
X173777319Y-72277380D01*
X173777319Y-72277380D02*
X173777319Y-72182142D01*
X173777319Y-72182142D02*
X173824938Y-72039285D01*
X173824938Y-72039285D02*
X173872557Y-71991666D01*
X173872557Y-71610713D02*
X173824938Y-71563094D01*
X173824938Y-71563094D02*
X173777319Y-71467856D01*
X173777319Y-71467856D02*
X173777319Y-71229761D01*
X173777319Y-71229761D02*
X173824938Y-71134523D01*
X173824938Y-71134523D02*
X173872557Y-71086904D01*
X173872557Y-71086904D02*
X173967795Y-71039285D01*
X173967795Y-71039285D02*
X174063033Y-71039285D01*
X174063033Y-71039285D02*
X174205890Y-71086904D01*
X174205890Y-71086904D02*
X174777319Y-71658332D01*
X174777319Y-71658332D02*
X174777319Y-71039285D01*
X184633333Y-48834580D02*
X184585714Y-48882200D01*
X184585714Y-48882200D02*
X184442857Y-48929819D01*
X184442857Y-48929819D02*
X184347619Y-48929819D01*
X184347619Y-48929819D02*
X184204762Y-48882200D01*
X184204762Y-48882200D02*
X184109524Y-48786961D01*
X184109524Y-48786961D02*
X184061905Y-48691723D01*
X184061905Y-48691723D02*
X184014286Y-48501247D01*
X184014286Y-48501247D02*
X184014286Y-48358390D01*
X184014286Y-48358390D02*
X184061905Y-48167914D01*
X184061905Y-48167914D02*
X184109524Y-48072676D01*
X184109524Y-48072676D02*
X184204762Y-47977438D01*
X184204762Y-47977438D02*
X184347619Y-47929819D01*
X184347619Y-47929819D02*
X184442857Y-47929819D01*
X184442857Y-47929819D02*
X184585714Y-47977438D01*
X184585714Y-47977438D02*
X184633333Y-48025057D01*
X185538095Y-47929819D02*
X185061905Y-47929819D01*
X185061905Y-47929819D02*
X185014286Y-48406009D01*
X185014286Y-48406009D02*
X185061905Y-48358390D01*
X185061905Y-48358390D02*
X185157143Y-48310771D01*
X185157143Y-48310771D02*
X185395238Y-48310771D01*
X185395238Y-48310771D02*
X185490476Y-48358390D01*
X185490476Y-48358390D02*
X185538095Y-48406009D01*
X185538095Y-48406009D02*
X185585714Y-48501247D01*
X185585714Y-48501247D02*
X185585714Y-48739342D01*
X185585714Y-48739342D02*
X185538095Y-48834580D01*
X185538095Y-48834580D02*
X185490476Y-48882200D01*
X185490476Y-48882200D02*
X185395238Y-48929819D01*
X185395238Y-48929819D02*
X185157143Y-48929819D01*
X185157143Y-48929819D02*
X185061905Y-48882200D01*
X185061905Y-48882200D02*
X185014286Y-48834580D01*
X171413333Y-67929819D02*
X170937143Y-67929819D01*
X170937143Y-67929819D02*
X170937143Y-66929819D01*
X172270476Y-67929819D02*
X171699048Y-67929819D01*
X171984762Y-67929819D02*
X171984762Y-66929819D01*
X171984762Y-66929819D02*
X171889524Y-67072676D01*
X171889524Y-67072676D02*
X171794286Y-67167914D01*
X171794286Y-67167914D02*
X171699048Y-67215533D01*
X158544819Y-71054166D02*
X158068628Y-71387499D01*
X158544819Y-71625594D02*
X157544819Y-71625594D01*
X157544819Y-71625594D02*
X157544819Y-71244642D01*
X157544819Y-71244642D02*
X157592438Y-71149404D01*
X157592438Y-71149404D02*
X157640057Y-71101785D01*
X157640057Y-71101785D02*
X157735295Y-71054166D01*
X157735295Y-71054166D02*
X157878152Y-71054166D01*
X157878152Y-71054166D02*
X157973390Y-71101785D01*
X157973390Y-71101785D02*
X158021009Y-71149404D01*
X158021009Y-71149404D02*
X158068628Y-71244642D01*
X158068628Y-71244642D02*
X158068628Y-71625594D01*
X157640057Y-70673213D02*
X157592438Y-70625594D01*
X157592438Y-70625594D02*
X157544819Y-70530356D01*
X157544819Y-70530356D02*
X157544819Y-70292261D01*
X157544819Y-70292261D02*
X157592438Y-70197023D01*
X157592438Y-70197023D02*
X157640057Y-70149404D01*
X157640057Y-70149404D02*
X157735295Y-70101785D01*
X157735295Y-70101785D02*
X157830533Y-70101785D01*
X157830533Y-70101785D02*
X157973390Y-70149404D01*
X157973390Y-70149404D02*
X158544819Y-70720832D01*
X158544819Y-70720832D02*
X158544819Y-70101785D01*
X169197080Y-71999166D02*
X169244700Y-72046785D01*
X169244700Y-72046785D02*
X169292319Y-72189642D01*
X169292319Y-72189642D02*
X169292319Y-72284880D01*
X169292319Y-72284880D02*
X169244700Y-72427737D01*
X169244700Y-72427737D02*
X169149461Y-72522975D01*
X169149461Y-72522975D02*
X169054223Y-72570594D01*
X169054223Y-72570594D02*
X168863747Y-72618213D01*
X168863747Y-72618213D02*
X168720890Y-72618213D01*
X168720890Y-72618213D02*
X168530414Y-72570594D01*
X168530414Y-72570594D02*
X168435176Y-72522975D01*
X168435176Y-72522975D02*
X168339938Y-72427737D01*
X168339938Y-72427737D02*
X168292319Y-72284880D01*
X168292319Y-72284880D02*
X168292319Y-72189642D01*
X168292319Y-72189642D02*
X168339938Y-72046785D01*
X168339938Y-72046785D02*
X168387557Y-71999166D01*
X169292319Y-71046785D02*
X169292319Y-71618213D01*
X169292319Y-71332499D02*
X168292319Y-71332499D01*
X168292319Y-71332499D02*
X168435176Y-71427737D01*
X168435176Y-71427737D02*
X168530414Y-71522975D01*
X168530414Y-71522975D02*
X168578033Y-71618213D01*
X186238095Y-82904819D02*
X186238095Y-81904819D01*
X186238095Y-82381009D02*
X186809523Y-82381009D01*
X186809523Y-82904819D02*
X186809523Y-81904819D01*
X187714285Y-82238152D02*
X187714285Y-82904819D01*
X187476190Y-81857200D02*
X187238095Y-82571485D01*
X187238095Y-82571485D02*
X187857142Y-82571485D01*
D11*
%TO.C,J2*%
X123440000Y-87320000D02*
X123440000Y-90080000D01*
X128630000Y-87320000D02*
X123440000Y-87320000D01*
X128630000Y-87320000D02*
X128630000Y-90080000D01*
X128630000Y-90080000D02*
X123440000Y-90080000D01*
X129900000Y-87320000D02*
X131280000Y-87320000D01*
X131280000Y-87320000D02*
X131280000Y-88700000D01*
%TO.C,J1*%
X76505000Y-46405000D02*
X85745000Y-46405000D01*
X76505000Y-48725000D02*
X76505000Y-46405000D01*
X76505000Y-56645000D02*
X76505000Y-49325000D01*
X77025000Y-46405000D02*
X77025000Y-56645000D01*
X78125000Y-46405000D02*
X78125000Y-56645000D01*
X85745000Y-46405000D02*
X85745000Y-56645000D01*
X85745000Y-56645000D02*
X76505000Y-56645000D01*
X76505000Y-49025000D02*
X75895000Y-49465000D01*
X75895000Y-48585000D01*
X76505000Y-49025000D01*
G36*
X76505000Y-49025000D02*
G01*
X75895000Y-49465000D01*
X75895000Y-48585000D01*
X76505000Y-49025000D01*
G37*
D12*
%TO.C,RV1*%
X108750000Y-54900000D02*
X108750000Y-60800000D01*
X108750000Y-60800000D02*
X117605000Y-60800000D01*
X110105000Y-54900000D02*
X108750000Y-54900000D01*
X119895000Y-60800000D02*
X121250000Y-60800000D01*
X121250000Y-54900000D02*
X112395000Y-54900000D01*
X121250000Y-60800000D02*
X121250000Y-54900000D01*
D11*
%TO.C,D2*%
X192410000Y-43750000D02*
X186900000Y-43750000D01*
X192410000Y-47050000D02*
X186900000Y-47050000D01*
X192410000Y-47050000D02*
X192410000Y-43750000D01*
%TO.C,R1*%
X161297500Y-70662742D02*
X161297500Y-71137258D01*
X162342500Y-70662742D02*
X162342500Y-71137258D01*
D12*
%TO.C,PS2*%
X137200000Y-37800000D02*
X137200000Y-63200000D01*
X137200000Y-63200000D02*
X182900000Y-63200000D01*
X182900000Y-37800000D02*
X137200000Y-37800000D01*
X182900000Y-63200000D02*
X182900000Y-37800000D01*
D13*
X136650000Y-59750000D02*
G75*
G02*
X136450000Y-59750000I-100000J0D01*
G01*
X136450000Y-59750000D02*
G75*
G02*
X136650000Y-59750000I100000J0D01*
G01*
D11*
%TO.C,U1*%
X176540000Y-66625000D02*
X177780000Y-66625000D01*
X176540000Y-67865000D02*
X176540000Y-66625000D01*
X176780000Y-66865000D02*
X188400000Y-66865000D01*
X176780000Y-75485000D02*
X176780000Y-66865000D01*
X188400000Y-66865000D02*
X188400000Y-75485000D01*
X188400000Y-75485000D02*
X176780000Y-75485000D01*
%TO.C,Q1*%
X151800000Y-79675000D02*
X153610000Y-79675000D01*
X151800000Y-81040000D02*
X151800000Y-79675000D01*
X162200000Y-79675000D02*
X160390000Y-79675000D01*
X162200000Y-81040000D02*
X162200000Y-79675000D01*
X160820000Y-77190000D02*
X160350000Y-76850000D01*
X160820000Y-76510000D01*
X160820000Y-77190000D01*
G36*
X160820000Y-77190000D02*
G01*
X160350000Y-76850000D01*
X160820000Y-76510000D01*
X160820000Y-77190000D01*
G37*
%TO.C,C4*%
X183490000Y-52104437D02*
X183490000Y-57860000D01*
X183490000Y-57860000D02*
X185840000Y-57860000D01*
X184554437Y-51040000D02*
X183490000Y-52104437D01*
X184554437Y-51040000D02*
X185840000Y-51040000D01*
X188747500Y-50012500D02*
X188747500Y-50800000D01*
X189141250Y-50406250D02*
X188353750Y-50406250D01*
X189245563Y-51040000D02*
X187960000Y-51040000D01*
X189245563Y-51040000D02*
X190310000Y-52104437D01*
X190310000Y-52104437D02*
X190310000Y-57860000D01*
X190310000Y-57860000D02*
X187960000Y-57860000D01*
%TO.C,D1*%
X146420000Y-85165000D02*
X145150000Y-85165000D01*
X146710000Y-89685000D02*
X145150000Y-89685000D01*
X146710000Y-89685000D02*
X146710000Y-89445000D01*
X147020000Y-85425000D02*
X146740000Y-85425000D01*
X146740000Y-85145000D01*
X147020000Y-85425000D01*
G36*
X147020000Y-85425000D02*
G01*
X146740000Y-85425000D01*
X146740000Y-85145000D01*
X147020000Y-85425000D01*
G37*
%TO.C,R3*%
X116340000Y-49000000D02*
X118990000Y-49000000D01*
X133780000Y-49000000D02*
X131130000Y-49000000D01*
X118990000Y-46630000D02*
X131130000Y-46630000D01*
X131130000Y-51370000D01*
X118990000Y-51370000D01*
X118990000Y-46630000D01*
%TO.C,F1*%
X88640000Y-44090000D02*
X111360000Y-44090000D01*
X88640000Y-47250000D02*
X88640000Y-44090000D01*
X88640000Y-53910000D02*
X88640000Y-50750000D01*
X88640000Y-53910000D02*
X111360000Y-53910000D01*
X111360000Y-47250000D02*
X111360000Y-44090000D01*
X111360000Y-53910000D02*
X111360000Y-50750000D01*
%TO.C,J3*%
X106450000Y-76005000D02*
X106450000Y-74475000D01*
X106760000Y-73895000D02*
X120180000Y-73895000D01*
X106760000Y-83025000D02*
X106760000Y-73895000D01*
X106760000Y-85685000D02*
X106760000Y-85225000D01*
X120180000Y-73895000D02*
X120180000Y-83025000D01*
X120180000Y-85685000D02*
X120180000Y-85225000D01*
%TO.C,C2*%
X171907500Y-71563748D02*
X171907500Y-72086252D01*
X173377500Y-71563748D02*
X173377500Y-72086252D01*
%TO.C,C5*%
X187588748Y-47765000D02*
X188111252Y-47765000D01*
X187588748Y-49235000D02*
X188111252Y-49235000D01*
%TO.C,L1*%
X171180378Y-68465000D02*
X171979622Y-68465000D01*
X171180378Y-69585000D02*
X171979622Y-69585000D01*
%TO.C,R2*%
X158997500Y-71124758D02*
X158997500Y-70650242D01*
X160042500Y-71124758D02*
X160042500Y-70650242D01*
%TO.C,C1*%
X169782500Y-72093752D02*
X169782500Y-71571248D01*
X171252500Y-72093752D02*
X171252500Y-71571248D01*
%TD*%
M02*
